<svg xmlns="http://www.w3.org/2000/svg" xmlns:xlink="http://www.w3.org/1999/xlink" xmlns:lucid="lucid" width="2737.27" height="1929.15"><g transform="translate(2602 -2969.74525390625)" lucid:page-tab-id="0_0"><path d="M-2600 3020H133.26v1876.9H-2600z" stroke="#000" stroke-width="4" fill-opacity="0"/><path d="M-2600 2971.74h322.82V3008H-2600z" stroke="#000" stroke-width="4"/><use xlink:href="#a" transform="matrix(1,0,0,1,-2592,2979.74525390625) translate(0 16.589501953125)"/><use xlink:href="#b" transform="matrix(1,0,0,1,-2592,2979.74525390625) translate(78.493271484375 16.589501953125)"/><use xlink:href="#c" transform="matrix(1,0,0,1,-2592,2979.74525390625) translate(105.01734375000001 16.589501953125)"/><use xlink:href="#d" transform="matrix(1,0,0,1,-2592,2979.74525390625) translate(174.70740234375 16.589501953125)"/><use xlink:href="#e" transform="matrix(1,0,0,1,-2592,2979.74525390625) translate(199.42505859375 16.589501953125)"/><use xlink:href="#f" transform="matrix(1,0,0,1,-2592,2979.74525390625) translate(245.57449218750003 16.589501953125)"/><path d="M-2519 3113a12 12 0 0 1 12-12h28v323.68h-40zM-2519 3424.7h40v540.24h-40zM-2519 3964.94h40v549h-40z" stroke="#3a414a" stroke-width="2" fill="#fff"/><path d="M-2519 4513.94h40v301.95h-28a12 12 0 0 1-12-12z" stroke="#3a414a" stroke-width="2" fill="#fff"/><path d="M-2479 3101H40.26a12 12 0 0 1 12 12v311.68H-2479zM-2479 3424.7H52.26v540.24H-2479zM-2479 3964.94H52.26v549H-2479z" stroke="#3a414a" stroke-width="2" fill="none"/><path d="M-2479 4513.94H52.26v289.95a12 12 0 0 1-12 12H-2479z" stroke="#3a414a" stroke-width="2" fill="none"/><use xlink:href="#g" transform="matrix(-1.8369701987210297e-16,-1,1,-1.8369701987210297e-16,-2519,3424.684895833333) translate(131.37675292968748 26.089501953125)"/><use xlink:href="#h" transform="matrix(-1.8369701987210297e-16,-1,1,-1.8369701987210297e-16,-2518.9999999999995,3964.9390164180395) translate(235.22175781250002 26.089501953125)"/><use xlink:href="#i" transform="matrix(-1.8369701987210297e-16,-1,1,-1.8369701987210297e-16,-2518.999999999999,4513.943056627229) translate(240.68626953125 26.089501953125)"/><use xlink:href="#j" transform="matrix(-1.8369701987210297e-16,-1,1,-1.8369701987210297e-16,-2518.999999999999,4815.893636402607) translate(58.28835449218748 26.089501953125)"/><use xlink:href="#k" transform="matrix(-1.8369701987210297e-16,-1,1,-1.8369701987210297e-16,-2518.999999999999,4815.893636402607) translate(120.6383154296875 26.089501953125)"/><use xlink:href="#l" transform="matrix(-1.8369701987210297e-16,-1,1,-1.8369701987210297e-16,-2518.999999999999,4815.893636402607) translate(145.3559716796875 26.089501953125)"/><use xlink:href="#m" transform="matrix(-1.8369701987210297e-16,-1,1,-1.8369701987210297e-16,-2518.999999999999,4815.893636402607) translate(200.6682666015625 26.089501953125)"/><path d="M-2298.67 3229.4c18.47 0 33.45 14.97 33.45 33.44s-14.98 33.45-33.45 33.45h-66.9c-18.46 0-33.43-15-33.43-33.46 0-18.47 14.97-33.44 33.44-33.44z" stroke="#1071e5" stroke-width="4" fill="#6db1ff"/><use xlink:href="#n" transform="matrix(1,0,0,1,-2394,3234.3984375) translate(43.130717773437496 34.029375)"/><path d="M-2185.22 3187a6 6 0 0 1 6-6h205.35a6 6 0 0 1 6 6v151.68a6 6 0 0 1-6 6h-205.35a6 6 0 0 1-6-6z" stroke="#1071e5" stroke-width="4" fill="#cfe4ff"/><use xlink:href="#o" transform="matrix(1,0,0,1,-2173.2239583333335,3193) translate(9.249868164062505 64.341875)"/><use xlink:href="#p" transform="matrix(1,0,0,1,-2173.2239583333335,3193) translate(89.3043408203125 64.341875)"/><use xlink:href="#q" transform="matrix(1,0,0,1,-2173.2239583333335,3193) translate(174.99058105468748 64.341875)"/><use xlink:href="#r" transform="matrix(1,0,0,1,-2173.2239583333335,3193) translate(11.477236328125002 84.59662109375)"/><use xlink:href="#s" transform="matrix(1,0,0,1,-2173.2239583333335,3193) translate(52.98393554687501 84.59662109375)"/><use xlink:href="#t" transform="matrix(1,0,0,1,-2173.2239583333335,3193) translate(82.11545898437501 84.59662109375)"/><use xlink:href="#u" transform="matrix(1,0,0,1,-2173.2239583333335,3193) translate(130.390087890625 84.59662109375)"/><path d="M-2163.8 3529.4a6 6 0 0 1 6-6h162.5a6 6 0 0 1 6 6v119.4a6 6 0 0 1-6 6h-162.5a6 6 0 0 1-6-6z" stroke="#1071e5" stroke-width="4" fill="#cfe4ff"/><use xlink:href="#v" transform="matrix(1,0,0,1,-2151.8016991120217,3535.3926852923523) translate(5.8589843749999915 49.966875)"/><use xlink:href="#w" transform="matrix(1,0,0,1,-2151.8016991120217,3535.3926852923523) translate(58.424873046875 49.966875)"/><use xlink:href="#x" transform="matrix(1,0,0,1,-2151.8016991120217,3535.3926852923523) translate(124.85357421875001 49.966875)"/><use xlink:href="#y" transform="matrix(1,0,0,1,-2151.8016991120217,3535.3926852923523) translate(26.81667968749999 70.22162109375)"/><use xlink:href="#z" transform="matrix(1,0,0,1,-2151.8016991120217,3535.3926852923523) translate(81.15628906250001 70.22162109375)"/><path d="M-1793.52 3518.34a8 8 0 0 1 9.6 0l89.56 67.16a4.5 4.5 0 0 1 0 7.2l-89.56 67.17a8 8 0 0 1-9.6 0l-89.55-67.17a4.5 4.5 0 0 1 0-7.2z" stroke="#d916a8" stroke-width="4" fill="#ff80df"/><use xlink:href="#A" transform="matrix(1,0,0,1,-1882.8718835382515,3519.7370863340193) translate(39.34392089843749 77.029375)"/><use xlink:href="#B" transform="matrix(1,0,0,1,-1882.8718835382515,3519.7370863340193) translate(93.9859619140625 77.029375)"/><path d="M-1609.57 3529.4a6 6 0 0 1 6-6h162.5a6 6 0 0 1 6 6v119.4a6 6 0 0 1-6 6h-162.5a6 6 0 0 1-6-6z" stroke="#1071e5" stroke-width="4" fill="#cfe4ff"/><use xlink:href="#C" transform="matrix(1,0,0,1,-1597.5645918715848,3535.3926852923523) translate(29.146220703124996 49.966875)"/><use xlink:href="#D" transform="matrix(1,0,0,1,-1597.5645918715848,3535.3926852923523) translate(77.11841796875001 49.966875)"/><use xlink:href="#E" transform="matrix(1,0,0,1,-1597.5645918715848,3535.3926852923523) translate(13.145952148437487 70.22162109375)"/><use xlink:href="#F" transform="matrix(1,0,0,1,-1597.5645918715848,3535.3926852923523) translate(72.25907714843751 70.22162109375)"/><path d="M-1609.57 3759.52a6 6 0 0 1 6-6h162.5a6 6 0 0 1 6 6v119.42a6 6 0 0 1-6 6h-162.5a6 6 0 0 1-6-6z" stroke="#1071e5" stroke-width="4" fill="#cfe4ff"/><use xlink:href="#G" transform="matrix(1,0,0,1,-1597.5645918715848,3765.519745584705) translate(16.983564453124984 49.966875)"/><use xlink:href="#H" transform="matrix(1,0,0,1,-1597.5645918715848,3765.519745584705) translate(64.260986328125 49.966875)"/><use xlink:href="#I" transform="matrix(1,0,0,1,-1597.5645918715848,3765.519745584705) translate(114.006904296875 49.966875)"/><use xlink:href="#J" transform="matrix(1,0,0,1,-1597.5645918715848,3765.519745584705) translate(9.189819335937486 70.22162109375)"/><use xlink:href="#k" transform="matrix(1,0,0,1,-1597.5645918715848,3765.519745584705) translate(72.6432470703125 70.22162109375)"/><use xlink:href="#K" transform="matrix(1,0,0,1,-1597.5645918715848,3765.519745584705) translate(97.3609033203125 70.22162109375)"/><path d="M-781.24 3529.4a6 6 0 0 1 6-6h162.5a6 6 0 0 1 6 6v119.4a6 6 0 0 1-6 6h-162.5a6 6 0 0 1-6-6z" stroke="#1071e5" stroke-width="4" fill="#cfe4ff"/><use xlink:href="#C" transform="matrix(1,0,0,1,-769.2409352231332,3535.3926852923523) translate(3.4395312499999875 49.966875)"/><use xlink:href="#L" transform="matrix(1,0,0,1,-769.2409352231332,3535.3926852923523) translate(51.41172851562499 49.966875)"/><use xlink:href="#M" transform="matrix(1,0,0,1,-769.2409352231332,3535.3926852923523) translate(100.85521484374999 49.966875)"/><use xlink:href="#s" transform="matrix(1,0,0,1,-769.2409352231332,3535.3926852923523) translate(44.16154296875 70.22162109375)"/><use xlink:href="#N" transform="matrix(1,0,0,1,-769.2409352231332,3535.3926852923523) translate(73.29306640625 70.22162109375)"/><path d="M-251.93 3510.7a6 6 0 0 1 6-6h212.2a6 6 0 0 1 6 6v156.82a6 6 0 0 1-6 6h-212.2a6 6 0 0 1-6-6z" stroke="#1071e5" stroke-width="4" fill="#cfe4ff"/><use xlink:href="#O" transform="matrix(1,0,0,1,-239.92534722222263,3516.6848958333335) translate(8.797822265624987 56.998125)"/><use xlink:href="#P" transform="matrix(1,0,0,1,-239.92534722222263,3516.6848958333335) translate(73.125849609375 56.998125)"/><use xlink:href="#Q" transform="matrix(1,0,0,1,-239.92534722222263,3516.6848958333335) translate(126.468251953125 56.998125)"/><use xlink:href="#R" transform="matrix(1,0,0,1,-239.92534722222263,3516.6848958333335) translate(172.27438476562503 56.998125)"/><use xlink:href="#S" transform="matrix(1,0,0,1,-239.92534722222263,3516.6848958333335) translate(23.75184082031248 77.25287109375)"/><use xlink:href="#T" transform="matrix(1,0,0,1,-239.92534722222263,3516.6848958333335) translate(112.60135253906249 77.25287109375)"/><use xlink:href="#U" transform="matrix(1,0,0,1,-239.92534722222263,3516.6848958333335) translate(127.0690283203125 77.25287109375)"/><use xlink:href="#V" transform="matrix(1,0,0,1,-239.92534722222263,3516.6848958333335) translate(167.2106982421875 77.25287109375)"/><use xlink:href="#W" transform="matrix(1,0,0,1,-239.92534722222263,3516.6848958333335) translate(57.329926757812494 97.5076171875)"/><path d="M-1588.14 4082.36a6 6 0 0 1 6-6h119.66a6 6 0 0 1 6 6v87.15a6 6 0 0 1-6 6h-119.66a6 6 0 0 1-6-6z" stroke="#1071e5" stroke-width="4" fill="#cfe4ff"/><use xlink:href="#X" transform="matrix(1,0,0,1,-1576.1423326502731,4088.3598411779835) translate(24.190048828124997 32.841875)"/><use xlink:href="#Y" transform="matrix(1,0,0,1,-1576.1423326502731,4088.3598411779835) translate(29.613383789062496 53.09662109375)"/><path d="M-1260.7 4055.17a8 8 0 0 1 9.6 0l89.55 67.17a4.5 4.5 0 0 1 0 7.2l-89.55 67.16a8 8 0 0 1-9.6 0l-89.56-67.16a4.5 4.5 0 0 1 0-7.2z" stroke="#d916a8" stroke-width="4" fill="#ff80df"/><use xlink:href="#A" transform="matrix(1,0,0,1,-1350.0570355191257,4056.57142971965) translate(30.581577148437482 77.029375)"/><use xlink:href="#Z" transform="matrix(1,0,0,1,-1350.0570355191257,4056.57142971965) translate(85.2236181640625 77.029375)"/><use xlink:href="#aa" transform="matrix(1,0,0,1,-1350.0570355191257,4056.57142971965) translate(103.3858642578125 77.029375)"/><path d="M-1066.4 4066.23a6 6 0 0 1 6-6h162.5a6 6 0 0 1 6 6v119.42a6 6 0 0 1-6 6h-162.5a6 6 0 0 1-6-6z" stroke="#1071e5" stroke-width="4" fill="#cfe4ff"/><use xlink:href="#ab" transform="matrix(1,0,0,1,-1054.399355362022,4072.2270286779835) translate(0.2435644531250034 49.966875)"/><use xlink:href="#ac" transform="matrix(1,0,0,1,-1054.399355362022,4072.2270286779835) translate(66.4433984375 49.966875)"/><use xlink:href="#ad" transform="matrix(1,0,0,1,-1054.399355362022,4072.2270286779835) translate(102.906845703125 49.966875)"/><use xlink:href="#s" transform="matrix(1,0,0,1,-1054.399355362022,4072.2270286779835) translate(43.58937499999999 70.22162109375)"/><use xlink:href="#ae" transform="matrix(1,0,0,1,-1054.399355362022,4072.2270286779835) translate(72.7208984375 70.22162109375)"/><path d="M-1076.75 4292.93a6 6 0 0 1 6-6h183.2a6 6 0 0 1 6 6v135a6 6 0 0 1-6 6h-183.2a6 6 0 0 1-6-6z" stroke="#1071e5" stroke-width="4" fill="#cfe4ff"/><use xlink:href="#af" transform="matrix(1,0,0,1,-1064.7497438524592,4298.9343117712615) translate(1.429487304687484 58.841875)"/><use xlink:href="#ag" transform="matrix(1,0,0,1,-1064.7497438524592,4298.9343117712615) translate(55.17240722656249 58.841875)"/><use xlink:href="#ah" transform="matrix(1,0,0,1,-1064.7497438524592,4298.9343117712615) translate(151.2802783203125 58.841875)"/><use xlink:href="#ai" transform="matrix(1,0,0,1,-1064.7497438524592,4298.9343117712615) translate(27.540781249999995 79.09662109375)"/><use xlink:href="#aj" transform="matrix(1,0,0,1,-1064.7497438524592,4298.9343117712615) translate(80.03310546875 79.09662109375)"/><path d="M-801.54 4050.94a6 6 0 0 1 6-6h203.1a6 6 0 0 1 6 6v150a6 6 0 0 1-6 6h-203.1a6 6 0 0 1-6-6z" stroke="#1071e5" stroke-width="4" fill="#cfe4ff"/><use xlink:href="#ak" transform="matrix(1,0,0,1,-789.541410519126,4056.9390164180386) translate(8.045522460937491 63.654375)"/><use xlink:href="#al" transform="matrix(1,0,0,1,-789.541410519126,4056.9390164180386) translate(80.9642431640625 63.654375)"/><use xlink:href="#am" transform="matrix(1,0,0,1,-789.541410519126,4056.9390164180386) translate(144.6628857421875 63.654375)"/><use xlink:href="#an" transform="matrix(1,0,0,1,-789.541410519126,4056.9390164180386) translate(25.533427734374996 83.90912109375)"/><use xlink:href="#ao" transform="matrix(1,0,0,1,-789.541410519126,4056.9390164180386) translate(90.727880859375 83.90912109375)"/><use xlink:href="#ap" transform="matrix(1,0,0,1,-789.541410519126,4056.9390164180386) translate(105.99659179687501 83.90912109375)"/><path d="M-506.43 4066.23a6 6 0 0 1 6-6h162.5a6 6 0 0 1 6 6v119.42a6 6 0 0 1-6 6h-162.5a6 6 0 0 1-6-6z" stroke="#1071e5" stroke-width="4" fill="#cfe4ff"/><use xlink:href="#aq" transform="matrix(1,0,0,1,-494.4329035746814,4072.2270286779835) translate(9.390078125000002 60.091875)"/><use xlink:href="#ar" transform="matrix(1,0,0,1,-494.4329035746814,4072.2270286779835) translate(52.04928710937501 60.091875)"/><use xlink:href="#as" transform="matrix(1,0,0,1,-494.4329035746814,4072.2270286779835) translate(104.75413085937501 60.091875)"/><path d="M-216.2 4074.42a6 6 0 0 1 6-6h140.74a6 6 0 0 1 6 6v103.03a6 6 0 0 1-6 6H-210.2a6 6 0 0 1-6-6z" stroke="#1071e5" stroke-width="4" fill="#cfe4ff"/><use xlink:href="#ab" transform="matrix(1,0,0,1,-204.19943576388914,4080.4239379715364) translate(9.719003906249995 42.091875)"/><use xlink:href="#at" transform="matrix(1,0,0,1,-204.19943576388914,4080.4239379715364) translate(75.91883789062499 42.091875)"/><use xlink:href="#au" transform="matrix(1,0,0,1,-204.19943576388914,4080.4239379715364) translate(108.205458984375 42.091875)"/><use xlink:href="#as" transform="matrix(1,0,0,1,-204.19943576388914,4080.4239379715364) translate(46.0721044921875 62.34662109375)"/><path d="M-1609.57 4605.2a6 6 0 0 1 6-6h162.5a6 6 0 0 1 6 6v119.43a6 6 0 0 1-6 6h-162.5a6 6 0 0 1-6-6z" stroke="#1071e5" stroke-width="4" fill="#cfe4ff"/><use xlink:href="#av" transform="matrix(1,0,0,1,-1597.5645918715848,4611.208711098251) translate(26.248598632812495 49.966875)"/><use xlink:href="#aw" transform="matrix(1,0,0,1,-1597.5645918715848,4611.208711098251) translate(91.41035644531249 49.966875)"/><use xlink:href="#V" transform="matrix(1,0,0,1,-1597.5645918715848,4611.208711098251) translate(114.71394042968751 49.966875)"/><use xlink:href="#y" transform="matrix(1,0,0,1,-1597.5645918715848,4611.208711098251) translate(25.087915039062494 70.22162109375)"/><use xlink:href="#ax" transform="matrix(1,0,0,1,-1597.5645918715848,4611.208711098251) translate(79.4275244140625 70.22162109375)"/><path d="M-788.23 4599.94a6 6 0 0 1 6-6h176.5a6 6 0 0 1 6 6v129.95a6 6 0 0 1-6 6h-176.5a6 6 0 0 1-6-6z" stroke="#1071e5" stroke-width="4" fill="#cfe4ff"/><use xlink:href="#ay" transform="matrix(1,0,0,1,-776.2330337830149,4605.943056627229) translate(12.004819335937498 45.716875)"/><use xlink:href="#az" transform="matrix(1,0,0,1,-776.2330337830149,4605.943056627229) translate(63.385502929687505 45.716875)"/><use xlink:href="#aA" transform="matrix(1,0,0,1,-776.2330337830149,4605.943056627229) translate(128.5717822265625 45.716875)"/><use xlink:href="#aB" transform="matrix(1,0,0,1,-776.2330337830149,4605.943056627229) translate(48.431484375 65.97162109375)"/><use xlink:href="#q" transform="matrix(1,0,0,1,-776.2330337830149,4605.943056627229) translate(106.80896484375 65.97162109375)"/><use xlink:href="#aC" transform="matrix(1,0,0,1,-776.2330337830149,4605.943056627229) translate(29.737939453124994 86.2263671875)"/><path d="M-1488.87 3229.4c18.47 0 33.45 14.97 33.45 33.44s-14.98 33.45-33.45 33.45h-66.9c-18.45 0-33.43-15-33.43-33.46 0-18.47 14.98-33.44 33.44-33.44z" stroke="#1071e5" stroke-width="4" fill="#6db1ff"/><use xlink:href="#aD" transform="matrix(1,0,0,1,-1584.1988345286886,3234.3984375) translate(46.8988525390625 34.029375)"/><path d="M-2262.22 3262.84h56.5" stroke="#000" stroke-width="2" fill="none"/><path d="M-2262.2 3263.82h-1.1l.08-.94-.04-1h1.06z" stroke="#000" stroke-width=".05"/><path d="M-2190.46 3262.84l-14.27 4.64v-9.27z" stroke="#000" stroke-width="2"/><path d="M-2076.55 3347.7v155.2" stroke="#000" stroke-width="2" fill="none"/><path d="M-2075.57 3347.7h-1.95v-1h1.95z" stroke="#000" stroke-width=".05"/><path d="M-2076.55 3518.16l-4.63-14.27h9.27z" stroke="#000" stroke-width="2"/><path d="M-1986.3 3589.1h80.92" stroke="#000" stroke-width="2" fill="none"/><path d="M-1986.27 3590.08h-1.02v-1.95h1.03z" stroke="#000" stroke-width=".05"/><path d="M-1890.12 3589.1l-14.26 4.64v-9.27z" stroke="#000" stroke-width="2"/><path d="M-1667.1 3590.08h-22.46v-1.95h22.47zm37.03 0h-4.97v-1.95h4.97z" stroke="#000" stroke-width=".05"/><path d="M-1689.53 3590.08h-1.12l.1-.98-.1-.97h1.12z"/><path stroke="#000" stroke-width=".05"/><path d="M-1614.8 3589.1l-14.27 4.64v-9.27z"/><path d="M-1611.64 3589.1l-18.4 5.98v-11.95zm-16.45 3.3l10.14-3.3-10.13-3.3z" stroke="#000" stroke-width=".05"/><g><use xlink:href="#aE" transform="matrix(1,0,0,1,-1667.0850622274459,3578.974947662144) translate(0 16.216875)"/></g><path d="M-1630.07 3818.25v1.95h-133.22v-1.95zm-157.67-9.15h-1.95v-144.63h1.96z" stroke="#000" stroke-width=".05"/><path d="M-1788.72 3663.47l.98-.06v1.1h-1.95v-1.1z"/><path stroke="#000" stroke-width=".05"/><path d="M-1614.8 3819.23l-14.27 4.63v-9.27z"/><path d="M-1611.64 3819.23l-18.4 5.98v-11.95zm-16.45 3.3l10.14-3.3-10.13-3.3z" stroke="#000" stroke-width=".05"/><g><use xlink:href="#aF" transform="matrix(1,0,0,1,-1792.749476831462,3809.1020079544965) translate(0 16.216875)"/></g><path d="M-1522.3 3520.4v-203.6" stroke="#000" stroke-width="2" fill="none"/><path d="M-1521.34 3521.4h-1.95v-1.03h1.96z" stroke="#000" stroke-width=".05"/><path d="M-1522.3 3301.52l4.62 14.27h-9.27z" stroke="#000" stroke-width="2"/><path d="M-1522.3 3887.94v167.92" stroke="#000" stroke-width="2" fill="none"/><path d="M-1521.34 3887.97h-1.95v-1.03h1.96z" stroke="#000" stroke-width=".05"/><path d="M-1522.3 4071.12l-4.65-14.26h9.27z" stroke="#000" stroke-width="2"/><path d="M-694 3520.4V3274h-742.76" stroke="#000" stroke-width="2" fill="none"/><path d="M-693 3521.4h-1.96v-1.03h1.95z" stroke="#000" stroke-width=".05"/><path d="M-1452.02 3274l14.26-4.64v9.27z" stroke="#000" stroke-width="2"/><path d="M-139.83 3501.7v-250H-1436.8" stroke="#000" stroke-width="2" fill="none"/><path d="M-138.85 3502.7h-1.96v-1.04h1.95z" stroke="#000" stroke-width=".05"/><path d="M-1452.07 3251.7l14.27-4.64v9.27z" stroke="#000" stroke-width="2"/><path d="M-1522.3 4178.5v400.2" stroke="#000" stroke-width="2" fill="none"/><path d="M-1521.34 4178.54h-1.95v-1.03h1.96z" stroke="#000" stroke-width=".05"/><path d="M-1522.3 4593.97l-4.65-14.26h9.27z" stroke="#000" stroke-width="2"/><path d="M-1127.8 4126.9h-28.94v-1.94h28.94zm40.9 0h-11.44v-1.94h11.44z" stroke="#000" stroke-width=".05"/><path d="M-1156.72 4126.9h-1.1l.08-.96-.1-.98h1.12z"/><path stroke="#000" stroke-width=".05"/><path d="M-1071.63 4125.94l-14.27 4.63v-9.27z"/><path d="M-1068.48 4125.94l-18.4 5.97v-11.94zm-16.45 3.3l10.14-3.3-10.13-3.3z" stroke="#000" stroke-width=".05"/><g><use xlink:href="#aF" transform="matrix(1,0,0,1,-1127.7994682052893,4115.809291047775) translate(0 16.216875)"/></g><path d="M-1221.88 4359.46h124.63v1.95h-126.58v-10h1.95zm0-28.3h-1.95V4179h1.95z" stroke="#000" stroke-width=".05"/><path d="M-1221.88 4179.04h-1.95v-.3l1.95-1.46z"/><path stroke="#000" stroke-width=".05"/><path d="M-1082 4360.44l-14.25 4.63v-9.27z"/><path d="M-1078.83 4360.44l-18.4 5.98v-11.96zm-16.45 3.3l10.14-3.3-10.14-3.3z" stroke="#000" stroke-width=".05"/><g><use xlink:href="#aE" transform="matrix(1,0,0,1,-1238.8769644470772,4331.149928820533) translate(0 16.216875)"/></g><path d="M-979.15 4057.23V3589.1h177.4" stroke="#000" stroke-width="2" fill="none"/><path d="M-978.17 4058.23h-1.95v-1.03h1.95z" stroke="#000" stroke-width=".05"/><path d="M-786.48 3589.1l-14.26 4.64v-9.27z" stroke="#000" stroke-width="2"/><path d="M-878.54 4360.44h37v-234.5h19.5" stroke="#000" stroke-width="2" fill="none"/><path d="M-878.52 4361.4h-1.02v-1.94h1.02z" stroke="#000" stroke-width=".05"/><path d="M-806.78 4125.94l-14.26 4.63v-9.27z" stroke="#000" stroke-width="2"/><path d="M-694 4209.93v363.5" stroke="#000" stroke-width="2" fill="none"/><path d="M-693 4209.96h-1.96v-1.03h1.95z" stroke="#000" stroke-width=".05"/><path d="M-694 4588.7l-4.62-14.26h9.27z" stroke="#000" stroke-width="2"/><path d="M-328.93 4125.94h92.23" stroke="#000" stroke-width="2" fill="none"/><path d="M-328.9 4126.9h-1.03v-1.94h1.03z" stroke="#000" stroke-width=".05"/><path d="M-221.44 4125.94l-14.26 4.63v-9.27z" stroke="#000" stroke-width="2"/><path d="M-139.83 4065.42v-371.4" stroke="#000" stroke-width="2" fill="none"/><path d="M-138.85 4066.42h-1.96v-1.02h1.95z" stroke="#000" stroke-width=".05"/><path d="M-139.83 3678.76l4.64 14.26h-9.27z" stroke="#000" stroke-width="2"/><path d="M-1432.06 4664.92h143.1v-468.4" stroke="#000" stroke-width="2" fill="none"/><path d="M-1432.03 4665.9h-1.03v-1.96h1.03z" stroke="#000" stroke-width=".05"/><path d="M-1288.95 4181.25l4.63 14.27h-9.27z" stroke="#000" stroke-width="2"/><path d="M-596.74 4664.92h177.56v-452.77" stroke="#000" stroke-width="2" fill="none"/><path d="M-596.72 4665.9h-1.02v-1.96h1.02z" stroke="#000" stroke-width=".05"/><path d="M-419.18 4196.88l4.64 14.27h-9.27z" stroke="#000" stroke-width="2"/><defs><path fill="#fff" d="M180 0v-1490h510c348 0 508 209 508 474 0 266-160 477-507 477H370V0H180zm190-706h312c236 0 327-133 327-310 0-176-91-307-329-307H370v617" id="aG"/><path fill="#fff" d="M158 0v-1118h174v172h12c41-113 157-188 290-188 26 0 70 2 91 3v181c-11-2-60-10-108-10-161 0-279 109-279 260V0H158" id="aH"/><path fill="#fff" d="M613 24c-304 0-509-231-509-576 0-350 205-580 509-580 305 0 511 230 511 580 0 345-206 576-511 576zm0-161c226 0 329-195 329-415 0-222-103-419-329-419-223 0-326 196-326 419 0 220 103 415 326 415" id="aI"/><path fill="#fff" d="M613 24c-304 0-509-231-509-576 0-350 205-580 509-580 216 0 392 114 453 309l-173 49c-33-115-133-197-280-197-223 0-326 196-326 419 0 220 103 415 326 415 150 0 252-85 285-206l172 49C1010-95 832 24 613 24" id="aJ"/><path fill="#fff" d="M628 24c-324 0-524-230-524-574 0-343 198-582 503-582 237 0 487 146 487 559v75H286c9 234 145 362 343 362 132 0 231-58 273-172l174 48C1024-91 857 24 628 24zM287-650h624c-17-190-120-322-304-322-192 0-309 151-320 322" id="aK"/><path fill="#fff" d="M538 24C308 24 148-78 108-271l171-41c32 123 123 178 257 178 156 0 256-77 256-169 0-77-54-128-164-154l-186-44c-203-48-300-148-300-305 0-192 176-326 414-326 230 0 351 112 402 269l-163 42c-31-80-94-158-238-158-133 0-233 69-233 162 0 83 57 129 188 160l169 40c203 48 298 149 298 302 0 196-179 339-441 339" id="aL"/><g id="a"><use transform="matrix(0.008173828125000001,0,0,0.008173828125000001,0,0)" xlink:href="#aG"/><use transform="matrix(0.008173828125000001,0,0,0.008173828125000001,10.691367187500001,0)" xlink:href="#aH"/><use transform="matrix(0.008173828125000001,0,0,0.008173828125000001,16.715478515625,0)" xlink:href="#aI"/><use transform="matrix(0.008173828125000001,0,0,0.008173828125000001,26.752939453125002,0)" xlink:href="#aJ"/><use transform="matrix(0.008173828125000001,0,0,0.008173828125000001,36.316318359375,0)" xlink:href="#aK"/><use transform="matrix(0.008173828125000001,0,0,0.008173828125000001,46.075869140625,0)" xlink:href="#aL"/><use transform="matrix(0.008173828125000001,0,0,0.008173828125000001,54.91177734375,0)" xlink:href="#aL"/><use transform="matrix(0.008173828125000001,0,0,0.008173828125000001,63.747685546875005,0)" xlink:href="#aI"/></g><path fill="#fff" d="M653-1490V0H466v-1314h-10L96-1047v-204l324-239h233" id="aM"/><path fill="#fff" d="M295 13c-75 0-135-60-135-135s60-135 135-135 135 60 135 135S370 13 295 13" id="aN"/><path fill="#fff" d="M295 13c-75 0-135-60-135-135s60-135 135-135 135 60 135 135S370 13 295 13zm0-809c-75 0-135-60-135-135s60-135 135-135 135 60 135 135-60 135-135 135" id="aO"/><g id="b"><use transform="matrix(0.008173828125000001,0,0,0.008173828125000001,0,0)" xlink:href="#aM"/><use transform="matrix(0.008173828125000001,0,0,0.008173828125000001,6.808798828125001,0)" xlink:href="#aN"/><use transform="matrix(0.008173828125000001,0,0,0.008173828125000001,10.18458984375,0)" xlink:href="#aM"/><use transform="matrix(0.008173828125000001,0,0,0.008173828125000001,16.993388671875003,0)" xlink:href="#aO"/></g><path fill="#fff" d="M180 0v-1490h510c348 0 508 194 508 460 0 198-88 351-276 417L1256 0h-220L726-579c-117 2-238 0-356 1V0H180zm190-747h312c235 0 327-108 327-283 0-177-92-293-329-293H370v576" id="aP"/><path fill="#fff" d="M611 442c-248 0-391-105-460-228l146-94c47 65 117 165 314 165 178 0 307-82 307-266v-224h-17C863-141 792-18 576-18c-268 0-472-195-472-546 0-346 197-568 476-568 216 0 288 133 326 193h17v-179h175V29c0 289-215 413-487 413zm-5-620c203 0 314-146 314-390 0-237-108-403-314-403-213 0-319 180-319 403 0 230 109 390 319 390" id="aQ"/><path fill="#fff" d="M158 0v-1118h180V0H158zm91-1301c-68 0-125-53-125-119s57-119 125-119c69 0 126 53 126 119s-57 119-126 119" id="aR"/><path fill="#fff" d="M598-1118v154H368v674c0 100 37 144 132 144 23 0 62-6 92-12L629-6c-37 13-88 20-134 20-193 0-307-107-307-290v-688H20v-154h168v-266h180v266h230" id="aS"/><g id="c"><use transform="matrix(0.008173828125000001,0,0,0.008173828125000001,0,0)" xlink:href="#aP"/><use transform="matrix(0.008173828125000001,0,0,0.008173828125000001,10.527890625000001,0)" xlink:href="#aK"/><use transform="matrix(0.008173828125000001,0,0,0.008173828125000001,20.287441406250004,0)" xlink:href="#aQ"/><use transform="matrix(0.008173828125000001,0,0,0.008173828125000001,30.553769531250005,0)" xlink:href="#aR"/><use transform="matrix(0.008173828125000001,0,0,0.008173828125000001,34.60798828125,0)" xlink:href="#aL"/><use transform="matrix(0.008173828125000001,0,0,0.008173828125000001,43.443896484375,0)" xlink:href="#aS"/><use transform="matrix(0.008173828125000001,0,0,0.008173828125000001,48.920361328125004,0)" xlink:href="#aH"/><use transform="matrix(0.008173828125000001,0,0,0.008173828125000001,54.94447265625,0)" xlink:href="#aI"/></g><path fill="#fff" d="M577 24c-279 0-473-224-473-580 0-354 195-576 474-576 218 0 287 134 324 193h14v-551h180V0H922v-173h-20C865-111 790 24 577 24zm27-161c203 0 314-172 314-421 0-247-108-413-314-413-212 0-317 181-317 413 0 235 108 421 317 421" id="aT"/><g id="d"><use transform="matrix(0.008173828125000001,0,0,0.008173828125000001,0,0)" xlink:href="#aT"/><use transform="matrix(0.008173828125000001,0,0,0.008173828125000001,10.249980468750001,0)" xlink:href="#aK"/></g><path fill="#fff" d="M180 0v-1490h224l606 953c40 63 108 177 176 312-27-437-7-821-13-1265h190V0h-226C860-448 622-778 356-1262c27 476 11 792 15 1262H180" id="aU"/><path fill="#fff" d="M481 0L54-1118h197c107 314 236 620 325 951 87-331 217-637 324-951h197L670 0H481" id="aV"/><g id="e"><use transform="matrix(0.008173828125000001,0,0,0.008173828125000001,0,0)" xlink:href="#aU"/><use transform="matrix(0.008173828125000001,0,0,0.008173828125000001,12.612216796875002,0)" xlink:href="#aI"/><use transform="matrix(0.008173828125000001,0,0,0.008173828125000001,22.322724609375,0)" xlink:href="#aV"/><use transform="matrix(0.008173828125000001,0,0,0.008173828125000001,31.40384765625,0)" xlink:href="#aI"/></g><path fill="#fff" d="M763 24c-353 0-583-224-583-531v-983h190v968c0 214 149 370 393 370 243 0 391-156 391-370v-968h190v983c0 307-230 531-581 531" id="aW"/><path fill="#fff" d="M537 14c-226 0-379-139-379-422v-710h180v695c0 172 97 275 253 275 160 0 281-109 281-300v-670h181V0H879v-209C806-46 684 14 537 14" id="aX"/><path fill="#fff" d="M471 26C259 26 90-98 90-318c0-256 228-303 435-329 202-27 287-16 287-108 0-139-79-219-234-219-161 0-248 86-283 164l-173-57c86-203 278-265 451-265 150 0 419 46 419 395V0H815v-152h-12C765-73 660 26 471 26zm31-159c199 0 310-134 310-271v-155c-30 35-226 55-295 64-131 17-246 59-246 186 0 116 97 176 231 176zm-23-1131l140-294h201l-194 294H479" id="aY"/><g id="f"><use transform="matrix(0.008173828125000001,0,0,0.008173828125000001,0,0)" xlink:href="#aW"/><use transform="matrix(0.008173828125000001,0,0,0.008173828125000001,12.456914062500001,0)" xlink:href="#aL"/><use transform="matrix(0.008173828125000001,0,0,0.008173828125000001,21.292822265625002,0)" xlink:href="#aX"/><use transform="matrix(0.008173828125000001,0,0,0.008173828125000001,31.191328125000005,0)" xlink:href="#aY"/><use transform="matrix(0.008173828125000001,0,0,0.008173828125000001,40.591230468750005,0)" xlink:href="#aH"/><use transform="matrix(0.008173828125000001,0,0,0.008173828125000001,47.154814453125,0)" xlink:href="#aR"/><use transform="matrix(0.008173828125000001,0,0,0.008173828125000001,51.209033203125,0)" xlink:href="#aI"/></g><path d="M763 24c-353 0-583-224-583-531v-983h190v968c0 214 149 370 393 370 243 0 391-156 391-370v-968h190v983c0 307-230 531-581 531" id="aZ"/><path d="M538 24C308 24 148-78 108-271l171-41c32 123 123 178 257 178 156 0 256-77 256-169 0-77-54-128-164-154l-186-44c-203-48-300-148-300-305 0-192 176-326 414-326 230 0 351 112 402 269l-163 42c-31-80-94-158-238-158-133 0-233 69-233 162 0 83 57 129 188 160l169 40c203 48 298 149 298 302 0 196-179 339-441 339" id="ba"/><path d="M537 14c-226 0-379-139-379-422v-710h180v695c0 172 97 275 253 275 160 0 281-109 281-300v-670h181V0H879v-209C806-46 684 14 537 14" id="bb"/><path d="M471 26C259 26 90-98 90-318c0-256 228-303 435-329 202-27 287-16 287-108 0-139-79-219-234-219-161 0-248 86-283 164l-173-57c86-203 278-265 451-265 150 0 419 46 419 395V0H815v-152h-12C765-73 660 26 471 26zm31-159c199 0 310-134 310-271v-155c-30 35-226 55-295 64-131 17-246 59-246 186 0 116 97 176 231 176zm-23-1131l140-294h201l-194 294H479" id="bc"/><path d="M158 0v-1118h174v172h12c41-113 157-188 290-188 26 0 70 2 91 3v181c-11-2-60-10-108-10-161 0-279 109-279 260V0H158" id="bd"/><path d="M158 0v-1118h180V0H158zm91-1301c-68 0-125-53-125-119s57-119 125-119c69 0 126 53 126 119s-57 119-126 119" id="be"/><path d="M613 24c-304 0-509-231-509-576 0-350 205-580 509-580 305 0 511 230 511 580 0 345-206 576-511 576zm0-161c226 0 329-195 329-415 0-222-103-419-329-419-223 0-326 196-326 419 0 220 103 415 326 415" id="bf"/><g id="g"><use transform="matrix(0.008173828125000001,0,0,0.008173828125000001,0,0)" xlink:href="#aZ"/><use transform="matrix(0.008173828125000001,0,0,0.008173828125000001,12.456914062500001,0)" xlink:href="#ba"/><use transform="matrix(0.008173828125000001,0,0,0.008173828125000001,21.292822265625002,0)" xlink:href="#bb"/><use transform="matrix(0.008173828125000001,0,0,0.008173828125000001,31.191328125000005,0)" xlink:href="#bc"/><use transform="matrix(0.008173828125000001,0,0,0.008173828125000001,40.591230468750005,0)" xlink:href="#bd"/><use transform="matrix(0.008173828125000001,0,0,0.008173828125000001,47.154814453125,0)" xlink:href="#be"/><use transform="matrix(0.008173828125000001,0,0,0.008173828125000001,51.209033203125,0)" xlink:href="#bf"/></g><path d="M180 0v-1490h901v168H370v510h643v168H370V0H180" id="bg"/><path d="M338-670V0H158v-1118h173l1 207c72-158 192-221 342-221 226 0 378 139 378 422V0H872v-695c0-172-96-275-252-275-161 0-282 109-282 300" id="bh"/><path d="M598-1118v154H368v674c0 100 37 144 132 144 23 0 62-6 92-12L629-6c-37 13-88 20-134 20-193 0-307-107-307-290v-688H20v-154h168v-266h180v266h230" id="bi"/><path d="M628 24c-324 0-524-230-524-574 0-343 198-582 503-582 237 0 487 146 487 559v75H286c9 234 145 362 343 362 132 0 231-58 273-172l174 48C1024-91 857 24 628 24zM287-650h624c-17-190-120-322-304-322-192 0-309 151-320 322" id="bj"/><path d="M577 24c-279 0-473-224-473-580 0-354 195-576 474-576 218 0 287 134 324 193h14v-551h180V0H922v-173h-20C865-111 790 24 577 24zm27-161c203 0 314-172 314-421 0-247-108-413-314-413-212 0-317 181-317 413 0 235 108 421 317 421" id="bk"/><g id="h"><use transform="matrix(0.008173828125000001,0,0,0.008173828125000001,0,0)" xlink:href="#bg"/><use transform="matrix(0.008173828125000001,0,0,0.008173828125000001,9.391728515625001,0)" xlink:href="#bd"/><use transform="matrix(0.008173828125000001,0,0,0.008173828125000001,15.415839843750001,0)" xlink:href="#bf"/><use transform="matrix(0.008173828125000001,0,0,0.008173828125000001,25.45330078125,0)" xlink:href="#bh"/><use transform="matrix(0.008173828125000001,0,0,0.008173828125000001,35.343632812500005,0)" xlink:href="#bi"/><use transform="matrix(0.008173828125000001,0,0,0.008173828125000001,40.656621093750005,0)" xlink:href="#bj"/><use transform="matrix(0.008173828125000001,0,0,0.008173828125000001,50.416171875,0)" xlink:href="#bh"/><use transform="matrix(0.008173828125000001,0,0,0.008173828125000001,60.30650390625,0)" xlink:href="#bk"/></g><path d="M180 0v-1490h528c311 0 458 177 458 395 0 191-114 278-244 313v14c139 9 302 137 302 371 0 225-148 397-499 397H180zm190-168h350c232 0 321-102 321-231 0-149-120-277-311-277H370v508zm0-668h328c160 0 286-101 286-255 0-129-87-231-280-231H370v486" id="bl"/><path d="M471 26C259 26 90-98 90-318c0-256 228-303 435-329 202-27 287-16 287-108 0-139-79-219-234-219-161 0-248 86-283 164l-173-57c86-203 278-265 451-265 150 0 419 46 419 395V0H815v-152h-12C765-73 660 26 471 26zm31-159c199 0 310-134 310-271v-155c-30 35-226 55-295 64-131 17-246 59-246 186 0 116 97 176 231 176" id="bm"/><path d="M613 24c-304 0-509-231-509-576 0-350 205-580 509-580 216 0 392 114 453 309l-173 49c-33-115-133-197-280-197-223 0-326 196-326 419 0 220 103 415 326 415 150 0 252-85 285-206l172 49C1010-95 832 24 613 24" id="bn"/><path d="M158 0v-1490h180v865h22l478-493h223L593-638 1096 0H865L456-523 338-412V0H158" id="bo"/><g id="i"><use transform="matrix(0.008173828125000001,0,0,0.008173828125000001,0,0)" xlink:href="#bl"/><use transform="matrix(0.008173828125000001,0,0,0.008173828125000001,10.952929687500001,0)" xlink:href="#bm"/><use transform="matrix(0.008173828125000001,0,0,0.008173828125000001,20.352832031250003,0)" xlink:href="#bn"/><use transform="matrix(0.008173828125000001,0,0,0.008173828125000001,29.916210937500004,0)" xlink:href="#bo"/><use transform="matrix(0.008173828125000001,0,0,0.008173828125000001,38.727597656250005,0)" xlink:href="#bj"/><use transform="matrix(0.008173828125000001,0,0,0.008173828125000001,48.487148437500004,0)" xlink:href="#bh"/><use transform="matrix(0.008173828125000001,0,0,0.008173828125000001,58.37748046875001,0)" xlink:href="#bk"/></g><path d="M232-923l-22-567h194l-22 567H232zm340 0l-22-567h194l-22 567H572" id="bp"/><g id="j"><use transform="matrix(0.008173828125000001,0,0,0.008173828125000001,0,0)" xlink:href="#bp"/><use transform="matrix(0.008173828125000001,0,0,0.008173828125000001,7.797832031250001,0)" xlink:href="#bl"/><use transform="matrix(0.008173828125000001,0,0,0.008173828125000001,18.750761718750002,0)" xlink:href="#bm"/><use transform="matrix(0.008173828125000001,0,0,0.008173828125000001,28.150664062500006,0)" xlink:href="#bh"/><use transform="matrix(0.008173828125000001,0,0,0.008173828125000001,38.04099609375001,0)" xlink:href="#bn"/><use transform="matrix(0.008173828125000001,0,0,0.008173828125000001,47.60437500000001,0)" xlink:href="#bf"/></g><g id="k"><use transform="matrix(0.008173828125000001,0,0,0.008173828125000001,0,0)" xlink:href="#bk"/><use transform="matrix(0.008173828125000001,0,0,0.008173828125000001,10.249980468750001,0)" xlink:href="#bj"/></g><path d="M645 0H180v-1490h484c435 0 692 280 692 742 0 466-257 748-711 748zM370-168h263c363 0 539-218 539-580 0-358-176-574-521-574H370v1154" id="bq"/><g id="l"><use transform="matrix(0.008173828125000001,0,0,0.008173828125000001,0,0)" xlink:href="#bq"/><use transform="matrix(0.008173828125000001,0,0,0.008173828125000001,12.08091796875,0)" xlink:href="#bm"/><use transform="matrix(0.008173828125000001,0,0,0.008173828125000001,21.4808203125,0)" xlink:href="#bk"/><use transform="matrix(0.008173828125000001,0,0,0.008173828125000001,31.730800781250004,0)" xlink:href="#bf"/><use transform="matrix(0.008173828125000001,0,0,0.008173828125000001,41.768261718750004,0)" xlink:href="#ba"/></g><path d="M218-607c0-325 108-727 258-974h175c-155 315-250 682-250 974 0 265 78 531 250 886H476C306-10 218-315 218-607" id="br"/><path d="M96 279C273-86 346-350 346-607c0-292-95-659-250-974h175c150 246 258 650 258 974 0 297-91 602-258 886H96" id="bs"/><g id="m"><use transform="matrix(0.008173828125000001,0,0,0.008173828125000001,0,0)" xlink:href="#br"/><use transform="matrix(0.008173828125000001,0,0,0.008173828125000001,6.105849609375,0)" xlink:href="#bq"/><use transform="matrix(0.008173828125000001,0,0,0.008173828125000001,18.186767578125,0)" xlink:href="#bl"/><use transform="matrix(0.008173828125000001,0,0,0.008173828125000001,29.139697265625003,0)" xlink:href="#bs"/><use transform="matrix(0.008173828125000001,0,0,0.008173828125000001,35.245546875,0)" xlink:href="#bp"/></g><path d="M657 26c-323 0-524-166-541-416h195c15 169 171 246 346 246 202 0 356-106 356-265 5-203-294-238-475-293-239-73-380-191-380-389 0-252 224-419 512-419 294 0 499 171 508 396H992c-17-145-151-228-328-228-193 0-321 102-321 242 0 156 175 211 284 241l149 41c160 44 422 134 422 412 0 244-197 432-541 432" id="bt"/><g id="n"><use transform="matrix(0.008173828125000001,0,0,0.008173828125000001,0,0)" xlink:href="#bt"/><use transform="matrix(0.008173828125000001,0,0,0.008173828125000001,10.740410156250002,0)" xlink:href="#bi"/><use transform="matrix(0.008173828125000001,0,0,0.008173828125000001,16.298613281250002,0)" xlink:href="#bm"/><use transform="matrix(0.008173828125000001,0,0,0.008173828125000001,25.698515625000006,0)" xlink:href="#bd"/><use transform="matrix(0.008173828125000001,0,0,0.008173828125000001,32.26209960937501,0)" xlink:href="#bi"/></g><path d="M180 0v-1490h510c348 0 508 209 508 474 0 266-160 477-507 477H370V0H180zm190-706h312c236 0 327-133 327-310 0-176-91-307-329-307H370v617" id="bu"/><path d="M338-670V0H158v-1490h180v566c73-149 190-208 336-208 226 0 379 139 379 422V0H872v-695c0-172-96-275-252-275-161 0-282 109-282 300" id="bv"/><g id="o"><use transform="matrix(0.008173828125000001,0,0,0.008173828125000001,0,0)" xlink:href="#bu"/><use transform="matrix(0.008173828125000001,0,0,0.008173828125000001,10.691367187500001,0)" xlink:href="#bd"/><use transform="matrix(0.008173828125000001,0,0,0.008173828125000001,16.715478515625,0)" xlink:href="#bj"/><use transform="matrix(0.008173828125000001,0,0,0.008173828125000001,26.475029296875,0)" xlink:href="#bj"/><use transform="matrix(0.008173828125000001,0,0,0.008173828125000001,36.234580078125,0)" xlink:href="#bh"/><use transform="matrix(0.008173828125000001,0,0,0.008173828125000001,46.124912109375,0)" xlink:href="#bn"/><use transform="matrix(0.008173828125000001,0,0,0.008173828125000001,55.688291015625005,0)" xlink:href="#bv"/><use transform="matrix(0.008173828125000001,0,0,0.008173828125000001,65.586796875,0)" xlink:href="#bj"/></g><path d="M678-1118v154H420V0H240v-964H20v-154h220v-149c0-194 155-293 318-293 85 0 141 18 168 30l-50 154c-19-6-47-17-97-17-111 0-159 58-159 166v109h258" id="bw"/><path d="M158 0v-1118h175l1 205c55-151 181-225 313-225 147 0 245 90 285 228 53-141 190-228 352-228 194 0 352 125 352 384V0h-181v-749c0-161-105-225-225-225-151 0-243 103-243 244V0H807v-767c0-124-93-207-219-207-131 0-250 92-250 270V0H158" id="bx"/><path d="M338-1490V0H158v-1490h180" id="by"/><g id="p"><use transform="matrix(0.008173828125000001,0,0,0.008173828125000001,0,0)" xlink:href="#bw"/><use transform="matrix(0.008173828125000001,0,0,0.008173828125000001,5.705332031250001,0)" xlink:href="#bf"/><use transform="matrix(0.008173828125000001,0,0,0.008173828125000001,15.742792968750003,0)" xlink:href="#bd"/><use transform="matrix(0.008173828125000001,0,0,0.008173828125000001,22.306376953125003,0)" xlink:href="#bx"/><use transform="matrix(0.008173828125000001,0,0,0.008173828125000001,36.97022460937501,0)" xlink:href="#bb"/><use transform="matrix(0.008173828125000001,0,0,0.008173828125000001,46.86873046875001,0)" xlink:href="#by"/><use transform="matrix(0.008173828125000001,0,0,0.008173828125000001,50.922949218750006,0)" xlink:href="#bc"/><use transform="matrix(0.008173828125000001,0,0,0.008173828125000001,60.322851562500006,0)" xlink:href="#bd"/><use transform="matrix(0.008173828125000001,0,0,0.008173828125000001,66.886435546875,0)" xlink:href="#be"/><use transform="matrix(0.008173828125000001,0,0,0.008173828125000001,70.94065429687501,0)" xlink:href="#bf"/></g><use transform="matrix(0.008173828125000001,0,0,0.008173828125000001,0,0)" xlink:href="#bj" id="q"/><g id="r"><use transform="matrix(0.008173828125000001,0,0,0.008173828125000001,0,0)" xlink:href="#bn"/><use transform="matrix(0.008173828125000001,0,0,0.008173828125000001,9.563378906250001,0)" xlink:href="#by"/><use transform="matrix(0.008173828125000001,0,0,0.008173828125000001,13.617597656250002,0)" xlink:href="#be"/><use transform="matrix(0.008173828125000001,0,0,0.008173828125000001,17.671816406250002,0)" xlink:href="#bn"/><use transform="matrix(0.008173828125000001,0,0,0.008173828125000001,27.39867187500001,0)" xlink:href="#bm"/></g><g id="s"><use transform="matrix(0.008173828125000001,0,0,0.008173828125000001,0,0)" xlink:href="#bj"/><use transform="matrix(0.008173828125000001,0,0,0.008173828125000001,9.75955078125,0)" xlink:href="#bx"/></g><path d="M232-923l-22-567h194l-22 567H232" id="bz"/><path d="M783 20c-382 0-661-292-661-764 0-473 279-766 661-766 302 0 548 182 601 489h-190c-42-204-217-313-411-313-268 0-476 208-476 590 0 381 209 588 476 588 195 0 369-110 411-313h190c-52 303-296 489-601 489" id="bA"/><g id="t"><use transform="matrix(0.008173828125000001,0,0,0.008173828125000001,0,0)" xlink:href="#bz"/><use transform="matrix(0.008173828125000001,0,0,0.008173828125000001,5.01873046875,0)" xlink:href="#bA"/><use transform="matrix(0.008173828125000001,0,0,0.008173828125000001,17.246777343750004,0)" xlink:href="#bd"/><use transform="matrix(0.008173828125000001,0,0,0.008173828125000001,23.810361328125005,0)" xlink:href="#be"/><use transform="matrix(0.008173828125000001,0,0,0.008173828125000001,27.864580078125005,0)" xlink:href="#bm"/><use transform="matrix(0.008173828125000001,0,0,0.008173828125000001,37.26448242187501,0)" xlink:href="#bd"/></g><g id="u"><use transform="matrix(0.008173828125000001,0,0,0.008173828125000001,0,0)" xlink:href="#bA"/><use transform="matrix(0.008173828125000001,0,0,0.008173828125000001,12.228046875000002,0)" xlink:href="#bf"/><use transform="matrix(0.008173828125000001,0,0,0.008173828125000001,22.265507812500008,0)" xlink:href="#bh"/><use transform="matrix(0.008173828125000001,0,0,0.008173828125000001,32.15583984375,0)" xlink:href="#bi"/><use transform="matrix(0.008173828125000001,0,0,0.008173828125000001,37.71404296875,0)" xlink:href="#bm"/><use transform="matrix(0.008173828125000001,0,0,0.008173828125000001,47.1139453125,0)" xlink:href="#bz"/></g><path d="M600 0L52-1490h200c166 485 304 806 458 1336 156-533 285-846 449-1336h202L819 0H600" id="bB"/><g id="v"><use transform="matrix(0.008173828125000001,0,0,0.008173828125000001,0,0)" xlink:href="#bB"/><use transform="matrix(0.008173828125000001,0,0,0.008173828125000001,10.699541015625002,0)" xlink:href="#bm"/><use transform="matrix(0.008173828125000001,0,0,0.008173828125000001,20.099443359375,0)" xlink:href="#by"/><use transform="matrix(0.008173828125000001,0,0,0.008173828125000001,24.153662109375002,0)" xlink:href="#be"/><use transform="matrix(0.008173828125000001,0,0,0.008173828125000001,28.207880859375003,0)" xlink:href="#bk"/><use transform="matrix(0.008173828125000001,0,0,0.008173828125000001,38.457861328125006,0)" xlink:href="#bm"/></g><g id="w"><use transform="matrix(0.008173828125000001,0,0,0.008173828125000001,0,0)" xlink:href="#bw"/><use transform="matrix(0.008173828125000001,0,0,0.008173828125000001,5.705332031250001,0)" xlink:href="#bf"/><use transform="matrix(0.008173828125000001,0,0,0.008173828125000001,15.742792968750003,0)" xlink:href="#bd"/><use transform="matrix(0.008173828125000001,0,0,0.008173828125000001,22.306376953125003,0)" xlink:href="#bx"/><use transform="matrix(0.008173828125000001,0,0,0.008173828125000001,36.97022460937501,0)" xlink:href="#bm"/><use transform="matrix(0.008173828125000001,0,0,0.008173828125000001,46.370126953125,0)" xlink:href="#bi"/><use transform="matrix(0.008173828125000001,0,0,0.008173828125000001,51.68311523437501,0)" xlink:href="#bf"/></g><g id="x"><use transform="matrix(0.008173828125000001,0,0,0.008173828125000001,0,0)" xlink:href="#bk"/><use transform="matrix(0.008173828125000001,0,0,0.008173828125000001,10.249980468750001,0)" xlink:href="#bf"/></g><path d="M798-719v166H144v-166h654" id="bC"/><g id="y"><use transform="matrix(0.008173828125000001,0,0,0.008173828125000001,0,0)" xlink:href="#bj"/><use transform="matrix(0.008173828125000001,0,0,0.008173828125000001,9.75955078125,0)" xlink:href="#bC"/><use transform="matrix(0.008173828125000001,0,0,0.008173828125000001,17.459296875,0)" xlink:href="#bx"/><use transform="matrix(0.008173828125000001,0,0,0.008173828125000001,32.123144531250006,0)" xlink:href="#bm"/><use transform="matrix(0.008173828125000001,0,0,0.008173828125000001,41.523046875000006,0)" xlink:href="#be"/><use transform="matrix(0.008173828125000001,0,0,0.008173828125000001,45.57726562500001,0)" xlink:href="#by"/></g><path d="M130 0v-134l666-991c45-67 96-135 147-202-269 9-546 3-821 5v-168h1036v136L502-379c-49 72-103 145-157 216 268-9 546-3 821-5V0H130" id="bD"/><g id="z"><use transform="matrix(0.008173828125000001,0,0,0.008173828125000001,0,0)" xlink:href="#br"/><use transform="matrix(0.008173828125000001,0,0,0.008173828125000001,6.105849609375,0)" xlink:href="#bD"/><use transform="matrix(0.008173828125000001,0,0,0.008173828125000001,16.633740234375,0)" xlink:href="#bf"/><use transform="matrix(0.008173828125000001,0,0,0.008173828125000001,26.671201171874998,0)" xlink:href="#bk"/><use transform="matrix(0.008173828125000001,0,0,0.008173828125000001,36.921181640625,0)" xlink:href="#bs"/></g><path d="M180 0v-1490h908v168H370v486h669v168H370v500h727V0H180" id="bE"/><g id="A"><use transform="matrix(0.008173828125000001,0,0,0.008173828125000001,0,0)" xlink:href="#bE"/><use transform="matrix(0.008173828125000001,0,0,0.008173828125000001,10.061982421875001,0)" xlink:href="#bC"/><use transform="matrix(0.008173828125000001,0,0,0.008173828125000001,17.761728515625002,0)" xlink:href="#bx"/><use transform="matrix(0.008173828125000001,0,0,0.008173828125000001,32.42557617187501,0)" xlink:href="#bm"/><use transform="matrix(0.008173828125000001,0,0,0.008173828125000001,41.82547851562501,0)" xlink:href="#be"/><use transform="matrix(0.008173828125000001,0,0,0.008173828125000001,45.87969726562501,0)" xlink:href="#by"/></g><path d="M481 0L54-1118h197c107 314 236 620 325 951 87-331 217-637 324-951h197L670 0H481" id="bF"/><path d="M383-449c-3-277 82-343 222-425 88-53 156-134 156-250 0-139-108-227-243-227-118 0-235 70-246 236H82c10-251 200-395 436-395 259 0 427 165 427 393 0 161-74 273-203 352-132 80-180 132-178 316H383zm93 462c-75 0-135-60-135-134 0-75 60-135 135-135 74 0 134 60 134 135 0 74-60 134-134 134" id="bG"/><g id="B"><use transform="matrix(0.008173828125000001,0,0,0.008173828125000001,0,0)" xlink:href="#bF"/><use transform="matrix(0.008173828125000001,0,0,0.008173828125000001,9.326337890625,0)" xlink:href="#bc"/><use transform="matrix(0.008173828125000001,0,0,0.008173828125000001,18.726240234375002,0)" xlink:href="#by"/><use transform="matrix(0.008173828125000001,0,0,0.008173828125000001,22.780458984375002,0)" xlink:href="#be"/><use transform="matrix(0.008173828125000001,0,0,0.008173828125000001,26.834677734375003,0)" xlink:href="#bk"/><use transform="matrix(0.008173828125000001,0,0,0.008173828125000001,37.084658203125,0)" xlink:href="#bf"/><use transform="matrix(0.008173828125000001,0,0,0.008173828125000001,47.122119140625,0)" xlink:href="#bG"/></g><path d="M65 0l393-574-370-544h210c88 136 192 297 267 435 67-142 176-302 264-435h206L661-564 1053 0H844c-94-144-206-310-287-458C484-308 366-142 273 0H65" id="bH"/><path d="M677 24c-213 0-288-135-325-197h-20V0H158v-1490h180v551h14c37-59 106-193 324-193 279 0 474 222 474 576 0 356-194 580-473 580zm-27-161c209 0 317-186 317-421 0-232-105-413-317-413-206 0-314 166-314 413 0 249 111 421 314 421" id="bI"/><g id="C"><use transform="matrix(0.008173828125000001,0,0,0.008173828125000001,0,0)" xlink:href="#bE"/><use transform="matrix(0.008173828125000001,0,0,0.008173828125000001,10.061982421875001,0)" xlink:href="#bH"/><use transform="matrix(0.008173828125000001,0,0,0.008173828125000001,19.200322265625005,0)" xlink:href="#be"/><use transform="matrix(0.008173828125000001,0,0,0.008173828125000001,23.254541015625005,0)" xlink:href="#bI"/><use transform="matrix(0.008173828125000001,0,0,0.008173828125000001,33.504521484375005,0)" xlink:href="#bj"/></g><g id="D"><use transform="matrix(0.008173828125000001,0,0,0.008173828125000001,0,0)" xlink:href="#bm"/><use transform="matrix(0.008173828125000001,0,0,0.008173828125000001,9.399902343750002,0)" xlink:href="#by"/><use transform="matrix(0.008173828125000001,0,0,0.008173828125000001,13.454121093750002,0)" xlink:href="#bj"/><use transform="matrix(0.008173828125000001,0,0,0.008173828125000001,23.213671875000003,0)" xlink:href="#bd"/><use transform="matrix(0.008173828125000001,0,0,0.008173828125000001,29.777255859375003,0)" xlink:href="#bi"/><use transform="matrix(0.008173828125000001,0,0,0.008173828125000001,35.335458984375,0)" xlink:href="#bm"/></g><g id="E"><use transform="matrix(0.008173828125000001,0,0,0.008173828125000001,0,0)" xlink:href="#bz"/><use transform="matrix(0.008173828125000001,0,0,0.008173828125000001,4.773515625,0)" xlink:href="#bj"/><use transform="matrix(0.008173828125000001,0,0,0.008173828125000001,14.53306640625,0)" xlink:href="#bC"/><use transform="matrix(0.008173828125000001,0,0,0.008173828125000001,22.2328125,0)" xlink:href="#bx"/><use transform="matrix(0.008173828125000001,0,0,0.008173828125000001,36.89666015625001,0)" xlink:href="#bm"/><use transform="matrix(0.008173828125000001,0,0,0.008173828125000001,46.29656250000001,0)" xlink:href="#be"/><use transform="matrix(0.008173828125000001,0,0,0.008173828125000001,50.35078125000001,0)" xlink:href="#by"/></g><g id="F"><use transform="matrix(0.008173828125000001,0,0,0.008173828125000001,0,0)" xlink:href="#be"/><use transform="matrix(0.008173828125000001,0,0,0.008173828125000001,4.05421875,0)" xlink:href="#bh"/><use transform="matrix(0.008173828125000001,0,0,0.008173828125000001,13.6993359375,0)" xlink:href="#bF"/><use transform="matrix(0.008173828125000001,0,0,0.008173828125000001,23.025673828124997,0)" xlink:href="#bc"/><use transform="matrix(0.008173828125000001,0,0,0.008173828125000001,32.425576171875,0)" xlink:href="#by"/><use transform="matrix(0.008173828125000001,0,0,0.008173828125000001,36.479794921875,0)" xlink:href="#be"/><use transform="matrix(0.008173828125000001,0,0,0.008173828125000001,40.534013671875,0)" xlink:href="#bk"/><use transform="matrix(0.008173828125000001,0,0,0.008173828125000001,50.783994140625005,0)" xlink:href="#bf"/><use transform="matrix(0.008173828125000001,0,0,0.008173828125000001,60.57624023437501,0)" xlink:href="#bz"/></g><g id="G"><use transform="matrix(0.008173828125000001,0,0,0.008173828125000001,0,0)" xlink:href="#bE"/><use transform="matrix(0.008173828125000001,0,0,0.008173828125000001,10.061982421875001,0)" xlink:href="#bh"/><use transform="matrix(0.008173828125000001,0,0,0.008173828125000001,19.707099609375,0)" xlink:href="#bF"/><use transform="matrix(0.008173828125000001,0,0,0.008173828125000001,29.115175781250002,0)" xlink:href="#be"/><use transform="matrix(0.008173828125000001,0,0,0.008173828125000001,33.169394531250006,0)" xlink:href="#bm"/></g><path d="M784 20c-382 0-662-292-662-764 0-473 280-766 662-766s660 293 660 766c0 472-278 764-660 764zm0-176c266 0 475-207 475-588 0-383-209-590-475-590-268 0-477 208-477 590 0 380 209 588 477 588" id="bJ"/><path d="M98-1322v-168h1126v168H757V0H567v-1322H98" id="bK"/><g id="H"><use transform="matrix(0.008173828125000001,0,0,0.008173828125000001,0,0)" xlink:href="#bu"/><use transform="matrix(0.008173828125000001,0,0,0.008173828125000001,10.691367187500001,0)" xlink:href="#bJ"/><use transform="matrix(0.008173828125000001,0,0,0.008173828125000001,23.491582031250005,0)" xlink:href="#bt"/><use transform="matrix(0.008173828125000001,0,0,0.008173828125000001,34.231992187500005,0)" xlink:href="#bK"/></g><g id="I"><use transform="matrix(0.008173828125000001,0,0,0.008173828125000001,0,0)" xlink:href="#bk"/><use transform="matrix(0.008173828125000001,0,0,0.008173828125000001,10.249980468750001,0)" xlink:href="#bj"/></g><path d="M502 418V313h118c73 0 98-17 98-66s-25-65-98-65h-82l21-161C285-4 104-228 104-552c0-350 205-580 509-580 216 0 392 114 453 309l-173 49c-33-115-133-197-280-197-223 0-326 196-326 419 0 220 103 415 326 415 150 0 252-85 285-206l172 49C1015-110 859 5 663 22v64c130 5 189 54 189 162 0 118-71 170-231 170H502" id="bL"/><path d="M471 26C259 26 90-98 90-318c0-256 228-303 435-329 202-27 287-16 287-108 0-139-79-219-234-219-161 0-248 86-283 164l-173-57c86-203 278-265 451-265 150 0 419 46 419 395V0H815v-152h-12C765-73 660 26 471 26zm31-159c199 0 310-134 310-271v-155c-30 35-226 55-295 64-131 17-246 59-246 186 0 116 97 176 231 176zm187-1180c-99 0-192-83-243-83-35 0-51 40-53 79H267c4-120 55-208 162-208 104 0 174 85 241 85 33 0 49-23 56-81h123c-4 126-62 208-160 208" id="bM"/><g id="J"><use transform="matrix(0.008173828125000001,0,0,0.008173828125000001,0,0)" xlink:href="#bn"/><use transform="matrix(0.008173828125000001,0,0,0.008173828125000001,9.563378906250001,0)" xlink:href="#bd"/><use transform="matrix(0.008173828125000001,0,0,0.008173828125000001,16.126962890625002,0)" xlink:href="#be"/><use transform="matrix(0.008173828125000001,0,0,0.008173828125000001,20.181181640625002,0)" xlink:href="#bm"/><use transform="matrix(0.008173828125000001,0,0,0.008173828125000001,29.581083984375006,0)" xlink:href="#bL"/><use transform="matrix(0.008173828125000001,0,0,0.008173828125000001,39.30793945312501,0)" xlink:href="#bM"/><use transform="matrix(0.008173828125000001,0,0,0.008173828125000001,48.70784179687501,0)" xlink:href="#bf"/></g><g id="K"><use transform="matrix(0.008173828125000001,0,0,0.008173828125000001,0,0)" xlink:href="#bn"/><use transform="matrix(0.008173828125000001,0,0,0.008173828125000001,9.563378906250001,0)" xlink:href="#bf"/><use transform="matrix(0.008173828125000001,0,0,0.008173828125000001,19.600839843750002,0)" xlink:href="#bh"/><use transform="matrix(0.008173828125000001,0,0,0.008173828125000001,29.491171875000003,0)" xlink:href="#bi"/><use transform="matrix(0.008173828125000001,0,0,0.008173828125000001,35.049375000000005,0)" xlink:href="#bm"/></g><g id="L"><use transform="matrix(0.008173828125000001,0,0,0.008173828125000001,0,0)" xlink:href="#bm"/><use transform="matrix(0.008173828125000001,0,0,0.008173828125000001,9.399902343750002,0)" xlink:href="#by"/><use transform="matrix(0.008173828125000001,0,0,0.008173828125000001,13.454121093750002,0)" xlink:href="#bj"/><use transform="matrix(0.008173828125000001,0,0,0.008173828125000001,23.213671875000003,0)" xlink:href="#bd"/><use transform="matrix(0.008173828125000001,0,0,0.008173828125000001,29.777255859375003,0)" xlink:href="#bi"/><use transform="matrix(0.008173828125000001,0,0,0.008173828125000001,35.335458984375,0)" xlink:href="#bm"/></g><g id="M"><use transform="matrix(0.008173828125000001,0,0,0.008173828125000001,0,0)" xlink:href="#bz"/><use transform="matrix(0.008173828125000001,0,0,0.008173828125000001,4.773515625,0)" xlink:href="#bj"/><use transform="matrix(0.008173828125000001,0,0,0.008173828125000001,14.53306640625,0)" xlink:href="#bx"/><use transform="matrix(0.008173828125000001,0,0,0.008173828125000001,29.196914062500003,0)" xlink:href="#bm"/><use transform="matrix(0.008173828125000001,0,0,0.008173828125000001,38.59681640625001,0)" xlink:href="#be"/><use transform="matrix(0.008173828125000001,0,0,0.008173828125000001,42.65103515625,0)" xlink:href="#by"/></g><g id="N"><use transform="matrix(0.008173828125000001,0,0,0.008173828125000001,0,0)" xlink:href="#bb"/><use transform="matrix(0.008173828125000001,0,0,0.008173828125000001,9.898505859375001,0)" xlink:href="#ba"/><use transform="matrix(0.008173828125000001,0,0,0.008173828125000001,18.7344140625,0)" xlink:href="#bf"/><use transform="matrix(0.008173828125000001,0,0,0.008173828125000001,28.526660156250003,0)" xlink:href="#bz"/></g><path d="M180 0v-1490h510c348 0 508 194 508 460 0 198-88 351-276 417L1256 0h-220L726-579c-117 2-238 0-356 1V0H180zm190-747h312c235 0 327-108 327-283 0-177-92-293-329-293H370v576" id="bN"/><g id="O"><use transform="matrix(0.008173828125000001,0,0,0.008173828125000001,0,0)" xlink:href="#bN"/><use transform="matrix(0.008173828125000001,0,0,0.008173828125000001,10.527890625000001,0)" xlink:href="#bj"/><use transform="matrix(0.008173828125000001,0,0,0.008173828125000001,20.287441406250004,0)" xlink:href="#bn"/><use transform="matrix(0.008173828125000001,0,0,0.008173828125000001,29.850820312500005,0)" xlink:href="#bj"/><use transform="matrix(0.008173828125000001,0,0,0.008173828125000001,39.610371093750004,0)" xlink:href="#bI"/><use transform="matrix(0.008173828125000001,0,0,0.008173828125000001,49.86035156250001,0)" xlink:href="#bj"/></g><path d="M128 359l88-567h206L266 359H128" id="bO"/><g id="P"><use transform="matrix(0.008173828125000001,0,0,0.008173828125000001,0,0)" xlink:href="#bi"/><use transform="matrix(0.008173828125000001,0,0,0.008173828125000001,5.312988281250001,0)" xlink:href="#bf"/><use transform="matrix(0.008173828125000001,0,0,0.008173828125000001,15.35044921875,0)" xlink:href="#bo"/><use transform="matrix(0.008173828125000001,0,0,0.008173828125000001,24.1618359375,0)" xlink:href="#bj"/><use transform="matrix(0.008173828125000001,0,0,0.008173828125000001,33.92138671875,0)" xlink:href="#bh"/><use transform="matrix(0.008173828125000001,0,0,0.008173828125000001,43.81171875,0)" xlink:href="#bO"/></g><g id="Q"><use transform="matrix(0.008173828125000001,0,0,0.008173828125000001,0,0)" xlink:href="#ba"/><use transform="matrix(0.008173828125000001,0,0,0.008173828125000001,8.835908203125001,0)" xlink:href="#bm"/><use transform="matrix(0.008173828125000001,0,0,0.008173828125000001,18.235810546875,0)" xlink:href="#by"/><use transform="matrix(0.008173828125000001,0,0,0.008173828125000001,22.371767578125002,0)" xlink:href="#bF"/><use transform="matrix(0.008173828125000001,0,0,0.008173828125000001,31.69810546875,0)" xlink:href="#bm"/></g><g id="R"><use transform="matrix(0.008173828125000001,0,0,0.008173828125000001,0,0)" xlink:href="#bh"/><use transform="matrix(0.008173828125000001,0,0,0.008173828125000001,9.89033203125,0)" xlink:href="#bf"/></g><path d="M611 442c-248 0-391-105-460-228l146-94c47 65 117 165 314 165 178 0 307-82 307-266v-224h-17C863-141 792-18 576-18c-268 0-472-195-472-546 0-346 197-568 476-568 216 0 288 133 326 193h17v-179h175V29c0 289-215 413-487 413zm-5-620c203 0 314-146 314-390 0-237-108-403-314-403-213 0-319 180-319 403 0 230 109 390 319 390" id="bP"/><g id="S"><use transform="matrix(0.008173828125000001,0,0,0.008173828125000001,0,0)" xlink:href="#bh"/><use transform="matrix(0.008173828125000001,0,0,0.008173828125000001,9.89033203125,0)" xlink:href="#bm"/><use transform="matrix(0.008173828125000001,0,0,0.008173828125000001,19.045019531250002,0)" xlink:href="#bF"/><use transform="matrix(0.008173828125000001,0,0,0.008173828125000001,28.126142578125005,0)" xlink:href="#bj"/><use transform="matrix(0.008173828125000001,0,0,0.008173828125000001,37.885693359375004,0)" xlink:href="#bP"/><use transform="matrix(0.008173828125000001,0,0,0.008173828125000001,48.152021484375005,0)" xlink:href="#bm"/><use transform="matrix(0.008173828125000001,0,0,0.008173828125000001,57.551923828125005,0)" xlink:href="#bk"/><use transform="matrix(0.008173828125000001,0,0,0.008173828125000001,67.80190429687501,0)" xlink:href="#bf"/><use transform="matrix(0.008173828125000001,0,0,0.008173828125000001,77.83936523437501,0)" xlink:href="#bd"/></g><use transform="matrix(0.008173828125000001,0,0,0.008173828125000001,0,0)" xlink:href="#bj" id="T"/><g id="U"><use transform="matrix(0.008173828125000001,0,0,0.008173828125000001,0,0)" xlink:href="#bm"/><use transform="matrix(0.008173828125000001,0,0,0.008173828125000001,9.399902343750002,0)" xlink:href="#bI"/><use transform="matrix(0.008173828125000001,0,0,0.008173828125000001,19.649882812500003,0)" xlink:href="#bd"/><use transform="matrix(0.008173828125000001,0,0,0.008173828125000001,25.673994140625002,0)" xlink:href="#bj"/></g><use transform="matrix(0.008173828125000001,0,0,0.008173828125000001,0,0)" xlink:href="#bf" id="V"/><g id="W"><use transform="matrix(0.008173828125000001,0,0,0.008173828125000001,0,0)" xlink:href="#bq"/><use transform="matrix(0.008173828125000001,0,0,0.008173828125000001,12.08091796875,0)" xlink:href="#bm"/><use transform="matrix(0.008173828125000001,0,0,0.008173828125000001,21.4808203125,0)" xlink:href="#ba"/><use transform="matrix(0.008173828125000001,0,0,0.008173828125000001,30.316728515624998,0)" xlink:href="#bv"/><use transform="matrix(0.008173828125000001,0,0,0.008173828125000001,40.215234375,0)" xlink:href="#bI"/><use transform="matrix(0.008173828125000001,0,0,0.008173828125000001,50.465214843750005,0)" xlink:href="#bf"/><use transform="matrix(0.008173828125000001,0,0,0.008173828125000001,60.66615234375001,0)" xlink:href="#bm"/><use transform="matrix(0.008173828125000001,0,0,0.008173828125000001,70.06605468750001,0)" xlink:href="#bd"/><use transform="matrix(0.008173828125000001,0,0,0.008173828125000001,76.09016601562502,0)" xlink:href="#bk"/></g><g id="X"><use transform="matrix(0.008173828125000001,0,0,0.008173828125000001,0,0)" xlink:href="#bN"/><use transform="matrix(0.008173828125000001,0,0,0.008173828125000001,10.527890625000001,0)" xlink:href="#bj"/><use transform="matrix(0.008173828125000001,0,0,0.008173828125000001,20.287441406250004,0)" xlink:href="#bn"/><use transform="matrix(0.008173828125000001,0,0,0.008173828125000001,29.850820312500005,0)" xlink:href="#bj"/><use transform="matrix(0.008173828125000001,0,0,0.008173828125000001,39.610371093750004,0)" xlink:href="#bI"/><use transform="matrix(0.008173828125000001,0,0,0.008173828125000001,49.86035156250001,0)" xlink:href="#bj"/></g><g id="Y"><use transform="matrix(0.008173828125000001,0,0,0.008173828125000001,0,0)" xlink:href="#bk"/><use transform="matrix(0.008173828125000001,0,0,0.008173828125000001,10.249980468750001,0)" xlink:href="#bm"/><use transform="matrix(0.008173828125000001,0,0,0.008173828125000001,19.649882812500003,0)" xlink:href="#bk"/><use transform="matrix(0.008173828125000001,0,0,0.008173828125000001,29.899863281250006,0)" xlink:href="#bf"/><use transform="matrix(0.008173828125000001,0,0,0.008173828125000001,39.93732421875001,0)" xlink:href="#ba"/></g><path d="M157-1118h181V80c1 225-123 350-364 338V252c126 9 184-48 183-172v-1198zm91-183c-68 0-125-53-125-119s57-119 125-119c69 0 126 53 126 119s-57 119-126 119" id="bQ"/><g id="Z"><use transform="matrix(0.008173828125000001,0,0,0.008173828125000001,0,0)" xlink:href="#bQ"/><use transform="matrix(0.008173828125000001,0,0,0.008173828125000001,4.05421875,0)" xlink:href="#bc"/></g><g id="aa"><use transform="matrix(0.008173828125000001,0,0,0.008173828125000001,0,0)" xlink:href="#bj"/><use transform="matrix(0.008173828125000001,0,0,0.008173828125000001,9.383554687500002,0)" xlink:href="#bH"/><use transform="matrix(0.008173828125000001,0,0,0.008173828125000001,18.521894531250002,0)" xlink:href="#be"/><use transform="matrix(0.008173828125000001,0,0,0.008173828125000001,22.576113281250002,0)" xlink:href="#ba"/><use transform="matrix(0.008173828125000001,0,0,0.008173828125000001,31.412021484375003,0)" xlink:href="#bi"/><use transform="matrix(0.008173828125000001,0,0,0.008173828125000001,36.725009765625,0)" xlink:href="#bj"/><use transform="matrix(0.008173828125000001,0,0,0.008173828125000001,46.484560546875,0)" xlink:href="#bG"/></g><g id="ab"><use transform="matrix(0.008173828125000001,0,0,0.008173828125000001,0,0)" xlink:href="#bN"/><use transform="matrix(0.008173828125000001,0,0,0.008173828125000001,10.527890625000001,0)" xlink:href="#bj"/><use transform="matrix(0.008173828125000001,0,0,0.008173828125000001,20.287441406250004,0)" xlink:href="#bi"/><use transform="matrix(0.008173828125000001,0,0,0.008173828125000001,25.600429687500004,0)" xlink:href="#bf"/><use transform="matrix(0.008173828125000001,0,0,0.008173828125000001,35.637890625000004,0)" xlink:href="#bd"/><use transform="matrix(0.008173828125000001,0,0,0.008173828125000001,42.201474609375,0)" xlink:href="#bh"/><use transform="matrix(0.008173828125000001,0,0,0.008173828125000001,52.09180664062499,0)" xlink:href="#bm"/></g><path d="M120-303v-155l652-1032h231v1020h202v167h-202V0H821v-303H120zm702-167v-782h-12L323-482v12h499" id="bR"/><path d="M646 20c-332 0-524-278-524-764 0-483 194-766 524-766s524 283 524 766c0 485-191 764-524 764zm0-166c218 0 341-220 341-598 0-380-123-601-341-601s-341 222-341 601c0 378 123 598 341 598" id="bS"/><path d="M603 20c-253 0-434-161-469-399h188c31 132 124 231 281 231 227 0 367-207 367-568h-12c-80 122-211 199-367 199-257 0-469-206-469-493 0-278 200-505 506-500 245 4 520 158 520 706 0 527-208 824-545 824zm16-703c181 0 324-157 324-332 0-171-135-328-318-328-180 0-317 148-317 332 0 183 131 328 311 328" id="bT"/><g id="ac"><use transform="matrix(0.008173828125000001,0,0,0.008173828125000001,0,0)" xlink:href="#bR"/><use transform="matrix(0.008173828125000001,0,0,0.008173828125000001,10.813974609375002,0)" xlink:href="#bS"/><use transform="matrix(0.008173828125000001,0,0,0.008173828125000001,21.374560546875003,0)" xlink:href="#bT"/></g><g id="ad"><use transform="matrix(0.008173828125000001,0,0,0.008173828125000001,0,0)" xlink:href="#br"/><use transform="matrix(0.008173828125000001,0,0,0.008173828125000001,5.9178515625,0)" xlink:href="#bj"/><use transform="matrix(0.008173828125000001,0,0,0.008173828125000001,15.67740234375,0)" xlink:href="#bx"/><use transform="matrix(0.008173828125000001,0,0,0.008173828125000001,30.341250000000002,0)" xlink:href="#bm"/><use transform="matrix(0.008173828125000001,0,0,0.008173828125000001,39.74115234375,0)" xlink:href="#be"/><use transform="matrix(0.008173828125000001,0,0,0.008173828125000001,43.795371093750006,0)" xlink:href="#by"/></g><g id="ae"><use transform="matrix(0.008173828125000001,0,0,0.008173828125000001,0,0)" xlink:href="#bb"/><use transform="matrix(0.008173828125000001,0,0,0.008173828125000001,9.898505859375001,0)" xlink:href="#ba"/><use transform="matrix(0.008173828125000001,0,0,0.008173828125000001,18.7344140625,0)" xlink:href="#bf"/><use transform="matrix(0.008173828125000001,0,0,0.008173828125000001,28.583876953125003,0)" xlink:href="#bs"/></g><path d="M52 0l541-1490h220L1361 0h-200l-149-416H398L254 0H52zm404-582h497c-103-290-145-390-251-756-108 377-145 460-246 756" id="bU"/><path d="M158 418v-1536h174v179h20c37-59 106-193 324-193 279 0 474 222 474 576 0 356-194 580-473 580-213 0-288-135-325-197h-14v591H158zm492-555c209 0 317-186 317-421 0-232-105-413-317-413-206 0-314 166-314 413 0 249 111 421 314 421" id="bV"/><g id="af"><use transform="matrix(0.008173828125000001,0,0,0.008173828125000001,0,0)" xlink:href="#bU"/><use transform="matrix(0.008173828125000001,0,0,0.008173828125000001,11.549619140625001,0)" xlink:href="#bV"/><use transform="matrix(0.008173828125000001,0,0,0.008173828125000001,21.799599609375,0)" xlink:href="#by"/><use transform="matrix(0.008173828125000001,0,0,0.008173828125000001,25.853818359375005,0)" xlink:href="#be"/><use transform="matrix(0.008173828125000001,0,0,0.008173828125000001,29.908037109375005,0)" xlink:href="#bn"/><use transform="matrix(0.008173828125000001,0,0,0.008173828125000001,39.634892578125005,0)" xlink:href="#bm"/></g><g id="ag"><use transform="matrix(0.008173828125000001,0,0,0.008173828125000001,0,0)" xlink:href="#bn"/><use transform="matrix(0.008173828125000001,0,0,0.008173828125000001,9.563378906250001,0)" xlink:href="#bd"/><use transform="matrix(0.008173828125000001,0,0,0.008173828125000001,16.126962890625002,0)" xlink:href="#be"/><use transform="matrix(0.008173828125000001,0,0,0.008173828125000001,20.181181640625002,0)" xlink:href="#bV"/><use transform="matrix(0.008173828125000001,0,0,0.008173828125000001,30.431162109375002,0)" xlink:href="#bi"/><use transform="matrix(0.008173828125000001,0,0,0.008173828125000001,35.744150390625,0)" xlink:href="#bf"/><use transform="matrix(0.008173828125000001,0,0,0.008173828125000001,45.781611328125,0)" xlink:href="#bP"/><use transform="matrix(0.008173828125000001,0,0,0.008173828125000001,56.047939453125004,0)" xlink:href="#bd"/><use transform="matrix(0.008173828125000001,0,0,0.008173828125000001,62.3499609375,0)" xlink:href="#bm"/><use transform="matrix(0.008173828125000001,0,0,0.008173828125000001,71.74986328125,0)" xlink:href="#bw"/><use transform="matrix(0.008173828125000001,0,0,0.008173828125000001,77.945625,0)" xlink:href="#be"/><use transform="matrix(0.008173828125000001,0,0,0.008173828125000001,81.99984375000001,0)" xlink:href="#bm"/></g><g id="ah"><use transform="matrix(0.008173828125000001,0,0,0.008173828125000001,0,0)" xlink:href="#bh"/><use transform="matrix(0.008173828125000001,0,0,0.008173828125000001,9.89033203125,0)" xlink:href="#bm"/></g><g id="ai"><use transform="matrix(0.008173828125000001,0,0,0.008173828125000001,0,0)" xlink:href="#ba"/><use transform="matrix(0.008173828125000001,0,0,0.008173828125000001,8.835908203125001,0)" xlink:href="#bj"/><use transform="matrix(0.008173828125000001,0,0,0.008173828125000001,18.595458984375,0)" xlink:href="#bh"/><use transform="matrix(0.008173828125000001,0,0,0.008173828125000001,28.485791015625,0)" xlink:href="#bv"/><use transform="matrix(0.008173828125000001,0,0,0.008173828125000001,38.384296875000004,0)" xlink:href="#bm"/></g><path d="M140 405l46-156c120 36 205 19 263-150l32-93L54-1118h197c107 313 237 620 324 950 87-331 219-637 326-950h196L606 167c-68 178-176 259-334 259-64 0-113-12-132-21" id="bW"/><g id="aj"><use transform="matrix(0.008173828125000001,0,0,0.008173828125000001,0,0)" xlink:href="#br"/><use transform="matrix(0.008173828125000001,0,0,0.008173828125000001,6.105849609375,0)" xlink:href="#bl"/><use transform="matrix(0.008173828125000001,0,0,0.008173828125000001,17.058779296875002,0)" xlink:href="#bn"/><use transform="matrix(0.008173828125000001,0,0,0.008173828125000001,26.622158203125004,0)" xlink:href="#bd"/><use transform="matrix(0.008173828125000001,0,0,0.008173828125000001,33.185742187500004,0)" xlink:href="#bW"/><use transform="matrix(0.008173828125000001,0,0,0.008173828125000001,42.59381835937501,0)" xlink:href="#bV"/><use transform="matrix(0.008173828125000001,0,0,0.008173828125000001,52.843798828125,0)" xlink:href="#bi"/><use transform="matrix(0.008173828125000001,0,0,0.008173828125000001,58.32026367187501,0)" xlink:href="#bs"/></g><path d="M370-1490V0H180v-1490h190" id="bX"/><path d="M126 0v-134l627-806v-11H146v-167h839v143L376-178v11h629V0H126" id="bY"/><g id="ak"><use transform="matrix(0.008173828125000001,0,0,0.008173828125000001,0,0)" xlink:href="#bX"/><use transform="matrix(0.008173828125000001,0,0,0.008173828125000001,4.495605468750001,0)" xlink:href="#bh"/><use transform="matrix(0.008173828125000001,0,0,0.008173828125000001,14.3859375,0)" xlink:href="#be"/><use transform="matrix(0.008173828125000001,0,0,0.008173828125000001,18.44015625,0)" xlink:href="#bn"/><use transform="matrix(0.008173828125000001,0,0,0.008173828125000001,28.003535156250003,0)" xlink:href="#be"/><use transform="matrix(0.008173828125000001,0,0,0.008173828125000001,32.05775390625,0)" xlink:href="#bm"/><use transform="matrix(0.008173828125000001,0,0,0.008173828125000001,41.45765625,0)" xlink:href="#by"/><use transform="matrix(0.008173828125000001,0,0,0.008173828125000001,45.511875,0)" xlink:href="#be"/><use transform="matrix(0.008173828125000001,0,0,0.008173828125000001,49.56609375000001,0)" xlink:href="#bY"/><use transform="matrix(0.008173828125000001,0,0,0.008173828125000001,58.81069335937501,0)" xlink:href="#bm"/></g><g id="al"><use transform="matrix(0.008173828125000001,0,0,0.008173828125000001,0,0)" xlink:href="#bd"/><use transform="matrix(0.008173828125000001,0,0,0.008173828125000001,6.302021484375,0)" xlink:href="#bm"/><use transform="matrix(0.008173828125000001,0,0,0.008173828125000001,15.701923828125002,0)" xlink:href="#bh"/><use transform="matrix(0.008173828125000001,0,0,0.008173828125000001,25.592255859374998,0)" xlink:href="#bo"/><use transform="matrix(0.008173828125000001,0,0,0.008173828125000001,34.779638671875006,0)" xlink:href="#be"/><use transform="matrix(0.008173828125000001,0,0,0.008173828125000001,38.83385742187501,0)" xlink:href="#bh"/><use transform="matrix(0.008173828125000001,0,0,0.008173828125000001,48.72418945312501,0)" xlink:href="#bP"/></g><path d="M180 0v-1490h190v1322h690V0H180" id="bZ"/><g id="am"><use transform="matrix(0.008173828125000001,0,0,0.008173828125000001,0,0)" xlink:href="#br"/><use transform="matrix(0.008173828125000001,0,0,0.008173828125000001,6.105849609375,0)" xlink:href="#bZ"/><use transform="matrix(0.008173828125000001,0,0,0.008173828125000001,15.571142578125002,0)" xlink:href="#be"/><use transform="matrix(0.008173828125000001,0,0,0.008173828125000001,19.625361328125003,0)" xlink:href="#bP"/><use transform="matrix(0.008173828125000001,0,0,0.008173828125000001,29.891689453125004,0)" xlink:href="#bm"/></g><g id="an"><use transform="matrix(0.008173828125000001,0,0,0.008173828125000001,0,0)" xlink:href="#bl"/><use transform="matrix(0.008173828125000001,0,0,0.008173828125000001,10.952929687500001,0)" xlink:href="#bd"/><use transform="matrix(0.008173828125000001,0,0,0.008173828125000001,16.977041015625,0)" xlink:href="#bf"/><use transform="matrix(0.008173828125000001,0,0,0.008173828125000001,27.014501953125002,0)" xlink:href="#bh"/><use transform="matrix(0.008173828125000001,0,0,0.008173828125000001,36.904833984375,0)" xlink:href="#bY"/><use transform="matrix(0.008173828125000001,0,0,0.008173828125000001,45.904218750000005,0)" xlink:href="#bj"/><use transform="matrix(0.008173828125000001,0,0,0.008173828125000001,55.663769531250004,0)" xlink:href="#bO"/></g><use transform="matrix(0.008173828125000001,0,0,0.008173828125000001,0,0)" xlink:href="#bS" id="ao"/><g id="ap"><use transform="matrix(0.008173828125000001,0,0,0.008173828125000001,0,0)" xlink:href="#bV"/><use transform="matrix(0.008173828125000001,0,0,0.008173828125000001,10.249980468750001,0)" xlink:href="#bf"/><use transform="matrix(0.008173828125000001,0,0,0.008173828125000001,20.287441406250004,0)" xlink:href="#bh"/><use transform="matrix(0.008173828125000001,0,0,0.008173828125000001,30.177773437500004,0)" xlink:href="#bi"/><use transform="matrix(0.008173828125000001,0,0,0.008173828125000001,35.49076171875,0)" xlink:href="#bf"/><use transform="matrix(0.008173828125000001,0,0,0.008173828125000001,45.52822265625,0)" xlink:href="#ba"/><use transform="matrix(0.008173828125000001,0,0,0.008173828125000001,54.364130859375,0)" xlink:href="#bs"/></g><path d="M789 20c-398 0-667-293-667-764 0-473 273-766 655-766 315 0 558 198 612 487h-196c-61-191-204-311-415-311-262 0-471 207-471 590 0 380 208 588 482 588 249 0 420-165 425-427H828v-166h572v163c0 370-256 606-611 606" id="ca"/><g id="aq"><use transform="matrix(0.008173828125000001,0,0,0.008173828125000001,0,0)" xlink:href="#ca"/><use transform="matrix(0.008173828125000001,0,0,0.008173828125000001,12.489609375000002,0)" xlink:href="#bj"/><use transform="matrix(0.008173828125000001,0,0,0.008173828125000001,22.249160156250003,0)" xlink:href="#bd"/><use transform="matrix(0.008173828125000001,0,0,0.008173828125000001,28.551181640625003,0)" xlink:href="#bm"/></g><g id="ar"><use transform="matrix(0.008173828125000001,0,0,0.008173828125000001,0,0)" xlink:href="#bK"/><use transform="matrix(0.008173828125000001,0,0,0.008173828125000001,9.49798828125,0)" xlink:href="#bf"/><use transform="matrix(0.008173828125000001,0,0,0.008173828125000001,19.535449218750003,0)" xlink:href="#bo"/><use transform="matrix(0.008173828125000001,0,0,0.008173828125000001,28.346835937500003,0)" xlink:href="#bj"/><use transform="matrix(0.008173828125000001,0,0,0.008173828125000001,38.10638671875,0)" xlink:href="#bh"/></g><path d="M545 20c-263 0-445-160-445-446v-80h190v80c0 182 102 279 255 279 152 0 254-97 254-279v-1064h190v1064c0 286-181 446-444 446" id="cb"/><path d="M458 0L52-1490h194c108 439 233 855 324 1313 92-459 221-873 331-1313h216c110 438 234 854 330 1307 92-455 216-869 323-1307h196L1558 0h-221l-256-944c-26-95-50-200-73-331-22 122-44 223-73 331L680 0H458" id="cc"/><g id="as"><use transform="matrix(0.008173828125000001,0,0,0.008173828125000001,0,0)" xlink:href="#cb"/><use transform="matrix(0.008173828125000001,0,0,0.008173828125000001,9.555205078125,0)" xlink:href="#cc"/><use transform="matrix(0.008173828125000001,0,0,0.008173828125000001,26.049990234375002,0)" xlink:href="#bK"/></g><path d="M154 0v-137l495-537c165-179 249-281 249-418 0-156-121-253-280-253-170 0-278 110-278 278H158c0-264 200-443 465-443 266 0 455 183 455 416 0 161-73 288-336 568L416-179v12h687V0H154" id="cd"/><path d="M653-1490V0H466v-1314h-10L96-1047v-204l324-239h233" id="ce"/><g id="at"><use transform="matrix(0.008173828125000001,0,0,0.008173828125000001,0,0)" xlink:href="#cd"/><use transform="matrix(0.008173828125000001,0,0,0.008173828125000001,10.209111328125001,0)" xlink:href="#bS"/><use transform="matrix(0.008173828125000001,0,0,0.008173828125000001,20.769697265625002,0)" xlink:href="#ce"/></g><path d="M593-100v-404H195v-159h398v-403h169v403h398v159H762v404H593" id="cf"/><use transform="matrix(0.008173828125000001,0,0,0.008173828125000001,0,0)" xlink:href="#cf" id="au"/><g id="av"><use transform="matrix(0.008173828125000001,0,0,0.008173828125000001,0,0)" xlink:href="#bB"/><use transform="matrix(0.008173828125000001,0,0,0.008173828125000001,10.699541015625002,0)" xlink:href="#bj"/><use transform="matrix(0.008173828125000001,0,0,0.008173828125000001,20.459091796874997,0)" xlink:href="#bd"/><use transform="matrix(0.008173828125000001,0,0,0.008173828125000001,27.02267578125,0)" xlink:href="#be"/><use transform="matrix(0.008173828125000001,0,0,0.008173828125000001,31.07689453125,0)" xlink:href="#bw"/><use transform="matrix(0.008173828125000001,0,0,0.008173828125000001,37.272656250000004,0)" xlink:href="#be"/><use transform="matrix(0.008173828125000001,0,0,0.008173828125000001,41.326874999999994,0)" xlink:href="#bn"/><use transform="matrix(0.008173828125000001,0,0,0.008173828125000001,51.053730468750004,0)" xlink:href="#bm"/></g><g id="aw"><use transform="matrix(0.008173828125000001,0,0,0.008173828125000001,0,0)" xlink:href="#ba"/><use transform="matrix(0.008173828125000001,0,0,0.008173828125000001,8.835908203125001,0)" xlink:href="#bj"/></g><g id="ax"><use transform="matrix(0.008173828125000001,0,0,0.008173828125000001,0,0)" xlink:href="#bj"/><use transform="matrix(0.008173828125000001,0,0,0.008173828125000001,9.383554687500002,0)" xlink:href="#bH"/><use transform="matrix(0.008173828125000001,0,0,0.008173828125000001,18.521894531250002,0)" xlink:href="#be"/><use transform="matrix(0.008173828125000001,0,0,0.008173828125000001,22.576113281250002,0)" xlink:href="#ba"/><use transform="matrix(0.008173828125000001,0,0,0.008173828125000001,31.412021484375003,0)" xlink:href="#bi"/><use transform="matrix(0.008173828125000001,0,0,0.008173828125000001,36.725009765625,0)" xlink:href="#bj"/></g><g id="ay"><use transform="matrix(0.008173828125000001,0,0,0.008173828125000001,0,0)" xlink:href="#ca"/><use transform="matrix(0.008173828125000001,0,0,0.008173828125000001,12.489609375000002,0)" xlink:href="#bd"/><use transform="matrix(0.008173828125000001,0,0,0.008173828125000001,18.791630859375005,0)" xlink:href="#bm"/><use transform="matrix(0.008173828125000001,0,0,0.008173828125000001,27.946318359375006,0)" xlink:href="#bF"/><use transform="matrix(0.008173828125000001,0,0,0.008173828125000001,37.272656250000004,0)" xlink:href="#bm"/></g><g id="az"><use transform="matrix(0.008173828125000001,0,0,0.008173828125000001,0,0)" xlink:href="#bd"/><use transform="matrix(0.008173828125000001,0,0,0.008173828125000001,6.0241113281250005,0)" xlink:href="#bj"/><use transform="matrix(0.008173828125000001,0,0,0.008173828125000001,15.783662109375001,0)" xlink:href="#bP"/><use transform="matrix(0.008173828125000001,0,0,0.008173828125000001,26.049990234375002,0)" xlink:href="#be"/><use transform="matrix(0.008173828125000001,0,0,0.008173828125000001,30.104208984375003,0)" xlink:href="#ba"/><use transform="matrix(0.008173828125000001,0,0,0.008173828125000001,38.94011718750001,0)" xlink:href="#bi"/><use transform="matrix(0.008173828125000001,0,0,0.008173828125000001,44.41658203125001,0)" xlink:href="#bd"/><use transform="matrix(0.008173828125000001,0,0,0.008173828125000001,50.440693359375004,0)" xlink:href="#bf"/></g><g id="aA"><use transform="matrix(0.008173828125000001,0,0,0.008173828125000001,0,0)" xlink:href="#bj"/><use transform="matrix(0.008173828125000001,0,0,0.008173828125000001,9.75955078125,0)" xlink:href="#bx"/></g><g id="aB"><use transform="matrix(0.008173828125000001,0,0,0.008173828125000001,0,0)" xlink:href="#bz"/><use transform="matrix(0.008173828125000001,0,0,0.008173828125000001,5.01873046875,0)" xlink:href="#bb"/><use transform="matrix(0.008173828125000001,0,0,0.008173828125000001,14.917236328125002,0)" xlink:href="#ba"/><use transform="matrix(0.008173828125000001,0,0,0.008173828125000001,23.75314453125,0)" xlink:href="#bj"/><use transform="matrix(0.008173828125000001,0,0,0.008173828125000001,33.5126953125,0)" xlink:href="#bd"/><use transform="matrix(0.008173828125000001,0,0,0.008173828125000001,39.814716796875004,0)" xlink:href="#ba"/><use transform="matrix(0.008173828125000001,0,0,0.008173828125000001,48.650625000000005,0)" xlink:href="#bz"/></g><path d="M934 0v166H0V0h934" id="cg"/><g id="aC"><use transform="matrix(0.008173828125000001,0,0,0.008173828125000001,0,0)" xlink:href="#bz"/><use transform="matrix(0.008173828125000001,0,0,0.008173828125000001,5.01873046875,0)" xlink:href="#bb"/><use transform="matrix(0.008173828125000001,0,0,0.008173828125000001,14.917236328125002,0)" xlink:href="#ba"/><use transform="matrix(0.008173828125000001,0,0,0.008173828125000001,23.75314453125,0)" xlink:href="#bj"/><use transform="matrix(0.008173828125000001,0,0,0.008173828125000001,33.5126953125,0)" xlink:href="#bd"/><use transform="matrix(0.008173828125000001,0,0,0.008173828125000001,39.814716796875004,0)" xlink:href="#cg"/><use transform="matrix(0.008173828125000001,0,0,0.008173828125000001,47.449072265625006,0)" xlink:href="#ba"/><use transform="matrix(0.008173828125000001,0,0,0.008173828125000001,56.28498046875001,0)" xlink:href="#bn"/><use transform="matrix(0.008173828125000001,0,0,0.008173828125000001,65.848359375,0)" xlink:href="#bf"/><use transform="matrix(0.008173828125000001,0,0,0.008173828125000001,75.88582031250002,0)" xlink:href="#bd"/><use transform="matrix(0.008173828125000001,0,0,0.008173828125000001,81.909931640625,0)" xlink:href="#bj"/><use transform="matrix(0.008173828125000001,0,0,0.008173828125000001,91.669482421875,0)" xlink:href="#ba"/><use transform="matrix(0.008173828125000001,0,0,0.008173828125000001,100.505390625,0)" xlink:href="#bz"/></g><g id="aD"><use transform="matrix(0.008173828125000001,0,0,0.008173828125000001,0,0)" xlink:href="#bE"/><use transform="matrix(0.008173828125000001,0,0,0.008173828125000001,10.061982421875001,0)" xlink:href="#bh"/><use transform="matrix(0.008173828125000001,0,0,0.008173828125000001,19.952314453125002,0)" xlink:href="#bk"/></g><path d="M180 0v-1490h224l606 953c40 63 108 177 176 312-27-437-7-821-13-1265h190V0h-226C860-448 622-778 356-1262c27 476 11 792 15 1262H180" id="ch"/><g id="aE"><use transform="matrix(0.008173828125000001,0,0,0.008173828125000001,0,0)" xlink:href="#ch"/><use transform="matrix(0.008173828125000001,0,0,0.008173828125000001,12.612216796875002,0)" xlink:href="#bM"/><use transform="matrix(0.008173828125000001,0,0,0.008173828125000001,22.012119140625003,0)" xlink:href="#bf"/></g><g id="aF"><use transform="matrix(0.008173828125000001,0,0,0.008173828125000001,0,0)" xlink:href="#bt"/><use transform="matrix(0.008173828125000001,0,0,0.008173828125000001,10.740410156250002,0)" xlink:href="#be"/><use transform="matrix(0.008173828125000001,0,0,0.008173828125000001,14.794628906250002,0)" xlink:href="#bx"/></g></defs></g></svg>