<svg xmlns="http://www.w3.org/2000/svg" xmlns:xlink="http://www.w3.org/1999/xlink" xmlns:lucid="lucid" width="2093.43" height="1956.02"><g transform="translate(2542 -13149.74525390625)" lucid:page-tab-id="0_0"><path d="M-2540 13200h2089.43v1903.76H-2540z" stroke="#000" stroke-width="4" fill-opacity="0"/><path d="M-2540 13151.75h298.2v36.25H-2540z" stroke="#000" stroke-width="4"/><use xlink:href="#a" transform="matrix(1,0,0,1,-2532,13159.74525390625) translate(0 16.589501953125)"/><use xlink:href="#b" transform="matrix(1,0,0,1,-2532,13159.74525390625) translate(78.493271484375 16.589501953125)"/><use xlink:href="#c" transform="matrix(1,0,0,1,-2532,13159.74525390625) translate(112.78248046875001 16.589501953125)"/><use xlink:href="#d" transform="matrix(1,0,0,1,-2532,13159.74525390625) translate(158.3433984375 16.589501953125)"/><use xlink:href="#e" transform="matrix(1,0,0,1,-2532,13159.74525390625) translate(183.06105468750002 16.589501953125)"/><path d="M-2459 13293a12 12 0 0 1 12-12h28v1399.18h-40zM-2459 14680.18h40v342.58h-28a12 12 0 0 1-12-12z" stroke="#3a414a" stroke-width="2" fill="#fff"/><path d="M-2419 13281h1875.43a12 12 0 0 1 12 12v1387.18H-2419zM-2419 14680.18h1887.43v330.58a12 12 0 0 1-12 12H-2419z" stroke="#3a414a" stroke-width="2" fill="none"/><use xlink:href="#f" transform="matrix(-1.8369701987210297e-16,-1,1,-1.8369701987210297e-16,-2459,14680.1834115655) translate(665.68626953125 26.089501953125)"/><use xlink:href="#g" transform="matrix(-1.8369701987210297e-16,-1,1,-1.8369701987210297e-16,-2459,15022.762742198218) translate(78.78835449218748 26.089501953125)"/><use xlink:href="#h" transform="matrix(-1.8369701987210297e-16,-1,1,-1.8369701987210297e-16,-2459,15022.762742198218) translate(141.1383154296875 26.089501953125)"/><use xlink:href="#i" transform="matrix(-1.8369701987210297e-16,-1,1,-1.8369701987210297e-16,-2459,15022.762742198218) translate(165.8559716796875 26.089501953125)"/><use xlink:href="#j" transform="matrix(-1.8369701987210297e-16,-1,1,-1.8369701987210297e-16,-2459,15022.762742198218) translate(221.1682666015625 26.089501953125)"/><path d="M-2238.67 13450.32c18.47 0 33.45 14.97 33.45 33.44s-14.98 33.45-33.45 33.45h-66.9c-18.46 0-33.43-14.97-33.43-33.44s14.97-33.44 33.44-33.44z" stroke="#1071e5" stroke-width="4" fill="#6db1ff"/><use xlink:href="#k" transform="matrix(1,0,0,1,-2334,13455.319661458334) translate(43.130717773437496 34.029375)"/><path d="M-2125.22 13407.92a6 6 0 0 1 6-6h205.35a6 6 0 0 1 6 6v151.7a6 6 0 0 1-6 6h-205.35a6 6 0 0 1-6-6z" stroke="#1071e5" stroke-width="4" fill="#cfe4ff"/><use xlink:href="#l" transform="matrix(1,0,0,1,-2113.2239583333335,13413.921223958334) translate(39.87311523437499 46.841875)"/><use xlink:href="#m" transform="matrix(1,0,0,1,-2113.2239583333335,13413.921223958334) translate(103.1794140625 46.841875)"/><use xlink:href="#n" transform="matrix(1,0,0,1,-2113.2239583333335,13413.921223958334) translate(47.200952148437494 67.09662109375)"/><use xlink:href="#o" transform="matrix(1,0,0,1,-2113.2239583333335,13413.921223958334) translate(135.7235107421875 67.09662109375)"/><use xlink:href="#p" transform="matrix(1,0,0,1,-2113.2239583333335,13413.921223958334) translate(36.81201660156249 87.3513671875)"/><use xlink:href="#q" transform="matrix(1,0,0,1,-2113.2239583333335,13413.921223958334) translate(149.48823730468752 87.3513671875)"/><use xlink:href="#r" transform="matrix(1,0,0,1,-2113.2239583333335,13413.921223958334) translate(48.872499999999995 107.60611328125)"/><path d="M-1827.87 13380.9a6 6 0 0 1 6-6h277.1a6 6 0 0 1 6 6v205.73a6 6 0 0 1-6 6h-277.1a6 6 0 0 1-6-6z" stroke="#1071e5" stroke-width="4" fill="#cfe4ff"/><use xlink:href="#s" transform="matrix(1,0,0,1,-1815.8718835382515,13386.901172946673) translate(19.767958984374985 70.779375)"/><use xlink:href="#t" transform="matrix(1,0,0,1,-1815.8718835382515,13386.901172946673) translate(111.89517578124999 70.779375)"/><use xlink:href="#u" transform="matrix(1,0,0,1,-1815.8718835382515,13386.901172946673) translate(212.130830078125 70.779375)"/><use xlink:href="#v" transform="matrix(1,0,0,1,-1815.8718835382515,13386.901172946673) translate(16.302255859374995 91.03412109375)"/><use xlink:href="#w" transform="matrix(1,0,0,1,-1815.8718835382515,13386.901172946673) translate(57.849824218749994 91.03412109375)"/><use xlink:href="#x" transform="matrix(1,0,0,1,-1815.8718835382515,13386.901172946673) translate(82.20783203124999 91.03412109375)"/><use xlink:href="#y" transform="matrix(1,0,0,1,-1815.8718835382515,13386.901172946673) translate(114.690625 91.03412109375)"/><use xlink:href="#z" transform="matrix(1,0,0,1,-1815.8718835382515,13386.901172946673) translate(157.627744140625 91.03412109375)"/><use xlink:href="#A" transform="matrix(1,0,0,1,-1815.8718835382515,13386.901172946673) translate(228.928046875 91.03412109375)"/><use xlink:href="#B" transform="matrix(1,0,0,1,-1815.8718835382515,13386.901172946673) translate(5.455585937499976 111.2888671875)"/><use xlink:href="#C" transform="matrix(1,0,0,1,-1815.8718835382515,13386.901172946673) translate(56.33766601562499 111.2888671875)"/><use xlink:href="#D" transform="matrix(1,0,0,1,-1815.8718835382515,13386.901172946673) translate(96.577421875 111.2888671875)"/><use xlink:href="#E" transform="matrix(1,0,0,1,-1815.8718835382515,13386.901172946673) translate(144.8683984375 111.2888671875)"/><use xlink:href="#F" transform="matrix(1,0,0,1,-1815.8718835382515,13386.901172946673) translate(173.746533203125 111.2888671875)"/><use xlink:href="#G" transform="matrix(1,0,0,1,-1815.8718835382515,13386.901172946673) translate(236.24362304687503 111.2888671875)"/><use xlink:href="#H" transform="matrix(1,0,0,1,-1815.8718835382515,13386.901172946673) translate(78.243525390625 131.54361328125)"/><use xlink:href="#I" transform="matrix(1,0,0,1,-1815.8718835382515,13386.901172946673) translate(162.335869140625 131.54361328125)"/><path d="M-1299.88 13364.6a8 8 0 0 1 9.6 0l154.1 115.56a4.5 4.5 0 0 1 0 7.2l-154.1 115.57a8 8 0 0 1-9.6 0l-154.08-115.57a4.5 4.5 0 0 1 0-7.2z" stroke="#d916a8" stroke-width="4" fill="#ff80df"/><use xlink:href="#J" transform="matrix(1,0,0,1,-1453.7616404826958,13366) translate(39.4940625 112.091875)"/><use xlink:href="#K" transform="matrix(1,0,0,1,-1453.7616404826958,13366) translate(68.928017578125 112.091875)"/><use xlink:href="#L" transform="matrix(1,0,0,1,-1453.7616404826958,13366) translate(107.23875000000001 112.091875)"/><use xlink:href="#M" transform="matrix(1,0,0,1,-1453.7616404826958,13366) translate(180.778681640625 112.091875)"/><use xlink:href="#N" transform="matrix(1,0,0,1,-1453.7616404826958,13366) translate(195.524267578125 112.091875)"/><use xlink:href="#O" transform="matrix(1,0,0,1,-1453.7616404826958,13366) translate(258.920478515625 112.091875)"/><use xlink:href="#P" transform="matrix(1,0,0,1,-1453.7616404826958,13366) translate(119.56627929687501 132.34662109375)"/><path d="M-1051.4 13404.65a6 6 0 0 1 6-6h214.05a6 6 0 0 1 6 6v158.23a6 6 0 0 1-6 6h-214.04a6 6 0 0 1-6-6z" stroke="#1071e5" stroke-width="4" fill="#cfe4ff"/><use xlink:href="#Q" transform="matrix(1,0,0,1,-1039.3918488160293,13410.647582840364) translate(16.860009765624994 71.341875)"/><use xlink:href="#R" transform="matrix(1,0,0,1,-1039.3918488160293,13410.647582840364) translate(161.716591796875 71.341875)"/><use xlink:href="#S" transform="matrix(1,0,0,1,-1039.3918488160293,13410.647582840364) translate(64.219169921875 91.59662109375)"/><path d="M-1051.4 13692.53a6 6 0 0 1 6-6h214.05a6 6 0 0 1 6 6v158.23a6 6 0 0 1-6 6h-214.04a6 6 0 0 1-6-6z" stroke="#1071e5" stroke-width="4" fill="#cfe4ff"/><use xlink:href="#Q" transform="matrix(1,0,0,1,-1039.3918488160293,13698.52734375) translate(16.860009765624994 71.341875)"/><use xlink:href="#R" transform="matrix(1,0,0,1,-1039.3918488160293,13698.52734375) translate(161.716591796875 71.341875)"/><use xlink:href="#T" transform="matrix(1,0,0,1,-1039.3918488160293,13698.52734375) translate(75.016796875 91.59662109375)"/><path d="M-1051.4 13942.76a6 6 0 0 1 6-6h214.05a6 6 0 0 1 6 6V14101a6 6 0 0 1-6 6h-214.04a6 6 0 0 1-6-6z" stroke="#1071e5" stroke-width="4" fill="#cfe4ff"/><use xlink:href="#Q" transform="matrix(1,0,0,1,-1039.3918488160293,13948.759521819273) translate(16.860009765624994 71.341875)"/><use xlink:href="#R" transform="matrix(1,0,0,1,-1039.3918488160293,13948.759521819273) translate(161.716591796875 71.341875)"/><use xlink:href="#U" transform="matrix(1,0,0,1,-1039.3918488160293,13948.759521819273) translate(82.119853515625 91.59662109375)"/><path d="M-1051.4 14193a6 6 0 0 1 6-6h214.05a6 6 0 0 1 6 6v158.22a6 6 0 0 1-6 6h-214.04a6 6 0 0 1-6-6z" stroke="#1071e5" stroke-width="4" fill="#cfe4ff"/><use xlink:href="#Q" transform="matrix(1,0,0,1,-1039.3918488160293,14198.991699888546) translate(16.860009765624994 71.341875)"/><use xlink:href="#R" transform="matrix(1,0,0,1,-1039.3918488160293,14198.991699888546) translate(161.716591796875 71.341875)"/><use xlink:href="#V" transform="matrix(1,0,0,1,-1039.3918488160293,14198.991699888546) translate(80.82430175781249 91.59662109375)"/><path d="M-1046.56 14443.22a6 6 0 0 1 6-6h204.4a6 6 0 0 1 6 6v150.96a6 6 0 0 1-6 6h-204.4a6 6 0 0 1-6-6z" stroke="#1071e5" stroke-width="4" fill="#cfe4ff"/><use xlink:href="#W" transform="matrix(1,0,0,1,-1034.5632897882515,14449.223877957818) translate(15.497363281250003 63.998125)"/><use xlink:href="#R" transform="matrix(1,0,0,1,-1034.5632897882515,14449.223877957818) translate(153.07923828125 63.998125)"/><use xlink:href="#X" transform="matrix(1,0,0,1,-1034.5632897882515,14449.223877957818) translate(68.668115234375 84.25287109375)"/><path d="M-645 13450.32c18.46 0 33.43 14.97 33.43 33.44s-14.97 33.45-33.44 33.45h-66.9c-18.47 0-33.45-14.97-33.45-33.44s14.98-33.44 33.45-33.44z" stroke="#1071e5" stroke-width="4" fill="#6db1ff"/><use xlink:href="#Y" transform="matrix(1,0,0,1,-740.345841871585,13455.319661458334) translate(46.8988525390625 34.029375)"/><path d="M-1804.54 14766.18a6 6 0 0 1 6-6h230.44a6 6 0 0 1 6 6v170.58a6 6 0 0 1-6 6h-230.44a6 6 0 0 1-6-6z" stroke="#1071e5" stroke-width="4" fill="#cfe4ff"/><use xlink:href="#Z" transform="matrix(1,0,0,1,-1792.5374651354737,14772.1834115655) translate(4.617524414062487 65.904375)"/><use xlink:href="#aa" transform="matrix(1,0,0,1,-1792.5374651354737,14772.1834115655) translate(81.7702880859375 65.904375)"/><use xlink:href="#ab" transform="matrix(1,0,0,1,-1792.5374651354737,14772.1834115655) translate(130.69882324218747 65.904375)"/><use xlink:href="#ac" transform="matrix(1,0,0,1,-1792.5374651354737,14772.1834115655) translate(155.6943896484375 65.904375)"/><use xlink:href="#ad" transform="matrix(1,0,0,1,-1792.5374651354737,14772.1834115655) translate(14.434291992187497 86.15912109375)"/><use xlink:href="#ae" transform="matrix(1,0,0,1,-1792.5374651354737,14772.1834115655) translate(53.40710449218751 86.15912109375)"/><use xlink:href="#af" transform="matrix(1,0,0,1,-1792.5374651354737,14772.1834115655) translate(67.51513183593751 86.15912109375)"/><use xlink:href="#ag" transform="matrix(1,0,0,1,-1792.5374651354737,14772.1834115655) translate(156.3401220703125 86.15912109375)"/><use xlink:href="#ah" transform="matrix(1,0,0,1,-1792.5374651354737,14772.1834115655) translate(33.25044433593749 106.4138671875)"/><use xlink:href="#ai" transform="matrix(1,0,0,1,-1792.5374651354737,14772.1834115655) translate(88.5382177734375 106.4138671875)"/><use xlink:href="#aj" transform="matrix(1,0,0,1,-1792.5374651354737,14772.1834115655) translate(112.11971191406249 106.4138671875)"/><path d="M-1049.08 14774.1a6 6 0 0 1 6-6h209.42a6 6 0 0 1 6 6v154.74a6 6 0 0 1-6 6h-209.42a6 6 0 0 1-6-6z" stroke="#1071e5" stroke-width="4" fill="#cfe4ff"/><use xlink:href="#ak" transform="matrix(1,0,0,1,-1037.0752255521404,14780.101605366941) translate(8.957109374999987 56.435625)"/><use xlink:href="#al" transform="matrix(1,0,0,1,-1037.0752255521404,14780.101605366941) translate(60.337792968749994 56.435625)"/><use xlink:href="#x" transform="matrix(1,0,0,1,-1037.0752255521404,14780.101605366941) translate(103.372998046875 56.435625)"/><use xlink:href="#am" transform="matrix(1,0,0,1,-1037.0752255521404,14780.101605366941) translate(135.85579101562502 56.435625)"/><use xlink:href="#an" transform="matrix(1,0,0,1,-1037.0752255521404,14780.101605366941) translate(150.323466796875 56.435625)"/><use xlink:href="#aa" transform="matrix(1,0,0,1,-1037.0752255521404,14780.101605366941) translate(29.281333007812492 76.69037109375)"/><use xlink:href="#ao" transform="matrix(1,0,0,1,-1037.0752255521404,14780.101605366941) translate(78.2098681640625 76.69037109375)"/><use xlink:href="#ap" transform="matrix(1,0,0,1,-1037.0752255521404,14780.101605366941) translate(102.84578613281249 76.69037109375)"/><use xlink:href="#aq" transform="matrix(1,0,0,1,-1037.0752255521404,14780.101605366941) translate(148.4312255859375 76.69037109375)"/><use xlink:href="#ar" transform="matrix(1,0,0,1,-1037.0752255521404,14780.101605366941) translate(69.65595703125 96.9451171875)"/><path d="M-2202.22 13483.76h56.5" stroke="#000" stroke-width="2" fill="none"/><path d="M-2202.2 13484.74h-1.1l.08-.94-.04-1h1.06z" stroke="#000" stroke-width=".05"/><path d="M-2130.46 13483.76l-14.27 4.64v-9.27z" stroke="#000" stroke-width="2"/><path d="M-1904.87 13472.62h56.5" stroke="#000" stroke-width="2" fill="none"/><path d="M-1904.85 13473.6h-1.02v-1.96h1.02z" stroke="#000" stroke-width=".05"/><path d="M-1833.1 13472.62l-14.27 4.63v-9.27z" stroke="#000" stroke-width="2"/><path d="M-1904.87 13494.9h37v1356.57h42.83" stroke="#000" stroke-width="2" fill="none"/><path d="M-1904.85 13495.9h-1.02v-1.96h1.02z" stroke="#000" stroke-width=".05"/><path d="M-1809.77 14851.47l-14.27 4.64v-9.26z" stroke="#000" stroke-width="2"/><path d="M-1107.78 13484.74h-23.6v-1.95h23.6zm35.9 0h-6.1v-1.95h6.1z" stroke="#000" stroke-width=".05"/><path d="M-1131.36 13484.74h-1.1l.08-.98-.1-.97h1.12z"/><path stroke="#000" stroke-width=".05"/><path d="M-1056.63 13483.76l-14.26 4.64v-9.27z"/><path d="M-1053.47 13483.76l-18.4 5.98v-11.95zm-16.45 3.3l10.14-3.3-10.14-3.3z" stroke="#000" stroke-width=".05"/><g><use xlink:href="#as" transform="matrix(1,0,0,1,-1107.7802439533255,13463.50892578125) translate(0 16.216875)"/><use xlink:href="#at" transform="matrix(1,0,0,1,-1107.7802439533255,13463.50892578125) translate(0 36.47162109375)"/></g><path d="M-1195.9 13770.67h124v1.95h-125.94v-37.25h1.95zm0-55.55h-1.94v-178.75h1.95z" stroke="#000" stroke-width=".05"/><path d="M-1195.9 13536.4h-1.94v-.3l1.95-1.46z"/><path stroke="#000" stroke-width=".05"/><path d="M-1056.63 13771.64l-14.26 4.64v-9.27z"/><path d="M-1053.47 13771.64l-18.4 5.98v-11.95zm-16.45 3.3l10.14-3.3-10.14-3.3z" stroke="#000" stroke-width=".05"/><g><use xlink:href="#au" transform="matrix(1,0,0,1,-1227.4195766806126,13715.115869912277) translate(0 16.216875)"/><use xlink:href="#av" transform="matrix(1,0,0,1,-1227.4195766806126,13715.115869912277) translate(34.49355468750001 16.216875)"/></g><path d="M-1261.37 14020.9h189.48v1.95h-191.4l-.02-105.07h1.95zm0-123.38h-1.95v-312.05h1.95z" stroke="#000" stroke-width=".05"/><path d="M-1261.37 13585.5h-1.95v-.3l1.95-1.46z"/><path stroke="#000" stroke-width=".05"/><path d="M-1056.63 14021.88l-14.26 4.63v-9.26z"/><path d="M-1053.47 14021.88l-18.4 5.97v-11.95zm-16.45 3.3l10.14-3.3-10.14-3.3z" stroke="#000" stroke-width=".05"/><g><use xlink:href="#au" transform="matrix(1,0,0,1,-1298.190175638946,13897.521706641648) translate(0 16.216875)"/><use xlink:href="#aw" transform="matrix(1,0,0,1,-1298.190175638946,13897.521706641648) translate(34.49355468750001 16.216875)"/></g><path d="M-1326.84 14242.76h254.95v1.95h-256.9v-183.26h1.96zm0-201.57h-1.95v-455.73h1.96z" stroke="#000" stroke-width=".05"/><path d="M-1326.84 13585.2v.3h-1.95v-1.76z"/><path stroke="#000" stroke-width=".05"/><path d="M-1056.63 14243.74l-14.26 4.63v-9.27z"/><path d="M-1053.47 14243.74l-18.4 5.97v-11.94zm-16.45 3.3l10.14-3.3-10.14-3.3z" stroke="#000" stroke-width=".05"/><g><use xlink:href="#au" transform="matrix(1,0,0,1,-1363.6477863160292,14041.188727565444) translate(0 16.216875)"/><use xlink:href="#ax" transform="matrix(1,0,0,1,-1363.6477863160292,14041.188727565444) translate(34.49355468750001 16.216875)"/></g><path d="M-1392.3 14517.73h325.23v1.95h-327.2v-310.15h1.96zm0-328.46h-1.96v-652.9h1.95z" stroke="#000" stroke-width=".05"/><path d="M-1392.3 13536.1v.3h-1.96v-1.76z"/><path stroke="#000" stroke-width=".05"/><path d="M-1051.8 14518.7l-14.27 4.64v-9.27z"/><path d="M-1048.64 14518.7l-18.4 5.98v-11.95zm-16.45 3.3l10.15-3.3-10.14-3.3z" stroke="#000" stroke-width=".05"/><g><use xlink:href="#ay" transform="matrix(1,0,0,1,-1453.6963589071752,14189.27122276923) translate(0 16.216875)"/><use xlink:href="#h" transform="matrix(1,0,0,1,-1453.6963589071752,14189.27122276923) translate(58.925126953125016 16.216875)"/><use xlink:href="#ax" transform="matrix(1,0,0,1,-1453.6963589071752,14189.27122276923) translate(83.64278320312502 16.216875)"/></g><path d="M-822.35 13483.76h57v1384.4h-41.8" stroke="#000" stroke-width="2" fill="none"/><path d="M-822.32 13484.74h-1.03v-1.95h1.03z" stroke="#000" stroke-width=".05"/><path d="M-822.43 14868.15l14.27-4.64v9.28z" stroke="#000" stroke-width="2"/><path d="M-822.35 13771.64h37v1063.16h-21.8" stroke="#000" stroke-width="2" fill="none"/><path d="M-822.32 13772.62h-1.03v-1.95h1.03z" stroke="#000" stroke-width=".05"/><path d="M-822.43 14834.8l14.27-4.64v9.27z" stroke="#000" stroke-width="2"/><path d="M-822.35 14021.88h17v779.57h-1.8" stroke="#000" stroke-width="2" fill="none"/><path d="M-822.32 14022.85h-1.03v-1.95h1.03z" stroke="#000" stroke-width=".05"/><path d="M-822.43 14801.45l14.27-4.64v9.28z" stroke="#000" stroke-width="2"/><path d="M-1054.4 14300.48h-37v213.22c-2.75 0-5 2.24-5 5s2.25 5 5 5v327.77h21.82" stroke="#000" stroke-width="2" fill="none"/><path d="M-1053.4 14301.45h-1.02v-1.95h1.03z" stroke="#000" stroke-width=".05"/><path d="M-1054.3 14851.47l-14.28 4.64v-9.26z" stroke="#000" stroke-width="2"/><path d="M-938.37 14603.18v144.42" stroke="#000" stroke-width="2" fill="none"/><path d="M-937.4 14603.2h-1.94v-1.02h1.95z" stroke="#000" stroke-width=".05"/><path d="M-938.37 14762.87l-4.63-14.27h9.27z" stroke="#000" stroke-width="2"/><path d="M-1559.1 14851.47h60.34v-1367.7h22.5" stroke="#000" stroke-width="2" fill="none"/><path d="M-1559.07 14852.45h-1.03v-1.95h1.03z" stroke="#000" stroke-width=".05"/><path d="M-1461 13483.76l-14.27 4.64v-9.27z" stroke="#000" stroke-width="2"/><path d="M-824.66 14901.5h146.2v-1363.8" stroke="#000" stroke-width="2" fill="none"/><path d="M-824.64 14902.47h-1.02v-1.95h1.02z" stroke="#000" stroke-width=".05"/><path d="M-678.46 13522.44l4.64 14.27h-9.27z" stroke="#000" stroke-width="2"/><defs><path fill="#fff" d="M180 0v-1490h510c348 0 508 209 508 474 0 266-160 477-507 477H370V0H180zm190-706h312c236 0 327-133 327-310 0-176-91-307-329-307H370v617" id="az"/><path fill="#fff" d="M158 0v-1118h174v172h12c41-113 157-188 290-188 26 0 70 2 91 3v181c-11-2-60-10-108-10-161 0-279 109-279 260V0H158" id="aA"/><path fill="#fff" d="M613 24c-304 0-509-231-509-576 0-350 205-580 509-580 305 0 511 230 511 580 0 345-206 576-511 576zm0-161c226 0 329-195 329-415 0-222-103-419-329-419-223 0-326 196-326 419 0 220 103 415 326 415" id="aB"/><path fill="#fff" d="M613 24c-304 0-509-231-509-576 0-350 205-580 509-580 216 0 392 114 453 309l-173 49c-33-115-133-197-280-197-223 0-326 196-326 419 0 220 103 415 326 415 150 0 252-85 285-206l172 49C1010-95 832 24 613 24" id="aC"/><path fill="#fff" d="M628 24c-324 0-524-230-524-574 0-343 198-582 503-582 237 0 487 146 487 559v75H286c9 234 145 362 343 362 132 0 231-58 273-172l174 48C1024-91 857 24 628 24zM287-650h624c-17-190-120-322-304-322-192 0-309 151-320 322" id="aD"/><path fill="#fff" d="M538 24C308 24 148-78 108-271l171-41c32 123 123 178 257 178 156 0 256-77 256-169 0-77-54-128-164-154l-186-44c-203-48-300-148-300-305 0-192 176-326 414-326 230 0 351 112 402 269l-163 42c-31-80-94-158-238-158-133 0-233 69-233 162 0 83 57 129 188 160l169 40c203 48 298 149 298 302 0 196-179 339-441 339" id="aE"/><g id="a"><use transform="matrix(0.008173828125000001,0,0,0.008173828125000001,0,0)" xlink:href="#az"/><use transform="matrix(0.008173828125000001,0,0,0.008173828125000001,10.691367187500001,0)" xlink:href="#aA"/><use transform="matrix(0.008173828125000001,0,0,0.008173828125000001,16.715478515625,0)" xlink:href="#aB"/><use transform="matrix(0.008173828125000001,0,0,0.008173828125000001,26.752939453125002,0)" xlink:href="#aC"/><use transform="matrix(0.008173828125000001,0,0,0.008173828125000001,36.316318359375,0)" xlink:href="#aD"/><use transform="matrix(0.008173828125000001,0,0,0.008173828125000001,46.075869140625,0)" xlink:href="#aE"/><use transform="matrix(0.008173828125000001,0,0,0.008173828125000001,54.91177734375,0)" xlink:href="#aE"/><use transform="matrix(0.008173828125000001,0,0,0.008173828125000001,63.747685546875005,0)" xlink:href="#aB"/></g><path fill="#fff" d="M626 20c-262 0-458-168-468-396h184c12 133 134 229 284 229 180 0 311-137 311-326 0-192-136-335-323-335-92 0-196 33-255 78l-178-22 88-738h784v167H429l-51 435h8c61-51 160-87 263-87 273 0 474 211 474 499 0 286-210 496-497 496" id="aF"/><path fill="#fff" d="M295 13c-75 0-135-60-135-135s60-135 135-135 135 60 135 135S370 13 295 13" id="aG"/><path fill="#fff" d="M154 0v-137l495-537c165-179 249-281 249-418 0-156-121-253-280-253-170 0-278 110-278 278H158c0-264 200-443 465-443 266 0 455 183 455 416 0 161-73 288-336 568L416-179v12h687V0H154" id="aH"/><path fill="#fff" d="M295 13c-75 0-135-60-135-135s60-135 135-135 135 60 135 135S370 13 295 13zm0-809c-75 0-135-60-135-135s60-135 135-135 135 60 135 135-60 135-135 135" id="aI"/><g id="b"><use transform="matrix(0.008173828125000001,0,0,0.008173828125000001,0,0)" xlink:href="#aF"/><use transform="matrix(0.008173828125000001,0,0,0.008173828125000001,9.726855468750001,0)" xlink:href="#aG"/><use transform="matrix(0.008173828125000001,0,0,0.008173828125000001,14.549414062500002,0)" xlink:href="#aH"/><use transform="matrix(0.008173828125000001,0,0,0.008173828125000001,24.758525390625003,0)" xlink:href="#aI"/></g><path fill="#fff" d="M180 0v-1490h510c348 0 508 194 508 460 0 198-88 351-276 417L1256 0h-220L726-579c-117 2-238 0-356 1V0H180zm190-747h312c235 0 327-108 327-283 0-177-92-293-329-293H370v576" id="aJ"/><path fill="#fff" d="M677 24c-213 0-288-135-325-197h-20V0H158v-1490h180v551h14c37-59 106-193 324-193 279 0 474 222 474 576 0 356-194 580-473 580zm-27-161c209 0 317-186 317-421 0-232-105-413-317-413-206 0-314 166-314 413 0 249 111 421 314 421" id="aK"/><path fill="#fff" d="M613 24c-304 0-509-231-509-576 0-350 205-580 509-580 305 0 511 230 511 580 0 345-206 576-511 576zm0-161c226 0 329-195 329-415 0-222-103-419-329-419-223 0-326 196-326 419 0 220 103 415 326 415zM469-1282H292v-9l235-267h171l236 267v9H755l-142-175" id="aL"/><g id="c"><use transform="matrix(0.008173828125000001,0,0,0.008173828125000001,0,0)" xlink:href="#aJ"/><use transform="matrix(0.008173828125000001,0,0,0.008173828125000001,10.527890625000001,0)" xlink:href="#aB"/><use transform="matrix(0.008173828125000001,0,0,0.008173828125000001,20.565351562500002,0)" xlink:href="#aK"/><use transform="matrix(0.008173828125000001,0,0,0.008173828125000001,30.81533203125,0)" xlink:href="#aL"/></g><path fill="#fff" d="M577 24c-279 0-473-224-473-580 0-354 195-576 474-576 218 0 287 134 324 193h14v-551h180V0H922v-173h-20C865-111 790 24 577 24zm27-161c203 0 314-172 314-421 0-247-108-413-314-413-212 0-317 181-317 413 0 235 108 421 317 421" id="aM"/><g id="d"><use transform="matrix(0.008173828125000001,0,0,0.008173828125000001,0,0)" xlink:href="#aM"/><use transform="matrix(0.008173828125000001,0,0,0.008173828125000001,10.249980468750001,0)" xlink:href="#aD"/></g><path fill="#fff" d="M789 20c-398 0-667-293-667-764 0-473 273-766 655-766 315 0 558 198 612 487h-196c-61-191-204-311-415-311-262 0-471 207-471 590 0 380 208 588 482 588 249 0 420-165 425-427H828v-166h572v163c0 370-256 606-611 606" id="aN"/><path fill="#fff" d="M471 26C259 26 90-98 90-318c0-256 228-303 435-329 202-27 287-16 287-108 0-139-79-219-234-219-161 0-248 86-283 164l-173-57c86-203 278-265 451-265 150 0 419 46 419 395V0H815v-152h-12C765-73 660 26 471 26zm31-159c199 0 310-134 310-271v-155c-30 35-226 55-295 64-131 17-246 59-246 186 0 116 97 176 231 176" id="aO"/><path fill="#fff" d="M158 0v-1118h175l1 205c55-151 181-225 313-225 147 0 245 90 285 228 53-141 190-228 352-228 194 0 352 125 352 384V0h-181v-749c0-161-105-225-225-225-151 0-243 103-243 244V0H807v-767c0-124-93-207-219-207-131 0-250 92-250 270V0H158" id="aP"/><path fill="#fff" d="M158 0v-1118h180V0H158zm91-1301c-68 0-125-53-125-119s57-119 125-119c69 0 126 53 126 119s-57 119-126 119" id="aQ"/><path fill="#fff" d="M678-1118v154H420V0H240v-964H20v-154h220v-149c0-194 155-293 318-293 85 0 141 18 168 30l-50 154c-19-6-47-17-97-17-111 0-159 58-159 166v109h258" id="aR"/><path fill="#fff" d="M502 418V313h118c73 0 98-17 98-66s-25-65-98-65h-82l21-161C285-4 104-228 104-552c0-350 205-580 509-580 216 0 392 114 453 309l-173 49c-33-115-133-197-280-197-223 0-326 196-326 419 0 220 103 415 326 415 150 0 252-85 285-206l172 49C1015-110 859 5 663 22v64c130 5 189 54 189 162 0 118-71 170-231 170H502" id="aS"/><path fill="#fff" d="M471 26C259 26 90-98 90-318c0-256 228-303 435-329 202-27 287-16 287-108 0-139-79-219-234-219-161 0-248 86-283 164l-173-57c86-203 278-265 451-265 150 0 419 46 419 395V0H815v-152h-12C765-73 660 26 471 26zm31-159c199 0 310-134 310-271v-155c-30 35-226 55-295 64-131 17-246 59-246 186 0 116 97 176 231 176zm187-1180c-99 0-192-83-243-83-35 0-51 40-53 79H267c4-120 55-208 162-208 104 0 174 85 241 85 33 0 49-23 56-81h123c-4 126-62 208-160 208" id="aT"/><g id="e"><use transform="matrix(0.008173828125000001,0,0,0.008173828125000001,0,0)" xlink:href="#aN"/><use transform="matrix(0.008173828125000001,0,0,0.008173828125000001,12.489609375000002,0)" xlink:href="#aO"/><use transform="matrix(0.008173828125000001,0,0,0.008173828125000001,21.889511718750004,0)" xlink:href="#aP"/><use transform="matrix(0.008173828125000001,0,0,0.008173828125000001,36.55335937500001,0)" xlink:href="#aQ"/><use transform="matrix(0.008173828125000001,0,0,0.008173828125000001,40.607578125,0)" xlink:href="#aR"/><use transform="matrix(0.008173828125000001,0,0,0.008173828125000001,46.80333984375,0)" xlink:href="#aQ"/><use transform="matrix(0.008173828125000001,0,0,0.008173828125000001,50.85755859375,0)" xlink:href="#aC"/><use transform="matrix(0.008173828125000001,0,0,0.008173828125000001,60.5844140625,0)" xlink:href="#aO"/><use transform="matrix(0.008173828125000001,0,0,0.008173828125000001,69.98431640625,0)" xlink:href="#aS"/><use transform="matrix(0.008173828125000001,0,0,0.008173828125000001,79.71117187499999,0)" xlink:href="#aT"/><use transform="matrix(0.008173828125000001,0,0,0.008173828125000001,89.11107421874999,0)" xlink:href="#aB"/></g><path d="M180 0v-1490h528c311 0 458 177 458 395 0 191-114 278-244 313v14c139 9 302 137 302 371 0 225-148 397-499 397H180zm190-168h350c232 0 321-102 321-231 0-149-120-277-311-277H370v508zm0-668h328c160 0 286-101 286-255 0-129-87-231-280-231H370v486" id="aU"/><path d="M471 26C259 26 90-98 90-318c0-256 228-303 435-329 202-27 287-16 287-108 0-139-79-219-234-219-161 0-248 86-283 164l-173-57c86-203 278-265 451-265 150 0 419 46 419 395V0H815v-152h-12C765-73 660 26 471 26zm31-159c199 0 310-134 310-271v-155c-30 35-226 55-295 64-131 17-246 59-246 186 0 116 97 176 231 176" id="aV"/><path d="M613 24c-304 0-509-231-509-576 0-350 205-580 509-580 216 0 392 114 453 309l-173 49c-33-115-133-197-280-197-223 0-326 196-326 419 0 220 103 415 326 415 150 0 252-85 285-206l172 49C1010-95 832 24 613 24" id="aW"/><path d="M158 0v-1490h180v865h22l478-493h223L593-638 1096 0H865L456-523 338-412V0H158" id="aX"/><path d="M628 24c-324 0-524-230-524-574 0-343 198-582 503-582 237 0 487 146 487 559v75H286c9 234 145 362 343 362 132 0 231-58 273-172l174 48C1024-91 857 24 628 24zM287-650h624c-17-190-120-322-304-322-192 0-309 151-320 322" id="aY"/><path d="M338-670V0H158v-1118h173l1 207c72-158 192-221 342-221 226 0 378 139 378 422V0H872v-695c0-172-96-275-252-275-161 0-282 109-282 300" id="aZ"/><path d="M577 24c-279 0-473-224-473-580 0-354 195-576 474-576 218 0 287 134 324 193h14v-551h180V0H922v-173h-20C865-111 790 24 577 24zm27-161c203 0 314-172 314-421 0-247-108-413-314-413-212 0-317 181-317 413 0 235 108 421 317 421" id="ba"/><g id="f"><use transform="matrix(0.008173828125000001,0,0,0.008173828125000001,0,0)" xlink:href="#aU"/><use transform="matrix(0.008173828125000001,0,0,0.008173828125000001,10.952929687500001,0)" xlink:href="#aV"/><use transform="matrix(0.008173828125000001,0,0,0.008173828125000001,20.352832031250003,0)" xlink:href="#aW"/><use transform="matrix(0.008173828125000001,0,0,0.008173828125000001,29.916210937500004,0)" xlink:href="#aX"/><use transform="matrix(0.008173828125000001,0,0,0.008173828125000001,38.727597656250005,0)" xlink:href="#aY"/><use transform="matrix(0.008173828125000001,0,0,0.008173828125000001,48.487148437500004,0)" xlink:href="#aZ"/><use transform="matrix(0.008173828125000001,0,0,0.008173828125000001,58.37748046875001,0)" xlink:href="#ba"/></g><path d="M232-923l-22-567h194l-22 567H232zm340 0l-22-567h194l-22 567H572" id="bb"/><path d="M613 24c-304 0-509-231-509-576 0-350 205-580 509-580 305 0 511 230 511 580 0 345-206 576-511 576zm0-161c226 0 329-195 329-415 0-222-103-419-329-419-223 0-326 196-326 419 0 220 103 415 326 415" id="bc"/><g id="g"><use transform="matrix(0.008173828125000001,0,0,0.008173828125000001,0,0)" xlink:href="#bb"/><use transform="matrix(0.008173828125000001,0,0,0.008173828125000001,7.797832031250001,0)" xlink:href="#aU"/><use transform="matrix(0.008173828125000001,0,0,0.008173828125000001,18.750761718750002,0)" xlink:href="#aV"/><use transform="matrix(0.008173828125000001,0,0,0.008173828125000001,28.150664062500006,0)" xlink:href="#aZ"/><use transform="matrix(0.008173828125000001,0,0,0.008173828125000001,38.04099609375001,0)" xlink:href="#aW"/><use transform="matrix(0.008173828125000001,0,0,0.008173828125000001,47.60437500000001,0)" xlink:href="#bc"/></g><g id="h"><use transform="matrix(0.008173828125000001,0,0,0.008173828125000001,0,0)" xlink:href="#ba"/><use transform="matrix(0.008173828125000001,0,0,0.008173828125000001,10.249980468750001,0)" xlink:href="#aY"/></g><path d="M645 0H180v-1490h484c435 0 692 280 692 742 0 466-257 748-711 748zM370-168h263c363 0 539-218 539-580 0-358-176-574-521-574H370v1154" id="bd"/><path d="M538 24C308 24 148-78 108-271l171-41c32 123 123 178 257 178 156 0 256-77 256-169 0-77-54-128-164-154l-186-44c-203-48-300-148-300-305 0-192 176-326 414-326 230 0 351 112 402 269l-163 42c-31-80-94-158-238-158-133 0-233 69-233 162 0 83 57 129 188 160l169 40c203 48 298 149 298 302 0 196-179 339-441 339" id="be"/><g id="i"><use transform="matrix(0.008173828125000001,0,0,0.008173828125000001,0,0)" xlink:href="#bd"/><use transform="matrix(0.008173828125000001,0,0,0.008173828125000001,12.08091796875,0)" xlink:href="#aV"/><use transform="matrix(0.008173828125000001,0,0,0.008173828125000001,21.4808203125,0)" xlink:href="#ba"/><use transform="matrix(0.008173828125000001,0,0,0.008173828125000001,31.730800781250004,0)" xlink:href="#bc"/><use transform="matrix(0.008173828125000001,0,0,0.008173828125000001,41.768261718750004,0)" xlink:href="#be"/></g><path d="M218-607c0-325 108-727 258-974h175c-155 315-250 682-250 974 0 265 78 531 250 886H476C306-10 218-315 218-607" id="bf"/><path d="M96 279C273-86 346-350 346-607c0-292-95-659-250-974h175c150 246 258 650 258 974 0 297-91 602-258 886H96" id="bg"/><g id="j"><use transform="matrix(0.008173828125000001,0,0,0.008173828125000001,0,0)" xlink:href="#bf"/><use transform="matrix(0.008173828125000001,0,0,0.008173828125000001,6.105849609375,0)" xlink:href="#bd"/><use transform="matrix(0.008173828125000001,0,0,0.008173828125000001,18.186767578125,0)" xlink:href="#aU"/><use transform="matrix(0.008173828125000001,0,0,0.008173828125000001,29.139697265625003,0)" xlink:href="#bg"/><use transform="matrix(0.008173828125000001,0,0,0.008173828125000001,35.245546875,0)" xlink:href="#bb"/></g><path d="M657 26c-323 0-524-166-541-416h195c15 169 171 246 346 246 202 0 356-106 356-265 5-203-294-238-475-293-239-73-380-191-380-389 0-252 224-419 512-419 294 0 499 171 508 396H992c-17-145-151-228-328-228-193 0-321 102-321 242 0 156 175 211 284 241l149 41c160 44 422 134 422 412 0 244-197 432-541 432" id="bh"/><path d="M598-1118v154H368v674c0 100 37 144 132 144 23 0 62-6 92-12L629-6c-37 13-88 20-134 20-193 0-307-107-307-290v-688H20v-154h168v-266h180v266h230" id="bi"/><path d="M158 0v-1118h174v172h12c41-113 157-188 290-188 26 0 70 2 91 3v181c-11-2-60-10-108-10-161 0-279 109-279 260V0H158" id="bj"/><g id="k"><use transform="matrix(0.008173828125000001,0,0,0.008173828125000001,0,0)" xlink:href="#bh"/><use transform="matrix(0.008173828125000001,0,0,0.008173828125000001,10.740410156250002,0)" xlink:href="#bi"/><use transform="matrix(0.008173828125000001,0,0,0.008173828125000001,16.298613281250002,0)" xlink:href="#aV"/><use transform="matrix(0.008173828125000001,0,0,0.008173828125000001,25.698515625000006,0)" xlink:href="#bj"/><use transform="matrix(0.008173828125000001,0,0,0.008173828125000001,32.26209960937501,0)" xlink:href="#bi"/></g><path d="M783 20c-382 0-661-292-661-764 0-473 279-766 661-766 302 0 548 182 601 489h-190c-42-204-217-313-411-313-268 0-476 208-476 590 0 381 209 588 476 588 195 0 369-110 411-313h190c-52 303-296 489-601 489" id="bk"/><path d="M338-1490V0H158v-1490h180" id="bl"/><path d="M537 14c-226 0-379-139-379-422v-710h180v695c0 172 97 275 253 275 160 0 281-109 281-300v-670h181V0H879v-209C806-46 684 14 537 14" id="bm"/><g id="l"><use transform="matrix(0.008173828125000001,0,0,0.008173828125000001,0,0)" xlink:href="#bk"/><use transform="matrix(0.008173828125000001,0,0,0.008173828125000001,12.228046875000002,0)" xlink:href="#aV"/><use transform="matrix(0.008173828125000001,0,0,0.008173828125000001,21.627949218750004,0)" xlink:href="#bl"/><use transform="matrix(0.008173828125000001,0,0,0.008173828125000001,25.682167968750004,0)" xlink:href="#aW"/><use transform="matrix(0.008173828125000001,0,0,0.008173828125000001,35.245546875,0)" xlink:href="#bm"/><use transform="matrix(0.008173828125000001,0,0,0.008173828125000001,45.144052734375,0)" xlink:href="#bl"/><use transform="matrix(0.008173828125000001,0,0,0.008173828125000001,49.198271484375,0)" xlink:href="#aV"/></g><path d="M295 13c-75 0-135-60-135-135s60-135 135-135 135 60 135 135S370 13 295 13zm0-809c-75 0-135-60-135-135s60-135 135-135 135 60 135 135-60 135-135 135" id="bn"/><g id="m"><use transform="matrix(0.008173828125000001,0,0,0.008173828125000001,0,0)" xlink:href="#bh"/><use transform="matrix(0.008173828125000001,0,0,0.008173828125000001,10.740410156250002,0)" xlink:href="#aW"/><use transform="matrix(0.008173828125000001,0,0,0.008173828125000001,20.3037890625,0)" xlink:href="#bc"/><use transform="matrix(0.008173828125000001,0,0,0.008173828125000001,30.341250000000002,0)" xlink:href="#bj"/><use transform="matrix(0.008173828125000001,0,0,0.008173828125000001,36.365361328125005,0)" xlink:href="#aY"/><use transform="matrix(0.008173828125000001,0,0,0.008173828125000001,46.124912109375,0)" xlink:href="#bn"/></g><path d="M180 0v-1490h908v168H370v486h669v168H370v500h727V0H180" id="bo"/><path d="M158 0v-1118h175l1 205c55-151 181-225 313-225 147 0 245 90 285 228 53-141 190-228 352-228 194 0 352 125 352 384V0h-181v-749c0-161-105-225-225-225-151 0-243 103-243 244V0H807v-767c0-124-93-207-219-207-131 0-250 92-250 270V0H158" id="bp"/><path d="M158 0v-1118h180V0H158zm91-1301c-68 0-125-53-125-119s57-119 125-119c69 0 126 53 126 119s-57 119-126 119" id="bq"/><g id="n"><use transform="matrix(0.008173828125000001,0,0,0.008173828125000001,0,0)" xlink:href="#bf"/><use transform="matrix(0.008173828125000001,0,0,0.008173828125000001,6.105849609375,0)" xlink:href="#bo"/><use transform="matrix(0.008173828125000001,0,0,0.008173828125000001,16.16783203125,0)" xlink:href="#aW"/><use transform="matrix(0.008173828125000001,0,0,0.008173828125000001,25.731210937500002,0)" xlink:href="#bc"/><use transform="matrix(0.008173828125000001,0,0,0.008173828125000001,35.768671875,0)" xlink:href="#aZ"/><use transform="matrix(0.008173828125000001,0,0,0.008173828125000001,45.65900390625001,0)" xlink:href="#bc"/><use transform="matrix(0.008173828125000001,0,0,0.008173828125000001,55.69646484375001,0)" xlink:href="#bp"/><use transform="matrix(0.008173828125000001,0,0,0.008173828125000001,70.3603125,0)" xlink:href="#bq"/><use transform="matrix(0.008173828125000001,0,0,0.008173828125000001,74.41453125000001,0)" xlink:href="#aV"/></g><path d="M593-100v-404H195v-159h398v-403h169v403h398v159H762v404H593" id="br"/><use transform="matrix(0.008173828125000001,0,0,0.008173828125000001,0,0)" xlink:href="#br" id="o"/><path d="M628 24c-324 0-524-230-524-574 0-343 198-582 503-582 237 0 487 146 487 559v75H286c9 234 145 362 343 362 132 0 231-58 273-172l174 48C1024-91 857 24 628 24zM287-650h624c-17-190-120-322-304-322-192 0-309 151-320 322zm172-632H282v-9l235-267h171l236 267v9H745l-142-175" id="bs"/><g id="p"><use transform="matrix(0.008173828125000001,0,0,0.008173828125000001,0,0)" xlink:href="#bk"/><use transform="matrix(0.008173828125000001,0,0,0.008173828125000001,12.228046875000002,0)" xlink:href="#bc"/><use transform="matrix(0.008173828125000001,0,0,0.008173828125000001,22.265507812500008,0)" xlink:href="#aZ"/><use transform="matrix(0.008173828125000001,0,0,0.008173828125000001,32.15583984375,0)" xlink:href="#be"/><use transform="matrix(0.008173828125000001,0,0,0.008173828125000001,40.991748046875,0)" xlink:href="#bq"/><use transform="matrix(0.008173828125000001,0,0,0.008173828125000001,45.04596679687501,0)" xlink:href="#be"/><use transform="matrix(0.008173828125000001,0,0,0.008173828125000001,53.88187500000001,0)" xlink:href="#bi"/><use transform="matrix(0.008173828125000001,0,0,0.008173828125000001,59.19486328125001,0)" xlink:href="#bs"/><use transform="matrix(0.008173828125000001,0,0,0.008173828125000001,68.9544140625,0)" xlink:href="#aZ"/><use transform="matrix(0.008173828125000001,0,0,0.008173828125000001,78.84474609375,0)" xlink:href="#aW"/><use transform="matrix(0.008173828125000001,0,0,0.008173828125000001,88.40812500000001,0)" xlink:href="#bq"/><use transform="matrix(0.008173828125000001,0,0,0.008173828125000001,92.46234375000002,0)" xlink:href="#aV"/><use transform="matrix(0.008173828125000001,0,0,0.008173828125000001,101.86224609375002,0)" xlink:href="#bg"/></g><path d="M798-719v166H144v-166h654" id="bt"/><use transform="matrix(0.008173828125000001,0,0,0.008173828125000001,0,0)" xlink:href="#bt" id="q"/><path d="M180 0v-1490h510c348 0 508 209 508 474 0 266-160 477-507 477H370V0H180zm190-706h312c236 0 327-133 327-310 0-176-91-307-329-307H370v617" id="bu"/><g id="r"><use transform="matrix(0.008173828125000001,0,0,0.008173828125000001,0,0)" xlink:href="#bu"/><use transform="matrix(0.008173828125000001,0,0,0.008173828125000001,10.601455078125001,0)" xlink:href="#aY"/><use transform="matrix(0.008173828125000001,0,0,0.008173828125000001,20.361005859375002,0)" xlink:href="#aZ"/><use transform="matrix(0.008173828125000001,0,0,0.008173828125000001,30.251337890625003,0)" xlink:href="#aV"/><use transform="matrix(0.008173828125000001,0,0,0.008173828125000001,39.651240234375,0)" xlink:href="#bl"/><use transform="matrix(0.008173828125000001,0,0,0.008173828125000001,43.705458984375,0)" xlink:href="#bq"/><use transform="matrix(0.008173828125000001,0,0,0.008173828125000001,47.759677734375,0)" xlink:href="#ba"/><use transform="matrix(0.008173828125000001,0,0,0.008173828125000001,58.00965820312501,0)" xlink:href="#aV"/><use transform="matrix(0.008173828125000001,0,0,0.008173828125000001,67.40956054687501,0)" xlink:href="#ba"/><use transform="matrix(0.008173828125000001,0,0,0.008173828125000001,77.65954101562501,0)" xlink:href="#aY"/><use transform="matrix(0.008173828125000001,0,0,0.008173828125000001,87.41909179687501,0)" xlink:href="#be"/></g><g id="s"><use transform="matrix(0.008173828125000001,0,0,0.008173828125000001,0,0)" xlink:href="#bu"/><use transform="matrix(0.008173828125000001,0,0,0.008173828125000001,10.601455078125001,0)" xlink:href="#aY"/><use transform="matrix(0.008173828125000001,0,0,0.008173828125000001,20.361005859375002,0)" xlink:href="#aZ"/><use transform="matrix(0.008173828125000001,0,0,0.008173828125000001,30.251337890625003,0)" xlink:href="#aV"/><use transform="matrix(0.008173828125000001,0,0,0.008173828125000001,39.651240234375,0)" xlink:href="#bl"/><use transform="matrix(0.008173828125000001,0,0,0.008173828125000001,43.705458984375,0)" xlink:href="#bq"/><use transform="matrix(0.008173828125000001,0,0,0.008173828125000001,47.759677734375,0)" xlink:href="#ba"/><use transform="matrix(0.008173828125000001,0,0,0.008173828125000001,58.00965820312501,0)" xlink:href="#aV"/><use transform="matrix(0.008173828125000001,0,0,0.008173828125000001,67.40956054687501,0)" xlink:href="#ba"/><use transform="matrix(0.008173828125000001,0,0,0.008173828125000001,77.65954101562501,0)" xlink:href="#aY"/></g><path d="M158 418v-1536h174v179h20c37-59 106-193 324-193 279 0 474 222 474 576 0 356-194 580-473 580-213 0-288-135-325-197h-14v591H158zm492-555c209 0 317-186 317-421 0-232-105-413-317-413-206 0-314 166-314 413 0 249 111 421 314 421" id="bv"/><g id="t"><use transform="matrix(0.008173828125000001,0,0,0.008173828125000001,0,0)" xlink:href="#bp"/><use transform="matrix(0.008173828125000001,0,0,0.008173828125000001,14.663847656250002,0)" xlink:href="#bm"/><use transform="matrix(0.008173828125000001,0,0,0.008173828125000001,24.562353515625006,0)" xlink:href="#bl"/><use transform="matrix(0.008173828125000001,0,0,0.008173828125000001,28.861787109375005,0)" xlink:href="#bi"/><use transform="matrix(0.008173828125000001,0,0,0.008173828125000001,34.338251953125,0)" xlink:href="#bq"/><use transform="matrix(0.008173828125000001,0,0,0.008173828125000001,38.392470703125,0)" xlink:href="#bv"/><use transform="matrix(0.008173828125000001,0,0,0.008173828125000001,48.642451171875,0)" xlink:href="#bl"/><use transform="matrix(0.008173828125000001,0,0,0.008173828125000001,52.696669921875,0)" xlink:href="#bq"/><use transform="matrix(0.008173828125000001,0,0,0.008173828125000001,56.750888671875,0)" xlink:href="#aW"/><use transform="matrix(0.008173828125000001,0,0,0.008173828125000001,66.477744140625,0)" xlink:href="#aV"/><use transform="matrix(0.008173828125000001,0,0,0.008173828125000001,75.877646484375,0)" xlink:href="#ba"/><use transform="matrix(0.008173828125000001,0,0,0.008173828125000001,86.127626953125,0)" xlink:href="#aV"/></g><g id="u"><use transform="matrix(0.008173828125000001,0,0,0.008173828125000001,0,0)" xlink:href="#bv"/><use transform="matrix(0.008173828125000001,0,0,0.008173828125000001,10.249980468750001,0)" xlink:href="#aY"/><use transform="matrix(0.008173828125000001,0,0,0.008173828125000001,20.009531250000002,0)" xlink:href="#bl"/><use transform="matrix(0.008173828125000001,0,0,0.008173828125000001,24.063750000000002,0)" xlink:href="#bc"/></g><path d="M158 0v-1118h180V0H158zm12-1264l140-294h201l-194 294H170" id="bw"/><path d="M481 0L54-1118h197c107 314 236 620 325 951 87-331 217-637 324-951h197L670 0H481" id="bx"/><g id="v"><use transform="matrix(0.008173828125000001,0,0,0.008173828125000001,0,0)" xlink:href="#aZ"/><use transform="matrix(0.008173828125000001,0,0,0.008173828125000001,9.89033203125,0)" xlink:href="#bw"/><use transform="matrix(0.008173828125000001,0,0,0.008173828125000001,13.944550781250001,0)" xlink:href="#bx"/><use transform="matrix(0.008173828125000001,0,0,0.008173828125000001,23.025673828124997,0)" xlink:href="#aY"/><use transform="matrix(0.008173828125000001,0,0,0.008173828125000001,32.785224609375,0)" xlink:href="#bl"/></g><g id="w"><use transform="matrix(0.008173828125000001,0,0,0.008173828125000001,0,0)" xlink:href="#ba"/><use transform="matrix(0.008173828125000001,0,0,0.008173828125000001,10.249980468750001,0)" xlink:href="#aV"/></g><path d="M611 442c-248 0-391-105-460-228l146-94c47 65 117 165 314 165 178 0 307-82 307-266v-224h-17C863-141 792-18 576-18c-268 0-472-195-472-546 0-346 197-568 476-568 216 0 288 133 326 193h17v-179h175V29c0 289-215 413-487 413zm-5-620c203 0 314-146 314-390 0-237-108-403-314-403-213 0-319 180-319 403 0 230 109 390 319 390" id="by"/><g id="x"><use transform="matrix(0.008173828125000001,0,0,0.008173828125000001,0,0)" xlink:href="#bl"/><use transform="matrix(0.008173828125000001,0,0,0.008173828125000001,4.05421875,0)" xlink:href="#bq"/><use transform="matrix(0.008173828125000001,0,0,0.008173828125000001,8.1084375,0)" xlink:href="#by"/><use transform="matrix(0.008173828125000001,0,0,0.008173828125000001,18.374765625000002,0)" xlink:href="#aV"/></g><g id="y"><use transform="matrix(0.008173828125000001,0,0,0.008173828125000001,0,0)" xlink:href="#aV"/><use transform="matrix(0.008173828125000001,0,0,0.008173828125000001,9.399902343750002,0)" xlink:href="#bi"/><use transform="matrix(0.008173828125000001,0,0,0.008173828125000001,14.876367187500001,0)" xlink:href="#bm"/><use transform="matrix(0.008173828125000001,0,0,0.008173828125000001,24.774873046875005,0)" xlink:href="#aV"/><use transform="matrix(0.008173828125000001,0,0,0.008173828125000001,34.174775390625,0)" xlink:href="#bl"/></g><path d="M126 0v-134l627-806v-11H146v-167h839v143L376-178v11h629V0H126" id="bz"/><g id="z"><use transform="matrix(0.008173828125000001,0,0,0.008173828125000001,0,0)" xlink:href="#bf"/><use transform="matrix(0.008173828125000001,0,0,0.008173828125000001,6.105849609375,0)" xlink:href="#aU"/><use transform="matrix(0.008173828125000001,0,0,0.008173828125000001,17.058779296875002,0)" xlink:href="#bj"/><use transform="matrix(0.008173828125000001,0,0,0.008173828125000001,23.082890625,0)" xlink:href="#bc"/><use transform="matrix(0.008173828125000001,0,0,0.008173828125000001,33.120351562500005,0)" xlink:href="#aZ"/><use transform="matrix(0.008173828125000001,0,0,0.008173828125000001,43.01068359375,0)" xlink:href="#bz"/><use transform="matrix(0.008173828125000001,0,0,0.008173828125000001,52.010068359375005,0)" xlink:href="#aY"/><use transform="matrix(0.008173828125000001,0,0,0.008173828125000001,61.76961914062501,0)" xlink:href="#bn"/></g><path d="M653-1490V0H466v-1314h-10L96-1047v-204l324-239h233" id="bA"/><path d="M65 0l393-574-370-544h210c88 136 192 297 267 435 67-142 176-302 264-435h206L661-564 1053 0H844c-94-144-206-310-287-458C484-308 366-142 273 0H65" id="bB"/><path d="M128 359l88-567h206L266 359H128" id="bC"/><g id="A"><use transform="matrix(0.008173828125000001,0,0,0.008173828125000001,0,0)" xlink:href="#bA"/><use transform="matrix(0.008173828125000001,0,0,0.008173828125000001,6.808798828125001,0)" xlink:href="#bB"/><use transform="matrix(0.008173828125000001,0,0,0.008173828125000001,15.947138671875003,0)" xlink:href="#bC"/></g><g id="B"><use transform="matrix(0.008173828125000001,0,0,0.008173828125000001,0,0)" xlink:href="#bu"/><use transform="matrix(0.008173828125000001,0,0,0.008173828125000001,10.691367187500001,0)" xlink:href="#bj"/><use transform="matrix(0.008173828125000001,0,0,0.008173828125000001,16.993388671875003,0)" xlink:href="#aV"/><use transform="matrix(0.008173828125000001,0,0,0.008173828125000001,26.393291015625003,0)" xlink:href="#bi"/><use transform="matrix(0.008173828125000001,0,0,0.008173828125000001,31.951494140625005,0)" xlink:href="#aV"/><use transform="matrix(0.008173828125000001,0,0,0.008173828125000001,41.35139648437501,0)" xlink:href="#bn"/></g><path d="M295 13c-75 0-135-60-135-135s60-135 135-135 135 60 135 135S370 13 295 13" id="bD"/><path d="M626 20c-262 0-458-168-468-396h184c12 133 134 229 284 229 180 0 311-137 311-326 0-192-136-335-323-335-92 0-196 33-255 78l-178-22 88-738h784v167H429l-51 435h8c61-51 160-87 263-87 273 0 474 211 474 499 0 286-210 496-497 496" id="bE"/><g id="C"><use transform="matrix(0.008173828125000001,0,0,0.008173828125000001,0,0)" xlink:href="#bA"/><use transform="matrix(0.008173828125000001,0,0,0.008173828125000001,6.808798828125001,0)" xlink:href="#bD"/><use transform="matrix(0.008173828125000001,0,0,0.008173828125000001,11.394316406250002,0)" xlink:href="#bE"/><use transform="matrix(0.008173828125000001,0,0,0.008173828125000001,21.570732421875004,0)" xlink:href="#bB"/><use transform="matrix(0.008173828125000001,0,0,0.008173828125000001,30.709072265625004,0)" xlink:href="#bC"/></g><path d="M784 20c-382 0-662-292-662-764 0-473 280-766 662-766s660 293 660 766c0 472-278 764-660 764zm0-176c266 0 475-207 475-588 0-383-209-590-475-590-268 0-477 208-477 590 0 380 209 588 477 588" id="bF"/><g id="D"><use transform="matrix(0.008173828125000001,0,0,0.008173828125000001,0,0)" xlink:href="#bF"/><use transform="matrix(0.008173828125000001,0,0,0.008173828125000001,12.800214843750002,0)" xlink:href="#bm"/><use transform="matrix(0.008173828125000001,0,0,0.008173828125000001,22.698720703125005,0)" xlink:href="#bj"/><use transform="matrix(0.008173828125000001,0,0,0.008173828125000001,28.722832031250004,0)" xlink:href="#bc"/><use transform="matrix(0.008173828125000001,0,0,0.008173828125000001,38.76029296875001,0)" xlink:href="#bn"/></g><path d="M154 0v-137l495-537c165-179 249-281 249-418 0-156-121-253-280-253-170 0-278 110-278 278H158c0-264 200-443 465-443 266 0 455 183 455 416 0 161-73 288-336 568L416-179v12h687V0H154" id="bG"/><g id="E"><use transform="matrix(0.008173828125000001,0,0,0.008173828125000001,0,0)" xlink:href="#bG"/><use transform="matrix(0.008173828125000001,0,0,0.008173828125000001,10.209111328125001,0)" xlink:href="#bB"/><use transform="matrix(0.008173828125000001,0,0,0.008173828125000001,19.347451171875,0)" xlink:href="#bC"/></g><g id="F"><use transform="matrix(0.008173828125000001,0,0,0.008173828125000001,0,0)" xlink:href="#bu"/><use transform="matrix(0.008173828125000001,0,0,0.008173828125000001,10.691367187500001,0)" xlink:href="#bl"/><use transform="matrix(0.008173828125000001,0,0,0.008173828125000001,14.745585937500001,0)" xlink:href="#aV"/><use transform="matrix(0.008173828125000001,0,0,0.008173828125000001,24.145488281250003,0)" xlink:href="#bi"/><use transform="matrix(0.008173828125000001,0,0,0.008173828125000001,29.621953125000005,0)" xlink:href="#bq"/><use transform="matrix(0.008173828125000001,0,0,0.008173828125000001,33.67617187500001,0)" xlink:href="#aZ"/><use transform="matrix(0.008173828125000001,0,0,0.008173828125000001,43.566503906250006,0)" xlink:href="#aV"/><use transform="matrix(0.008173828125000001,0,0,0.008173828125000001,52.966406250000006,0)" xlink:href="#bn"/></g><path d="M635 20c-292 0-500-160-510-396h192c11 142 145 229 315 229 187 0 323-105 323-260 0-161-125-274-346-274H488v-165h121c174 0 294-100 294-254 0-148-104-245-266-245-152 0-291 85-297 230H157c8-234 222-395 484-395 278 0 448 188 448 400 0 168-95 291-247 336v12c190 31 301 169 301 357 0 244-216 425-508 425" id="bH"/><g id="G"><use transform="matrix(0.008173828125000001,0,0,0.008173828125000001,0,0)" xlink:href="#bH"/><use transform="matrix(0.008173828125000001,0,0,0.008173828125000001,10.339892578125001,0)" xlink:href="#bB"/><use transform="matrix(0.008173828125000001,0,0,0.008173828125000001,19.478232421875003,0)" xlink:href="#bC"/></g><g id="H"><use transform="matrix(0.008173828125000001,0,0,0.008173828125000001,0,0)" xlink:href="#bd"/><use transform="matrix(0.008173828125000001,0,0,0.008173828125000001,12.08091796875,0)" xlink:href="#bq"/><use transform="matrix(0.008173828125000001,0,0,0.008173828125000001,16.13513671875,0)" xlink:href="#aV"/><use transform="matrix(0.008173828125000001,0,0,0.008173828125000001,25.535039062500005,0)" xlink:href="#bp"/><use transform="matrix(0.008173828125000001,0,0,0.008173828125000001,40.19888671875,0)" xlink:href="#aV"/><use transform="matrix(0.008173828125000001,0,0,0.008173828125000001,49.5987890625,0)" xlink:href="#aZ"/><use transform="matrix(0.008173828125000001,0,0,0.008173828125000001,59.48912109375,0)" xlink:href="#bi"/><use transform="matrix(0.008173828125000001,0,0,0.008173828125000001,64.802109375,0)" xlink:href="#aY"/><use transform="matrix(0.008173828125000001,0,0,0.008173828125000001,74.56166015625,0)" xlink:href="#bn"/></g><g id="I"><use transform="matrix(0.008173828125000001,0,0,0.008173828125000001,0,0)" xlink:href="#bE"/><use transform="matrix(0.008173828125000001,0,0,0.008173828125000001,10.176416015625001,0)" xlink:href="#bB"/><use transform="matrix(0.008173828125000001,0,0,0.008173828125000001,19.314755859375005,0)" xlink:href="#bg"/></g><g id="J"><use transform="matrix(0.008173828125000001,0,0,0.008173828125000001,0,0)" xlink:href="#bo"/><use transform="matrix(0.008173828125000001,0,0,0.008173828125000001,10.061982421875001,0)" xlink:href="#bp"/></g><path d="M1096 418H916v-591h-14C865-111 790 24 577 24c-279 0-473-224-473-580 0-354 195-576 474-576 218 0 287 134 324 193h20v-179h174V418zM604-137c203 0 314-172 314-421 0-247-108-413-314-413-212 0-317 181-317 413 0 235 108 421 317 421" id="bI"/><g id="K"><use transform="matrix(0.008173828125000001,0,0,0.008173828125000001,0,0)" xlink:href="#bI"/><use transform="matrix(0.008173828125000001,0,0,0.008173828125000001,10.249980468750001,0)" xlink:href="#bm"/><use transform="matrix(0.008173828125000001,0,0,0.008173828125000001,20.148486328125003,0)" xlink:href="#aV"/><use transform="matrix(0.008173828125000001,0,0,0.008173828125000001,29.548388671875003,0)" xlink:href="#bl"/></g><g id="L"><use transform="matrix(0.008173828125000001,0,0,0.008173828125000001,0,0)" xlink:href="#bv"/><use transform="matrix(0.008173828125000001,0,0,0.008173828125000001,10.249980468750001,0)" xlink:href="#aY"/><use transform="matrix(0.008173828125000001,0,0,0.008173828125000001,20.009531250000002,0)" xlink:href="#bj"/><use transform="matrix(0.008173828125000001,0,0,0.008173828125000001,26.033642578125,0)" xlink:href="#aW"/><use transform="matrix(0.008173828125000001,0,0,0.008173828125000001,35.597021484375006,0)" xlink:href="#aY"/><use transform="matrix(0.008173828125000001,0,0,0.008173828125000001,45.356572265625005,0)" xlink:href="#aZ"/><use transform="matrix(0.008173828125000001,0,0,0.008173828125000001,55.246904296875,0)" xlink:href="#bi"/><use transform="matrix(0.008173828125000001,0,0,0.008173828125000001,60.723369140625,0)" xlink:href="#bq"/><use transform="matrix(0.008173828125000001,0,0,0.008173828125000001,64.777587890625,0)" xlink:href="#bl"/></g><use transform="matrix(0.008173828125000001,0,0,0.008173828125000001,0,0)" xlink:href="#bc" id="M"/><path d="M471 26C259 26 90-98 90-318c0-256 228-303 435-329 202-27 287-16 287-108 0-139-79-219-234-219-161 0-248 86-283 164l-173-57c86-203 278-265 451-265 150 0 419 46 419 395V0H815v-152h-12C765-73 660 26 471 26zm31-159c199 0 310-134 310-271v-155c-30 35-226 55-295 64-131 17-246 59-246 186 0 116 97 176 231 176zm-23-1131l140-294h201l-194 294H479" id="bJ"/><g id="N"><use transform="matrix(0.008173828125000001,0,0,0.008173828125000001,0,0)" xlink:href="#bm"/><use transform="matrix(0.008173828125000001,0,0,0.008173828125000001,9.898505859375001,0)" xlink:href="#be"/><use transform="matrix(0.008173828125000001,0,0,0.008173828125000001,18.7344140625,0)" xlink:href="#bm"/><use transform="matrix(0.008173828125000001,0,0,0.008173828125000001,28.632919921875,0)" xlink:href="#bJ"/><use transform="matrix(0.008173828125000001,0,0,0.008173828125000001,38.032822265625,0)" xlink:href="#bj"/><use transform="matrix(0.008173828125000001,0,0,0.008173828125000001,44.59640625,0)" xlink:href="#bq"/><use transform="matrix(0.008173828125000001,0,0,0.008173828125000001,48.650625000000005,0)" xlink:href="#bc"/></g><g id="O"><use transform="matrix(0.008173828125000001,0,0,0.008173828125000001,0,0)" xlink:href="#be"/><use transform="matrix(0.008173828125000001,0,0,0.008173828125000001,8.835908203125001,0)" xlink:href="#aY"/></g><path d="M383-449c-3-277 82-343 222-425 88-53 156-134 156-250 0-139-108-227-243-227-118 0-235 70-246 236H82c10-251 200-395 436-395 259 0 427 165 427 393 0 161-74 273-203 352-132 80-180 132-178 316H383zm93 462c-75 0-135-60-135-134 0-75 60-135 135-135 74 0 134 60 134 135 0 74-60 134-134 134" id="bK"/><g id="P"><use transform="matrix(0.008173828125000001,0,0,0.008173828125000001,0,0)" xlink:href="#aY"/><use transform="matrix(0.008173828125000001,0,0,0.008173828125000001,9.75955078125,0)" xlink:href="#aZ"/><use transform="matrix(0.008173828125000001,0,0,0.008173828125000001,19.649882812500003,0)" xlink:href="#aW"/><use transform="matrix(0.008173828125000001,0,0,0.008173828125000001,29.213261718750005,0)" xlink:href="#bc"/><use transform="matrix(0.008173828125000001,0,0,0.008173828125000001,39.250722656250005,0)" xlink:href="#aZ"/><use transform="matrix(0.008173828125000001,0,0,0.008173828125000001,49.14105468750001,0)" xlink:href="#bi"/><use transform="matrix(0.008173828125000001,0,0,0.008173828125000001,54.617519531250004,0)" xlink:href="#bj"/><use transform="matrix(0.008173828125000001,0,0,0.008173828125000001,60.919541015625,0)" xlink:href="#aV"/><use transform="matrix(0.008173828125000001,0,0,0.008173828125000001,70.319443359375,0)" xlink:href="#bK"/></g><path d="M692-1560L212 224H46l480-1784h166" id="bL"/><path d="M180 0v-1490h270l367 940c28 72 75 218 110 339 35-117 81-264 110-339l362-940h271V0h-187c2-448-5-837 7-1287-157 497-311 829-483 1287H842C666-458 514-784 354-1284c12 438 5 843 7 1284H180" id="bM"/><path d="M628 24c-324 0-524-230-524-574 0-343 198-582 503-582 237 0 487 146 487 559v75H286c9 234 145 362 343 362 132 0 231-58 273-172l174 48C1024-91 857 24 628 24zM287-650h624c-17-190-120-322-304-322-192 0-309 151-320 322zm237-614l140-294h201l-194 294H524" id="bN"/><g id="Q"><use transform="matrix(0.008173828125000001,0,0,0.008173828125000001,0,0)" xlink:href="#bu"/><use transform="matrix(0.008173828125000001,0,0,0.008173828125000001,10.691367187500001,0)" xlink:href="#bj"/><use transform="matrix(0.008173828125000001,0,0,0.008173828125000001,16.715478515625,0)" xlink:href="#bc"/><use transform="matrix(0.008173828125000001,0,0,0.008173828125000001,26.752939453125002,0)" xlink:href="#bp"/><use transform="matrix(0.008173828125000001,0,0,0.008173828125000001,41.41678710937501,0)" xlink:href="#bc"/><use transform="matrix(0.008173828125000001,0,0,0.008173828125000001,51.127294921875006,0)" xlink:href="#bx"/><use transform="matrix(0.008173828125000001,0,0,0.008173828125000001,60.208417968750005,0)" xlink:href="#aY"/><use transform="matrix(0.008173828125000001,0,0,0.008173828125000001,69.96796875000001,0)" xlink:href="#bL"/><use transform="matrix(0.008173828125000001,0,0,0.008173828125000001,76.00025390625001,0)" xlink:href="#bM"/><use transform="matrix(0.008173828125000001,0,0,0.008173828125000001,91.12183593750001,0)" xlink:href="#aV"/><use transform="matrix(0.008173828125000001,0,0,0.008173828125000001,100.52173828125001,0)" xlink:href="#aZ"/><use transform="matrix(0.008173828125000001,0,0,0.008173828125000001,110.4120703125,0)" xlink:href="#bi"/><use transform="matrix(0.008173828125000001,0,0,0.008173828125000001,115.72505859374999,0)" xlink:href="#bN"/><use transform="matrix(0.008173828125000001,0,0,0.008173828125000001,125.484609375,0)" xlink:href="#bp"/></g><g id="R"><use transform="matrix(0.008173828125000001,0,0,0.008173828125000001,0,0)" xlink:href="#aY"/><use transform="matrix(0.008173828125000001,0,0,0.008173828125000001,9.75955078125,0)" xlink:href="#bp"/></g><g id="S"><use transform="matrix(0.008173828125000001,0,0,0.008173828125000001,0,0)" xlink:href="#bd"/><use transform="matrix(0.008173828125000001,0,0,0.008173828125000001,12.08091796875,0)" xlink:href="#bq"/><use transform="matrix(0.008173828125000001,0,0,0.008173828125000001,16.13513671875,0)" xlink:href="#aV"/><use transform="matrix(0.008173828125000001,0,0,0.008173828125000001,25.535039062500005,0)" xlink:href="#bp"/><use transform="matrix(0.008173828125000001,0,0,0.008173828125000001,40.19888671875,0)" xlink:href="#aV"/><use transform="matrix(0.008173828125000001,0,0,0.008173828125000001,49.5987890625,0)" xlink:href="#aZ"/><use transform="matrix(0.008173828125000001,0,0,0.008173828125000001,59.48912109375,0)" xlink:href="#bi"/><use transform="matrix(0.008173828125000001,0,0,0.008173828125000001,64.802109375,0)" xlink:href="#aY"/></g><g id="T"><use transform="matrix(0.008173828125000001,0,0,0.008173828125000001,0,0)" xlink:href="#bu"/><use transform="matrix(0.008173828125000001,0,0,0.008173828125000001,10.691367187500001,0)" xlink:href="#bl"/><use transform="matrix(0.008173828125000001,0,0,0.008173828125000001,14.745585937500001,0)" xlink:href="#aV"/><use transform="matrix(0.008173828125000001,0,0,0.008173828125000001,24.145488281250003,0)" xlink:href="#bi"/><use transform="matrix(0.008173828125000001,0,0,0.008173828125000001,29.621953125000005,0)" xlink:href="#bq"/><use transform="matrix(0.008173828125000001,0,0,0.008173828125000001,33.67617187500001,0)" xlink:href="#aZ"/><use transform="matrix(0.008173828125000001,0,0,0.008173828125000001,43.566503906250006,0)" xlink:href="#aV"/></g><g id="U"><use transform="matrix(0.008173828125000001,0,0,0.008173828125000001,0,0)" xlink:href="#bF"/><use transform="matrix(0.008173828125000001,0,0,0.008173828125000001,12.800214843750002,0)" xlink:href="#bm"/><use transform="matrix(0.008173828125000001,0,0,0.008173828125000001,22.698720703125005,0)" xlink:href="#bj"/><use transform="matrix(0.008173828125000001,0,0,0.008173828125000001,28.722832031250004,0)" xlink:href="#bc"/></g><g id="V"><use transform="matrix(0.008173828125000001,0,0,0.008173828125000001,0,0)" xlink:href="#bu"/><use transform="matrix(0.008173828125000001,0,0,0.008173828125000001,10.691367187500001,0)" xlink:href="#bj"/><use transform="matrix(0.008173828125000001,0,0,0.008173828125000001,16.993388671875003,0)" xlink:href="#aV"/><use transform="matrix(0.008173828125000001,0,0,0.008173828125000001,26.393291015625003,0)" xlink:href="#bi"/><use transform="matrix(0.008173828125000001,0,0,0.008173828125000001,31.951494140625005,0)" xlink:href="#aV"/></g><path d="M180 0v-1490h510c348 0 508 194 508 460 0 198-88 351-276 417L1256 0h-220L726-579c-117 2-238 0-356 1V0H180zm190-747h312c235 0 327-108 327-283 0-177-92-293-329-293H370v576" id="bO"/><path d="M677 24c-213 0-288-135-325-197h-20V0H158v-1490h180v551h14c37-59 106-193 324-193 279 0 474 222 474 576 0 356-194 580-473 580zm-27-161c209 0 317-186 317-421 0-232-105-413-317-413-206 0-314 166-314 413 0 249 111 421 314 421" id="bP"/><g id="W"><use transform="matrix(0.008173828125000001,0,0,0.008173828125000001,0,0)" xlink:href="#bO"/><use transform="matrix(0.008173828125000001,0,0,0.008173828125000001,10.527890625000001,0)" xlink:href="#aY"/><use transform="matrix(0.008173828125000001,0,0,0.008173828125000001,20.287441406250004,0)" xlink:href="#bP"/><use transform="matrix(0.008173828125000001,0,0,0.008173828125000001,30.70089843750001,0)" xlink:href="#aV"/><use transform="matrix(0.008173828125000001,0,0,0.008173828125000001,40.10080078125001,0)" xlink:href="#bq"/><use transform="matrix(0.008173828125000001,0,0,0.008173828125000001,44.155019531250005,0)" xlink:href="#bB"/><use transform="matrix(0.008173828125000001,0,0,0.008173828125000001,53.29335937500001,0)" xlink:href="#aV"/><use transform="matrix(0.008173828125000001,0,0,0.008173828125000001,62.69326171875001,0)" xlink:href="#bL"/><use transform="matrix(0.008173828125000001,0,0,0.008173828125000001,68.725546875,0)" xlink:href="#bM"/><use transform="matrix(0.008173828125000001,0,0,0.008173828125000001,83.84712890625,0)" xlink:href="#aV"/><use transform="matrix(0.008173828125000001,0,0,0.008173828125000001,93.24703125,0)" xlink:href="#aZ"/><use transform="matrix(0.008173828125000001,0,0,0.008173828125000001,103.13736328125,0)" xlink:href="#bi"/><use transform="matrix(0.008173828125000001,0,0,0.008173828125000001,108.4503515625,0)" xlink:href="#bN"/><use transform="matrix(0.008173828125000001,0,0,0.008173828125000001,118.20990234375,0)" xlink:href="#bp"/></g><g id="X"><use transform="matrix(0.008173828125000001,0,0,0.008173828125000001,0,0)" xlink:href="#aU"/><use transform="matrix(0.008173828125000001,0,0,0.008173828125000001,10.952929687500001,0)" xlink:href="#bj"/><use transform="matrix(0.008173828125000001,0,0,0.008173828125000001,16.977041015625,0)" xlink:href="#bc"/><use transform="matrix(0.008173828125000001,0,0,0.008173828125000001,27.014501953125002,0)" xlink:href="#aZ"/><use transform="matrix(0.008173828125000001,0,0,0.008173828125000001,36.904833984375,0)" xlink:href="#bz"/><use transform="matrix(0.008173828125000001,0,0,0.008173828125000001,45.904218750000005,0)" xlink:href="#aY"/></g><g id="Y"><use transform="matrix(0.008173828125000001,0,0,0.008173828125000001,0,0)" xlink:href="#bo"/><use transform="matrix(0.008173828125000001,0,0,0.008173828125000001,10.061982421875001,0)" xlink:href="#aZ"/><use transform="matrix(0.008173828125000001,0,0,0.008173828125000001,19.952314453125002,0)" xlink:href="#ba"/></g><g id="Z"><use transform="matrix(0.008173828125000001,0,0,0.008173828125000001,0,0)" xlink:href="#bk"/><use transform="matrix(0.008173828125000001,0,0,0.008173828125000001,12.228046875000002,0)" xlink:href="#bc"/><use transform="matrix(0.008173828125000001,0,0,0.008173828125000001,22.265507812500008,0)" xlink:href="#bp"/><use transform="matrix(0.008173828125000001,0,0,0.008173828125000001,36.92935546875,0)" xlink:href="#bv"/><use transform="matrix(0.008173828125000001,0,0,0.008173828125000001,47.34281250000001,0)" xlink:href="#aV"/><use transform="matrix(0.008173828125000001,0,0,0.008173828125000001,56.74271484375001,0)" xlink:href="#bj"/><use transform="matrix(0.008173828125000001,0,0,0.008173828125000001,63.04473632812501,0)" xlink:href="#aV"/></g><g id="aa"><use transform="matrix(0.008173828125000001,0,0,0.008173828125000001,0,0)" xlink:href="#be"/><use transform="matrix(0.008173828125000001,0,0,0.008173828125000001,8.835908203125001,0)" xlink:href="#aW"/><use transform="matrix(0.008173828125000001,0,0,0.008173828125000001,18.399287109375003,0)" xlink:href="#bc"/><use transform="matrix(0.008173828125000001,0,0,0.008173828125000001,28.436748046875003,0)" xlink:href="#bj"/><use transform="matrix(0.008173828125000001,0,0,0.008173828125000001,34.460859375,0)" xlink:href="#aY"/></g><g id="ab"><use transform="matrix(0.008173828125000001,0,0,0.008173828125000001,0,0)" xlink:href="#ba"/><use transform="matrix(0.008173828125000001,0,0,0.008173828125000001,10.249980468750001,0)" xlink:href="#bc"/></g><g id="ac"><use transform="matrix(0.008173828125000001,0,0,0.008173828125000001,0,0)" xlink:href="#bm"/><use transform="matrix(0.008173828125000001,0,0,0.008173828125000001,9.898505859375001,0)" xlink:href="#be"/><use transform="matrix(0.008173828125000001,0,0,0.008173828125000001,18.7344140625,0)" xlink:href="#bm"/><use transform="matrix(0.008173828125000001,0,0,0.008173828125000001,28.632919921875,0)" xlink:href="#bJ"/><use transform="matrix(0.008173828125000001,0,0,0.008173828125000001,38.032822265625,0)" xlink:href="#bj"/><use transform="matrix(0.008173828125000001,0,0,0.008173828125000001,44.59640625,0)" xlink:href="#bq"/><use transform="matrix(0.008173828125000001,0,0,0.008173828125000001,48.650625000000005,0)" xlink:href="#bc"/></g><g id="ad"><use transform="matrix(0.008173828125000001,0,0,0.008173828125000001,0,0)" xlink:href="#aW"/><use transform="matrix(0.008173828125000001,0,0,0.008173828125000001,9.563378906250001,0)" xlink:href="#bc"/><use transform="matrix(0.008173828125000001,0,0,0.008173828125000001,19.600839843750002,0)" xlink:href="#bp"/></g><use transform="matrix(0.008173828125000001,0,0,0.008173828125000001,0,0)" xlink:href="#aV" id="ae"/><path d="M502 418V313h118c73 0 98-17 98-66s-25-65-98-65h-82l21-161C285-4 104-228 104-552c0-350 205-580 509-580 216 0 392 114 453 309l-173 49c-33-115-133-197-280-197-223 0-326 196-326 419 0 220 103 415 326 415 150 0 252-85 285-206l172 49C1015-110 859 5 663 22v64c130 5 189 54 189 162 0 118-71 170-231 170H502" id="bQ"/><path d="M471 26C259 26 90-98 90-318c0-256 228-303 435-329 202-27 287-16 287-108 0-139-79-219-234-219-161 0-248 86-283 164l-173-57c86-203 278-265 451-265 150 0 419 46 419 395V0H815v-152h-12C765-73 660 26 471 26zm31-159c199 0 310-134 310-271v-155c-30 35-226 55-295 64-131 17-246 59-246 186 0 116 97 176 231 176zm187-1180c-99 0-192-83-243-83-35 0-51 40-53 79H267c4-120 55-208 162-208 104 0 174 85 241 85 33 0 49-23 56-81h123c-4 126-62 208-160 208" id="bR"/><g id="af"><use transform="matrix(0.008173828125000001,0,0,0.008173828125000001,0,0)" xlink:href="#bv"/><use transform="matrix(0.008173828125000001,0,0,0.008173828125000001,10.249980468750001,0)" xlink:href="#bc"/><use transform="matrix(0.008173828125000001,0,0,0.008173828125000001,20.287441406250004,0)" xlink:href="#aZ"/><use transform="matrix(0.008173828125000001,0,0,0.008173828125000001,30.177773437500004,0)" xlink:href="#bi"/><use transform="matrix(0.008173828125000001,0,0,0.008173828125000001,35.65423828125,0)" xlink:href="#bm"/><use transform="matrix(0.008173828125000001,0,0,0.008173828125000001,45.552744140625,0)" xlink:href="#aV"/><use transform="matrix(0.008173828125000001,0,0,0.008173828125000001,54.952646484375,0)" xlink:href="#bQ"/><use transform="matrix(0.008173828125000001,0,0,0.008173828125000001,64.679501953125,0)" xlink:href="#bR"/><use transform="matrix(0.008173828125000001,0,0,0.008173828125000001,74.079404296875,0)" xlink:href="#bc"/></g><g id="ag"><use transform="matrix(0.008173828125000001,0,0,0.008173828125000001,0,0)" xlink:href="#by"/><use transform="matrix(0.008173828125000001,0,0,0.008173828125000001,10.266328125000001,0)" xlink:href="#bl"/><use transform="matrix(0.008173828125000001,0,0,0.008173828125000001,14.320546875000002,0)" xlink:href="#bc"/><use transform="matrix(0.008173828125000001,0,0,0.008173828125000001,24.358007812500002,0)" xlink:href="#bP"/><use transform="matrix(0.008173828125000001,0,0,0.008173828125000001,34.77146484375,0)" xlink:href="#aV"/><use transform="matrix(0.008173828125000001,0,0,0.008173828125000001,44.1713671875,0)" xlink:href="#bl"/></g><g id="ah"><use transform="matrix(0.008173828125000001,0,0,0.008173828125000001,0,0)" xlink:href="#bf"/><use transform="matrix(0.008173828125000001,0,0,0.008173828125000001,6.105849609375,0)" xlink:href="#bi"/><use transform="matrix(0.008173828125000001,0,0,0.008173828125000001,11.418837890625001,0)" xlink:href="#bc"/><use transform="matrix(0.008173828125000001,0,0,0.008173828125000001,21.456298828125,0)" xlink:href="#ba"/><use transform="matrix(0.008173828125000001,0,0,0.008173828125000001,31.706279296875003,0)" xlink:href="#bc"/><use transform="matrix(0.008173828125000001,0,0,0.008173828125000001,41.743740234375004,0)" xlink:href="#be"/></g><g id="ai"><use transform="matrix(0.008173828125000001,0,0,0.008173828125000001,0,0)" xlink:href="#bc"/><use transform="matrix(0.008173828125000001,0,0,0.008173828125000001,10.0374609375,0)" xlink:href="#be"/></g><g id="aj"><use transform="matrix(0.008173828125000001,0,0,0.008173828125000001,0,0)" xlink:href="#bm"/><use transform="matrix(0.008173828125000001,0,0,0.008173828125000001,9.898505859375001,0)" xlink:href="#be"/><use transform="matrix(0.008173828125000001,0,0,0.008173828125000001,18.7344140625,0)" xlink:href="#bm"/><use transform="matrix(0.008173828125000001,0,0,0.008173828125000001,28.632919921875,0)" xlink:href="#bJ"/><use transform="matrix(0.008173828125000001,0,0,0.008173828125000001,38.032822265625,0)" xlink:href="#bj"/><use transform="matrix(0.008173828125000001,0,0,0.008173828125000001,44.59640625,0)" xlink:href="#bq"/><use transform="matrix(0.008173828125000001,0,0,0.008173828125000001,48.650625000000005,0)" xlink:href="#bc"/><use transform="matrix(0.008173828125000001,0,0,0.008173828125000001,58.688085937500006,0)" xlink:href="#be"/><use transform="matrix(0.008173828125000001,0,0,0.008173828125000001,67.523994140625,0)" xlink:href="#bg"/></g><path d="M789 20c-398 0-667-293-667-764 0-473 273-766 655-766 315 0 558 198 612 487h-196c-61-191-204-311-415-311-262 0-471 207-471 590 0 380 208 588 482 588 249 0 420-165 425-427H828v-166h572v163c0 370-256 606-611 606" id="bS"/><g id="ak"><use transform="matrix(0.008173828125000001,0,0,0.008173828125000001,0,0)" xlink:href="#bS"/><use transform="matrix(0.008173828125000001,0,0,0.008173828125000001,12.489609375000002,0)" xlink:href="#bj"/><use transform="matrix(0.008173828125000001,0,0,0.008173828125000001,18.791630859375005,0)" xlink:href="#aV"/><use transform="matrix(0.008173828125000001,0,0,0.008173828125000001,27.946318359375006,0)" xlink:href="#bx"/><use transform="matrix(0.008173828125000001,0,0,0.008173828125000001,37.272656250000004,0)" xlink:href="#aV"/></g><g id="al"><use transform="matrix(0.008173828125000001,0,0,0.008173828125000001,0,0)" xlink:href="#aZ"/><use transform="matrix(0.008173828125000001,0,0,0.008173828125000001,9.89033203125,0)" xlink:href="#bc"/><use transform="matrix(0.008173828125000001,0,0,0.008173828125000001,19.600839843750002,0)" xlink:href="#bx"/><use transform="matrix(0.008173828125000001,0,0,0.008173828125000001,28.927177734375,0)" xlink:href="#aV"/></g><use transform="matrix(0.008173828125000001,0,0,0.008173828125000001,0,0)" xlink:href="#aY" id="am"/><g id="an"><use transform="matrix(0.008173828125000001,0,0,0.008173828125000001,0,0)" xlink:href="#aZ"/><use transform="matrix(0.008173828125000001,0,0,0.008173828125000001,9.89033203125,0)" xlink:href="#bc"/><use transform="matrix(0.008173828125000001,0,0,0.008173828125000001,19.600839843750002,0)" xlink:href="#bx"/><use transform="matrix(0.008173828125000001,0,0,0.008173828125000001,28.681962890625,0)" xlink:href="#bc"/></g><g id="ao"><use transform="matrix(0.008173828125000001,0,0,0.008173828125000001,0,0)" xlink:href="#aZ"/><use transform="matrix(0.008173828125000001,0,0,0.008173828125000001,9.89033203125,0)" xlink:href="#bc"/></g><path d="M678-1118v154H420V0H240v-964H20v-154h220v-149c0-194 155-293 318-293 85 0 141 18 168 30l-50 154c-19-6-47-17-97-17-111 0-159 58-159 166v109h258" id="bT"/><g id="ap"><use transform="matrix(0.008173828125000001,0,0,0.008173828125000001,0,0)" xlink:href="#bv"/><use transform="matrix(0.008173828125000001,0,0,0.008173828125000001,10.249980468750001,0)" xlink:href="#aY"/><use transform="matrix(0.008173828125000001,0,0,0.008173828125000001,20.009531250000002,0)" xlink:href="#bj"/><use transform="matrix(0.008173828125000001,0,0,0.008173828125000001,26.573115234375003,0)" xlink:href="#bT"/><use transform="matrix(0.008173828125000001,0,0,0.008173828125000001,32.768876953125,0)" xlink:href="#bq"/><use transform="matrix(0.008173828125000001,0,0,0.008173828125000001,36.823095703125006,0)" xlink:href="#bl"/></g><g id="aq"><use transform="matrix(0.008173828125000001,0,0,0.008173828125000001,0,0)" xlink:href="#ba"/><use transform="matrix(0.008173828125000001,0,0,0.008173828125000001,10.249980468750001,0)" xlink:href="#bc"/></g><g id="ar"><use transform="matrix(0.008173828125000001,0,0,0.008173828125000001,0,0)" xlink:href="#bm"/><use transform="matrix(0.008173828125000001,0,0,0.008173828125000001,9.898505859375001,0)" xlink:href="#be"/><use transform="matrix(0.008173828125000001,0,0,0.008173828125000001,18.7344140625,0)" xlink:href="#bm"/><use transform="matrix(0.008173828125000001,0,0,0.008173828125000001,28.632919921875,0)" xlink:href="#bJ"/><use transform="matrix(0.008173828125000001,0,0,0.008173828125000001,38.032822265625,0)" xlink:href="#bj"/><use transform="matrix(0.008173828125000001,0,0,0.008173828125000001,44.59640625,0)" xlink:href="#bq"/><use transform="matrix(0.008173828125000001,0,0,0.008173828125000001,48.650625000000005,0)" xlink:href="#bc"/></g><path d="M98-1322v-168h1126v168H757V0H567v-1322H98" id="bU"/><g id="as"><use transform="matrix(0.008173828125000001,0,0,0.008173828125000001,0,0)" xlink:href="#bU"/><use transform="matrix(0.008173828125000001,0,0,0.008173828125000001,9.49798828125,0)" xlink:href="#bc"/><use transform="matrix(0.008173828125000001,0,0,0.008173828125000001,19.535449218750003,0)" xlink:href="#bv"/></g><path d="M1490 29c-191 0-293-139-293-303v-78c0-164 105-302 293-302 192 0 291 139 291 302v78c0 164-102 303-291 303zM523-831c-191 0-293-139-293-303v-78c0-164 105-302 293-302 192 0 291 139 291 302v78c0 164-102 303-291 303zM404 0l1024-1490h169L573 0H404zm1086-102c130-4 138-119 138-250 0-88-34-172-138-172-129 0-140 119-140 250 0 89 37 172 140 172zM523-962c130-4 138-119 138-250 0-88-34-172-138-172-129 0-140 119-140 250 0 89 37 172 140 172" id="bV"/><g id="at"><use transform="matrix(0.008173828125000001,0,0,0.008173828125000001,0,0)" xlink:href="#bA"/><use transform="matrix(0.008173828125000001,0,0,0.008173828125000001,6.808798828125001,0)" xlink:href="#bV"/></g><g id="au"><use transform="matrix(0.008173828125000001,0,0,0.008173828125000001,0,0)" xlink:href="#bU"/><use transform="matrix(0.008173828125000001,0,0,0.008173828125000001,9.49798828125,0)" xlink:href="#bc"/><use transform="matrix(0.008173828125000001,0,0,0.008173828125000001,19.535449218750003,0)" xlink:href="#bv"/></g><g id="av"><use transform="matrix(0.008173828125000001,0,0,0.008173828125000001,0,0)" xlink:href="#bE"/><use transform="matrix(0.008173828125000001,0,0,0.008173828125000001,10.176416015625001,0)" xlink:href="#bV"/></g><path d="M646 20c-332 0-524-278-524-764 0-483 194-766 524-766s524 283 524 766c0 485-191 764-524 764zm0-166c218 0 341-220 341-598 0-380-123-601-341-601s-341 222-341 601c0 378 123 598 341 598" id="bW"/><g id="aw"><use transform="matrix(0.008173828125000001,0,0,0.008173828125000001,0,0)" xlink:href="#bG"/><use transform="matrix(0.008173828125000001,0,0,0.008173828125000001,10.209111328125001,0)" xlink:href="#bW"/><use transform="matrix(0.008173828125000001,0,0,0.008173828125000001,20.769697265625002,0)" xlink:href="#bV"/></g><g id="ax"><use transform="matrix(0.008173828125000001,0,0,0.008173828125000001,0,0)" xlink:href="#bE"/><use transform="matrix(0.008173828125000001,0,0,0.008173828125000001,10.176416015625001,0)" xlink:href="#bW"/><use transform="matrix(0.008173828125000001,0,0,0.008173828125000001,20.737001953125002,0)" xlink:href="#bV"/></g><path d="M52 0l541-1490h220L1361 0h-200l-149-416H398L254 0H52zm404-582h497c-103-290-145-390-251-756-108 377-145 460-246 756" id="bX"/><g id="ay"><use transform="matrix(0.008173828125000001,0,0,0.008173828125000001,0,0)" xlink:href="#bX"/><use transform="matrix(0.008173828125000001,0,0,0.008173828125000001,11.549619140625001,0)" xlink:href="#bP"/><use transform="matrix(0.008173828125000001,0,0,0.008173828125000001,21.963076171875002,0)" xlink:href="#aV"/><use transform="matrix(0.008173828125000001,0,0,0.008173828125000001,31.362978515625002,0)" xlink:href="#bq"/><use transform="matrix(0.008173828125000001,0,0,0.008173828125000001,35.417197265625006,0)" xlink:href="#bB"/><use transform="matrix(0.008173828125000001,0,0,0.008173828125000001,44.17954101562501,0)" xlink:href="#bc"/></g></defs></g></svg>