<svg xmlns="http://www.w3.org/2000/svg" xmlns:xlink="http://www.w3.org/1999/xlink" xmlns:lucid="lucid" width="2663.7" height="1371.94"><g transform="translate(2602 -6709.74525390625)" lucid:page-tab-id="0_0"><path d="M-2600 6760H59.7v1319.68H-2600z" stroke="#000" stroke-width="4" fill-opacity="0"/><path d="M-2600 6711.74h475.37V6748H-2600z" stroke="#000" stroke-width="4"/><use xlink:href="#a" transform="matrix(1,0,0,1,-2592,6719.74525390625) translate(0 16.589501953125)"/><use xlink:href="#b" transform="matrix(1,0,0,1,-2592,6719.74525390625) translate(78.493271484375 16.589501953125)"/><use xlink:href="#c" transform="matrix(1,0,0,1,-2592,6719.74525390625) translate(108.17244140625 16.589501953125)"/><use xlink:href="#d" transform="matrix(1,0,0,1,-2592,6719.74525390625) translate(184.53234375 16.589501953125)"/><use xlink:href="#e" transform="matrix(1,0,0,1,-2592,6719.74525390625) translate(209.25 16.589501953125)"/><use xlink:href="#f" transform="matrix(1,0,0,1,-2592,6719.74525390625) translate(296.808046875 16.589501953125)"/><use xlink:href="#g" transform="matrix(1,0,0,1,-2592,6719.74525390625) translate(320.422236328125 16.589501953125)"/><use xlink:href="#d" transform="matrix(1,0,0,1,-2592,6719.74525390625) translate(367.76504882812503 16.589501953125)"/><use xlink:href="#h" transform="matrix(1,0,0,1,-2592,6719.74525390625) translate(392.48270507812504 16.589501953125)"/><path d="M-2519 6853a12 12 0 0 1 12-12h28v291.42h-40zM-2519 7132.42h40v574.84h-40zM-2519 7707.26h40v291.42h-28a12 12 0 0 1-12-12z" stroke="#3a414a" stroke-width="2" fill="#fff"/><path d="M-2479 6841H-33.3a12 12 0 0 1 12 12v279.42H-2479zM-2479 7132.42H-21.3v574.84H-2479zM-2479 7707.26H-21.3v279.42a12 12 0 0 1-12 12H-2479z" stroke="#3a414a" stroke-width="2" fill="none"/><use xlink:href="#i" transform="matrix(-1.8369701987210297e-16,-1,1,-1.8369701987210297e-16,-2519,7132.419270833332) translate(115.3767529296875 26.089501953125)"/><use xlink:href="#j" transform="matrix(-1.8369701987210297e-16,-1,1,-1.8369701987210297e-16,-2518.999999999999,7707.263834635416) translate(253.18626953125 26.089501953125)"/><use xlink:href="#k" transform="matrix(-1.8369701987210297e-16,-1,1,-1.8369701987210297e-16,-2519,7998.68310546875) translate(84.8556787109375 26.089501953125)"/><path d="M-2265.64 6953.27c18.47 0 33.44 14.97 33.44 33.44 0 18.48-14.97 33.45-33.44 33.45h-66.9c-18.46 0-33.43-14.97-33.43-33.44 0-18.46 14.97-33.43 33.44-33.43z" stroke="#1071e5" stroke-width="4" fill="#6db1ff"/><use xlink:href="#l" transform="matrix(1,0,0,1,-2360.97265625,6958.265625) translate(43.130717773437496 34.029375)"/><path d="M-2070.9 6943.13a6 6 0 0 1 6-6h119.67a6 6 0 0 1 6 6v87.16a6 6 0 0 1-6 6h-119.66a6 6 0 0 1-6-6z" stroke="#1071e5" stroke-width="4" fill="#cfe4ff"/><use xlink:href="#m" transform="matrix(1,0,0,1,-2058.8943444757515,6949.1328125) translate(8.083520507812494 44.716875)"/><use xlink:href="#n" transform="matrix(1,0,0,1,-2058.8943444757515,6949.1328125) translate(51.5110693359375 44.716875)"/><path d="M-1797.9 6936.84a6 6 0 0 1 6-6h136.4a6 6 0 0 1 6 6v99.74a6 6 0 0 1-6 6h-136.4a6 6 0 0 1-6-6z" stroke="#1071e5" stroke-width="4" fill="#cfe4ff"/><use xlink:href="#o" transform="matrix(1,0,0,1,-1785.8963954348817,6942.835297175068) translate(21.675815429687496 40.966875)"/><use xlink:href="#p" transform="matrix(1,0,0,1,-1785.8963954348817,6942.835297175068) translate(38.113383789062496 61.22162109375)"/><path d="M-1556.45 6927a6 6 0 0 1 6-6h162.5a6 6 0 0 1 6 6v119.42a6 6 0 0 1-6 6h-162.5a6 6 0 0 1-6-6z" stroke="#1071e5" stroke-width="4" fill="#cfe4ff"/><use xlink:href="#q" transform="matrix(1,0,0,1,-1544.4488238558743,6933) translate(29.591694335937504 39.841875)"/><use xlink:href="#r" transform="matrix(1,0,0,1,-1544.4488238558743,6933) translate(102.8128466796875 39.841875)"/><use xlink:href="#s" transform="matrix(1,0,0,1,-1544.4488238558743,6933) translate(20.976479492187494 60.09662109375)"/><use xlink:href="#t" transform="matrix(1,0,0,1,-1544.4488238558743,6933) translate(81.95323730468749 60.09662109375)"/><use xlink:href="#u" transform="matrix(1,0,0,1,-1544.4488238558743,6933) translate(96.0612646484375 60.09662109375)"/><use xlink:href="#v" transform="matrix(1,0,0,1,-1544.4488238558743,6933) translate(55.580380859375 80.3513671875)"/><path d="M-2399 7228.75a6 6 0 0 1 6-6h187.83a6 6 0 0 1 6 6v138.5a6 6 0 0 1-6 6H-2393a6 6 0 0 1-6-6z" stroke="#1071e5" stroke-width="4" fill="#cfe4ff"/><use xlink:href="#w" transform="matrix(1,0,0,1,-2387,7234.754200625322) translate(0.13952148437499545 67.810625)"/><use xlink:href="#x" transform="matrix(1,0,0,1,-2387,7234.754200625322) translate(55.459990234375006 67.810625)"/><path d="M-2009.86 7216.02a8 8 0 0 1 9.6 0l104.5 78.38a4.5 4.5 0 0 1 0 7.2l-104.5 78.38a8 8 0 0 1-9.6 0l-104.5-78.38a4.5 4.5 0 0 1 0-7.2z" stroke="#d916a8" stroke-width="4" fill="#ff80df"/><use xlink:href="#y" transform="matrix(1,0,0,1,-2114.1692708333335,7217.419270833333) translate(31.218764648437492 87.091875)"/><use xlink:href="#z" transform="matrix(1,0,0,1,-2114.1692708333335,7217.419270833333) translate(57.767358398437494 87.091875)"/><use xlink:href="#A" transform="matrix(1,0,0,1,-2114.1692708333335,7217.419270833333) translate(102.3147216796875 87.091875)"/><path d="M-1810.96 7238.3a6 6 0 0 1 6-6h162.5a6 6 0 0 1 6 6v119.4a6 6 0 0 1-6 6h-162.5a6 6 0 0 1-6-6z" stroke="#1071e5" stroke-width="4" fill="#cfe4ff"/><use xlink:href="#B" transform="matrix(1,0,0,1,-1798.9563802083335,7244.289469401042) translate(21.3361279296875 49.966875)"/><use xlink:href="#C" transform="matrix(1,0,0,1,-1798.9563802083335,7244.289469401042) translate(90.94444824218749 49.966875)"/><use xlink:href="#D" transform="matrix(1,0,0,1,-1798.9563802083335,7244.289469401042) translate(35.46458984375 70.22162109375)"/><path d="M-1544.2 7247.52a6 6 0 0 1 6-6h138a6 6 0 0 1 6 6v100.95a6 6 0 0 1-6 6h-138a6 6 0 0 1-6-6z" stroke="#1071e5" stroke-width="4" fill="#cfe4ff"/><use xlink:href="#E" transform="matrix(1,0,0,1,-1532.1863651240892,7253.524160544732) translate(36.5127099609375 41.248125)"/><use xlink:href="#F" transform="matrix(1,0,0,1,-1532.1863651240892,7253.524160544732) translate(21.575039062499997 61.50287109375)"/><path d="M-1301.94 7238.3a6 6 0 0 1 6-6h162.5a6 6 0 0 1 6 6v119.4a6 6 0 0 1-6 6h-162.5a6 6 0 0 1-6-6z" stroke="#1071e5" stroke-width="4" fill="#cfe4ff"/><use xlink:href="#G" transform="matrix(1,0,0,1,-1289.9412675034155,7244.289469401042) translate(3.995351562499991 49.966875)"/><use xlink:href="#z" transform="matrix(1,0,0,1,-1289.9412675034155,7244.289469401042) translate(77.7559765625 49.966875)"/><use xlink:href="#H" transform="matrix(1,0,0,1,-1289.9412675034155,7244.289469401042) translate(122.30333984375 49.966875)"/><use xlink:href="#I" transform="matrix(1,0,0,1,-1289.9412675034155,7244.289469401042) translate(44.9584912109375 70.22162109375)"/><path d="M-953.08 7227.23a8 8 0 0 1 9.6 0l89.55 67.17a4.5 4.5 0 0 1 0 7.2l-89.55 67.16a8 8 0 0 1-9.6 0l-89.55-67.16a4.5 4.5 0 0 1 0-7.2z" stroke="#d916a8" stroke-width="4" fill="#ff80df"/><use xlink:href="#J" transform="matrix(1,0,0,1,-1042.4337111509565,7228.633870442708) translate(47.69348632812499 77.029375)"/><use xlink:href="#K" transform="matrix(1,0,0,1,-1042.4337111509565,7228.633870442708) translate(85.08875 77.029375)"/><use xlink:href="#L" transform="matrix(1,0,0,1,-1042.4337111509565,7228.633870442708) translate(109.72466796875 77.029375)"/><path d="M-769.13 7245a6 6 0 0 1 6-6h144.7a6 6 0 0 1 6 6v106a6 6 0 0 1-6 6h-144.7a6 6 0 0 1-6-6z" stroke="#1071e5" stroke-width="4" fill="#cfe4ff"/><use xlink:href="#M" transform="matrix(1,0,0,1,-757.1264194842897,7250.995078004436) translate(22.545239257812497 54.810625)"/><path d="M-513.37 7236.5a6 6 0 0 1 6-6h167.24a6 6 0 0 1 6 6v123a6 6 0 0 1-6 6h-167.24a6 6 0 0 1-6-6z" stroke="#1071e5" stroke-width="4" fill="#cfe4ff"/><use xlink:href="#N" transform="matrix(1,0,0,1,-501.36921889230416,7242.508964214142) translate(13.483974609374997 50.904375)"/><use xlink:href="#O" transform="matrix(1,0,0,1,-501.36921889230416,7242.508964214142) translate(85.98583007812499 50.904375)"/><use xlink:href="#P" transform="matrix(1,0,0,1,-501.36921889230416,7242.508964214142) translate(123.07866210937499 50.904375)"/><use xlink:href="#Q" transform="matrix(1,0,0,1,-501.36921889230416,7242.508964214142) translate(42.7217578125 71.15912109375)"/><path d="M-134.74 7264.56c18.47 0 33.44 14.97 33.44 33.44s-14.97 33.44-33.44 33.44h-66.9c-18.46 0-33.44-14.97-33.44-33.44s14.98-33.44 33.45-33.44z" stroke="#1071e5" stroke-width="4" fill="#6db1ff"/><use xlink:href="#R" transform="matrix(1,0,0,1,-230.07512593920774,7269.555094401042) translate(46.8988525390625 34.029375)"/><path d="M-757.62 7501.08a6 6 0 0 1 6-6h121.7a6 6 0 0 1 6 6v88.68a6 6 0 0 1-6 6h-121.7a6 6 0 0 1-6-6z" stroke="#1071e5" stroke-width="4" fill="#cfe4ff"/><use xlink:href="#S" transform="matrix(1,0,0,1,-745.6192580259565,7507.083246929656) translate(19.713583984375 45.091875)"/><path d="M-532.43 7469.58a6 6 0 0 1 6-6h205.35a6 6 0 0 1 6 6v151.68a6 6 0 0 1-6 6h-205.35a6 6 0 0 1-6-6z" stroke="#1071e5" stroke-width="4" fill="#cfe4ff"/><use xlink:href="#T" transform="matrix(1,0,0,1,-520.4272007342897,7475.578938802083) translate(22.14816894531249 64.341875)"/><use xlink:href="#U" transform="matrix(1,0,0,1,-520.4272007342897,7475.578938802083) translate(74.6159716796875 64.341875)"/><use xlink:href="#V" transform="matrix(1,0,0,1,-520.4272007342897,7475.578938802083) translate(151.8422998046875 64.341875)"/><use xlink:href="#W" transform="matrix(1,0,0,1,-520.4272007342897,7475.578938802083) translate(13.487998046874992 84.59662109375)"/><use xlink:href="#X" transform="matrix(1,0,0,1,-520.4272007342897,7475.578938802083) translate(81.575986328125 84.59662109375)"/><use xlink:href="#Y" transform="matrix(1,0,0,1,-520.4272007342897,7475.578938802083) translate(96.04366210937499 84.59662109375)"/><path d="M-1286.77 7804.7a6 6 0 0 1 6-6h132.17a6 6 0 0 1 6 6v96.56a6 6 0 0 1-6 6h-132.17a6 6 0 0 1-6-6z" stroke="#1071e5" stroke-width="4" fill="#cfe4ff"/><use xlink:href="#Z" transform="matrix(1,0,0,1,-1274.7708226605193,7810.688490628215) translate(35.5493896484375 37.466875)"/><use xlink:href="#aa" transform="matrix(1,0,0,1,-1274.7708226605193,7810.688490628215) translate(21.265624999999993 57.72162109375)"/><path d="M-1035.53 7793.26a6 6 0 0 1 6-6h162.5a6 6 0 0 1 6 6v119.42a6 6 0 0 1-6 6h-162.5a6 6 0 0 1-6-6z" stroke="#1071e5" stroke-width="4" fill="#cfe4ff"/><use xlink:href="#ab" transform="matrix(1,0,0,1,-1023.5338434938526,7799.263834635416) translate(12.381699218749986 49.966875)"/><use xlink:href="#ac" transform="matrix(1,0,0,1,-1023.5338434938526,7799.263834635416) translate(74.51914062499999 49.966875)"/><use xlink:href="#ad" transform="matrix(1,0,0,1,-1023.5338434938526,7799.263834635416) translate(99.236796875 49.966875)"/><use xlink:href="#ae" transform="matrix(1,0,0,1,-1023.5338434938526,7799.263834635416) translate(37.5407421875 70.22162109375)"/><path d="M-2229.2 6986.7h137.8" stroke="#000" stroke-width="2" fill="none"/><path d="M-2229.17 6987.7h-1.1l.08-.95-.03-1.02h1.06z" stroke="#000" stroke-width=".05"/><path d="M-2076.13 6986.7l-14.27 4.65v-9.28z" stroke="#000" stroke-width="2"/><path d="M-1936.23 6986.7h117.83" stroke="#000" stroke-width="2" fill="none"/><path d="M-1936.2 6987.7h-1.03v-1.97h1.02z" stroke="#000" stroke-width=".05"/><path d="M-1803.13 6986.7l-14.27 4.65v-9.28z" stroke="#000" stroke-width="2"/><path d="M-1646.5 6986.7h69.55" stroke="#000" stroke-width="2" fill="none"/><path d="M-1646.48 6987.7h-1.03v-1.97h1.02z" stroke="#000" stroke-width=".05"/><path d="M-1561.68 6986.7l-14.27 4.65v-9.28z" stroke="#000" stroke-width="2"/><path d="M-2196.17 7298h59.5" stroke="#000" stroke-width="2" fill="none"/><path d="M-2196.14 7298.97h-1.03v-1.95h1.03z" stroke="#000" stroke-width=".05"/><path d="M-2121.4 7298l-14.28 4.63v-9.27z" stroke="#000" stroke-width="2"/><path d="M-1867.18 7298.97h-23.77v-1.95h23.77zm35.72 0h-6.26v-1.95h6.26z" stroke="#000" stroke-width=".05"/><path d="M-1890.92 7298.97h-1.12l.1-.97-.1-.98h1.12z"/><path stroke="#000" stroke-width=".05"/><path d="M-1816.2 7298l-14.26 4.63v-9.27z"/><path d="M-1813.04 7298l-18.4 5.98v-11.96zm-16.44 3.3l10.13-3.3-10.13-3.3z" stroke="#000" stroke-width=".05"/><use xlink:href="#af" transform="matrix(1,0,0,1,-1867.181298767383,7287.871731770833) translate(0 16.216875)"/><path d="M-2004.1 7422.6h264.5v1.95h-266.44v-39.97h1.95zm535.88 1.95h-239.33v-1.95h237.38v-47.62h1.95z" stroke="#000" stroke-width=".05"/><path d="M-2005.06 7383.58l.97-.06v1.1h-1.94v-1.1z"/><path stroke="#000" stroke-width=".05"/><path d="M-1464.56 7373.98h-9.27l4.63-14.27z"/><path d="M-1463.22 7374.95h-11.95l5.98-18.4zm-9.27-1.95h6.6l-3.3-10.14z" stroke="#000" stroke-width=".05"/><use xlink:href="#ag" transform="matrix(1,0,0,1,-1739.5991919103071,7413.451565755208) translate(0 16.216875)"/><path d="M-1633.45 7298h68.76" stroke="#000" stroke-width="2" fill="none"/><path d="M-1633.42 7298.97h-1.03v-1.95h1.03z" stroke="#000" stroke-width=".05"/><path d="M-1549.42 7298l-14.27 4.63v-9.27z" stroke="#000" stroke-width="2"/><path d="M-1391.2 7286.85h68.76" stroke="#000" stroke-width="2" fill="none"/><path d="M-1391.18 7287.83h-1.02v-1.95h1.02z" stroke="#000" stroke-width=".05"/><path d="M-1307.18 7286.85l-14.26 4.64v-9.28z" stroke="#000" stroke-width="2"/><path d="M-1391.2 7309.15h49.26v543.82h34.67" stroke="#000" stroke-width="2" fill="none"/><path d="M-1391.18 7310.12h-1.02v-1.95h1.02z" stroke="#000" stroke-width=".05"/><path d="M-1292 7852.97l-14.27 4.64v-9.26z" stroke="#000" stroke-width="2"/><path d="M-1124.43 7286.85h70.03" stroke="#000" stroke-width="2" fill="none"/><path d="M-1124.4 7287.83h-1.03v-1.95h1.02z" stroke="#000" stroke-width=".05"/><path d="M-1039.14 7286.85l-14.26 4.64v-9.28z" stroke="#000" stroke-width="2"/><path d="M-1124.43 7309.15h37v525.73h31.4" stroke="#000" stroke-width="2" fill="none"/><path d="M-1124.4 7310.12h-1.03v-1.95h1.02z" stroke="#000" stroke-width=".05"/><path d="M-1040.77 7834.88l-14.27 4.63v-9.26z" stroke="#000" stroke-width="2"/><path d="M-825.35 7298.97h-23.77v-1.95h23.77zm35.72 0h-6.26v-1.95h6.27z" stroke="#000" stroke-width=".05"/><path d="M-849.1 7298.97h-1.1l.08-.97-.1-.98h1.13z"/><path stroke="#000" stroke-width=".05"/><path d="M-774.36 7298l-14.27 4.63v-9.27z"/><path d="M-771.2 7298l-18.4 5.98v-11.96zm-16.45 3.3l10.13-3.3-10.13-3.3z" stroke="#000" stroke-width=".05"/><use xlink:href="#af" transform="matrix(1,0,0,1,-825.3513380823385,7287.871731770833) translate(0 16.216875)"/><path d="M-778.12 7544.45v1.95h-146.33v-1.95zm-169.18-9.16h-1.96v-161.93h1.96z" stroke="#000" stroke-width=".05"/><path d="M-948.28 7372.37l.98-.06v1.1h-1.96v-1.1z"/><path stroke="#000" stroke-width=".05"/><path d="M-762.86 7545.42l-14.26 4.64v-9.27z"/><path d="M-759.7 7545.42l-18.4 5.98v-11.96zm-16.45 3.3l10.14-3.3-10.15-3.3z" stroke="#000" stroke-width=".05"/><use xlink:href="#ag" transform="matrix(1,0,0,1,-956.5008862771574,7535.294013671874) translate(0 16.216875)"/><path d="M-609.43 7298h75.56" stroke="#000" stroke-width="2" fill="none"/><path d="M-609.4 7298.97h-1.03v-1.95h1.03z" stroke="#000" stroke-width=".05"/><path d="M-518.6 7298l-14.27 4.63v-9.27z" stroke="#000" stroke-width="2"/><path d="M-331.13 7298h75.55" stroke="#000" stroke-width="2" fill="none"/><path d="M-331.1 7298.97h-1.03v-1.95h1.02z" stroke="#000" stroke-width=".05"/><path d="M-240.3 7298l-14.28 4.63v-9.27z" stroke="#000" stroke-width="2"/><path d="M-620.93 7545.42h68" stroke="#000" stroke-width="2" fill="none"/><path d="M-620.9 7546.4h-1.03v-1.95h1.02z" stroke="#000" stroke-width=".05"/><path d="M-537.66 7545.42l-14.27 4.64v-9.27z" stroke="#000" stroke-width="2"/><path d="M-312.07 7545.42h143.88v-193.48" stroke="#000" stroke-width="2" fill="none"/><path d="M-312.05 7546.4h-1.02v-1.95h1.02z" stroke="#000" stroke-width=".05"/><path d="M-168.2 7336.68l4.65 14.26h-9.27z" stroke="#000" stroke-width="2"/><path d="M-1139.6 7871.07h83.56" stroke="#000" stroke-width="2" fill="none"/><path d="M-1139.58 7872.04h-1.02v-1.95h1.02z" stroke="#000" stroke-width=".05"/><path d="M-1040.77 7871.07l-14.27 4.63v-9.27z" stroke="#000" stroke-width="2"/><path d="M-2519 6853a12 12 0 0 1 12-12h28v291.42h-40zM-2519 7132.42h40v574.84h-40zM-2519 7707.26h40v291.42h-28a12 12 0 0 1-12-12z" stroke="#3a414a" stroke-width="2" fill="#fff"/><path d="M-2479 6841H-33.3a12 12 0 0 1 12 12v279.42H-2479zM-2479 7132.42H-21.3v574.84H-2479zM-2479 7707.26H-21.3v279.42a12 12 0 0 1-12 12H-2479z" stroke="#3a414a" stroke-width="2" fill="none"/><use xlink:href="#i" transform="matrix(-1.8369701987210297e-16,-1,1,-1.8369701987210297e-16,-2519,7132.419270833332) translate(115.3767529296875 26.089501953125)"/><use xlink:href="#j" transform="matrix(-1.8369701987210297e-16,-1,1,-1.8369701987210297e-16,-2518.999999999999,7707.263834635416) translate(253.18626953125 26.089501953125)"/><use xlink:href="#k" transform="matrix(-1.8369701987210297e-16,-1,1,-1.8369701987210297e-16,-2519,7998.68310546875) translate(84.8556787109375 26.089501953125)"/><path d="M-2265.64 6953.27c18.47 0 33.44 14.97 33.44 33.44 0 18.48-14.97 33.45-33.44 33.45h-66.9c-18.46 0-33.43-14.97-33.43-33.44 0-18.46 14.97-33.43 33.44-33.43z" stroke="#1071e5" stroke-width="4" fill="#6db1ff"/><use xlink:href="#l" transform="matrix(1,0,0,1,-2360.97265625,6958.265625) translate(43.130717773437496 34.029375)"/><path d="M-2070.9 6943.13a6 6 0 0 1 6-6h119.67a6 6 0 0 1 6 6v87.16a6 6 0 0 1-6 6h-119.66a6 6 0 0 1-6-6z" stroke="#1071e5" stroke-width="4" fill="#cfe4ff"/><use xlink:href="#m" transform="matrix(1,0,0,1,-2058.8943444757515,6949.1328125) translate(8.083520507812494 44.716875)"/><use xlink:href="#n" transform="matrix(1,0,0,1,-2058.8943444757515,6949.1328125) translate(51.5110693359375 44.716875)"/><path d="M-1797.9 6936.84a6 6 0 0 1 6-6h136.4a6 6 0 0 1 6 6v99.74a6 6 0 0 1-6 6h-136.4a6 6 0 0 1-6-6z" stroke="#1071e5" stroke-width="4" fill="#cfe4ff"/><use xlink:href="#o" transform="matrix(1,0,0,1,-1785.8963954348817,6942.835297175068) translate(21.675815429687496 40.966875)"/><use xlink:href="#p" transform="matrix(1,0,0,1,-1785.8963954348817,6942.835297175068) translate(38.113383789062496 61.22162109375)"/><path d="M-1556.45 6927a6 6 0 0 1 6-6h162.5a6 6 0 0 1 6 6v119.42a6 6 0 0 1-6 6h-162.5a6 6 0 0 1-6-6z" stroke="#1071e5" stroke-width="4" fill="#cfe4ff"/><use xlink:href="#q" transform="matrix(1,0,0,1,-1544.4488238558743,6933) translate(29.591694335937504 39.841875)"/><use xlink:href="#r" transform="matrix(1,0,0,1,-1544.4488238558743,6933) translate(102.8128466796875 39.841875)"/><use xlink:href="#s" transform="matrix(1,0,0,1,-1544.4488238558743,6933) translate(20.976479492187494 60.09662109375)"/><use xlink:href="#t" transform="matrix(1,0,0,1,-1544.4488238558743,6933) translate(81.95323730468749 60.09662109375)"/><use xlink:href="#u" transform="matrix(1,0,0,1,-1544.4488238558743,6933) translate(96.0612646484375 60.09662109375)"/><use xlink:href="#v" transform="matrix(1,0,0,1,-1544.4488238558743,6933) translate(55.580380859375 80.3513671875)"/><path d="M-2399 7228.75a6 6 0 0 1 6-6h187.83a6 6 0 0 1 6 6v138.5a6 6 0 0 1-6 6H-2393a6 6 0 0 1-6-6z" stroke="#1071e5" stroke-width="4" fill="#cfe4ff"/><use xlink:href="#w" transform="matrix(1,0,0,1,-2387,7234.754200625322) translate(0.13952148437499545 67.810625)"/><use xlink:href="#x" transform="matrix(1,0,0,1,-2387,7234.754200625322) translate(55.459990234375006 67.810625)"/><path d="M-2009.86 7216.02a8 8 0 0 1 9.6 0l104.5 78.38a4.5 4.5 0 0 1 0 7.2l-104.5 78.38a8 8 0 0 1-9.6 0l-104.5-78.38a4.5 4.5 0 0 1 0-7.2z" stroke="#d916a8" stroke-width="4" fill="#ff80df"/><use xlink:href="#y" transform="matrix(1,0,0,1,-2114.1692708333335,7217.419270833333) translate(31.218764648437492 87.091875)"/><use xlink:href="#z" transform="matrix(1,0,0,1,-2114.1692708333335,7217.419270833333) translate(57.767358398437494 87.091875)"/><use xlink:href="#A" transform="matrix(1,0,0,1,-2114.1692708333335,7217.419270833333) translate(102.3147216796875 87.091875)"/><path d="M-1810.96 7238.3a6 6 0 0 1 6-6h162.5a6 6 0 0 1 6 6v119.4a6 6 0 0 1-6 6h-162.5a6 6 0 0 1-6-6z" stroke="#1071e5" stroke-width="4" fill="#cfe4ff"/><use xlink:href="#B" transform="matrix(1,0,0,1,-1798.9563802083335,7244.289469401042) translate(21.3361279296875 49.966875)"/><use xlink:href="#C" transform="matrix(1,0,0,1,-1798.9563802083335,7244.289469401042) translate(90.94444824218749 49.966875)"/><use xlink:href="#D" transform="matrix(1,0,0,1,-1798.9563802083335,7244.289469401042) translate(35.46458984375 70.22162109375)"/><path d="M-1544.2 7247.52a6 6 0 0 1 6-6h138a6 6 0 0 1 6 6v100.95a6 6 0 0 1-6 6h-138a6 6 0 0 1-6-6z" stroke="#1071e5" stroke-width="4" fill="#cfe4ff"/><use xlink:href="#E" transform="matrix(1,0,0,1,-1532.1863651240892,7253.524160544732) translate(36.5127099609375 41.248125)"/><use xlink:href="#F" transform="matrix(1,0,0,1,-1532.1863651240892,7253.524160544732) translate(21.575039062499997 61.50287109375)"/><path d="M-1301.94 7238.3a6 6 0 0 1 6-6h162.5a6 6 0 0 1 6 6v119.4a6 6 0 0 1-6 6h-162.5a6 6 0 0 1-6-6z" stroke="#1071e5" stroke-width="4" fill="#cfe4ff"/><use xlink:href="#G" transform="matrix(1,0,0,1,-1289.9412675034155,7244.289469401042) translate(3.995351562499991 49.966875)"/><use xlink:href="#z" transform="matrix(1,0,0,1,-1289.9412675034155,7244.289469401042) translate(77.7559765625 49.966875)"/><use xlink:href="#H" transform="matrix(1,0,0,1,-1289.9412675034155,7244.289469401042) translate(122.30333984375 49.966875)"/><use xlink:href="#I" transform="matrix(1,0,0,1,-1289.9412675034155,7244.289469401042) translate(44.9584912109375 70.22162109375)"/><path d="M-953.08 7227.23a8 8 0 0 1 9.6 0l89.55 67.17a4.5 4.5 0 0 1 0 7.2l-89.55 67.16a8 8 0 0 1-9.6 0l-89.55-67.16a4.5 4.5 0 0 1 0-7.2z" stroke="#d916a8" stroke-width="4" fill="#ff80df"/><use xlink:href="#J" transform="matrix(1,0,0,1,-1042.4337111509565,7228.633870442708) translate(47.69348632812499 77.029375)"/><use xlink:href="#K" transform="matrix(1,0,0,1,-1042.4337111509565,7228.633870442708) translate(85.08875 77.029375)"/><use xlink:href="#L" transform="matrix(1,0,0,1,-1042.4337111509565,7228.633870442708) translate(109.72466796875 77.029375)"/><path d="M-769.13 7245a6 6 0 0 1 6-6h144.7a6 6 0 0 1 6 6v106a6 6 0 0 1-6 6h-144.7a6 6 0 0 1-6-6z" stroke="#1071e5" stroke-width="4" fill="#cfe4ff"/><use xlink:href="#M" transform="matrix(1,0,0,1,-757.1264194842897,7250.995078004436) translate(22.545239257812497 54.810625)"/><path d="M-513.37 7236.5a6 6 0 0 1 6-6h167.24a6 6 0 0 1 6 6v123a6 6 0 0 1-6 6h-167.24a6 6 0 0 1-6-6z" stroke="#1071e5" stroke-width="4" fill="#cfe4ff"/><use xlink:href="#N" transform="matrix(1,0,0,1,-501.36921889230416,7242.508964214142) translate(13.483974609374997 50.904375)"/><use xlink:href="#O" transform="matrix(1,0,0,1,-501.36921889230416,7242.508964214142) translate(85.98583007812499 50.904375)"/><use xlink:href="#P" transform="matrix(1,0,0,1,-501.36921889230416,7242.508964214142) translate(123.07866210937499 50.904375)"/><use xlink:href="#Q" transform="matrix(1,0,0,1,-501.36921889230416,7242.508964214142) translate(42.7217578125 71.15912109375)"/><path d="M-134.74 7264.56c18.47 0 33.44 14.97 33.44 33.44s-14.97 33.44-33.44 33.44h-66.9c-18.46 0-33.44-14.97-33.44-33.44s14.98-33.44 33.45-33.44z" stroke="#1071e5" stroke-width="4" fill="#6db1ff"/><use xlink:href="#R" transform="matrix(1,0,0,1,-230.07512593920774,7269.555094401042) translate(46.8988525390625 34.029375)"/><path d="M-757.62 7501.08a6 6 0 0 1 6-6h121.7a6 6 0 0 1 6 6v88.68a6 6 0 0 1-6 6h-121.7a6 6 0 0 1-6-6z" stroke="#1071e5" stroke-width="4" fill="#cfe4ff"/><use xlink:href="#S" transform="matrix(1,0,0,1,-745.6192580259565,7507.083246929656) translate(19.713583984375 45.091875)"/><path d="M-532.43 7469.58a6 6 0 0 1 6-6h205.35a6 6 0 0 1 6 6v151.68a6 6 0 0 1-6 6h-205.35a6 6 0 0 1-6-6z" stroke="#1071e5" stroke-width="4" fill="#cfe4ff"/><use xlink:href="#T" transform="matrix(1,0,0,1,-520.4272007342897,7475.578938802083) translate(22.14816894531249 64.341875)"/><use xlink:href="#U" transform="matrix(1,0,0,1,-520.4272007342897,7475.578938802083) translate(74.6159716796875 64.341875)"/><use xlink:href="#V" transform="matrix(1,0,0,1,-520.4272007342897,7475.578938802083) translate(151.8422998046875 64.341875)"/><use xlink:href="#W" transform="matrix(1,0,0,1,-520.4272007342897,7475.578938802083) translate(13.487998046874992 84.59662109375)"/><use xlink:href="#X" transform="matrix(1,0,0,1,-520.4272007342897,7475.578938802083) translate(81.575986328125 84.59662109375)"/><use xlink:href="#Y" transform="matrix(1,0,0,1,-520.4272007342897,7475.578938802083) translate(96.04366210937499 84.59662109375)"/><path d="M-1286.77 7804.7a6 6 0 0 1 6-6h132.17a6 6 0 0 1 6 6v96.56a6 6 0 0 1-6 6h-132.17a6 6 0 0 1-6-6z" stroke="#1071e5" stroke-width="4" fill="#cfe4ff"/><use xlink:href="#Z" transform="matrix(1,0,0,1,-1274.7708226605193,7810.688490628215) translate(35.5493896484375 37.466875)"/><use xlink:href="#aa" transform="matrix(1,0,0,1,-1274.7708226605193,7810.688490628215) translate(21.265624999999993 57.72162109375)"/><path d="M-1035.53 7793.26a6 6 0 0 1 6-6h162.5a6 6 0 0 1 6 6v119.42a6 6 0 0 1-6 6h-162.5a6 6 0 0 1-6-6z" stroke="#1071e5" stroke-width="4" fill="#cfe4ff"/><use xlink:href="#ab" transform="matrix(1,0,0,1,-1023.5338434938526,7799.263834635416) translate(12.381699218749986 49.966875)"/><use xlink:href="#ac" transform="matrix(1,0,0,1,-1023.5338434938526,7799.263834635416) translate(74.51914062499999 49.966875)"/><use xlink:href="#ad" transform="matrix(1,0,0,1,-1023.5338434938526,7799.263834635416) translate(99.236796875 49.966875)"/><use xlink:href="#ae" transform="matrix(1,0,0,1,-1023.5338434938526,7799.263834635416) translate(37.5407421875 70.22162109375)"/><path d="M-2229.2 6986.7h137.8" stroke="#000" stroke-width="2" fill="none"/><path d="M-2229.17 6987.7h-1.1l.08-.95-.03-1.02h1.06z" stroke="#000" stroke-width=".05"/><path d="M-2076.13 6986.7l-14.27 4.65v-9.28z" stroke="#000" stroke-width="2"/><path d="M-1936.23 6986.7h117.83" stroke="#000" stroke-width="2" fill="none"/><path d="M-1936.2 6987.7h-1.03v-1.97h1.02z" stroke="#000" stroke-width=".05"/><path d="M-1803.13 6986.7l-14.27 4.65v-9.28z" stroke="#000" stroke-width="2"/><path d="M-1646.5 6986.7h69.55" stroke="#000" stroke-width="2" fill="none"/><path d="M-1646.48 6987.7h-1.03v-1.97h1.02z" stroke="#000" stroke-width=".05"/><path d="M-1561.68 6986.7l-14.27 4.65v-9.28z" stroke="#000" stroke-width="2"/><path d="M-2196.17 7298h59.5" stroke="#000" stroke-width="2" fill="none"/><path d="M-2196.14 7298.97h-1.03v-1.95h1.03z" stroke="#000" stroke-width=".05"/><path d="M-2121.4 7298l-14.28 4.63v-9.27z" stroke="#000" stroke-width="2"/><path d="M-1867.18 7298.97h-23.77v-1.95h23.77zm35.72 0h-6.26v-1.95h6.26z" stroke="#000" stroke-width=".05"/><path d="M-1890.92 7298.97h-1.12l.1-.97-.1-.98h1.12z"/><path stroke="#000" stroke-width=".05"/><path d="M-1816.2 7298l-14.26 4.63v-9.27z"/><path d="M-1813.04 7298l-18.4 5.98v-11.96zm-16.44 3.3l10.13-3.3-10.13-3.3z" stroke="#000" stroke-width=".05"/><g><use xlink:href="#af" transform="matrix(1,0,0,1,-1867.181298767383,7287.871731770833) translate(0 16.216875)"/></g><path d="M-2004.1 7422.6h264.5v1.95h-266.44v-39.97h1.95zm535.88 1.95h-239.33v-1.95h237.38v-47.62h1.95z" stroke="#000" stroke-width=".05"/><path d="M-2005.06 7383.58l.97-.06v1.1h-1.94v-1.1z"/><path stroke="#000" stroke-width=".05"/><path d="M-1464.56 7373.98h-9.27l4.63-14.27z"/><path d="M-1463.22 7374.95h-11.95l5.98-18.4zm-9.27-1.95h6.6l-3.3-10.14z" stroke="#000" stroke-width=".05"/><g><use xlink:href="#ag" transform="matrix(1,0,0,1,-1739.5991919103071,7413.451565755208) translate(0 16.216875)"/></g><path d="M-1633.45 7298h68.76" stroke="#000" stroke-width="2" fill="none"/><path d="M-1633.42 7298.97h-1.03v-1.95h1.03z" stroke="#000" stroke-width=".05"/><path d="M-1549.42 7298l-14.27 4.63v-9.27z" stroke="#000" stroke-width="2"/><path d="M-1391.2 7286.85h68.76" stroke="#000" stroke-width="2" fill="none"/><path d="M-1391.18 7287.83h-1.02v-1.95h1.02z" stroke="#000" stroke-width=".05"/><path d="M-1307.18 7286.85l-14.26 4.64v-9.28z" stroke="#000" stroke-width="2"/><path d="M-1391.2 7309.15h49.26v543.82h34.67" stroke="#000" stroke-width="2" fill="none"/><path d="M-1391.18 7310.12h-1.02v-1.95h1.02z" stroke="#000" stroke-width=".05"/><path d="M-1292 7852.97l-14.27 4.64v-9.26z" stroke="#000" stroke-width="2"/><path d="M-1124.43 7286.85h70.03" stroke="#000" stroke-width="2" fill="none"/><path d="M-1124.4 7287.83h-1.03v-1.95h1.02z" stroke="#000" stroke-width=".05"/><path d="M-1039.14 7286.85l-14.26 4.64v-9.28z" stroke="#000" stroke-width="2"/><path d="M-1124.43 7309.15h37v525.73h31.4" stroke="#000" stroke-width="2" fill="none"/><path d="M-1124.4 7310.12h-1.03v-1.95h1.02z" stroke="#000" stroke-width=".05"/><path d="M-1040.77 7834.88l-14.27 4.63v-9.26z" stroke="#000" stroke-width="2"/><path d="M-825.35 7298.97h-23.77v-1.95h23.77zm35.72 0h-6.26v-1.95h6.27z" stroke="#000" stroke-width=".05"/><path d="M-849.1 7298.97h-1.1l.08-.97-.1-.98h1.13z"/><path stroke="#000" stroke-width=".05"/><path d="M-774.36 7298l-14.27 4.63v-9.27z"/><path d="M-771.2 7298l-18.4 5.98v-11.96zm-16.45 3.3l10.13-3.3-10.13-3.3z" stroke="#000" stroke-width=".05"/><g><use xlink:href="#af" transform="matrix(1,0,0,1,-825.3513380823385,7287.871731770833) translate(0 16.216875)"/></g><path d="M-778.12 7544.45v1.95h-146.33v-1.95zm-169.18-9.16h-1.96v-161.93h1.96z" stroke="#000" stroke-width=".05"/><path d="M-948.28 7372.37l.98-.06v1.1h-1.96v-1.1z"/><path stroke="#000" stroke-width=".05"/><path d="M-762.86 7545.42l-14.26 4.64v-9.27z"/><path d="M-759.7 7545.42l-18.4 5.98v-11.96zm-16.45 3.3l10.14-3.3-10.15-3.3z" stroke="#000" stroke-width=".05"/><g><use xlink:href="#ag" transform="matrix(1,0,0,1,-956.5008862771574,7535.294013671874) translate(0 16.216875)"/></g><path d="M-609.43 7298h75.56" stroke="#000" stroke-width="2" fill="none"/><path d="M-609.4 7298.97h-1.03v-1.95h1.03z" stroke="#000" stroke-width=".05"/><path d="M-518.6 7298l-14.27 4.63v-9.27z" stroke="#000" stroke-width="2"/><path d="M-331.13 7298h75.55" stroke="#000" stroke-width="2" fill="none"/><path d="M-331.1 7298.97h-1.03v-1.95h1.02z" stroke="#000" stroke-width=".05"/><path d="M-240.3 7298l-14.28 4.63v-9.27z" stroke="#000" stroke-width="2"/><path d="M-620.93 7545.42h68" stroke="#000" stroke-width="2" fill="none"/><path d="M-620.9 7546.4h-1.03v-1.95h1.02z" stroke="#000" stroke-width=".05"/><path d="M-537.66 7545.42l-14.27 4.64v-9.27z" stroke="#000" stroke-width="2"/><path d="M-312.07 7545.42h143.88v-193.48" stroke="#000" stroke-width="2" fill="none"/><path d="M-312.05 7546.4h-1.02v-1.95h1.02z" stroke="#000" stroke-width=".05"/><path d="M-168.2 7336.68l4.65 14.26h-9.27z" stroke="#000" stroke-width="2"/><path d="M-1139.6 7871.07h83.56" stroke="#000" stroke-width="2" fill="none"/><path d="M-1139.58 7872.04h-1.02v-1.95h1.02z" stroke="#000" stroke-width=".05"/><path d="M-1040.77 7871.07l-14.27 4.63v-9.27z" stroke="#000" stroke-width="2"/><defs><path fill="#fff" d="M180 0v-1490h510c348 0 508 209 508 474 0 266-160 477-507 477H370V0H180zm190-706h312c236 0 327-133 327-310 0-176-91-307-329-307H370v617" id="ah"/><path fill="#fff" d="M158 0v-1118h174v172h12c41-113 157-188 290-188 26 0 70 2 91 3v181c-11-2-60-10-108-10-161 0-279 109-279 260V0H158" id="ai"/><path fill="#fff" d="M613 24c-304 0-509-231-509-576 0-350 205-580 509-580 305 0 511 230 511 580 0 345-206 576-511 576zm0-161c226 0 329-195 329-415 0-222-103-419-329-419-223 0-326 196-326 419 0 220 103 415 326 415" id="aj"/><path fill="#fff" d="M613 24c-304 0-509-231-509-576 0-350 205-580 509-580 216 0 392 114 453 309l-173 49c-33-115-133-197-280-197-223 0-326 196-326 419 0 220 103 415 326 415 150 0 252-85 285-206l172 49C1010-95 832 24 613 24" id="ak"/><path fill="#fff" d="M628 24c-324 0-524-230-524-574 0-343 198-582 503-582 237 0 487 146 487 559v75H286c9 234 145 362 343 362 132 0 231-58 273-172l174 48C1024-91 857 24 628 24zM287-650h624c-17-190-120-322-304-322-192 0-309 151-320 322" id="al"/><path fill="#fff" d="M538 24C308 24 148-78 108-271l171-41c32 123 123 178 257 178 156 0 256-77 256-169 0-77-54-128-164-154l-186-44c-203-48-300-148-300-305 0-192 176-326 414-326 230 0 351 112 402 269l-163 42c-31-80-94-158-238-158-133 0-233 69-233 162 0 83 57 129 188 160l169 40c203 48 298 149 298 302 0 196-179 339-441 339" id="am"/><g id="a"><use transform="matrix(0.008173828125000001,0,0,0.008173828125000001,0,0)" xlink:href="#ah"/><use transform="matrix(0.008173828125000001,0,0,0.008173828125000001,10.691367187500001,0)" xlink:href="#ai"/><use transform="matrix(0.008173828125000001,0,0,0.008173828125000001,16.715478515625,0)" xlink:href="#aj"/><use transform="matrix(0.008173828125000001,0,0,0.008173828125000001,26.752939453125002,0)" xlink:href="#ak"/><use transform="matrix(0.008173828125000001,0,0,0.008173828125000001,36.316318359375,0)" xlink:href="#al"/><use transform="matrix(0.008173828125000001,0,0,0.008173828125000001,46.075869140625,0)" xlink:href="#am"/><use transform="matrix(0.008173828125000001,0,0,0.008173828125000001,54.91177734375,0)" xlink:href="#am"/><use transform="matrix(0.008173828125000001,0,0,0.008173828125000001,63.747685546875005,0)" xlink:href="#aj"/></g><path fill="#fff" d="M635 20c-292 0-500-160-510-396h192c11 142 145 229 315 229 187 0 323-105 323-260 0-161-125-274-346-274H488v-165h121c174 0 294-100 294-254 0-148-104-245-266-245-152 0-291 85-297 230H157c8-234 222-395 484-395 278 0 448 188 448 400 0 168-95 291-247 336v12c190 31 301 169 301 357 0 244-216 425-508 425" id="an"/><path fill="#fff" d="M295 13c-75 0-135-60-135-135s60-135 135-135 135 60 135 135S370 13 295 13" id="ao"/><path fill="#fff" d="M653-1490V0H466v-1314h-10L96-1047v-204l324-239h233" id="ap"/><path fill="#fff" d="M295 13c-75 0-135-60-135-135s60-135 135-135 135 60 135 135S370 13 295 13zm0-809c-75 0-135-60-135-135s60-135 135-135 135 60 135 135-60 135-135 135" id="aq"/><g id="b"><use transform="matrix(0.008173828125000001,0,0,0.008173828125000001,0,0)" xlink:href="#an"/><use transform="matrix(0.008173828125000001,0,0,0.008173828125000001,9.963896484375,0)" xlink:href="#ao"/><use transform="matrix(0.008173828125000001,0,0,0.008173828125000001,13.3396875,0)" xlink:href="#ap"/><use transform="matrix(0.008173828125000001,0,0,0.008173828125000001,20.148486328125003,0)" xlink:href="#aq"/></g><path fill="#fff" d="M783 20c-382 0-661-292-661-764 0-473 279-766 661-766 302 0 548 182 601 489h-190c-42-204-217-313-411-313-268 0-476 208-476 590 0 381 209 588 476 588 195 0 369-110 411-313h190c-52 303-296 489-601 489" id="ar"/><path fill="#fff" d="M471 26C259 26 90-98 90-318c0-256 228-303 435-329 202-27 287-16 287-108 0-139-79-219-234-219-161 0-248 86-283 164l-173-57c86-203 278-265 451-265 150 0 419 46 419 395V0H815v-152h-12C765-73 660 26 471 26zm31-159c199 0 310-134 310-271v-155c-30 35-226 55-295 64-131 17-246 59-246 186 0 116 97 176 231 176" id="as"/><path fill="#fff" d="M577 24c-279 0-473-224-473-580 0-354 195-576 474-576 218 0 287 134 324 193h14v-551h180V0H922v-173h-20C865-111 790 24 577 24zm27-161c203 0 314-172 314-421 0-247-108-413-314-413-212 0-317 181-317 413 0 235 108 421 317 421" id="at"/><path fill="#fff" d="M598-1118v154H368v674c0 100 37 144 132 144 23 0 62-6 92-12L629-6c-37 13-88 20-134 20-193 0-307-107-307-290v-688H20v-154h168v-266h180v266h230" id="au"/><g id="c"><use transform="matrix(0.008173828125000001,0,0,0.008173828125000001,0,0)" xlink:href="#ar"/><use transform="matrix(0.008173828125000001,0,0,0.008173828125000001,12.228046875000002,0)" xlink:href="#as"/><use transform="matrix(0.008173828125000001,0,0,0.008173828125000001,21.627949218750004,0)" xlink:href="#at"/><use transform="matrix(0.008173828125000001,0,0,0.008173828125000001,31.877929687500007,0)" xlink:href="#as"/><use transform="matrix(0.008173828125000001,0,0,0.008173828125000001,41.27783203125001,0)" xlink:href="#am"/><use transform="matrix(0.008173828125000001,0,0,0.008173828125000001,50.11374023437501,0)" xlink:href="#au"/><use transform="matrix(0.008173828125000001,0,0,0.008173828125000001,55.59020507812501,0)" xlink:href="#ai"/><use transform="matrix(0.008173828125000001,0,0,0.008173828125000001,61.61431640625001,0)" xlink:href="#aj"/></g><g id="d"><use transform="matrix(0.008173828125000001,0,0,0.008173828125000001,0,0)" xlink:href="#at"/><use transform="matrix(0.008173828125000001,0,0,0.008173828125000001,10.249980468750001,0)" xlink:href="#al"/></g><path fill="#fff" d="M98-1322v-168h1126v168H757V0H567v-1322H98" id="av"/><path fill="#fff" d="M338-670V0H158v-1118h173l1 207c72-158 192-221 342-221 226 0 378 139 378 422V0H872v-695c0-172-96-275-252-275-161 0-282 109-282 300" id="aw"/><path fill="#fff" d="M502 418V313h118c73 0 98-17 98-66s-25-65-98-65h-82l21-161C285-4 104-228 104-552c0-350 205-580 509-580 216 0 392 114 453 309l-173 49c-33-115-133-197-280-197-223 0-326 196-326 419 0 220 103 415 326 415 150 0 252-85 285-206l172 49C1015-110 859 5 663 22v64c130 5 189 54 189 162 0 118-71 170-231 170H502" id="ax"/><path fill="#fff" d="M471 26C259 26 90-98 90-318c0-256 228-303 435-329 202-27 287-16 287-108 0-139-79-219-234-219-161 0-248 86-283 164l-173-57c86-203 278-265 451-265 150 0 419 46 419 395V0H815v-152h-12C765-73 660 26 471 26zm31-159c199 0 310-134 310-271v-155c-30 35-226 55-295 64-131 17-246 59-246 186 0 116 97 176 231 176zm187-1180c-99 0-192-83-243-83-35 0-51 40-53 79H267c4-120 55-208 162-208 104 0 174 85 241 85 33 0 49-23 56-81h123c-4 126-62 208-160 208" id="ay"/><g id="e"><use transform="matrix(0.008173828125000001,0,0,0.008173828125000001,0,0)" xlink:href="#av"/><use transform="matrix(0.008173828125000001,0,0,0.008173828125000001,9.857636718750001,0)" xlink:href="#ai"/><use transform="matrix(0.008173828125000001,0,0,0.008173828125000001,16.159658203125,0)" xlink:href="#as"/><use transform="matrix(0.008173828125000001,0,0,0.008173828125000001,25.559560546875005,0)" xlink:href="#aw"/><use transform="matrix(0.008173828125000001,0,0,0.008173828125000001,35.449892578125,0)" xlink:href="#am"/><use transform="matrix(0.008173828125000001,0,0,0.008173828125000001,44.28580078125,0)" xlink:href="#as"/><use transform="matrix(0.008173828125000001,0,0,0.008173828125000001,53.685703125,0)" xlink:href="#ax"/><use transform="matrix(0.008173828125000001,0,0,0.008173828125000001,63.412558593750006,0)" xlink:href="#ay"/><use transform="matrix(0.008173828125000001,0,0,0.008173828125000001,72.8124609375,0)" xlink:href="#aj"/></g><path fill="#fff" d="M218-607c0-325 108-727 258-974h175c-155 315-250 682-250 974 0 265 78 531 250 886H476C306-10 218-315 218-607" id="az"/><path fill="#fff" d="M784 20c-382 0-662-292-662-764 0-473 280-766 662-766s660 293 660 766c0 472-278 764-660 764zm0-176c266 0 475-207 475-588 0-383-209-590-475-590-268 0-477 208-477 590 0 380 209 588 477 588" id="aA"/><g id="f"><use transform="matrix(0.008173828125000001,0,0,0.008173828125000001,0,0)" xlink:href="#az"/><use transform="matrix(0.008173828125000001,0,0,0.008173828125000001,6.105849609375,0)" xlink:href="#aA"/></g><path fill="#fff" d="M180 0v-1490h901v168H370v510h643v168H370V0H180" id="aB"/><path fill="#fff" d="M338-1490V0H158v-1490h180" id="aC"/><path fill="#fff" d="M537 14c-226 0-379-139-379-422v-710h180v695c0 172 97 275 253 275 160 0 281-109 281-300v-670h181V0H879v-209C806-46 684 14 537 14" id="aD"/><path fill="#fff" d="M65 0l393-574-370-544h210c88 136 192 297 267 435 67-142 176-302 264-435h206L661-564 1053 0H844c-94-144-206-310-287-458C484-308 366-142 273 0H65" id="aE"/><g id="g"><use transform="matrix(0.008173828125000001,0,0,0.008173828125000001,0,0)" xlink:href="#aB"/><use transform="matrix(0.008173828125000001,0,0,0.008173828125000001,9.882158203125002,0)" xlink:href="#aC"/><use transform="matrix(0.008173828125000001,0,0,0.008173828125000001,13.936376953125002,0)" xlink:href="#aD"/><use transform="matrix(0.008173828125000001,0,0,0.008173828125000001,23.834882812500005,0)" xlink:href="#aE"/><use transform="matrix(0.008173828125000001,0,0,0.008173828125000001,32.597226562500005,0)" xlink:href="#aj"/></g><path fill="#fff" d="M180 0v-1490h908v168H370v486h669v168H370v500h727V0H180" id="aF"/><path fill="#fff" d="M96 279C273-86 346-350 346-607c0-292-95-659-250-974h175c150 246 258 650 258 974 0 297-91 602-258 886H96" id="aG"/><g id="h"><use transform="matrix(0.008173828125000001,0,0,0.008173828125000001,0,0)" xlink:href="#aF"/><use transform="matrix(0.008173828125000001,0,0,0.008173828125000001,10.061982421875001,0)" xlink:href="#aw"/><use transform="matrix(0.008173828125000001,0,0,0.008173828125000001,19.952314453125002,0)" xlink:href="#au"/><use transform="matrix(0.008173828125000001,0,0,0.008173828125000001,25.428779296875003,0)" xlink:href="#ai"/><use transform="matrix(0.008173828125000001,0,0,0.008173828125000001,31.730800781250004,0)" xlink:href="#as"/><use transform="matrix(0.008173828125000001,0,0,0.008173828125000001,41.130703125000004,0)" xlink:href="#at"/><use transform="matrix(0.008173828125000001,0,0,0.008173828125000001,51.38068359375001,0)" xlink:href="#as"/><use transform="matrix(0.008173828125000001,0,0,0.008173828125000001,60.78058593750001,0)" xlink:href="#aG"/></g><path d="M763 24c-353 0-583-224-583-531v-983h190v968c0 214 149 370 393 370 243 0 391-156 391-370v-968h190v983c0 307-230 531-581 531" id="aH"/><path d="M538 24C308 24 148-78 108-271l171-41c32 123 123 178 257 178 156 0 256-77 256-169 0-77-54-128-164-154l-186-44c-203-48-300-148-300-305 0-192 176-326 414-326 230 0 351 112 402 269l-163 42c-31-80-94-158-238-158-133 0-233 69-233 162 0 83 57 129 188 160l169 40c203 48 298 149 298 302 0 196-179 339-441 339" id="aI"/><path d="M537 14c-226 0-379-139-379-422v-710h180v695c0 172 97 275 253 275 160 0 281-109 281-300v-670h181V0H879v-209C806-46 684 14 537 14" id="aJ"/><path d="M471 26C259 26 90-98 90-318c0-256 228-303 435-329 202-27 287-16 287-108 0-139-79-219-234-219-161 0-248 86-283 164l-173-57c86-203 278-265 451-265 150 0 419 46 419 395V0H815v-152h-12C765-73 660 26 471 26zm31-159c199 0 310-134 310-271v-155c-30 35-226 55-295 64-131 17-246 59-246 186 0 116 97 176 231 176zm-23-1131l140-294h201l-194 294H479" id="aK"/><path d="M158 0v-1118h174v172h12c41-113 157-188 290-188 26 0 70 2 91 3v181c-11-2-60-10-108-10-161 0-279 109-279 260V0H158" id="aL"/><path d="M158 0v-1118h180V0H158zm91-1301c-68 0-125-53-125-119s57-119 125-119c69 0 126 53 126 119s-57 119-126 119" id="aM"/><path d="M613 24c-304 0-509-231-509-576 0-350 205-580 509-580 305 0 511 230 511 580 0 345-206 576-511 576zm0-161c226 0 329-195 329-415 0-222-103-419-329-419-223 0-326 196-326 419 0 220 103 415 326 415" id="aN"/><g id="i"><use transform="matrix(0.008173828125000001,0,0,0.008173828125000001,0,0)" xlink:href="#aH"/><use transform="matrix(0.008173828125000001,0,0,0.008173828125000001,12.456914062500001,0)" xlink:href="#aI"/><use transform="matrix(0.008173828125000001,0,0,0.008173828125000001,21.292822265625002,0)" xlink:href="#aJ"/><use transform="matrix(0.008173828125000001,0,0,0.008173828125000001,31.191328125000005,0)" xlink:href="#aK"/><use transform="matrix(0.008173828125000001,0,0,0.008173828125000001,40.591230468750005,0)" xlink:href="#aL"/><use transform="matrix(0.008173828125000001,0,0,0.008173828125000001,47.154814453125,0)" xlink:href="#aM"/><use transform="matrix(0.008173828125000001,0,0,0.008173828125000001,51.209033203125,0)" xlink:href="#aN"/></g><path d="M180 0v-1490h528c311 0 458 177 458 395 0 191-114 278-244 313v14c139 9 302 137 302 371 0 225-148 397-499 397H180zm190-168h350c232 0 321-102 321-231 0-149-120-277-311-277H370v508zm0-668h328c160 0 286-101 286-255 0-129-87-231-280-231H370v486" id="aO"/><path d="M471 26C259 26 90-98 90-318c0-256 228-303 435-329 202-27 287-16 287-108 0-139-79-219-234-219-161 0-248 86-283 164l-173-57c86-203 278-265 451-265 150 0 419 46 419 395V0H815v-152h-12C765-73 660 26 471 26zm31-159c199 0 310-134 310-271v-155c-30 35-226 55-295 64-131 17-246 59-246 186 0 116 97 176 231 176" id="aP"/><path d="M613 24c-304 0-509-231-509-576 0-350 205-580 509-580 216 0 392 114 453 309l-173 49c-33-115-133-197-280-197-223 0-326 196-326 419 0 220 103 415 326 415 150 0 252-85 285-206l172 49C1010-95 832 24 613 24" id="aQ"/><path d="M158 0v-1490h180v865h22l478-493h223L593-638 1096 0H865L456-523 338-412V0H158" id="aR"/><path d="M628 24c-324 0-524-230-524-574 0-343 198-582 503-582 237 0 487 146 487 559v75H286c9 234 145 362 343 362 132 0 231-58 273-172l174 48C1024-91 857 24 628 24zM287-650h624c-17-190-120-322-304-322-192 0-309 151-320 322" id="aS"/><path d="M338-670V0H158v-1118h173l1 207c72-158 192-221 342-221 226 0 378 139 378 422V0H872v-695c0-172-96-275-252-275-161 0-282 109-282 300" id="aT"/><path d="M577 24c-279 0-473-224-473-580 0-354 195-576 474-576 218 0 287 134 324 193h14v-551h180V0H922v-173h-20C865-111 790 24 577 24zm27-161c203 0 314-172 314-421 0-247-108-413-314-413-212 0-317 181-317 413 0 235 108 421 317 421" id="aU"/><g id="j"><use transform="matrix(0.008173828125000001,0,0,0.008173828125000001,0,0)" xlink:href="#aO"/><use transform="matrix(0.008173828125000001,0,0,0.008173828125000001,10.952929687500001,0)" xlink:href="#aP"/><use transform="matrix(0.008173828125000001,0,0,0.008173828125000001,20.352832031250003,0)" xlink:href="#aQ"/><use transform="matrix(0.008173828125000001,0,0,0.008173828125000001,29.916210937500004,0)" xlink:href="#aR"/><use transform="matrix(0.008173828125000001,0,0,0.008173828125000001,38.727597656250005,0)" xlink:href="#aS"/><use transform="matrix(0.008173828125000001,0,0,0.008173828125000001,48.487148437500004,0)" xlink:href="#aT"/><use transform="matrix(0.008173828125000001,0,0,0.008173828125000001,58.37748046875001,0)" xlink:href="#aU"/></g><path d="M645 0H180v-1490h484c435 0 692 280 692 742 0 466-257 748-711 748zM370-168h263c363 0 539-218 539-580 0-358-176-574-521-574H370v1154" id="aV"/><g id="k"><use transform="matrix(0.008173828125000001,0,0,0.008173828125000001,0,0)" xlink:href="#aO"/><use transform="matrix(0.008173828125000001,0,0,0.008173828125000001,10.952929687500001,0)" xlink:href="#aP"/><use transform="matrix(0.008173828125000001,0,0,0.008173828125000001,20.352832031250003,0)" xlink:href="#aT"/><use transform="matrix(0.008173828125000001,0,0,0.008173828125000001,30.243164062500004,0)" xlink:href="#aQ"/><use transform="matrix(0.008173828125000001,0,0,0.008173828125000001,39.806542968750016,0)" xlink:href="#aN"/><use transform="matrix(0.008173828125000001,0,0,0.008173828125000001,49.84400390625001,0)" xlink:href="#aV"/><use transform="matrix(0.008173828125000001,0,0,0.008173828125000001,61.92492187500001,0)" xlink:href="#aS"/><use transform="matrix(0.008173828125000001,0,0,0.008173828125000001,71.68447265625001,0)" xlink:href="#aV"/><use transform="matrix(0.008173828125000001,0,0,0.008173828125000001,83.76539062500001,0)" xlink:href="#aP"/><use transform="matrix(0.008173828125000001,0,0,0.008173828125000001,93.16529296875001,0)" xlink:href="#aU"/><use transform="matrix(0.008173828125000001,0,0,0.008173828125000001,103.41527343750002,0)" xlink:href="#aN"/><use transform="matrix(0.008173828125000001,0,0,0.008173828125000001,113.452734375,0)" xlink:href="#aI"/></g><path d="M657 26c-323 0-524-166-541-416h195c15 169 171 246 346 246 202 0 356-106 356-265 5-203-294-238-475-293-239-73-380-191-380-389 0-252 224-419 512-419 294 0 499 171 508 396H992c-17-145-151-228-328-228-193 0-321 102-321 242 0 156 175 211 284 241l149 41c160 44 422 134 422 412 0 244-197 432-541 432" id="aW"/><path d="M598-1118v154H368v674c0 100 37 144 132 144 23 0 62-6 92-12L629-6c-37 13-88 20-134 20-193 0-307-107-307-290v-688H20v-154h168v-266h180v266h230" id="aX"/><g id="l"><use transform="matrix(0.008173828125000001,0,0,0.008173828125000001,0,0)" xlink:href="#aW"/><use transform="matrix(0.008173828125000001,0,0,0.008173828125000001,10.740410156250002,0)" xlink:href="#aX"/><use transform="matrix(0.008173828125000001,0,0,0.008173828125000001,16.298613281250002,0)" xlink:href="#aP"/><use transform="matrix(0.008173828125000001,0,0,0.008173828125000001,25.698515625000006,0)" xlink:href="#aL"/><use transform="matrix(0.008173828125000001,0,0,0.008173828125000001,32.26209960937501,0)" xlink:href="#aX"/></g><path d="M52 0l541-1490h220L1361 0h-200l-149-416H398L254 0H52zm404-582h497c-103-290-145-390-251-756-108 377-145 460-246 756" id="aY"/><path d="M677 24c-213 0-288-135-325-197h-20V0H158v-1490h180v551h14c37-59 106-193 324-193 279 0 474 222 474 576 0 356-194 580-473 580zm-27-161c209 0 317-186 317-421 0-232-105-413-317-413-206 0-314 166-314 413 0 249 111 421 314 421" id="aZ"/><g id="m"><use transform="matrix(0.008173828125000001,0,0,0.008173828125000001,0,0)" xlink:href="#aY"/><use transform="matrix(0.008173828125000001,0,0,0.008173828125000001,11.549619140625001,0)" xlink:href="#aZ"/><use transform="matrix(0.008173828125000001,0,0,0.008173828125000001,21.799599609375,0)" xlink:href="#aL"/><use transform="matrix(0.008173828125000001,0,0,0.008173828125000001,28.36318359375,0)" xlink:href="#aM"/><use transform="matrix(0.008173828125000001,0,0,0.008173828125000001,32.41740234375,0)" xlink:href="#aL"/></g><path d="M158 0v-1118h175l1 205c55-151 181-225 313-225 147 0 245 90 285 228 53-141 190-228 352-228 194 0 352 125 352 384V0h-181v-749c0-161-105-225-225-225-151 0-243 103-243 244V0H807v-767c0-124-93-207-219-207-131 0-250 92-250 270V0H158" id="ba"/><path d="M338-1490V0H158v-1490h180" id="bb"/><g id="n"><use transform="matrix(0.008173828125000001,0,0,0.008173828125000001,0,0)" xlink:href="#ba"/><use transform="matrix(0.008173828125000001,0,0,0.008173828125000001,14.663847656250002,0)" xlink:href="#aN"/><use transform="matrix(0.008173828125000001,0,0,0.008173828125000001,24.701308593750003,0)" xlink:href="#aU"/><use transform="matrix(0.008173828125000001,0,0,0.008173828125000001,34.9512890625,0)" xlink:href="#aP"/><use transform="matrix(0.008173828125000001,0,0,0.008173828125000001,44.35119140625,0)" xlink:href="#bb"/></g><path d="M180 0v-1490h510c348 0 508 209 508 474 0 266-160 477-507 477H370V0H180zm190-706h312c236 0 327-133 327-310 0-176-91-307-329-307H370v617" id="bc"/><path d="M338-670V0H158v-1490h180v566c73-149 190-208 336-208 226 0 379 139 379 422V0H872v-695c0-172-96-275-252-275-161 0-282 109-282 300" id="bd"/><g id="o"><use transform="matrix(0.008173828125000001,0,0,0.008173828125000001,0,0)" xlink:href="#bc"/><use transform="matrix(0.008173828125000001,0,0,0.008173828125000001,10.691367187500001,0)" xlink:href="#aL"/><use transform="matrix(0.008173828125000001,0,0,0.008173828125000001,16.715478515625,0)" xlink:href="#aS"/><use transform="matrix(0.008173828125000001,0,0,0.008173828125000001,26.475029296875,0)" xlink:href="#aS"/><use transform="matrix(0.008173828125000001,0,0,0.008173828125000001,36.234580078125,0)" xlink:href="#aT"/><use transform="matrix(0.008173828125000001,0,0,0.008173828125000001,46.124912109375,0)" xlink:href="#aQ"/><use transform="matrix(0.008173828125000001,0,0,0.008173828125000001,55.688291015625005,0)" xlink:href="#bd"/><use transform="matrix(0.008173828125000001,0,0,0.008173828125000001,65.586796875,0)" xlink:href="#aS"/><use transform="matrix(0.008173828125000001,0,0,0.008173828125000001,75.34634765625,0)" xlink:href="#aL"/></g><g id="p"><use transform="matrix(0.008173828125000001,0,0,0.008173828125000001,0,0)" xlink:href="#aU"/><use transform="matrix(0.008173828125000001,0,0,0.008173828125000001,10.249980468750001,0)" xlink:href="#aP"/><use transform="matrix(0.008173828125000001,0,0,0.008173828125000001,19.649882812500003,0)" xlink:href="#aU"/><use transform="matrix(0.008173828125000001,0,0,0.008173828125000001,29.899863281250006,0)" xlink:href="#aN"/><use transform="matrix(0.008173828125000001,0,0,0.008173828125000001,39.93732421875001,0)" xlink:href="#aI"/></g><path d="M180 0v-1490h908v168H370v486h669v168H370v500h727V0H180" id="be"/><g id="q"><use transform="matrix(0.008173828125000001,0,0,0.008173828125000001,0,0)" xlink:href="#be"/><use transform="matrix(0.008173828125000001,0,0,0.008173828125000001,10.061982421875001,0)" xlink:href="#aI"/><use transform="matrix(0.008173828125000001,0,0,0.008173828125000001,18.897890625000002,0)" xlink:href="#aQ"/><use transform="matrix(0.008173828125000001,0,0,0.008173828125000001,28.461269531250004,0)" xlink:href="#aN"/><use transform="matrix(0.008173828125000001,0,0,0.008173828125000001,38.498730468750004,0)" xlink:href="#bb"/><use transform="matrix(0.008173828125000001,0,0,0.008173828125000001,42.55294921875,0)" xlink:href="#bd"/><use transform="matrix(0.008173828125000001,0,0,0.008173828125000001,52.451455078125,0)" xlink:href="#aS"/><use transform="matrix(0.008173828125000001,0,0,0.008173828125000001,62.211005859375,0)" xlink:href="#aL"/></g><g id="r"><use transform="matrix(0.008173828125000001,0,0,0.008173828125000001,0,0)" xlink:href="#aI"/><use transform="matrix(0.008173828125000001,0,0,0.008173828125000001,8.835908203125001,0)" xlink:href="#aS"/></g><path d="M481 0L54-1118h197c107 314 236 620 325 951 87-331 217-637 324-951h197L670 0H481" id="bf"/><g id="s"><use transform="matrix(0.008173828125000001,0,0,0.008173828125000001,0,0)" xlink:href="#bf"/><use transform="matrix(0.008173828125000001,0,0,0.008173828125000001,9.408076171875,0)" xlink:href="#aM"/><use transform="matrix(0.008173828125000001,0,0,0.008173828125000001,13.462294921875001,0)" xlink:href="#aT"/><use transform="matrix(0.008173828125000001,0,0,0.008173828125000001,23.352626953125004,0)" xlink:href="#aQ"/><use transform="matrix(0.008173828125000001,0,0,0.008173828125000001,32.916005859375005,0)" xlink:href="#aJ"/><use transform="matrix(0.008173828125000001,0,0,0.008173828125000001,42.814511718750005,0)" xlink:href="#bb"/><use transform="matrix(0.008173828125000001,0,0,0.008173828125000001,46.868730468749995,0)" xlink:href="#aP"/></g><use transform="matrix(0.008173828125000001,0,0,0.008173828125000001,0,0)" xlink:href="#aP" id="t"/><g id="u"><use transform="matrix(0.008173828125000001,0,0,0.008173828125000001,0,0)" xlink:href="#aJ"/><use transform="matrix(0.008173828125000001,0,0,0.008173828125000001,9.898505859375001,0)" xlink:href="#ba"/><use transform="matrix(0.008173828125000001,0,0,0.008173828125000001,24.562353515625006,0)" xlink:href="#aP"/></g><path d="M180 0v-1490h270l367 940c28 72 75 218 110 339 35-117 81-264 110-339l362-940h271V0h-187c2-448-5-837 7-1287-157 497-311 829-483 1287H842C666-458 514-784 354-1284c12 438 5 843 7 1284H180" id="bg"/><g id="v"><use transform="matrix(0.008173828125000001,0,0,0.008173828125000001,0,0)" xlink:href="#bg"/><use transform="matrix(0.008173828125000001,0,0,0.008173828125000001,15.121582031250002,0)" xlink:href="#aS"/><use transform="matrix(0.008173828125000001,0,0,0.008173828125000001,24.881132812500002,0)" xlink:href="#aX"/><use transform="matrix(0.008173828125000001,0,0,0.008173828125000001,30.439335937500005,0)" xlink:href="#aP"/></g><path d="M789 20c-398 0-667-293-667-764 0-473 273-766 655-766 315 0 558 198 612 487h-196c-61-191-204-311-415-311-262 0-471 207-471 590 0 380 208 588 482 588 249 0 420-165 425-427H828v-166h572v163c0 370-256 606-611 606" id="bh"/><path d="M370-1490V0H180v-1490h190" id="bi"/><path d="M180 0v-1490h224l606 953c40 63 108 177 176 312-27-437-7-821-13-1265h190V0h-226C860-448 622-778 356-1262c27 476 11 792 15 1262H180" id="bj"/><g id="w"><use transform="matrix(0.008173828125000001,0,0,0.008173828125000001,0,0)" xlink:href="#aO"/><use transform="matrix(0.008173828125000001,0,0,0.008173828125000001,10.952929687500001,0)" xlink:href="#be"/><use transform="matrix(0.008173828125000001,0,0,0.008173828125000001,21.014912109375004,0)" xlink:href="#bh"/><use transform="matrix(0.008173828125000001,0,0,0.008173828125000001,33.504521484375005,0)" xlink:href="#bi"/><use transform="matrix(0.008173828125000001,0,0,0.008173828125000001,38.000126953125005,0)" xlink:href="#bj"/></g><path d="M98-1322v-168h1126v168H757V0H567v-1322H98" id="bk"/><path d="M180 0v-1490h510c348 0 508 194 508 460 0 198-88 351-276 417L1256 0h-220L726-579c-117 2-238 0-356 1V0H180zm190-747h312c235 0 327-108 327-283 0-177-92-293-329-293H370v576" id="bl"/><path d="M783 20c-382 0-661-292-661-764 0-473 279-766 661-766 302 0 548 182 601 489h-190c-42-204-217-313-411-313-268 0-476 208-476 590 0 381 209 588 476 588 195 0 369-110 411-313h190c-52 303-296 489-601 489" id="bm"/><path d="M784 20c-382 0-662-292-662-764 0-473 280-766 662-766s660 293 660 766c0 472-278 764-660 764zm0-176c266 0 475-207 475-588 0-383-209-590-475-590-268 0-477 208-477 590 0 380 209 588 477 588" id="bn"/><g id="x"><use transform="matrix(0.008173828125000001,0,0,0.008173828125000001,0,0)" xlink:href="#bk"/><use transform="matrix(0.008173828125000001,0,0,0.008173828125000001,10.805800781250001,0)" xlink:href="#bl"/><use transform="matrix(0.008173828125000001,0,0,0.008173828125000001,21.578906250000003,0)" xlink:href="#aY"/><use transform="matrix(0.008173828125000001,0,0,0.008173828125000001,33.128525390625,0)" xlink:href="#bj"/><use transform="matrix(0.008173828125000001,0,0,0.008173828125000001,45.740742187500004,0)" xlink:href="#aW"/><use transform="matrix(0.008173828125000001,0,0,0.008173828125000001,56.481152343750004,0)" xlink:href="#aY"/><use transform="matrix(0.008173828125000001,0,0,0.008173828125000001,67.45860351562499,0)" xlink:href="#bm"/><use transform="matrix(0.008173828125000001,0,0,0.008173828125000001,79.686650390625,0)" xlink:href="#bk"/><use transform="matrix(0.008173828125000001,0,0,0.008173828125000001,90.492451171875,0)" xlink:href="#bi"/><use transform="matrix(0.008173828125000001,0,0,0.008173828125000001,94.98805664062502,0)" xlink:href="#bn"/><use transform="matrix(0.008173828125000001,0,0,0.008173828125000001,107.788271484375,0)" xlink:href="#bj"/></g><path d="M180 0v-1490h190v644h782v-644h190V0h-190v-678H370V0H180" id="bo"/><g id="y"><use transform="matrix(0.008173828125000001,0,0,0.008173828125000001,0,0)" xlink:href="#bo"/><use transform="matrix(0.008173828125000001,0,0,0.008173828125000001,12.440566406250001,0)" xlink:href="#aK"/></g><g id="z"><use transform="matrix(0.008173828125000001,0,0,0.008173828125000001,0,0)" xlink:href="#bg"/><use transform="matrix(0.008173828125000001,0,0,0.008173828125000001,15.121582031250002,0)" xlink:href="#aS"/><use transform="matrix(0.008173828125000001,0,0,0.008173828125000001,24.881132812500002,0)" xlink:href="#aX"/><use transform="matrix(0.008173828125000001,0,0,0.008173828125000001,30.439335937500005,0)" xlink:href="#aP"/></g><path d="M383-449c-3-277 82-343 222-425 88-53 156-134 156-250 0-139-108-227-243-227-118 0-235 70-246 236H82c10-251 200-395 436-395 259 0 427 165 427 393 0 161-74 273-203 352-132 80-180 132-178 316H383zm93 462c-75 0-135-60-135-134 0-75 60-135 135-135 74 0 134 60 134 135 0 74-60 134-134 134" id="bp"/><g id="A"><use transform="matrix(0.008173828125000001,0,0,0.008173828125000001,0,0)" xlink:href="#bf"/><use transform="matrix(0.008173828125000001,0,0,0.008173828125000001,9.408076171875,0)" xlink:href="#aM"/><use transform="matrix(0.008173828125000001,0,0,0.008173828125000001,13.462294921875001,0)" xlink:href="#aT"/><use transform="matrix(0.008173828125000001,0,0,0.008173828125000001,23.352626953125004,0)" xlink:href="#aQ"/><use transform="matrix(0.008173828125000001,0,0,0.008173828125000001,32.916005859375005,0)" xlink:href="#aJ"/><use transform="matrix(0.008173828125000001,0,0,0.008173828125000001,42.814511718750005,0)" xlink:href="#bb"/><use transform="matrix(0.008173828125000001,0,0,0.008173828125000001,46.868730468749995,0)" xlink:href="#aP"/><use transform="matrix(0.008173828125000001,0,0,0.008173828125000001,56.2686328125,0)" xlink:href="#aU"/><use transform="matrix(0.008173828125000001,0,0,0.008173828125000001,66.51861328125,0)" xlink:href="#aP"/><use transform="matrix(0.008173828125000001,0,0,0.008173828125000001,75.918515625,0)" xlink:href="#bp"/></g><g id="B"><use transform="matrix(0.008173828125000001,0,0,0.008173828125000001,0,0)" xlink:href="#bm"/><use transform="matrix(0.008173828125000001,0,0,0.008173828125000001,12.228046875000002,0)" xlink:href="#aP"/><use transform="matrix(0.008173828125000001,0,0,0.008173828125000001,21.627949218750004,0)" xlink:href="#bb"/><use transform="matrix(0.008173828125000001,0,0,0.008173828125000001,25.682167968750004,0)" xlink:href="#aQ"/><use transform="matrix(0.008173828125000001,0,0,0.008173828125000001,35.245546875,0)" xlink:href="#aJ"/><use transform="matrix(0.008173828125000001,0,0,0.008173828125000001,45.144052734375,0)" xlink:href="#bb"/><use transform="matrix(0.008173828125000001,0,0,0.008173828125000001,49.198271484375,0)" xlink:href="#aP"/><use transform="matrix(0.008173828125000001,0,0,0.008173828125000001,58.598173828125,0)" xlink:href="#aL"/></g><g id="C"><use transform="matrix(0.008173828125000001,0,0,0.008173828125000001,0,0)" xlink:href="#aT"/><use transform="matrix(0.008173828125000001,0,0,0.008173828125000001,9.89033203125,0)" xlink:href="#aN"/><use transform="matrix(0.008173828125000001,0,0,0.008173828125000001,19.600839843750002,0)" xlink:href="#bf"/><use transform="matrix(0.008173828125000001,0,0,0.008173828125000001,28.681962890625,0)" xlink:href="#aN"/></g><path d="M158 418v-1536h174v179h20c37-59 106-193 324-193 279 0 474 222 474 576 0 356-194 580-473 580-213 0-288-135-325-197h-14v591H158zm492-555c209 0 317-186 317-421 0-232-105-413-317-413-206 0-314 166-314 413 0 249 111 421 314 421" id="bq"/><path d="M611 442c-248 0-391-105-460-228l146-94c47 65 117 165 314 165 178 0 307-82 307-266v-224h-17C863-141 792-18 576-18c-268 0-472-195-472-546 0-346 197-568 476-568 216 0 288 133 326 193h17v-179h175V29c0 289-215 413-487 413zm-5-620c203 0 314-146 314-390 0-237-108-403-314-403-213 0-319 180-319 403 0 230 109 390 319 390" id="br"/><g id="D"><use transform="matrix(0.008173828125000001,0,0,0.008173828125000001,0,0)" xlink:href="#bq"/><use transform="matrix(0.008173828125000001,0,0,0.008173828125000001,10.249980468750001,0)" xlink:href="#aL"/><use transform="matrix(0.008173828125000001,0,0,0.008173828125000001,16.274091796875002,0)" xlink:href="#aN"/><use transform="matrix(0.008173828125000001,0,0,0.008173828125000001,26.311552734375002,0)" xlink:href="#br"/><use transform="matrix(0.008173828125000001,0,0,0.008173828125000001,36.577880859375,0)" xlink:href="#aL"/><use transform="matrix(0.008173828125000001,0,0,0.008173828125000001,42.6019921875,0)" xlink:href="#aS"/><use transform="matrix(0.008173828125000001,0,0,0.008173828125000001,52.36154296875,0)" xlink:href="#aI"/><use transform="matrix(0.008173828125000001,0,0,0.008173828125000001,61.197451171875,0)" xlink:href="#aI"/><use transform="matrix(0.008173828125000001,0,0,0.008173828125000001,70.033359375,0)" xlink:href="#aN"/></g><g id="E"><use transform="matrix(0.008173828125000001,0,0,0.008173828125000001,0,0)" xlink:href="#bh"/><use transform="matrix(0.008173828125000001,0,0,0.008173828125000001,12.489609375000002,0)" xlink:href="#aL"/><use transform="matrix(0.008173828125000001,0,0,0.008173828125000001,18.791630859375005,0)" xlink:href="#aP"/><use transform="matrix(0.008173828125000001,0,0,0.008173828125000001,27.946318359375006,0)" xlink:href="#bf"/><use transform="matrix(0.008173828125000001,0,0,0.008173828125000001,37.272656250000004,0)" xlink:href="#aP"/><use transform="matrix(0.008173828125000001,0,0,0.008173828125000001,46.672558593750004,0)" xlink:href="#aL"/></g><path d="M502 418V313h118c73 0 98-17 98-66s-25-65-98-65h-82l21-161C285-4 104-228 104-552c0-350 205-580 509-580 216 0 392 114 453 309l-173 49c-33-115-133-197-280-197-223 0-326 196-326 419 0 220 103 415 326 415 150 0 252-85 285-206l172 49C1015-110 859 5 663 22v64c130 5 189 54 189 162 0 118-71 170-231 170H502" id="bs"/><path d="M471 26C259 26 90-98 90-318c0-256 228-303 435-329 202-27 287-16 287-108 0-139-79-219-234-219-161 0-248 86-283 164l-173-57c86-203 278-265 451-265 150 0 419 46 419 395V0H815v-152h-12C765-73 660 26 471 26zm31-159c199 0 310-134 310-271v-155c-30 35-226 55-295 64-131 17-246 59-246 186 0 116 97 176 231 176zm187-1180c-99 0-192-83-243-83-35 0-51 40-53 79H267c4-120 55-208 162-208 104 0 174 85 241 85 33 0 49-23 56-81h123c-4 126-62 208-160 208" id="bt"/><g id="F"><use transform="matrix(0.008173828125000001,0,0,0.008173828125000001,0,0)" xlink:href="#bk"/><use transform="matrix(0.008173828125000001,0,0,0.008173828125000001,9.857636718750001,0)" xlink:href="#aL"/><use transform="matrix(0.008173828125000001,0,0,0.008173828125000001,16.159658203125,0)" xlink:href="#aP"/><use transform="matrix(0.008173828125000001,0,0,0.008173828125000001,25.559560546875005,0)" xlink:href="#aT"/><use transform="matrix(0.008173828125000001,0,0,0.008173828125000001,35.449892578125,0)" xlink:href="#aI"/><use transform="matrix(0.008173828125000001,0,0,0.008173828125000001,44.28580078125,0)" xlink:href="#aP"/><use transform="matrix(0.008173828125000001,0,0,0.008173828125000001,53.685703125,0)" xlink:href="#bs"/><use transform="matrix(0.008173828125000001,0,0,0.008173828125000001,63.412558593750006,0)" xlink:href="#bt"/><use transform="matrix(0.008173828125000001,0,0,0.008173828125000001,72.8124609375,0)" xlink:href="#aN"/></g><path d="M126 0v-134l627-806v-11H146v-167h839v143L376-178v11h629V0H126" id="bu"/><g id="G"><use transform="matrix(0.008173828125000001,0,0,0.008173828125000001,0,0)" xlink:href="#aY"/><use transform="matrix(0.008173828125000001,0,0,0.008173828125000001,11.222666015625002,0)" xlink:href="#aX"/><use transform="matrix(0.008173828125000001,0,0,0.008173828125000001,16.699130859375003,0)" xlink:href="#aJ"/><use transform="matrix(0.008173828125000001,0,0,0.008173828125000001,26.597636718750003,0)" xlink:href="#aP"/><use transform="matrix(0.008173828125000001,0,0,0.008173828125000001,35.9975390625,0)" xlink:href="#bb"/><use transform="matrix(0.008173828125000001,0,0,0.008173828125000001,40.0517578125,0)" xlink:href="#aM"/><use transform="matrix(0.008173828125000001,0,0,0.008173828125000001,44.105976562500004,0)" xlink:href="#bu"/><use transform="matrix(0.008173828125000001,0,0,0.008173828125000001,53.350576171875005,0)" xlink:href="#aP"/><use transform="matrix(0.008173828125000001,0,0,0.008173828125000001,62.750478515625005,0)" xlink:href="#aL"/></g><path d="M218-607c0-325 108-727 258-974h175c-155 315-250 682-250 974 0 265 78 531 250 886H476C306-10 218-315 218-607" id="bv"/><g id="H"><use transform="matrix(0.008173828125000001,0,0,0.008173828125000001,0,0)" xlink:href="#bv"/><use transform="matrix(0.008173828125000001,0,0,0.008173828125000001,6.105849609375,0)" xlink:href="#aI"/><use transform="matrix(0.008173828125000001,0,0,0.008173828125000001,14.9417578125,0)" xlink:href="#aS"/></g><path d="M96 279C273-86 346-350 346-607c0-292-95-659-250-974h175c150 246 258 650 258 974 0 297-91 602-258 886H96" id="bw"/><g id="I"><use transform="matrix(0.008173828125000001,0,0,0.008173828125000001,0,0)" xlink:href="#bd"/><use transform="matrix(0.008173828125000001,0,0,0.008173828125000001,9.898505859375001,0)" xlink:href="#aN"/><use transform="matrix(0.008173828125000001,0,0,0.008173828125000001,19.935966796875,0)" xlink:href="#aJ"/><use transform="matrix(0.008173828125000001,0,0,0.008173828125000001,29.83447265625,0)" xlink:href="#bf"/><use transform="matrix(0.008173828125000001,0,0,0.008173828125000001,38.915595703125,0)" xlink:href="#aS"/><use transform="matrix(0.008173828125000001,0,0,0.008173828125000001,48.675146484375,0)" xlink:href="#aL"/><use transform="matrix(0.008173828125000001,0,0,0.008173828125000001,54.97716796875,0)" xlink:href="#bw"/></g><g id="J"><use transform="matrix(0.008173828125000001,0,0,0.008173828125000001,0,0)" xlink:href="#be"/><use transform="matrix(0.008173828125000001,0,0,0.008173828125000001,10.061982421875001,0)" xlink:href="#aL"/><use transform="matrix(0.008173828125000001,0,0,0.008173828125000001,16.62556640625,0)" xlink:href="#aL"/><use transform="matrix(0.008173828125000001,0,0,0.008173828125000001,22.649677734375,0)" xlink:href="#aN"/></g><g id="K"><use transform="matrix(0.008173828125000001,0,0,0.008173828125000001,0,0)" xlink:href="#aT"/><use transform="matrix(0.008173828125000001,0,0,0.008173828125000001,9.89033203125,0)" xlink:href="#aN"/></g><g id="L"><use transform="matrix(0.008173828125000001,0,0,0.008173828125000001,0,0)" xlink:href="#aV"/><use transform="matrix(0.008173828125000001,0,0,0.008173828125000001,12.08091796875,0)" xlink:href="#aO"/><use transform="matrix(0.008173828125000001,0,0,0.008173828125000001,23.033847656250003,0)" xlink:href="#bp"/></g><path d="M180 0v-1490h190v1322h690V0H180" id="bx"/><path d="M180 0v-1490h190c0 262 1 526-3 784 217-279 467-523 702-784h249L716-845 1319 0h-225L585-716 370-489V0H180" id="by"/><g id="M"><use transform="matrix(0.008173828125000001,0,0,0.008173828125000001,0,0)" xlink:href="#bl"/><use transform="matrix(0.008173828125000001,0,0,0.008173828125000001,10.773105468750002,0)" xlink:href="#bn"/><use transform="matrix(0.008173828125000001,0,0,0.008173828125000001,23.5733203125,0)" xlink:href="#bx"/><use transform="matrix(0.008173828125000001,0,0,0.008173828125000001,33.03861328125,0)" xlink:href="#bx"/><use transform="matrix(0.008173828125000001,0,0,0.008173828125000001,42.50390625,0)" xlink:href="#aO"/><use transform="matrix(0.008173828125000001,0,0,0.008173828125000001,53.4568359375,0)" xlink:href="#aY"/><use transform="matrix(0.008173828125000001,0,0,0.008173828125000001,64.434287109375,0)" xlink:href="#bm"/><use transform="matrix(0.008173828125000001,0,0,0.008173828125000001,76.66233398437501,0)" xlink:href="#by"/></g><g id="N"><use transform="matrix(0.008173828125000001,0,0,0.008173828125000001,0,0)" xlink:href="#bl"/><use transform="matrix(0.008173828125000001,0,0,0.008173828125000001,10.527890625000001,0)" xlink:href="#aS"/><use transform="matrix(0.008173828125000001,0,0,0.008173828125000001,20.287441406250004,0)" xlink:href="#aX"/><use transform="matrix(0.008173828125000001,0,0,0.008173828125000001,25.600429687500004,0)" xlink:href="#aN"/><use transform="matrix(0.008173828125000001,0,0,0.008173828125000001,35.637890625000004,0)" xlink:href="#aL"/><use transform="matrix(0.008173828125000001,0,0,0.008173828125000001,42.201474609375,0)" xlink:href="#aT"/><use transform="matrix(0.008173828125000001,0,0,0.008173828125000001,52.09180664062499,0)" xlink:href="#aP"/><use transform="matrix(0.008173828125000001,0,0,0.008173828125000001,61.491708984374995,0)" xlink:href="#aL"/></g><g id="O"><use transform="matrix(0.008173828125000001,0,0,0.008173828125000001,0,0)" xlink:href="#aS"/><use transform="matrix(0.008173828125000001,0,0,0.008173828125000001,9.75955078125,0)" xlink:href="#aL"/><use transform="matrix(0.008173828125000001,0,0,0.008173828125000001,16.323134765625,0)" xlink:href="#aL"/><use transform="matrix(0.008173828125000001,0,0,0.008173828125000001,22.347246093749998,0)" xlink:href="#aN"/></g><g id="P"><use transform="matrix(0.008173828125000001,0,0,0.008173828125000001,0,0)" xlink:href="#aP"/><use transform="matrix(0.008173828125000001,0,0,0.008173828125000001,9.399902343750002,0)" xlink:href="#aN"/></g><path d="M180 0v-1490h901v168H370v510h643v168H370V0H180" id="bz"/><g id="Q"><use transform="matrix(0.008173828125000001,0,0,0.008173828125000001,0,0)" xlink:href="#bz"/><use transform="matrix(0.008173828125000001,0,0,0.008173828125000001,9.391728515625001,0)" xlink:href="#aL"/><use transform="matrix(0.008173828125000001,0,0,0.008173828125000001,15.415839843750001,0)" xlink:href="#aN"/><use transform="matrix(0.008173828125000001,0,0,0.008173828125000001,25.45330078125,0)" xlink:href="#aT"/><use transform="matrix(0.008173828125000001,0,0,0.008173828125000001,35.343632812500005,0)" xlink:href="#aX"/><use transform="matrix(0.008173828125000001,0,0,0.008173828125000001,40.656621093750005,0)" xlink:href="#aS"/><use transform="matrix(0.008173828125000001,0,0,0.008173828125000001,50.416171875,0)" xlink:href="#aT"/><use transform="matrix(0.008173828125000001,0,0,0.008173828125000001,60.30650390625,0)" xlink:href="#aU"/></g><g id="R"><use transform="matrix(0.008173828125000001,0,0,0.008173828125000001,0,0)" xlink:href="#be"/><use transform="matrix(0.008173828125000001,0,0,0.008173828125000001,10.061982421875001,0)" xlink:href="#aT"/><use transform="matrix(0.008173828125000001,0,0,0.008173828125000001,19.952314453125002,0)" xlink:href="#aU"/></g><g id="S"><use transform="matrix(0.008173828125000001,0,0,0.008173828125000001,0,0)" xlink:href="#bm"/><use transform="matrix(0.008173828125000001,0,0,0.008173828125000001,12.228046875000002,0)" xlink:href="#bn"/><use transform="matrix(0.008173828125000001,0,0,0.008173828125000001,25.028261718750002,0)" xlink:href="#bg"/><use transform="matrix(0.008173828125000001,0,0,0.008173828125000001,40.14984375,0)" xlink:href="#bg"/><use transform="matrix(0.008173828125000001,0,0,0.008173828125000001,55.27142578125,0)" xlink:href="#bi"/><use transform="matrix(0.008173828125000001,0,0,0.008173828125000001,59.76703125,0)" xlink:href="#bk"/></g><g id="T"><use transform="matrix(0.008173828125000001,0,0,0.008173828125000001,0,0)" xlink:href="#bi"/><use transform="matrix(0.008173828125000001,0,0,0.008173828125000001,4.495605468750001,0)" xlink:href="#aT"/><use transform="matrix(0.008173828125000001,0,0,0.008173828125000001,14.3859375,0)" xlink:href="#aM"/><use transform="matrix(0.008173828125000001,0,0,0.008173828125000001,18.44015625,0)" xlink:href="#aQ"/><use transform="matrix(0.008173828125000001,0,0,0.008173828125000001,28.003535156250003,0)" xlink:href="#aM"/><use transform="matrix(0.008173828125000001,0,0,0.008173828125000001,32.05775390625,0)" xlink:href="#aP"/><use transform="matrix(0.008173828125000001,0,0,0.008173828125000001,41.45765625,0)" xlink:href="#aL"/></g><g id="U"><use transform="matrix(0.008173828125000001,0,0,0.008173828125000001,0,0)" xlink:href="#aL"/><use transform="matrix(0.008173828125000001,0,0,0.008173828125000001,6.0241113281250005,0)" xlink:href="#aS"/><use transform="matrix(0.008173828125000001,0,0,0.008173828125000001,15.783662109375001,0)" xlink:href="#aQ"/><use transform="matrix(0.008173828125000001,0,0,0.008173828125000001,25.510517578125004,0)" xlink:href="#aK"/><use transform="matrix(0.008173828125000001,0,0,0.008173828125000001,34.910419921875004,0)" xlink:href="#bb"/><use transform="matrix(0.008173828125000001,0,0,0.008173828125000001,38.96463867187501,0)" xlink:href="#aQ"/><use transform="matrix(0.008173828125000001,0,0,0.008173828125000001,48.528017578125,0)" xlink:href="#aJ"/><use transform="matrix(0.008173828125000001,0,0,0.008173828125000001,58.42652343750001,0)" xlink:href="#bb"/><use transform="matrix(0.008173828125000001,0,0,0.008173828125000001,62.48074218750001,0)" xlink:href="#aN"/></g><g id="V"><use transform="matrix(0.008173828125000001,0,0,0.008173828125000001,0,0)" xlink:href="#aU"/><use transform="matrix(0.008173828125000001,0,0,0.008173828125000001,10.249980468750001,0)" xlink:href="#aS"/></g><g id="W"><use transform="matrix(0.008173828125000001,0,0,0.008173828125000001,0,0)" xlink:href="#bl"/><use transform="matrix(0.008173828125000001,0,0,0.008173828125000001,10.691367187500001,0)" xlink:href="#aP"/><use transform="matrix(0.008173828125000001,0,0,0.008173828125000001,20.091269531250003,0)" xlink:href="#aT"/><use transform="matrix(0.008173828125000001,0,0,0.008173828125000001,29.981601562500003,0)" xlink:href="#aR"/><use transform="matrix(0.008173828125000001,0,0,0.008173828125000001,39.16898437500001,0)" xlink:href="#aM"/><use transform="matrix(0.008173828125000001,0,0,0.008173828125000001,43.22320312500001,0)" xlink:href="#aT"/><use transform="matrix(0.008173828125000001,0,0,0.008173828125000001,53.11353515625001,0)" xlink:href="#br"/></g><use transform="matrix(0.008173828125000001,0,0,0.008173828125000001,0,0)" xlink:href="#aS" id="X"/><g id="Y"><use transform="matrix(0.008173828125000001,0,0,0.008173828125000001,0,0)" xlink:href="#bc"/><use transform="matrix(0.008173828125000001,0,0,0.008173828125000001,10.601455078125001,0)" xlink:href="#aN"/><use transform="matrix(0.008173828125000001,0,0,0.008173828125000001,20.638916015625,0)" xlink:href="#aT"/><use transform="matrix(0.008173828125000001,0,0,0.008173828125000001,30.529248046875,0)" xlink:href="#aX"/><use transform="matrix(0.008173828125000001,0,0,0.008173828125000001,36.005712890625,0)" xlink:href="#aJ"/><use transform="matrix(0.008173828125000001,0,0,0.008173828125000001,45.90421875,0)" xlink:href="#aP"/><use transform="matrix(0.008173828125000001,0,0,0.008173828125000001,55.30412109375,0)" xlink:href="#bs"/><use transform="matrix(0.008173828125000001,0,0,0.008173828125000001,65.0309765625,0)" xlink:href="#bt"/><use transform="matrix(0.008173828125000001,0,0,0.008173828125000001,74.43087890624999,0)" xlink:href="#aN"/></g><g id="Z"><use transform="matrix(0.008173828125000001,0,0,0.008173828125000001,0,0)" xlink:href="#bi"/><use transform="matrix(0.008173828125000001,0,0,0.008173828125000001,4.495605468750001,0)" xlink:href="#aT"/><use transform="matrix(0.008173828125000001,0,0,0.008173828125000001,14.3859375,0)" xlink:href="#aI"/><use transform="matrix(0.008173828125000001,0,0,0.008173828125000001,23.221845703125002,0)" xlink:href="#aS"/><use transform="matrix(0.008173828125000001,0,0,0.008173828125000001,32.981396484375004,0)" xlink:href="#aL"/><use transform="matrix(0.008173828125000001,0,0,0.008173828125000001,39.54498046875,0)" xlink:href="#aM"/><use transform="matrix(0.008173828125000001,0,0,0.008173828125000001,43.59919921875,0)" xlink:href="#aL"/></g><g id="aa"><use transform="matrix(0.008173828125000001,0,0,0.008173828125000001,0,0)" xlink:href="#aX"/><use transform="matrix(0.008173828125000001,0,0,0.008173828125000001,5.4764648437500005,0)" xlink:href="#aL"/><use transform="matrix(0.008173828125000001,0,0,0.008173828125000001,11.778486328125002,0)" xlink:href="#aP"/><use transform="matrix(0.008173828125000001,0,0,0.008173828125000001,21.178388671875005,0)" xlink:href="#aT"/><use transform="matrix(0.008173828125000001,0,0,0.008173828125000001,31.068720703125006,0)" xlink:href="#aI"/><use transform="matrix(0.008173828125000001,0,0,0.008173828125000001,39.90462890625001,0)" xlink:href="#aP"/><use transform="matrix(0.008173828125000001,0,0,0.008173828125000001,49.30453125000001,0)" xlink:href="#bs"/><use transform="matrix(0.008173828125000001,0,0,0.008173828125000001,59.031386718750014,0)" xlink:href="#bt"/><use transform="matrix(0.008173828125000001,0,0,0.008173828125000001,68.43128906250001,0)" xlink:href="#aN"/></g><g id="ab"><use transform="matrix(0.008173828125000001,0,0,0.008173828125000001,0,0)" xlink:href="#aH"/><use transform="matrix(0.008173828125000001,0,0,0.008173828125000001,12.456914062500001,0)" xlink:href="#bq"/><use transform="matrix(0.008173828125000001,0,0,0.008173828125000001,22.70689453125,0)" xlink:href="#aU"/><use transform="matrix(0.008173828125000001,0,0,0.008173828125000001,32.956875000000004,0)" xlink:href="#aP"/><use transform="matrix(0.008173828125000001,0,0,0.008173828125000001,42.356777343750004,0)" xlink:href="#aX"/><use transform="matrix(0.008173828125000001,0,0,0.008173828125000001,47.669765625000004,0)" xlink:href="#aS"/></g><g id="ac"><use transform="matrix(0.008173828125000001,0,0,0.008173828125000001,0,0)" xlink:href="#aU"/><use transform="matrix(0.008173828125000001,0,0,0.008173828125000001,10.249980468750001,0)" xlink:href="#aS"/></g><g id="ad"><use transform="matrix(0.008173828125000001,0,0,0.008173828125000001,0,0)" xlink:href="#ba"/><use transform="matrix(0.008173828125000001,0,0,0.008173828125000001,14.663847656250002,0)" xlink:href="#aS"/><use transform="matrix(0.008173828125000001,0,0,0.008173828125000001,24.42339843750001,0)" xlink:href="#aX"/><use transform="matrix(0.008173828125000001,0,0,0.008173828125000001,29.981601562500007,0)" xlink:href="#aP"/></g><g id="ae"><use transform="matrix(0.008173828125000001,0,0,0.008173828125000001,0,0)" xlink:href="#bf"/><use transform="matrix(0.008173828125000001,0,0,0.008173828125000001,9.408076171875,0)" xlink:href="#aM"/><use transform="matrix(0.008173828125000001,0,0,0.008173828125000001,13.462294921875001,0)" xlink:href="#aT"/><use transform="matrix(0.008173828125000001,0,0,0.008173828125000001,23.352626953125004,0)" xlink:href="#aQ"/><use transform="matrix(0.008173828125000001,0,0,0.008173828125000001,32.916005859375005,0)" xlink:href="#aJ"/><use transform="matrix(0.008173828125000001,0,0,0.008173828125000001,42.814511718750005,0)" xlink:href="#bb"/><use transform="matrix(0.008173828125000001,0,0,0.008173828125000001,46.868730468749995,0)" xlink:href="#aP"/><use transform="matrix(0.008173828125000001,0,0,0.008173828125000001,56.2686328125,0)" xlink:href="#aU"/><use transform="matrix(0.008173828125000001,0,0,0.008173828125000001,66.51861328125,0)" xlink:href="#aP"/></g><g id="af"><use transform="matrix(0.008173828125000001,0,0,0.008173828125000001,0,0)" xlink:href="#aW"/><use transform="matrix(0.008173828125000001,0,0,0.008173828125000001,10.740410156250002,0)" xlink:href="#aM"/><use transform="matrix(0.008173828125000001,0,0,0.008173828125000001,14.794628906250002,0)" xlink:href="#ba"/></g><g id="ag"><use transform="matrix(0.008173828125000001,0,0,0.008173828125000001,0,0)" xlink:href="#bj"/><use transform="matrix(0.008173828125000001,0,0,0.008173828125000001,12.612216796875002,0)" xlink:href="#bt"/><use transform="matrix(0.008173828125000001,0,0,0.008173828125000001,22.012119140625003,0)" xlink:href="#aN"/></g></defs></g></svg>