<svg xmlns="http://www.w3.org/2000/svg" xmlns:xlink="http://www.w3.org/1999/xlink" xmlns:lucid="lucid" width="1637.44" height="895.07"><g transform="translate(2542 -15329.74525390625)" lucid:page-tab-id="0_0"><path d="M-2540 15380h1633.44v842.8H-2540z" stroke="#000" stroke-width="4" fill-opacity="0"/><path d="M-2540 15331.75h328.12v36.25H-2540z" stroke="#000" stroke-width="4"/><use xlink:href="#a" transform="matrix(1,0,0,1,-2532,15339.74525390625) translate(0 16.589501953125)"/><use xlink:href="#b" transform="matrix(1,0,0,1,-2532,15339.74525390625) translate(78.493271484375 16.589501953125)"/><use xlink:href="#c" transform="matrix(1,0,0,1,-2532,15339.74525390625) translate(108.0253125 16.589501953125)"/><use xlink:href="#d" transform="matrix(1,0,0,1,-2532,15339.74525390625) translate(168.45442382812502 16.589501953125)"/><use xlink:href="#e" transform="matrix(1,0,0,1,-2532,15339.74525390625) translate(193.17208007812502 16.589501953125)"/><use xlink:href="#d" transform="matrix(1,0,0,1,-2532,15339.74525390625) translate(232.48819335937503 16.589501953125)"/><use xlink:href="#f" transform="matrix(1,0,0,1,-2532,15339.74525390625) translate(257.20584960937504 16.589501953125)"/><path d="M-2459 15473a12 12 0 0 1 12-12h28v357.13h-40zM-2459 15818.13h40v323.68h-28a12 12 0 0 1-12-12z" stroke="#3a414a" stroke-width="2" fill="#fff"/><path d="M-2419 15461h1419.44a12 12 0 0 1 12 12v345.13H-2419zM-2419 15818.13h1431.44v311.68a12 12 0 0 1-12 12H-2419z" stroke="#3a414a" stroke-width="2" fill="none"/><use xlink:href="#g" transform="matrix(-1.8369701987210297e-16,-1,1,-1.8369701987210297e-16,-2459,15818.12890625) translate(144.68626953125 26.089501953125)"/><use xlink:href="#h" transform="matrix(-1.8369701987210297e-16,-1,1,-1.8369701987210297e-16,-2458.999999999998,16141.813802083336) translate(82.411435546875 26.089501953125)"/><use xlink:href="#i" transform="matrix(-1.8369701987210297e-16,-1,1,-1.8369701987210297e-16,-2458.999999999998,16141.813802083336) translate(147.57319335937498 26.089501953125)"/><path d="M-2238.67 15606.12c18.47 0 33.45 14.97 33.45 33.44 0 18.48-14.98 33.45-33.45 33.45h-66.9c-18.46 0-33.43-14.97-33.43-33.44s14.97-33.44 33.44-33.44z" stroke="#1071e5" stroke-width="4" fill="#6db1ff"/><use xlink:href="#j" transform="matrix(1,0,0,1,-2334,15611.120442708334) translate(43.130717773437496 34.029375)"/><path d="M-2125.22 15568.86a6 6 0 0 1 6-6h191.7a6 6 0 0 1 6 6v141.4a6 6 0 0 1-6 6h-191.7a6 6 0 0 1-6-6z" stroke="#1071e5" stroke-width="4" fill="#cfe4ff"/><use xlink:href="#k" transform="matrix(1,0,0,1,-2113.2239583333335,15574.865020040295) translate(12.299589843749985 60.904375)"/><use xlink:href="#l" transform="matrix(1,0,0,1,-2113.2239583333335,15574.865020040295) translate(77.46134765624998 60.904375)"/><use xlink:href="#m" transform="matrix(1,0,0,1,-2113.2239583333335,15574.865020040295) translate(100.764931640625 60.904375)"/><use xlink:href="#n" transform="matrix(1,0,0,1,-2113.2239583333335,15574.865020040295) translate(148.05052734375 60.904375)"/><use xlink:href="#o" transform="matrix(1,0,0,1,-2113.2239583333335,15574.865020040295) translate(6.071132812499982 81.15912109375)"/><use xlink:href="#p" transform="matrix(1,0,0,1,-2113.2239583333335,15574.865020040295) translate(50.61849609374999 81.15912109375)"/><use xlink:href="#q" transform="matrix(1,0,0,1,-2113.2239583333335,15574.865020040295) translate(66.402158203125 81.15912109375)"/><use xlink:href="#r" transform="matrix(1,0,0,1,-2113.2239583333335,15574.865020040295) translate(107.0342578125 81.15912109375)"/><use xlink:href="#s" transform="matrix(1,0,0,1,-2113.2239583333335,15574.865020040295) translate(132.02982421875 81.15912109375)"/><path d="M-1714.9 15544.6a8 8 0 0 1 9.6 0l121.8 91.36a4.5 4.5 0 0 1 0 7.2l-121.8 91.37a8 8 0 0 1-9.6 0l-121.83-91.37a4.5 4.5 0 0 1 0-7.2z" stroke="#d916a8" stroke-width="4" fill="#ff80df"/><use xlink:href="#t" transform="matrix(1,0,0,1,-1836.5303819444443,15546) translate(35.975766601562476 98.466875)"/><use xlink:href="#p" transform="matrix(1,0,0,1,-1836.5303819444443,15546) translate(85.16586425781249 98.466875)"/><use xlink:href="#q" transform="matrix(1,0,0,1,-1836.5303819444443,15546) translate(100.94952636718749 98.466875)"/><use xlink:href="#r" transform="matrix(1,0,0,1,-1836.5303819444443,15546) translate(141.5816259765625 98.466875)"/><use xlink:href="#u" transform="matrix(1,0,0,1,-1836.5303819444443,15546) translate(166.5771923828125 98.466875)"/><path d="M-1356.57 15606.12c18.47 0 33.44 14.97 33.44 33.44 0 18.48-14.97 33.45-33.44 33.45h-66.9c-18.46 0-33.43-14.97-33.43-33.44s14.97-33.44 33.44-33.44z" stroke="#1071e5" stroke-width="4" fill="#6db1ff"/><use xlink:href="#v" transform="matrix(1,0,0,1,-1451.90382371357,15611.120442708334) translate(46.8988525390625 34.029375)"/><path d="M-1498.7 15904.13a6 6 0 0 1 6-6h205.36a6 6 0 0 1 6 6v151.68a6 6 0 0 1-6 6h-205.35a6 6 0 0 1-6-6z" stroke="#1071e5" stroke-width="4" fill="#cfe4ff"/><use xlink:href="#w" transform="matrix(1,0,0,1,-1486.6918402777778,15910.12890625) translate(8.424311523437495 64.341875)"/><use xlink:href="#x" transform="matrix(1,0,0,1,-1486.6918402777778,15910.12890625) translate(73.61876464843749 64.341875)"/><use xlink:href="#y" transform="matrix(1,0,0,1,-1486.6918402777778,15910.12890625) translate(165.5661572265625 64.341875)"/><use xlink:href="#z" transform="matrix(1,0,0,1,-1486.6918402777778,15910.12890625) translate(18.277861328124985 84.59662109375)"/><use xlink:href="#A" transform="matrix(1,0,0,1,-1486.6918402777778,15910.12890625) translate(67.72134765624999 84.59662109375)"/><use xlink:href="#B" transform="matrix(1,0,0,1,-1486.6918402777778,15910.12890625) translate(107.94475585937501 84.59662109375)"/><use xlink:href="#C" transform="matrix(1,0,0,1,-1486.6918402777778,15910.12890625) translate(122.690341796875 84.59662109375)"/><path d="M-1101 15946.53c18.46 0 33.44 14.97 33.44 33.44s-14.98 33.45-33.45 33.45h-66.9c-18.47 0-33.44-14.98-33.44-33.45 0-18.47 14.97-33.44 33.44-33.44z" stroke="#1071e5" stroke-width="4" fill="#6db1ff"/><use xlink:href="#v" transform="matrix(1,0,0,1,-1196.3397654826958,15951.52734375) translate(46.8988525390625 34.029375)"/><path d="M-2202.22 15639.56h56.5" stroke="#000" stroke-width="2" fill="none"/><path d="M-2202.2 15640.54h-1.1l.08-.94-.04-1h1.06z" stroke="#000" stroke-width=".05"/><path d="M-2130.46 15639.56l-14.27 4.64v-9.27z" stroke="#000" stroke-width="2"/><path d="M-1918.53 15639.56h59.5" stroke="#000" stroke-width="2" fill="none"/><path d="M-1918.5 15640.54h-1.03v-1.95h1.02z" stroke="#000" stroke-width=".05"/><path d="M-1843.78 15639.56l-14.26 4.64v-9.27z" stroke="#000" stroke-width="2"/><path d="M-1535.32 15640.54h-43.36v-1.95h43.36zm57.9 0h-25.85v-1.95h25.86z" stroke="#000" stroke-width=".05"/><path d="M-1578.66 15640.54h-1.1l.08-.98-.1-.97h1.12z"/><path stroke="#000" stroke-width=".05"/><path d="M-1462.14 15639.56l-14.27 4.64v-9.27z"/><path d="M-1459 15639.56l-18.38 5.98v-11.95zm-16.43 3.3l10.13-3.3-10.13-3.3z" stroke="#000" stroke-width=".05"/><use xlink:href="#D" transform="matrix(1,0,0,1,-1535.3190414666883,15629.437080078125) translate(0 16.216875)"/><path d="M-1709.14 15979h189.95v1.95h-191.9v-7.06h1.96zm0-25.37h-1.95v-214.5h1.96z" stroke="#000" stroke-width=".05"/><path d="M-1710.1 15738.13l.96-.06v1.1h-1.95v-1.1z"/><path stroke="#000" stroke-width=".05"/><path d="M-1503.93 15979.97l-14.26 4.64v-9.26z"/><path d="M-1500.77 15979.97l-18.4 5.98V15974zm-16.45 3.3l10.14-3.3-10.14-3.3z" stroke="#000" stroke-width=".05"/><use xlink:href="#E" transform="matrix(1,0,0,1,-1724.840349392361,15953.634481524841) translate(0 16.216875)"/><path d="M-1278.34 15979.97h56.5" stroke="#000" stroke-width="2" fill="none"/><path d="M-1278.3 15980.95h-1.04v-1.95h1.03z" stroke="#000" stroke-width=".05"/><path d="M-1206.58 15979.97l-14.26 4.64v-9.26z" stroke="#000" stroke-width="2"/><path d="M-2459 15473a12 12 0 0 1 12-12h28v357.13h-40zM-2459 15818.13h40v323.68h-28a12 12 0 0 1-12-12z" stroke="#3a414a" stroke-width="2" fill="#fff"/><path d="M-2419 15461h1419.44a12 12 0 0 1 12 12v345.13H-2419zM-2419 15818.13h1431.44v311.68a12 12 0 0 1-12 12H-2419z" stroke="#3a414a" stroke-width="2" fill="none"/><use xlink:href="#g" transform="matrix(-1.8369701987210297e-16,-1,1,-1.8369701987210297e-16,-2459,15818.12890625) translate(144.68626953125 26.089501953125)"/><use xlink:href="#h" transform="matrix(-1.8369701987210297e-16,-1,1,-1.8369701987210297e-16,-2458.999999999998,16141.813802083336) translate(82.411435546875 26.089501953125)"/><use xlink:href="#i" transform="matrix(-1.8369701987210297e-16,-1,1,-1.8369701987210297e-16,-2458.999999999998,16141.813802083336) translate(147.57319335937498 26.089501953125)"/><path d="M-2238.67 15606.12c18.47 0 33.45 14.97 33.45 33.44 0 18.48-14.98 33.45-33.45 33.45h-66.9c-18.46 0-33.43-14.97-33.43-33.44s14.97-33.44 33.44-33.44z" stroke="#1071e5" stroke-width="4" fill="#6db1ff"/><use xlink:href="#j" transform="matrix(1,0,0,1,-2334,15611.120442708334) translate(43.130717773437496 34.029375)"/><path d="M-2125.22 15568.86a6 6 0 0 1 6-6h191.7a6 6 0 0 1 6 6v141.4a6 6 0 0 1-6 6h-191.7a6 6 0 0 1-6-6z" stroke="#1071e5" stroke-width="4" fill="#cfe4ff"/><use xlink:href="#k" transform="matrix(1,0,0,1,-2113.2239583333335,15574.865020040295) translate(12.299589843749985 60.904375)"/><use xlink:href="#l" transform="matrix(1,0,0,1,-2113.2239583333335,15574.865020040295) translate(77.46134765624998 60.904375)"/><use xlink:href="#m" transform="matrix(1,0,0,1,-2113.2239583333335,15574.865020040295) translate(100.764931640625 60.904375)"/><use xlink:href="#n" transform="matrix(1,0,0,1,-2113.2239583333335,15574.865020040295) translate(148.05052734375 60.904375)"/><use xlink:href="#o" transform="matrix(1,0,0,1,-2113.2239583333335,15574.865020040295) translate(6.071132812499982 81.15912109375)"/><use xlink:href="#p" transform="matrix(1,0,0,1,-2113.2239583333335,15574.865020040295) translate(50.61849609374999 81.15912109375)"/><use xlink:href="#q" transform="matrix(1,0,0,1,-2113.2239583333335,15574.865020040295) translate(66.402158203125 81.15912109375)"/><use xlink:href="#r" transform="matrix(1,0,0,1,-2113.2239583333335,15574.865020040295) translate(107.0342578125 81.15912109375)"/><use xlink:href="#s" transform="matrix(1,0,0,1,-2113.2239583333335,15574.865020040295) translate(132.02982421875 81.15912109375)"/><path d="M-1714.9 15544.6a8 8 0 0 1 9.6 0l121.8 91.36a4.5 4.5 0 0 1 0 7.2l-121.8 91.37a8 8 0 0 1-9.6 0l-121.83-91.37a4.5 4.5 0 0 1 0-7.2z" stroke="#d916a8" stroke-width="4" fill="#ff80df"/><g><use xlink:href="#t" transform="matrix(1,0,0,1,-1836.5303819444443,15546) translate(35.975766601562476 98.466875)"/><use xlink:href="#p" transform="matrix(1,0,0,1,-1836.5303819444443,15546) translate(85.16586425781249 98.466875)"/><use xlink:href="#q" transform="matrix(1,0,0,1,-1836.5303819444443,15546) translate(100.94952636718749 98.466875)"/><use xlink:href="#r" transform="matrix(1,0,0,1,-1836.5303819444443,15546) translate(141.5816259765625 98.466875)"/><use xlink:href="#u" transform="matrix(1,0,0,1,-1836.5303819444443,15546) translate(166.5771923828125 98.466875)"/></g><path d="M-1356.57 15606.12c18.47 0 33.44 14.97 33.44 33.44 0 18.48-14.97 33.45-33.44 33.45h-66.9c-18.46 0-33.43-14.97-33.43-33.44s14.97-33.44 33.44-33.44z" stroke="#1071e5" stroke-width="4" fill="#6db1ff"/><g><use xlink:href="#v" transform="matrix(1,0,0,1,-1451.90382371357,15611.120442708334) translate(46.8988525390625 34.029375)"/></g><path d="M-1498.7 15904.13a6 6 0 0 1 6-6h205.36a6 6 0 0 1 6 6v151.68a6 6 0 0 1-6 6h-205.35a6 6 0 0 1-6-6z" stroke="#1071e5" stroke-width="4" fill="#cfe4ff"/><g><use xlink:href="#w" transform="matrix(1,0,0,1,-1486.6918402777778,15910.12890625) translate(8.424311523437495 64.341875)"/><use xlink:href="#x" transform="matrix(1,0,0,1,-1486.6918402777778,15910.12890625) translate(73.61876464843749 64.341875)"/><use xlink:href="#y" transform="matrix(1,0,0,1,-1486.6918402777778,15910.12890625) translate(165.5661572265625 64.341875)"/><use xlink:href="#z" transform="matrix(1,0,0,1,-1486.6918402777778,15910.12890625) translate(18.277861328124985 84.59662109375)"/><use xlink:href="#A" transform="matrix(1,0,0,1,-1486.6918402777778,15910.12890625) translate(67.72134765624999 84.59662109375)"/><use xlink:href="#B" transform="matrix(1,0,0,1,-1486.6918402777778,15910.12890625) translate(107.94475585937501 84.59662109375)"/><use xlink:href="#C" transform="matrix(1,0,0,1,-1486.6918402777778,15910.12890625) translate(122.690341796875 84.59662109375)"/></g><path d="M-1101 15946.53c18.46 0 33.44 14.97 33.44 33.44s-14.98 33.45-33.45 33.45h-66.9c-18.47 0-33.44-14.98-33.44-33.45 0-18.47 14.97-33.44 33.44-33.44z" stroke="#1071e5" stroke-width="4" fill="#6db1ff"/><g><use xlink:href="#v" transform="matrix(1,0,0,1,-1196.3397654826958,15951.52734375) translate(46.8988525390625 34.029375)"/></g><path d="M-2202.22 15639.56h56.5" stroke="#000" stroke-width="2" fill="none"/><path d="M-2202.2 15640.54h-1.1l.08-.94-.04-1h1.06z" stroke="#000" stroke-width=".05"/><path d="M-2130.46 15639.56l-14.27 4.64v-9.27z" stroke="#000" stroke-width="2"/><path d="M-1918.53 15639.56h59.5" stroke="#000" stroke-width="2" fill="none"/><path d="M-1918.5 15640.54h-1.03v-1.95h1.02z" stroke="#000" stroke-width=".05"/><path d="M-1843.78 15639.56l-14.26 4.64v-9.27z" stroke="#000" stroke-width="2"/><path d="M-1535.32 15640.54h-43.36v-1.95h43.36zm57.9 0h-25.85v-1.95h25.86z" stroke="#000" stroke-width=".05"/><path d="M-1578.66 15640.54h-1.1l.08-.98-.1-.97h1.12z"/><path stroke="#000" stroke-width=".05"/><path d="M-1462.14 15639.56l-14.27 4.64v-9.27z"/><path d="M-1459 15639.56l-18.38 5.98v-11.95zm-16.43 3.3l10.13-3.3-10.13-3.3z" stroke="#000" stroke-width=".05"/><g><use xlink:href="#D" transform="matrix(1,0,0,1,-1535.3190414666883,15629.437080078125) translate(0 16.216875)"/></g><path d="M-1709.14 15979h189.95v1.95h-191.9v-7.06h1.96zm0-25.37h-1.95v-214.5h1.96z" stroke="#000" stroke-width=".05"/><path d="M-1710.1 15738.13l.96-.06v1.1h-1.95v-1.1z"/><path stroke="#000" stroke-width=".05"/><path d="M-1503.93 15979.97l-14.26 4.64v-9.26z"/><path d="M-1500.77 15979.97l-18.4 5.98V15974zm-16.45 3.3l10.14-3.3-10.14-3.3z" stroke="#000" stroke-width=".05"/><g><use xlink:href="#E" transform="matrix(1,0,0,1,-1724.840349392361,15953.634481524841) translate(0 16.216875)"/></g><path d="M-1278.34 15979.97h56.5" stroke="#000" stroke-width="2" fill="none"/><path d="M-1278.3 15980.95h-1.04v-1.95h1.03z" stroke="#000" stroke-width=".05"/><path d="M-1206.58 15979.97l-14.26 4.64v-9.26z" stroke="#000" stroke-width="2"/><defs><path fill="#fff" d="M180 0v-1490h510c348 0 508 209 508 474 0 266-160 477-507 477H370V0H180zm190-706h312c236 0 327-133 327-310 0-176-91-307-329-307H370v617" id="F"/><path fill="#fff" d="M158 0v-1118h174v172h12c41-113 157-188 290-188 26 0 70 2 91 3v181c-11-2-60-10-108-10-161 0-279 109-279 260V0H158" id="G"/><path fill="#fff" d="M613 24c-304 0-509-231-509-576 0-350 205-580 509-580 305 0 511 230 511 580 0 345-206 576-511 576zm0-161c226 0 329-195 329-415 0-222-103-419-329-419-223 0-326 196-326 419 0 220 103 415 326 415" id="H"/><path fill="#fff" d="M613 24c-304 0-509-231-509-576 0-350 205-580 509-580 216 0 392 114 453 309l-173 49c-33-115-133-197-280-197-223 0-326 196-326 419 0 220 103 415 326 415 150 0 252-85 285-206l172 49C1010-95 832 24 613 24" id="I"/><path fill="#fff" d="M628 24c-324 0-524-230-524-574 0-343 198-582 503-582 237 0 487 146 487 559v75H286c9 234 145 362 343 362 132 0 231-58 273-172l174 48C1024-91 857 24 628 24zM287-650h624c-17-190-120-322-304-322-192 0-309 151-320 322" id="J"/><path fill="#fff" d="M538 24C308 24 148-78 108-271l171-41c32 123 123 178 257 178 156 0 256-77 256-169 0-77-54-128-164-154l-186-44c-203-48-300-148-300-305 0-192 176-326 414-326 230 0 351 112 402 269l-163 42c-31-80-94-158-238-158-133 0-233 69-233 162 0 83 57 129 188 160l169 40c203 48 298 149 298 302 0 196-179 339-441 339" id="K"/><g id="a"><use transform="matrix(0.008173828125000001,0,0,0.008173828125000001,0,0)" xlink:href="#F"/><use transform="matrix(0.008173828125000001,0,0,0.008173828125000001,10.691367187500001,0)" xlink:href="#G"/><use transform="matrix(0.008173828125000001,0,0,0.008173828125000001,16.715478515625,0)" xlink:href="#H"/><use transform="matrix(0.008173828125000001,0,0,0.008173828125000001,26.752939453125002,0)" xlink:href="#I"/><use transform="matrix(0.008173828125000001,0,0,0.008173828125000001,36.316318359375,0)" xlink:href="#J"/><use transform="matrix(0.008173828125000001,0,0,0.008173828125000001,46.075869140625,0)" xlink:href="#K"/><use transform="matrix(0.008173828125000001,0,0,0.008173828125000001,54.91177734375,0)" xlink:href="#K"/><use transform="matrix(0.008173828125000001,0,0,0.008173828125000001,63.747685546875005,0)" xlink:href="#H"/></g><path fill="#fff" d="M646 20c-249 0-524-159-524-708 0-524 209-822 547-822 250 0 431 161 467 395H950c-33-129-126-227-281-227-229 0-367 208-367 566h12c80-124 212-198 367-198 255 0 467 205 467 493 0 278-198 501-502 501zm0-167c179 0 318-148 318-334 0-182-133-328-313-328-181 0-322 156-322 330 0 176 134 332 317 332" id="L"/><path fill="#fff" d="M295 13c-75 0-135-60-135-135s60-135 135-135 135 60 135 135S370 13 295 13" id="M"/><path fill="#fff" d="M653-1490V0H466v-1314h-10L96-1047v-204l324-239h233" id="N"/><path fill="#fff" d="M295 13c-75 0-135-60-135-135s60-135 135-135 135 60 135 135S370 13 295 13zm0-809c-75 0-135-60-135-135s60-135 135-135 135 60 135 135-60 135-135 135" id="O"/><g id="b"><use transform="matrix(0.008173828125000001,0,0,0.008173828125000001,0,0)" xlink:href="#L"/><use transform="matrix(0.008173828125000001,0,0,0.008173828125000001,9.816767578125,0)" xlink:href="#M"/><use transform="matrix(0.008173828125000001,0,0,0.008173828125000001,13.19255859375,0)" xlink:href="#N"/><use transform="matrix(0.008173828125000001,0,0,0.008173828125000001,20.001357421875,0)" xlink:href="#O"/></g><path fill="#fff" d="M52 0l541-1490h220L1361 0h-200l-149-416H398L254 0H52zm404-582h497c-103-290-145-390-251-756-108 377-145 460-246 756" id="P"/><path fill="#fff" d="M338-1490V0H158v-1490h180" id="Q"/><path fill="#fff" d="M598-1118v154H368v674c0 100 37 144 132 144 23 0 62-6 92-12L629-6c-37 13-88 20-134 20-193 0-307-107-307-290v-688H20v-154h168v-266h180v266h230" id="R"/><path fill="#fff" d="M471 26C259 26 90-98 90-318c0-256 228-303 435-329 202-27 287-16 287-108 0-139-79-219-234-219-161 0-248 86-283 164l-173-57c86-203 278-265 451-265 150 0 419 46 419 395V0H815v-152h-12C765-73 660 26 471 26zm31-159c199 0 310-134 310-271v-155c-30 35-226 55-295 64-131 17-246 59-246 186 0 116 97 176 231 176" id="S"/><g id="c"><use transform="matrix(0.008173828125000001,0,0,0.008173828125000001,0,0)" xlink:href="#P"/><use transform="matrix(0.008173828125000001,0,0,0.008173828125000001,11.549619140625001,0)" xlink:href="#Q"/><use transform="matrix(0.008173828125000001,0,0,0.008173828125000001,15.603837890625002,0)" xlink:href="#J"/><use transform="matrix(0.008173828125000001,0,0,0.008173828125000001,25.363388671875,0)" xlink:href="#G"/><use transform="matrix(0.008173828125000001,0,0,0.008173828125000001,31.92697265625,0)" xlink:href="#R"/><use transform="matrix(0.008173828125000001,0,0,0.008173828125000001,37.48517578125,0)" xlink:href="#S"/><use transform="matrix(0.008173828125000001,0,0,0.008173828125000001,46.885078125,0)" xlink:href="#K"/></g><path fill="#fff" d="M577 24c-279 0-473-224-473-580 0-354 195-576 474-576 218 0 287 134 324 193h14v-551h180V0H922v-173h-20C865-111 790 24 577 24zm27-161c203 0 314-172 314-421 0-247-108-413-314-413-212 0-317 181-317 413 0 235 108 421 317 421" id="T"/><g id="d"><use transform="matrix(0.008173828125000001,0,0,0.008173828125000001,0,0)" xlink:href="#T"/><use transform="matrix(0.008173828125000001,0,0,0.008173828125000001,10.249980468750001,0)" xlink:href="#J"/></g><path fill="#fff" d="M98-1322v-168h1126v168H757V0H567v-1322H98" id="U"/><g id="e"><use transform="matrix(0.008173828125000001,0,0,0.008173828125000001,0,0)" xlink:href="#U"/><use transform="matrix(0.008173828125000001,0,0,0.008173828125000001,9.49798828125,0)" xlink:href="#J"/><use transform="matrix(0.008173828125000001,0,0,0.008173828125000001,19.2575390625,0)" xlink:href="#R"/><use transform="matrix(0.008173828125000001,0,0,0.008173828125000001,24.570527343750005,0)" xlink:href="#H"/></g><path fill="#fff" d="M789 20c-398 0-667-293-667-764 0-473 273-766 655-766 315 0 558 198 612 487h-196c-61-191-204-311-415-311-262 0-471 207-471 590 0 380 208 588 482 588 249 0 420-165 425-427H828v-166h572v163c0 370-256 606-611 606" id="V"/><g id="f"><use transform="matrix(0.008173828125000001,0,0,0.008173828125000001,0,0)" xlink:href="#V"/><use transform="matrix(0.008173828125000001,0,0,0.008173828125000001,12.489609375000002,0)" xlink:href="#S"/><use transform="matrix(0.008173828125000001,0,0,0.008173828125000001,21.889511718750004,0)" xlink:href="#K"/><use transform="matrix(0.008173828125000001,0,0,0.008173828125000001,30.725419921875005,0)" xlink:href="#R"/><use transform="matrix(0.008173828125000001,0,0,0.008173828125000001,36.038408203125,0)" xlink:href="#H"/><use transform="matrix(0.008173828125000001,0,0,0.008173828125000001,46.075869140625,0)" xlink:href="#K"/></g><path d="M180 0v-1490h528c311 0 458 177 458 395 0 191-114 278-244 313v14c139 9 302 137 302 371 0 225-148 397-499 397H180zm190-168h350c232 0 321-102 321-231 0-149-120-277-311-277H370v508zm0-668h328c160 0 286-101 286-255 0-129-87-231-280-231H370v486" id="W"/><path d="M471 26C259 26 90-98 90-318c0-256 228-303 435-329 202-27 287-16 287-108 0-139-79-219-234-219-161 0-248 86-283 164l-173-57c86-203 278-265 451-265 150 0 419 46 419 395V0H815v-152h-12C765-73 660 26 471 26zm31-159c199 0 310-134 310-271v-155c-30 35-226 55-295 64-131 17-246 59-246 186 0 116 97 176 231 176" id="X"/><path d="M613 24c-304 0-509-231-509-576 0-350 205-580 509-580 216 0 392 114 453 309l-173 49c-33-115-133-197-280-197-223 0-326 196-326 419 0 220 103 415 326 415 150 0 252-85 285-206l172 49C1010-95 832 24 613 24" id="Y"/><path d="M158 0v-1490h180v865h22l478-493h223L593-638 1096 0H865L456-523 338-412V0H158" id="Z"/><path d="M628 24c-324 0-524-230-524-574 0-343 198-582 503-582 237 0 487 146 487 559v75H286c9 234 145 362 343 362 132 0 231-58 273-172l174 48C1024-91 857 24 628 24zM287-650h624c-17-190-120-322-304-322-192 0-309 151-320 322" id="aa"/><path d="M338-670V0H158v-1118h173l1 207c72-158 192-221 342-221 226 0 378 139 378 422V0H872v-695c0-172-96-275-252-275-161 0-282 109-282 300" id="ab"/><path d="M577 24c-279 0-473-224-473-580 0-354 195-576 474-576 218 0 287 134 324 193h14v-551h180V0H922v-173h-20C865-111 790 24 577 24zm27-161c203 0 314-172 314-421 0-247-108-413-314-413-212 0-317 181-317 413 0 235 108 421 317 421" id="ac"/><g id="g"><use transform="matrix(0.008173828125000001,0,0,0.008173828125000001,0,0)" xlink:href="#W"/><use transform="matrix(0.008173828125000001,0,0,0.008173828125000001,10.952929687500001,0)" xlink:href="#X"/><use transform="matrix(0.008173828125000001,0,0,0.008173828125000001,20.352832031250003,0)" xlink:href="#Y"/><use transform="matrix(0.008173828125000001,0,0,0.008173828125000001,29.916210937500004,0)" xlink:href="#Z"/><use transform="matrix(0.008173828125000001,0,0,0.008173828125000001,38.727597656250005,0)" xlink:href="#aa"/><use transform="matrix(0.008173828125000001,0,0,0.008173828125000001,48.487148437500004,0)" xlink:href="#ab"/><use transform="matrix(0.008173828125000001,0,0,0.008173828125000001,58.37748046875001,0)" xlink:href="#ac"/></g><path d="M180 0v-1490h908v168H370v486h669v168H370v500h727V0H180" id="ad"/><path d="M65 0l393-574-370-544h210c88 136 192 297 267 435 67-142 176-302 264-435h206L661-564 1053 0H844c-94-144-206-310-287-458C484-308 366-142 273 0H65" id="ae"/><path d="M598-1118v154H368v674c0 100 37 144 132 144 23 0 62-6 92-12L629-6c-37 13-88 20-134 20-193 0-307-107-307-290v-688H20v-154h168v-266h180v266h230" id="af"/><path d="M158 0v-1118h174v172h12c41-113 157-188 290-188 26 0 70 2 91 3v181c-11-2-60-10-108-10-161 0-279 109-279 260V0H158" id="ag"/><g id="h"><use transform="matrix(0.008173828125000001,0,0,0.008173828125000001,0,0)" xlink:href="#ad"/><use transform="matrix(0.008173828125000001,0,0,0.008173828125000001,10.061982421875001,0)" xlink:href="#ae"/><use transform="matrix(0.008173828125000001,0,0,0.008173828125000001,19.527275390625,0)" xlink:href="#af"/><use transform="matrix(0.008173828125000001,0,0,0.008173828125000001,24.840263671875,0)" xlink:href="#aa"/><use transform="matrix(0.008173828125000001,0,0,0.008173828125000001,34.599814453125,0)" xlink:href="#ag"/><use transform="matrix(0.008173828125000001,0,0,0.008173828125000001,41.16339843749999,0)" xlink:href="#ab"/><use transform="matrix(0.008173828125000001,0,0,0.008173828125000001,51.05373046874999,0)" xlink:href="#X"/></g><path d="M218-607c0-325 108-727 258-974h175c-155 315-250 682-250 974 0 265 78 531 250 886H476C306-10 218-315 218-607" id="ah"/><path d="M458 0L52-1490h194c108 439 233 855 324 1313 92-459 221-873 331-1313h216c110 438 234 854 330 1307 92-455 216-869 323-1307h196L1558 0h-221l-256-944c-26-95-50-200-73-331-22 122-44 223-73 331L680 0H458" id="ai"/><path d="M338-670V0H158v-1490h180v566c73-149 190-208 336-208 226 0 379 139 379 422V0H872v-695c0-172-96-275-252-275-161 0-282 109-282 300" id="aj"/><path d="M538 24C308 24 148-78 108-271l171-41c32 123 123 178 257 178 156 0 256-77 256-169 0-77-54-128-164-154l-186-44c-203-48-300-148-300-305 0-192 176-326 414-326 230 0 351 112 402 269l-163 42c-31-80-94-158-238-158-133 0-233 69-233 162 0 83 57 129 188 160l169 40c203 48 298 149 298 302 0 196-179 339-441 339" id="ak"/><path d="M52 0l541-1490h220L1361 0h-200l-149-416H398L254 0H52zm404-582h497c-103-290-145-390-251-756-108 377-145 460-246 756" id="al"/><path d="M158 418v-1536h174v179h20c37-59 106-193 324-193 279 0 474 222 474 576 0 356-194 580-473 580-213 0-288-135-325-197h-14v591H158zm492-555c209 0 317-186 317-421 0-232-105-413-317-413-206 0-314 166-314 413 0 249 111 421 314 421" id="am"/><path d="M96 279C273-86 346-350 346-607c0-292-95-659-250-974h175c150 246 258 650 258 974 0 297-91 602-258 886H96" id="an"/><g id="i"><use transform="matrix(0.008173828125000001,0,0,0.008173828125000001,0,0)" xlink:href="#ah"/><use transform="matrix(0.008173828125000001,0,0,0.008173828125000001,6.105849609375,0)" xlink:href="#ai"/><use transform="matrix(0.008173828125000001,0,0,0.008173828125000001,22.600634765625003,0)" xlink:href="#aj"/><use transform="matrix(0.008173828125000001,0,0,0.008173828125000001,32.499140625,0)" xlink:href="#X"/><use transform="matrix(0.008173828125000001,0,0,0.008173828125000001,41.89904296875,0)" xlink:href="#af"/><use transform="matrix(0.008173828125000001,0,0,0.008173828125000001,47.21203125,0)" xlink:href="#ak"/><use transform="matrix(0.008173828125000001,0,0,0.008173828125000001,56.047939453125004,0)" xlink:href="#al"/><use transform="matrix(0.008173828125000001,0,0,0.008173828125000001,67.59755859375001,0)" xlink:href="#am"/><use transform="matrix(0.008173828125000001,0,0,0.008173828125000001,77.8475390625,0)" xlink:href="#am"/><use transform="matrix(0.008173828125000001,0,0,0.008173828125000001,87.909521484375,0)" xlink:href="#an"/></g><path d="M657 26c-323 0-524-166-541-416h195c15 169 171 246 346 246 202 0 356-106 356-265 5-203-294-238-475-293-239-73-380-191-380-389 0-252 224-419 512-419 294 0 499 171 508 396H992c-17-145-151-228-328-228-193 0-321 102-321 242 0 156 175 211 284 241l149 41c160 44 422 134 422 412 0 244-197 432-541 432" id="ao"/><g id="j"><use transform="matrix(0.008173828125000001,0,0,0.008173828125000001,0,0)" xlink:href="#ao"/><use transform="matrix(0.008173828125000001,0,0,0.008173828125000001,10.740410156250002,0)" xlink:href="#af"/><use transform="matrix(0.008173828125000001,0,0,0.008173828125000001,16.298613281250002,0)" xlink:href="#X"/><use transform="matrix(0.008173828125000001,0,0,0.008173828125000001,25.698515625000006,0)" xlink:href="#ag"/><use transform="matrix(0.008173828125000001,0,0,0.008173828125000001,32.26209960937501,0)" xlink:href="#af"/></g><path d="M600 0L52-1490h200c166 485 304 806 458 1336 156-533 285-846 449-1336h202L819 0H600" id="ap"/><path d="M158 0v-1118h180V0H158zm91-1301c-68 0-125-53-125-119s57-119 125-119c69 0 126 53 126 119s-57 119-126 119" id="aq"/><path d="M678-1118v154H420V0H240v-964H20v-154h220v-149c0-194 155-293 318-293 85 0 141 18 168 30l-50 154c-19-6-47-17-97-17-111 0-159 58-159 166v109h258" id="ar"/><g id="k"><use transform="matrix(0.008173828125000001,0,0,0.008173828125000001,0,0)" xlink:href="#ap"/><use transform="matrix(0.008173828125000001,0,0,0.008173828125000001,10.699541015625002,0)" xlink:href="#aa"/><use transform="matrix(0.008173828125000001,0,0,0.008173828125000001,20.459091796874997,0)" xlink:href="#ag"/><use transform="matrix(0.008173828125000001,0,0,0.008173828125000001,27.02267578125,0)" xlink:href="#aq"/><use transform="matrix(0.008173828125000001,0,0,0.008173828125000001,31.07689453125,0)" xlink:href="#ar"/><use transform="matrix(0.008173828125000001,0,0,0.008173828125000001,37.272656250000004,0)" xlink:href="#aq"/><use transform="matrix(0.008173828125000001,0,0,0.008173828125000001,41.326874999999994,0)" xlink:href="#Y"/><use transform="matrix(0.008173828125000001,0,0,0.008173828125000001,51.053730468750004,0)" xlink:href="#X"/></g><g id="l"><use transform="matrix(0.008173828125000001,0,0,0.008173828125000001,0,0)" xlink:href="#ak"/><use transform="matrix(0.008173828125000001,0,0,0.008173828125000001,8.835908203125001,0)" xlink:href="#aa"/></g><path d="M338-1490V0H158v-1490h180" id="as"/><path d="M613 24c-304 0-509-231-509-576 0-350 205-580 509-580 305 0 511 230 511 580 0 345-206 576-511 576zm0-161c226 0 329-195 329-415 0-222-103-419-329-419-223 0-326 196-326 419 0 220 103 415 326 415" id="at"/><g id="m"><use transform="matrix(0.008173828125000001,0,0,0.008173828125000001,0,0)" xlink:href="#ak"/><use transform="matrix(0.008173828125000001,0,0,0.008173828125000001,8.835908203125001,0)" xlink:href="#X"/><use transform="matrix(0.008173828125000001,0,0,0.008173828125000001,18.235810546875,0)" xlink:href="#as"/><use transform="matrix(0.008173828125000001,0,0,0.008173828125000001,22.290029296875,0)" xlink:href="#ac"/><use transform="matrix(0.008173828125000001,0,0,0.008173828125000001,32.540009765625,0)" xlink:href="#at"/></g><g id="n"><use transform="matrix(0.008173828125000001,0,0,0.008173828125000001,0,0)" xlink:href="#ac"/><use transform="matrix(0.008173828125000001,0,0,0.008173828125000001,10.249980468750001,0)" xlink:href="#X"/></g><path d="M180 0v-1490h270l367 940c28 72 75 218 110 339 35-117 81-264 110-339l362-940h271V0h-187c2-448-5-837 7-1287-157 497-311 829-483 1287H842C666-458 514-784 354-1284c12 438 5 843 7 1284H180" id="au"/><g id="o"><use transform="matrix(0.008173828125000001,0,0,0.008173828125000001,0,0)" xlink:href="#au"/><use transform="matrix(0.008173828125000001,0,0,0.008173828125000001,15.121582031250002,0)" xlink:href="#aa"/><use transform="matrix(0.008173828125000001,0,0,0.008173828125000001,24.881132812500002,0)" xlink:href="#af"/><use transform="matrix(0.008173828125000001,0,0,0.008173828125000001,30.439335937500005,0)" xlink:href="#X"/></g><path d="M1181-520L237-44v-194l712-338v-12L237-926v-196l944 476v126" id="av"/><use transform="matrix(0.008173828125000001,0,0,0.008173828125000001,0,0)" xlink:href="#av" id="p"/><path d="M200 0l662-1311v-12H98v-167h963v177L400 0H200" id="aw"/><path d="M626 20c-262 0-458-168-468-396h184c12 133 134 229 284 229 180 0 311-137 311-326 0-192-136-335-323-335-92 0-196 33-255 78l-178-22 88-738h784v167H429l-51 435h8c61-51 160-87 263-87 273 0 474 211 474 499 0 286-210 496-497 496" id="ax"/><path d="M1490 29c-191 0-293-139-293-303v-78c0-164 105-302 293-302 192 0 291 139 291 302v78c0 164-102 303-291 303zM523-831c-191 0-293-139-293-303v-78c0-164 105-302 293-302 192 0 291 139 291 302v78c0 164-102 303-291 303zM404 0l1024-1490h169L573 0H404zm1086-102c130-4 138-119 138-250 0-88-34-172-138-172-129 0-140 119-140 250 0 89 37 172 140 172zM523-962c130-4 138-119 138-250 0-88-34-172-138-172-129 0-140 119-140 250 0 89 37 172 140 172" id="ay"/><g id="q"><use transform="matrix(0.008173828125000001,0,0,0.008173828125000001,0,0)" xlink:href="#aw"/><use transform="matrix(0.008173828125000001,0,0,0.008173828125000001,9.309990234375004,0)" xlink:href="#ax"/><use transform="matrix(0.008173828125000001,0,0,0.008173828125000001,19.48640625,0)" xlink:href="#ay"/></g><g id="r"><use transform="matrix(0.008173828125000001,0,0,0.008173828125000001,0,0)" xlink:href="#ac"/><use transform="matrix(0.008173828125000001,0,0,0.008173828125000001,10.249980468750001,0)" xlink:href="#at"/></g><path d="M158 0v-1118h175l1 205c55-151 181-225 313-225 147 0 245 90 285 228 53-141 190-228 352-228 194 0 352 125 352 384V0h-181v-749c0-161-105-225-225-225-151 0-243 103-243 244V0H807v-767c0-124-93-207-219-207-131 0-250 92-250 270V0H158" id="az"/><g id="s"><use transform="matrix(0.008173828125000001,0,0,0.008173828125000001,0,0)" xlink:href="#as"/><use transform="matrix(0.008173828125000001,0,0,0.008173828125000001,4.05421875,0)" xlink:href="#aq"/><use transform="matrix(0.008173828125000001,0,0,0.008173828125000001,8.1084375,0)" xlink:href="#az"/><use transform="matrix(0.008173828125000001,0,0,0.008173828125000001,22.772285156250003,0)" xlink:href="#aq"/><use transform="matrix(0.008173828125000001,0,0,0.008173828125000001,26.826503906250004,0)" xlink:href="#af"/><use transform="matrix(0.008173828125000001,0,0,0.008173828125000001,32.139492187500004,0)" xlink:href="#aa"/></g><g id="t"><use transform="matrix(0.008173828125000001,0,0,0.008173828125000001,0,0)" xlink:href="#ao"/><use transform="matrix(0.008173828125000001,0,0,0.008173828125000001,10.740410156250002,0)" xlink:href="#X"/><use transform="matrix(0.008173828125000001,0,0,0.008173828125000001,20.140312500000004,0)" xlink:href="#as"/><use transform="matrix(0.008173828125000001,0,0,0.008173828125000001,24.194531250000004,0)" xlink:href="#ac"/><use transform="matrix(0.008173828125000001,0,0,0.008173828125000001,34.44451171875001,0)" xlink:href="#at"/></g><path d="M383-449c-3-277 82-343 222-425 88-53 156-134 156-250 0-139-108-227-243-227-118 0-235 70-246 236H82c10-251 200-395 436-395 259 0 427 165 427 393 0 161-74 273-203 352-132 80-180 132-178 316H383zm93 462c-75 0-135-60-135-134 0-75 60-135 135-135 74 0 134 60 134 135 0 74-60 134-134 134" id="aA"/><g id="u"><use transform="matrix(0.008173828125000001,0,0,0.008173828125000001,0,0)" xlink:href="#as"/><use transform="matrix(0.008173828125000001,0,0,0.008173828125000001,4.05421875,0)" xlink:href="#aq"/><use transform="matrix(0.008173828125000001,0,0,0.008173828125000001,8.1084375,0)" xlink:href="#az"/><use transform="matrix(0.008173828125000001,0,0,0.008173828125000001,22.772285156250003,0)" xlink:href="#aq"/><use transform="matrix(0.008173828125000001,0,0,0.008173828125000001,26.826503906250004,0)" xlink:href="#af"/><use transform="matrix(0.008173828125000001,0,0,0.008173828125000001,32.139492187500004,0)" xlink:href="#aa"/><use transform="matrix(0.008173828125000001,0,0,0.008173828125000001,41.89904296875,0)" xlink:href="#aA"/></g><g id="v"><use transform="matrix(0.008173828125000001,0,0,0.008173828125000001,0,0)" xlink:href="#ad"/><use transform="matrix(0.008173828125000001,0,0,0.008173828125000001,10.061982421875001,0)" xlink:href="#ab"/><use transform="matrix(0.008173828125000001,0,0,0.008173828125000001,19.952314453125002,0)" xlink:href="#ac"/></g><path d="M645 0H180v-1490h484c435 0 692 280 692 742 0 466-257 748-711 748zM370-168h263c363 0 539-218 539-580 0-358-176-574-521-574H370v1154" id="aB"/><g id="w"><use transform="matrix(0.008173828125000001,0,0,0.008173828125000001,0,0)" xlink:href="#aB"/><use transform="matrix(0.008173828125000001,0,0,0.008173828125000001,12.08091796875,0)" xlink:href="#aq"/><use transform="matrix(0.008173828125000001,0,0,0.008173828125000001,16.13513671875,0)" xlink:href="#ak"/><use transform="matrix(0.008173828125000001,0,0,0.008173828125000001,24.971044921875002,0)" xlink:href="#am"/><use transform="matrix(0.008173828125000001,0,0,0.008173828125000001,35.384501953125,0)" xlink:href="#X"/><use transform="matrix(0.008173828125000001,0,0,0.008173828125000001,44.784404296875,0)" xlink:href="#ag"/><use transform="matrix(0.008173828125000001,0,0,0.008173828125000001,51.08642578125,0)" xlink:href="#X"/></g><path d="M611 442c-248 0-391-105-460-228l146-94c47 65 117 165 314 165 178 0 307-82 307-266v-224h-17C863-141 792-18 576-18c-268 0-472-195-472-546 0-346 197-568 476-568 216 0 288 133 326 193h17v-179h175V29c0 289-215 413-487 413zm-5-620c203 0 314-146 314-390 0-237-108-403-314-403-213 0-319 180-319 403 0 230 109 390 319 390" id="aC"/><g id="x"><use transform="matrix(0.008173828125000001,0,0,0.008173828125000001,0,0)" xlink:href="#az"/><use transform="matrix(0.008173828125000001,0,0,0.008173828125000001,14.663847656250002,0)" xlink:href="#aa"/><use transform="matrix(0.008173828125000001,0,0,0.008173828125000001,24.42339843750001,0)" xlink:href="#ab"/><use transform="matrix(0.008173828125000001,0,0,0.008173828125000001,34.31373046875001,0)" xlink:href="#ak"/><use transform="matrix(0.008173828125000001,0,0,0.008173828125000001,43.14963867187501,0)" xlink:href="#X"/><use transform="matrix(0.008173828125000001,0,0,0.008173828125000001,52.54954101562501,0)" xlink:href="#aC"/><use transform="matrix(0.008173828125000001,0,0,0.008173828125000001,62.81586914062501,0)" xlink:href="#aa"/><use transform="matrix(0.008173828125000001,0,0,0.008173828125000001,72.57541992187501,0)" xlink:href="#az"/></g><g id="y"><use transform="matrix(0.008173828125000001,0,0,0.008173828125000001,0,0)" xlink:href="#ac"/><use transform="matrix(0.008173828125000001,0,0,0.008173828125000001,10.249980468750001,0)" xlink:href="#aa"/></g><g id="z"><use transform="matrix(0.008173828125000001,0,0,0.008173828125000001,0,0)" xlink:href="#X"/><use transform="matrix(0.008173828125000001,0,0,0.008173828125000001,9.399902343750002,0)" xlink:href="#as"/><use transform="matrix(0.008173828125000001,0,0,0.008173828125000001,13.454121093750002,0)" xlink:href="#aa"/><use transform="matrix(0.008173828125000001,0,0,0.008173828125000001,23.213671875000003,0)" xlink:href="#ag"/><use transform="matrix(0.008173828125000001,0,0,0.008173828125000001,29.777255859375003,0)" xlink:href="#af"/><use transform="matrix(0.008173828125000001,0,0,0.008173828125000001,35.335458984375,0)" xlink:href="#X"/></g><g id="A"><use transform="matrix(0.008173828125000001,0,0,0.008173828125000001,0,0)" xlink:href="#am"/><use transform="matrix(0.008173828125000001,0,0,0.008173828125000001,10.413457031250001,0)" xlink:href="#X"/><use transform="matrix(0.008173828125000001,0,0,0.008173828125000001,19.813359375000005,0)" xlink:href="#ag"/><use transform="matrix(0.008173828125000001,0,0,0.008173828125000001,26.11538085937501,0)" xlink:href="#X"/></g><use transform="matrix(0.008173828125000001,0,0,0.008173828125000001,0,0)" xlink:href="#at" id="B"/><path d="M537 14c-226 0-379-139-379-422v-710h180v695c0 172 97 275 253 275 160 0 281-109 281-300v-670h181V0H879v-209C806-46 684 14 537 14" id="aD"/><g id="C"><use transform="matrix(0.008173828125000001,0,0,0.008173828125000001,0,0)" xlink:href="#Y"/><use transform="matrix(0.008173828125000001,0,0,0.008173828125000001,9.563378906250001,0)" xlink:href="#aa"/><use transform="matrix(0.008173828125000001,0,0,0.008173828125000001,19.3229296875,0)" xlink:href="#as"/><use transform="matrix(0.008173828125000001,0,0,0.008173828125000001,23.3771484375,0)" xlink:href="#aD"/><use transform="matrix(0.008173828125000001,0,0,0.008173828125000001,33.275654296875004,0)" xlink:href="#as"/><use transform="matrix(0.008173828125000001,0,0,0.008173828125000001,37.32987304687501,0)" xlink:href="#X"/><use transform="matrix(0.008173828125000001,0,0,0.008173828125000001,46.72977539062501,0)" xlink:href="#ag"/></g><path d="M180 0v-1490h224l606 953c40 63 108 177 176 312-27-437-7-821-13-1265h190V0h-226C860-448 622-778 356-1262c27 476 11 792 15 1262H180" id="aE"/><path d="M471 26C259 26 90-98 90-318c0-256 228-303 435-329 202-27 287-16 287-108 0-139-79-219-234-219-161 0-248 86-283 164l-173-57c86-203 278-265 451-265 150 0 419 46 419 395V0H815v-152h-12C765-73 660 26 471 26zm31-159c199 0 310-134 310-271v-155c-30 35-226 55-295 64-131 17-246 59-246 186 0 116 97 176 231 176zm187-1180c-99 0-192-83-243-83-35 0-51 40-53 79H267c4-120 55-208 162-208 104 0 174 85 241 85 33 0 49-23 56-81h123c-4 126-62 208-160 208" id="aF"/><g id="D"><use transform="matrix(0.008173828125000001,0,0,0.008173828125000001,0,0)" xlink:href="#aE"/><use transform="matrix(0.008173828125000001,0,0,0.008173828125000001,12.612216796875002,0)" xlink:href="#aF"/><use transform="matrix(0.008173828125000001,0,0,0.008173828125000001,22.012119140625003,0)" xlink:href="#at"/></g><g id="E"><use transform="matrix(0.008173828125000001,0,0,0.008173828125000001,0,0)" xlink:href="#ao"/><use transform="matrix(0.008173828125000001,0,0,0.008173828125000001,10.740410156250002,0)" xlink:href="#aq"/><use transform="matrix(0.008173828125000001,0,0,0.008173828125000001,14.794628906250002,0)" xlink:href="#az"/></g></defs></g></svg>