<svg xmlns="http://www.w3.org/2000/svg" xmlns:xlink="http://www.w3.org/1999/xlink" width="6209pt" height="741pt" viewBox="0.00 0.00 6209.00 741.00">
<g id="graph0" class="graph" transform="scale(1 1) rotate(0) translate(4 737.4)">
<title>ER</title>
<polygon fill="white" stroke="none" points="-4,4 -4,-737.4 6204.59,-737.4 6204.59,4 -4,4"/>
<!-- Usuario -->
<g id="node1" class="node">
<title>Usuario</title>
<polygon fill="none" stroke="black" points="4073.16,-733.4 4012.84,-733.4 4012.84,-697.4 4073.16,-697.4 4073.16,-733.4"/>
<text xml:space="preserve" text-anchor="middle" x="4043" y="-711.2" font-family="Times,serif" font-size="14.00">Usuario</text>
</g>
<!-- REALIZA -->
<g id="node13" class="node">
<title>REALIZA</title>
<polygon fill="none" stroke="black" points="215,-515.6 140.98,-497.6 215,-479.6 289.02,-497.6 215,-515.6"/>
<text xml:space="preserve" text-anchor="middle" x="215" y="-493.4" font-family="Times,serif" font-size="14.00">REALIZA</text>
</g>
<!-- Usuario&#45;&#45;REALIZA -->
<g id="edge58" class="edge">
<title>Usuario--REALIZA</title>
<path fill="none" stroke="black" d="M4012.69,-712.93C3878.68,-706.41 3325.88,-679.33 2872.18,-654.4 1828.81,-597.08 555.47,-519.46 272.49,-502.13"/>
<text xml:space="preserve" text-anchor="middle" x="2885.59" y="-641.8" font-family="Times,serif" font-size="14.00">(1,1)</text>
</g>
<!-- DEFINE_META -->
<g id="node14" class="node">
<title>DEFINE_META</title>
<polygon fill="none" stroke="black" points="2024,-594.6 1914.32,-576.6 2024,-558.6 2133.68,-576.6 2024,-594.6"/>
<text xml:space="preserve" text-anchor="middle" x="2024" y="-572.4" font-family="Times,serif" font-size="14.00">DEFINE_META</text>
</g>
<!-- Usuario&#45;&#45;DEFINE_META -->
<g id="edge60" class="edge">
<title>Usuario--DEFINE_META</title>
<path fill="none" stroke="black" d="M4012.49,-712.33C3791.54,-697.36 2435.56,-605.49 2099.36,-582.71"/>
<text xml:space="preserve" text-anchor="middle" x="3167.79" y="-641.8" font-family="Times,serif" font-size="14.00">(1,1)</text>
</g>
<!-- DEFINE_LIMITE -->
<g id="node15" class="node">
<title>DEFINE_LIMITE</title>
<polygon fill="none" stroke="black" points="2577,-594.6 2459.74,-576.6 2577,-558.6 2694.26,-576.6 2577,-594.6"/>
<text xml:space="preserve" text-anchor="middle" x="2577" y="-572.4" font-family="Times,serif" font-size="14.00">DEFINE_LIMITE</text>
</g>
<!-- Usuario&#45;&#45;DEFINE_LIMITE -->
<g id="edge62" class="edge">
<title>Usuario--DEFINE_LIMITE</title>
<path fill="none" stroke="black" d="M4012.41,-711.62C3919.09,-703.12 3629.86,-676.73 3390.18,-654.4 3115.2,-628.78 2787.99,-597.69 2647.15,-584.29"/>
<text xml:space="preserve" text-anchor="middle" x="3403.59" y="-641.8" font-family="Times,serif" font-size="14.00">(1,1)</text>
</g>
<!-- CRIA_ORC -->
<g id="node16" class="node">
<title>CRIA_ORC</title>
<polygon fill="none" stroke="black" points="2969,-594.6 2885.85,-576.6 2969,-558.6 3052.15,-576.6 2969,-594.6"/>
<text xml:space="preserve" text-anchor="middle" x="2969" y="-572.4" font-family="Times,serif" font-size="14.00">CRIA_ORC</text>
</g>
<!-- Usuario&#45;&#45;CRIA_ORC -->
<g id="edge64" class="edge">
<title>Usuario--CRIA_ORC</title>
<path fill="none" stroke="black" d="M4012.49,-710.67C3936.22,-701.33 3731.12,-676.12 3560.18,-654.4 3359.71,-628.92 3121.14,-597.63 3019.21,-584.22"/>
<text xml:space="preserve" text-anchor="middle" x="3573.59" y="-641.8" font-family="Times,serif" font-size="14.00">(1,1)</text>
</g>
<!-- CRIA_CAT -->
<g id="node17" class="node">
<title>CRIA_CAT</title>
<polygon fill="none" stroke="black" points="3260,-594.6 3177.62,-576.6 3260,-558.6 3342.38,-576.6 3260,-594.6"/>
<text xml:space="preserve" text-anchor="middle" x="3260" y="-572.4" font-family="Times,serif" font-size="14.00">CRIA_CAT</text>
</g>
<!-- Usuario&#45;&#45;CRIA_CAT -->
<g id="edge66" class="edge">
<title>Usuario--CRIA_CAT</title>
<path fill="none" stroke="black" d="M4012.37,-709.13C3951.92,-698.73 3812.96,-674.78 3696.18,-654.4 3552.83,-629.38 3383.05,-599.38 3304.26,-585.44"/>
<text xml:space="preserve" text-anchor="middle" x="3709.59" y="-641.8" font-family="Times,serif" font-size="14.00">(1,1)</text>
</g>
<!-- POSSUI -->
<g id="node18" class="node">
<title>POSSUI</title>
<polygon fill="none" stroke="black" points="3497,-594.6 3434.33,-576.6 3497,-558.6 3559.67,-576.6 3497,-594.6"/>
<text xml:space="preserve" text-anchor="middle" x="3497" y="-572.4" font-family="Times,serif" font-size="14.00">POSSUI</text>
</g>
<!-- Usuario&#45;&#45;POSSUI -->
<g id="edge68" class="edge">
<title>Usuario--POSSUI</title>
<path fill="none" stroke="black" d="M4012.47,-706.75C3917.37,-682.92 3626.92,-610.15 3529.35,-585.71"/>
<text xml:space="preserve" text-anchor="middle" x="3816.1" y="-641.8" font-family="Times,serif" font-size="14.00">(1,1)</text>
</g>
<!-- CONVERSA_VIA -->
<g id="node19" class="node">
<title>CONVERSA_VIA</title>
<polygon fill="none" stroke="black" points="3748,-594.6 3627.68,-576.6 3748,-558.6 3868.32,-576.6 3748,-594.6"/>
<text xml:space="preserve" text-anchor="middle" x="3748" y="-572.4" font-family="Times,serif" font-size="14.00">CONVERSA_VIA</text>
</g>
<!-- Usuario&#45;&#45;CONVERSA_VIA -->
<g id="edge70" class="edge">
<title>Usuario--CONVERSA_VIA</title>
<path fill="none" stroke="black" d="M4012.54,-700.28C3955.13,-673.65 3831.69,-616.41 3776.12,-590.64"/>
<text xml:space="preserve" text-anchor="middle" x="3926.57" y="-641.8" font-family="Times,serif" font-size="14.00">(1,1)</text>
</g>
<!-- RECEBE_AVISO -->
<g id="node20" class="node">
<title>RECEBE_AVISO</title>
<polygon fill="none" stroke="black" points="4043,-594.6 3926.48,-576.6 4043,-558.6 4159.52,-576.6 4043,-594.6"/>
<text xml:space="preserve" text-anchor="middle" x="4043" y="-572.4" font-family="Times,serif" font-size="14.00">RECEBE_AVISO</text>
</g>
<!-- Usuario&#45;&#45;RECEBE_AVISO -->
<g id="edge72" class="edge">
<title>Usuario--RECEBE_AVISO</title>
<path fill="none" stroke="black" d="M4043,-697.07C4043,-670.76 4043,-621.02 4043,-594.79"/>
<text xml:space="preserve" text-anchor="middle" x="4056.41" y="-641.8" font-family="Times,serif" font-size="14.00">(1,1)</text>
</g>
<!-- DESBLOQUEIA -->
<g id="node21" class="node">
<title>DESBLOQUEIA</title>
<polygon fill="none" stroke="black" points="4329,-594.6 4217.8,-576.6 4329,-558.6 4440.2,-576.6 4329,-594.6"/>
<text xml:space="preserve" text-anchor="middle" x="4329" y="-572.4" font-family="Times,serif" font-size="14.00">DESBLOQUEIA</text>
</g>
<!-- Usuario&#45;&#45;DESBLOQUEIA -->
<g id="edge74" class="edge">
<title>Usuario--DESBLOQUEIA</title>
<path fill="none" stroke="black" d="M4073.61,-699.76C4129.81,-672.88 4248.57,-616.07 4301.98,-590.52"/>
<text xml:space="preserve" text-anchor="middle" x="4216.54" y="-641.8" font-family="Times,serif" font-size="14.00">(1,1)</text>
</g>
<!-- GANHA -->
<g id="node22" class="node">
<title>GANHA</title>
<polygon fill="none" stroke="black" points="4563,-594.6 4498.08,-576.6 4563,-558.6 4627.92,-576.6 4563,-594.6"/>
<text xml:space="preserve" text-anchor="middle" x="4563" y="-572.4" font-family="Times,serif" font-size="14.00">GANHA</text>
</g>
<!-- Usuario&#45;&#45;GANHA -->
<g id="edge76" class="edge">
<title>Usuario--GANHA</title>
<path fill="none" stroke="black" d="M4073.59,-706.35C4165.24,-682.24 4437.07,-610.73 4530.8,-586.07"/>
<text xml:space="preserve" text-anchor="middle" x="4347.55" y="-641.8" font-family="Times,serif" font-size="14.00">(1,1)</text>
</g>
<!-- u_id -->
<g id="node25" class="node">
<title>u_id</title>
<ellipse fill="black" stroke="black" cx="4713" cy="-576.6" rx="27" ry="18"/>
<text xml:space="preserve" text-anchor="middle" x="4713" y="-572.4" font-family="Times,serif" font-size="14.00" fill="white">id</text>
</g>
<!-- Usuario&#45;&#45;u_id -->
<g id="edge1" class="edge">
<title>Usuario--u_id</title>
<path fill="none" stroke="black" d="M4073.63,-709.74C4163.81,-695.75 4435.86,-651.5 4657,-594.6 4667.53,-591.89 4679.04,-588.48 4688.87,-585.42"/>
</g>
<!-- u_nome -->
<g id="node37" class="node">
<title>u_nome</title>
<ellipse fill="white" stroke="black" cx="4830" cy="-576.6" rx="32.49" ry="18"/>
<text xml:space="preserve" text-anchor="middle" x="4830" y="-572.4" font-family="Times,serif" font-size="14.00">nome</text>
</g>
<!-- Usuario&#45;&#45;u_nome -->
<g id="edge2" class="edge">
<title>Usuario--u_nome</title>
<path fill="none" stroke="black" d="M4073.38,-710.93C4173.64,-699.15 4502.72,-657.88 4769,-594.6 4779.8,-592.03 4791.58,-588.84 4801.87,-585.93"/>
</g>
<!-- u_email -->
<g id="node38" class="node">
<title>u_email</title>
<ellipse fill="white" stroke="black" cx="4953" cy="-576.6" rx="32.49" ry="18"/>
<text xml:space="preserve" text-anchor="middle" x="4953" y="-572.4" font-family="Times,serif" font-size="14.00">email</text>
</g>
<!-- Usuario&#45;&#45;u_email -->
<g id="edge3" class="edge">
<title>Usuario--u_email</title>
<path fill="none" stroke="black" d="M4073.37,-711.92C4184,-702.51 4575.56,-665.85 4891,-594.6 4902.1,-592.09 4914.2,-588.88 4924.74,-585.93"/>
</g>
<!-- u_telefone -->
<g id="node39" class="node">
<title>u_telefone</title>
<ellipse fill="white" stroke="black" cx="5127" cy="-576.6" rx="83.44" ry="18"/>
<text xml:space="preserve" text-anchor="middle" x="5127" y="-572.4" font-family="Times,serif" font-size="14.00">telefone_whatsapp</text>
</g>
<!-- Usuario&#45;&#45;u_telefone -->
<g id="edge4" class="edge">
<title>Usuario--u_telefone</title>
<path fill="none" stroke="black" d="M4073.48,-712.13C4163.23,-705.3 4434.35,-683.59 4658,-654.4 4804.65,-635.26 4975.87,-605.27 5065.36,-589.01"/>
</g>
<!-- u_notificacoes -->
<g id="node40" class="node">
<title>u_notificacoes</title>
<ellipse fill="white" stroke="black" cx="5353" cy="-576.6" rx="85.04" ry="18"/>
<text xml:space="preserve" text-anchor="middle" x="5353" y="-572.4" font-family="Times,serif" font-size="14.00">notificacoes_ativas</text>
</g>
<!-- Usuario&#45;&#45;u_notificacoes -->
<g id="edge5" class="edge">
<title>Usuario--u_notificacoes</title>
<path fill="none" stroke="black" d="M4073.44,-712.3C4172.48,-705.37 4494.43,-682.08 4760,-654.4 4973.39,-632.16 5026.44,-623.71 5239,-594.6 5254.07,-592.54 5270.24,-590.2 5285.52,-587.93"/>
</g>
<!-- Categoria -->
<g id="node2" class="node">
<title>Categoria</title>
<polygon fill="none" stroke="black" points="5792.21,-733.4 5721.79,-733.4 5721.79,-697.4 5792.21,-697.4 5792.21,-733.4"/>
<text xml:space="preserve" text-anchor="middle" x="5757" y="-711.2" font-family="Times,serif" font-size="14.00">Categoria</text>
</g>
<!-- c_id -->
<g id="node26" class="node">
<title>c_id</title>
<ellipse fill="black" stroke="black" cx="5523" cy="-576.6" rx="27" ry="18"/>
<text xml:space="preserve" text-anchor="middle" x="5523" y="-572.4" font-family="Times,serif" font-size="14.00" fill="white">id</text>
</g>
<!-- Categoria&#45;&#45;c_id -->
<g id="edge6" class="edge">
<title>Categoria--c_id</title>
<path fill="none" stroke="black" d="M5727.36,-697.07C5678.91,-668.75 5584.01,-613.27 5542.84,-589.2"/>
</g>
<!-- c_nome -->
<g id="node41" class="node">
<title>c_nome</title>
<ellipse fill="white" stroke="black" cx="5640" cy="-576.6" rx="32.49" ry="18"/>
<text xml:space="preserve" text-anchor="middle" x="5640" y="-572.4" font-family="Times,serif" font-size="14.00">nome</text>
</g>
<!-- Categoria&#45;&#45;c_nome -->
<g id="edge7" class="edge">
<title>Categoria--c_nome</title>
<path fill="none" stroke="black" d="M5742.18,-697.07C5719.18,-670.18 5675.26,-618.83 5653.26,-593.1"/>
</g>
<!-- c_tipo -->
<g id="node42" class="node">
<title>c_tipo</title>
<ellipse fill="white" stroke="black" cx="5757" cy="-576.6" rx="27" ry="18"/>
<text xml:space="preserve" text-anchor="middle" x="5757" y="-572.4" font-family="Times,serif" font-size="14.00">tipo</text>
</g>
<!-- Categoria&#45;&#45;c_tipo -->
<g id="edge8" class="edge">
<title>Categoria--c_tipo</title>
<path fill="none" stroke="black" d="M5757,-697.07C5757,-670.76 5757,-621.02 5757,-594.79"/>
</g>
<!-- c_cor -->
<g id="node43" class="node">
<title>c_cor</title>
<ellipse fill="white" stroke="black" cx="5869" cy="-576.6" rx="27" ry="18"/>
<text xml:space="preserve" text-anchor="middle" x="5869" y="-572.4" font-family="Times,serif" font-size="14.00">cor</text>
</g>
<!-- Categoria&#45;&#45;c_cor -->
<g id="edge9" class="edge">
<title>Categoria--c_cor</title>
<path fill="none" stroke="black" d="M5771.18,-697.07C5793.32,-670.04 5835.7,-618.28 5856.65,-592.69"/>
</g>
<!-- c_icone -->
<g id="node44" class="node">
<title>c_icone</title>
<ellipse fill="white" stroke="black" cx="5986" cy="-576.6" rx="31.95" ry="18"/>
<text xml:space="preserve" text-anchor="middle" x="5986" y="-572.4" font-family="Times,serif" font-size="14.00">icone</text>
</g>
<!-- Categoria&#45;&#45;c_icone -->
<g id="edge10" class="edge">
<title>Categoria--c_icone</title>
<path fill="none" stroke="black" d="M5786,-697.07C5832.7,-669.18 5923.48,-614.95 5964.71,-590.32"/>
</g>
<!-- Conquista -->
<g id="node3" class="node">
<title>Conquista</title>
<polygon fill="none" stroke="black" points="5319.39,-436.6 5246.61,-436.6 5246.61,-400.6 5319.39,-400.6 5319.39,-436.6"/>
<text xml:space="preserve" text-anchor="middle" x="5283" y="-414.4" font-family="Times,serif" font-size="14.00">Conquista</text>
</g>
<!-- cq_id -->
<g id="node27" class="node">
<title>cq_id</title>
<ellipse fill="black" stroke="black" cx="5224" cy="-279.8" rx="27" ry="18"/>
<text xml:space="preserve" text-anchor="middle" x="5224" y="-275.6" font-family="Times,serif" font-size="14.00" fill="white">id</text>
</g>
<!-- Conquista&#45;&#45;cq_id -->
<g id="edge11" class="edge">
<title>Conquista--cq_id</title>
<path fill="none" stroke="black" d="M5275.53,-400.27C5264.12,-373.82 5242.49,-323.67 5231.23,-297.56"/>
</g>
<!-- cq_nome -->
<g id="node45" class="node">
<title>cq_nome</title>
<ellipse fill="white" stroke="black" cx="5341" cy="-279.8" rx="32.49" ry="18"/>
<text xml:space="preserve" text-anchor="middle" x="5341" y="-275.6" font-family="Times,serif" font-size="14.00">nome</text>
</g>
<!-- Conquista&#45;&#45;cq_nome -->
<g id="edge12" class="edge">
<title>Conquista--cq_nome</title>
<path fill="none" stroke="black" d="M5290.35,-400.27C5301.56,-373.82 5322.82,-323.67 5333.9,-297.56"/>
</g>
<!-- cq_descricao -->
<g id="node46" class="node">
<title>cq_descricao</title>
<ellipse fill="white" stroke="black" cx="5479" cy="-279.8" rx="47.5" ry="18"/>
<text xml:space="preserve" text-anchor="middle" x="5479" y="-275.6" font-family="Times,serif" font-size="14.00">descricao</text>
</g>
<!-- Conquista&#45;&#45;cq_descricao -->
<g id="edge13" class="edge">
<title>Conquista--cq_descricao</title>
<path fill="none" stroke="black" d="M5307.82,-400.27C5346.45,-373.31 5420.32,-321.75 5457.09,-296.09"/>
</g>
<!-- cq_pontos -->
<g id="node47" class="node">
<title>cq_pontos</title>
<ellipse fill="white" stroke="black" cx="5621" cy="-279.8" rx="36.79" ry="18"/>
<text xml:space="preserve" text-anchor="middle" x="5621" y="-275.6" font-family="Times,serif" font-size="14.00">pontos</text>
</g>
<!-- Conquista&#45;&#45;cq_pontos -->
<g id="edge14" class="edge">
<title>Conquista--cq_pontos</title>
<path fill="none" stroke="black" d="M5319.82,-402.7C5388.08,-375.07 5532.86,-316.47 5593.44,-291.95"/>
</g>
<!-- Emblema -->
<g id="node4" class="node">
<title>Emblema</title>
<polygon fill="none" stroke="black" points="5835.82,-436.6 5766.18,-436.6 5766.18,-400.6 5835.82,-400.6 5835.82,-436.6"/>
<text xml:space="preserve" text-anchor="middle" x="5801" y="-414.4" font-family="Times,serif" font-size="14.00">Emblema</text>
</g>
<!-- e_id -->
<g id="node28" class="node">
<title>e_id</title>
<ellipse fill="black" stroke="black" cx="5743" cy="-279.8" rx="27" ry="18"/>
<text xml:space="preserve" text-anchor="middle" x="5743" y="-275.6" font-family="Times,serif" font-size="14.00" fill="white">id</text>
</g>
<!-- Emblema&#45;&#45;e_id -->
<g id="edge15" class="edge">
<title>Emblema--e_id</title>
<path fill="none" stroke="black" d="M5793.65,-400.27C5782.44,-373.82 5761.18,-323.67 5750.1,-297.56"/>
</g>
<!-- e_nome -->
<g id="node48" class="node">
<title>e_nome</title>
<ellipse fill="white" stroke="black" cx="5860" cy="-279.8" rx="32.49" ry="18"/>
<text xml:space="preserve" text-anchor="middle" x="5860" y="-275.6" font-family="Times,serif" font-size="14.00">nome</text>
</g>
<!-- Emblema&#45;&#45;e_nome -->
<g id="edge16" class="edge">
<title>Emblema--e_nome</title>
<path fill="none" stroke="black" d="M5808.47,-400.27C5819.88,-373.82 5841.51,-323.67 5852.77,-297.56"/>
</g>
<!-- e_descricao -->
<g id="node49" class="node">
<title>e_descricao</title>
<ellipse fill="white" stroke="black" cx="5998" cy="-279.8" rx="47.5" ry="18"/>
<text xml:space="preserve" text-anchor="middle" x="5998" y="-275.6" font-family="Times,serif" font-size="14.00">descricao</text>
</g>
<!-- Emblema&#45;&#45;e_descricao -->
<g id="edge17" class="edge">
<title>Emblema--e_descricao</title>
<path fill="none" stroke="black" d="M5825.95,-400.27C5864.78,-373.31 5939.02,-321.75 5975.98,-296.09"/>
</g>
<!-- e_requisitos -->
<g id="node50" class="node">
<title>e_requisitos</title>
<ellipse fill="white" stroke="black" cx="6152" cy="-279.8" rx="48.59" ry="18"/>
<text xml:space="preserve" text-anchor="middle" x="6152" y="-275.6" font-family="Times,serif" font-size="14.00">requisitos</text>
</g>
<!-- Emblema&#45;&#45;e_requisitos -->
<g id="edge18" class="edge">
<title>Emblema--e_requisitos</title>
<path fill="none" stroke="black" d="M5836.26,-403.86C5904.41,-377.3 6053.29,-319.27 6119.33,-293.53"/>
</g>
<!-- Meta_Gastos -->
<g id="node5" class="node">
<title>Meta_Gastos</title>
<polygon fill="none" stroke="black" points="743.94,-436.6 654.06,-436.6 654.06,-400.6 743.94,-400.6 743.94,-436.6"/>
<text xml:space="preserve" text-anchor="middle" x="699" y="-414.4" font-family="Times,serif" font-size="14.00">Meta_Gastos</text>
</g>
<!-- IMPACTA -->
<g id="node23" class="node">
<title>IMPACTA</title>
<polygon fill="none" stroke="black" points="279,-297.8 201.93,-279.8 279,-261.8 356.07,-279.8 279,-297.8"/>
<text xml:space="preserve" text-anchor="middle" x="279" y="-275.6" font-family="Times,serif" font-size="14.00">IMPACTA</text>
</g>
<!-- Meta_Gastos&#45;&#45;IMPACTA -->
<g id="edge78" class="edge">
<title>Meta_Gastos--IMPACTA</title>
<path fill="none" stroke="black" d="M653.8,-402.95C616.37,-390.82 561.81,-373.11 514.18,-357.6 441.07,-333.8 355.22,-305.73 310.19,-291"/>
<text xml:space="preserve" text-anchor="middle" x="527.59" y="-345" font-family="Times,serif" font-size="14.00">(0,1)</text>
</g>
<!-- mg_id -->
<g id="node29" class="node">
<title>mg_id</title>
<ellipse fill="black" stroke="black" cx="441" cy="-279.8" rx="27" ry="18"/>
<text xml:space="preserve" text-anchor="middle" x="441" y="-275.6" font-family="Times,serif" font-size="14.00" fill="white">id</text>
</g>
<!-- Meta_Gastos&#45;&#45;mg_id -->
<g id="edge19" class="edge">
<title>Meta_Gastos--mg_id</title>
<path fill="none" stroke="black" d="M666.06,-400.14C612.13,-371.54 506.52,-315.54 461.8,-291.83"/>
</g>
<!-- mg_titulo -->
<g id="node51" class="node">
<title>mg_titulo</title>
<ellipse fill="white" stroke="black" cx="557" cy="-279.8" rx="31.43" ry="18"/>
<text xml:space="preserve" text-anchor="middle" x="557" y="-275.6" font-family="Times,serif" font-size="14.00">titulo</text>
</g>
<!-- Meta_Gastos&#45;&#45;mg_titulo -->
<g id="edge20" class="edge">
<title>Meta_Gastos--mg_titulo</title>
<path fill="none" stroke="black" d="M681.02,-400.27C652.95,-373.24 599.23,-321.48 572.66,-295.89"/>
</g>
<!-- mg_valor_alvo -->
<g id="node52" class="node">
<title>mg_valor_alvo</title>
<ellipse fill="white" stroke="black" cx="699" cy="-279.8" rx="52.33" ry="18"/>
<text xml:space="preserve" text-anchor="middle" x="699" y="-275.6" font-family="Times,serif" font-size="14.00">valor_alvo</text>
</g>
<!-- Meta_Gastos&#45;&#45;mg_valor_alvo -->
<g id="edge21" class="edge">
<title>Meta_Gastos--mg_valor_alvo</title>
<path fill="none" stroke="black" d="M699,-400.27C699,-373.96 699,-324.22 699,-297.99"/>
</g>
<!-- mg_valor_atual -->
<g id="node53" class="node">
<title>mg_valor_atual</title>
<ellipse fill="white" stroke="black" cx="864" cy="-279.8" rx="54.47" ry="18"/>
<text xml:space="preserve" text-anchor="middle" x="864" y="-275.6" font-family="Times,serif" font-size="14.00">valor_atual</text>
</g>
<!-- Meta_Gastos&#45;&#45;mg_valor_atual -->
<g id="edge22" class="edge">
<title>Meta_Gastos--mg_valor_atual</title>
<path fill="none" stroke="black" d="M719.9,-400.27C752.07,-373.6 813.28,-322.85 844.55,-296.92"/>
</g>
<!-- mg_status -->
<g id="node54" class="node">
<title>mg_status</title>
<ellipse fill="white" stroke="black" cx="1010" cy="-279.8" rx="33.03" ry="18"/>
<text xml:space="preserve" text-anchor="middle" x="1010" y="-275.6" font-family="Times,serif" font-size="14.00">status</text>
</g>
<!-- Meta_Gastos&#45;&#45;mg_status -->
<g id="edge23" class="edge">
<title>Meta_Gastos--mg_status</title>
<path fill="none" stroke="black" d="M738.7,-400.14C803.71,-371.54 931.02,-315.54 984.93,-291.83"/>
</g>
<!-- Limite_Gastos -->
<g id="node6" class="node">
<title>Limite_Gastos</title>
<polygon fill="none" stroke="black" points="1492.22,-436.6 1393.78,-436.6 1393.78,-400.6 1492.22,-400.6 1492.22,-436.6"/>
<text xml:space="preserve" text-anchor="middle" x="1443" y="-414.4" font-family="Times,serif" font-size="14.00">Limite_Gastos</text>
</g>
<!-- lg_id -->
<g id="node30" class="node">
<title>lg_id</title>
<ellipse fill="black" stroke="black" cx="1128" cy="-279.8" rx="27" ry="18"/>
<text xml:space="preserve" text-anchor="middle" x="1128" y="-275.6" font-family="Times,serif" font-size="14.00" fill="white">id</text>
</g>
<!-- Limite_Gastos&#45;&#45;lg_id -->
<g id="edge24" class="edge">
<title>Limite_Gastos--lg_id</title>
<path fill="none" stroke="black" d="M1402.79,-400.14C1335.61,-370.96 1202.77,-313.27 1150.19,-290.44"/>
</g>
<!-- lg_limite -->
<g id="node55" class="node">
<title>lg_limite</title>
<ellipse fill="white" stroke="black" cx="1271" cy="-279.8" rx="58.24" ry="18"/>
<text xml:space="preserve" text-anchor="middle" x="1271" y="-275.6" font-family="Times,serif" font-size="14.00">limite_valor</text>
</g>
<!-- Limite_Gastos&#45;&#45;lg_limite -->
<g id="edge25" class="edge">
<title>Limite_Gastos--lg_limite</title>
<path fill="none" stroke="black" d="M1421.22,-400.27C1387.68,-373.6 1323.87,-322.85 1291.27,-296.92"/>
</g>
<!-- lg_gasto -->
<g id="node56" class="node">
<title>lg_gasto</title>
<ellipse fill="white" stroke="black" cx="1443" cy="-279.8" rx="56.09" ry="18"/>
<text xml:space="preserve" text-anchor="middle" x="1443" y="-275.6" font-family="Times,serif" font-size="14.00">valor_gasto</text>
</g>
<!-- Limite_Gastos&#45;&#45;lg_gasto -->
<g id="edge26" class="edge">
<title>Limite_Gastos--lg_gasto</title>
<path fill="none" stroke="black" d="M1443,-400.27C1443,-373.96 1443,-324.22 1443,-297.99"/>
</g>
<!-- lg_status -->
<g id="node57" class="node">
<title>lg_status</title>
<ellipse fill="white" stroke="black" cx="1590" cy="-279.8" rx="33.03" ry="18"/>
<text xml:space="preserve" text-anchor="middle" x="1590" y="-275.6" font-family="Times,serif" font-size="14.00">status</text>
</g>
<!-- Limite_Gastos&#45;&#45;lg_status -->
<g id="edge27" class="edge">
<title>Limite_Gastos--lg_status</title>
<path fill="none" stroke="black" d="M1461.62,-400.27C1490.67,-373.24 1546.29,-321.48 1573.79,-295.89"/>
</g>
<!-- Orcamento -->
<g id="node7" class="node">
<title>Orcamento</title>
<polygon fill="none" stroke="black" points="2090.1,-436.6 2011.9,-436.6 2011.9,-400.6 2090.1,-400.6 2090.1,-436.6"/>
<text xml:space="preserve" text-anchor="middle" x="2051" y="-414.4" font-family="Times,serif" font-size="14.00">Orcamento</text>
</g>
<!-- o_id -->
<g id="node31" class="node">
<title>o_id</title>
<ellipse fill="black" stroke="black" cx="1708" cy="-279.8" rx="27" ry="18"/>
<text xml:space="preserve" text-anchor="middle" x="1708" y="-275.6" font-family="Times,serif" font-size="14.00" fill="white">id</text>
</g>
<!-- Orcamento&#45;&#45;o_id -->
<g id="edge28" class="edge">
<title>Orcamento--o_id</title>
<path fill="none" stroke="black" d="M2011.65,-401.91C1939.51,-373.13 1788.19,-312.78 1730.76,-289.88"/>
</g>
<!-- o_nome -->
<g id="node58" class="node">
<title>o_nome</title>
<ellipse fill="white" stroke="black" cx="1825" cy="-279.8" rx="32.49" ry="18"/>
<text xml:space="preserve" text-anchor="middle" x="1825" y="-275.6" font-family="Times,serif" font-size="14.00">nome</text>
</g>
<!-- Orcamento&#45;&#45;o_nome -->
<g id="edge29" class="edge">
<title>Orcamento--o_nome</title>
<path fill="none" stroke="black" d="M2022.38,-400.27C1976.41,-372.45 1887.17,-318.43 1846.33,-293.71"/>
</g>
<!-- o_valor_total -->
<g id="node59" class="node">
<title>o_valor_total</title>
<ellipse fill="white" stroke="black" cx="1968" cy="-279.8" rx="52.87" ry="18"/>
<text xml:space="preserve" text-anchor="middle" x="1968" y="-275.6" font-family="Times,serif" font-size="14.00">valor_total</text>
</g>
<!-- Orcamento&#45;&#45;o_valor_total -->
<g id="edge30" class="edge">
<title>Orcamento--o_valor_total</title>
<path fill="none" stroke="black" d="M2040.49,-400.27C2024.44,-373.82 1994.01,-323.67 1978.17,-297.56"/>
</g>
<!-- o_valor_gasto -->
<g id="node60" class="node">
<title>o_valor_gasto</title>
<ellipse fill="white" stroke="black" cx="2135" cy="-279.8" rx="56.09" ry="18"/>
<text xml:space="preserve" text-anchor="middle" x="2135" y="-275.6" font-family="Times,serif" font-size="14.00">valor_gasto</text>
</g>
<!-- Orcamento&#45;&#45;o_valor_gasto -->
<g id="edge31" class="edge">
<title>Orcamento--o_valor_gasto</title>
<path fill="none" stroke="black" d="M2061.64,-400.27C2077.88,-373.82 2108.68,-323.67 2124.71,-297.56"/>
</g>
<!-- o_periodo -->
<g id="node61" class="node">
<title>o_periodo</title>
<ellipse fill="white" stroke="black" cx="2290" cy="-279.8" rx="40.54" ry="18"/>
<text xml:space="preserve" text-anchor="middle" x="2290" y="-275.6" font-family="Times,serif" font-size="14.00">periodo</text>
</g>
<!-- Orcamento&#45;&#45;o_periodo -->
<g id="edge32" class="edge">
<title>Orcamento--o_periodo</title>
<path fill="none" stroke="black" d="M2081.27,-400.27C2129.25,-372.81 2221.83,-319.82 2265.74,-294.68"/>
</g>
<!-- Categoria_Personalizada -->
<g id="node8" class="node">
<title>Categoria_Personalizada</title>
<polygon fill="none" stroke="black" points="2900.58,-436.6 2745.42,-436.6 2745.42,-400.6 2900.58,-400.6 2900.58,-436.6"/>
<text xml:space="preserve" text-anchor="middle" x="2823" y="-414.4" font-family="Times,serif" font-size="14.00">Categoria_Personalizada</text>
</g>
<!-- ORGANIZA -->
<g id="node24" class="node">
<title>ORGANIZA</title>
<polygon fill="none" stroke="black" points="2475,-297.8 2388.08,-279.8 2475,-261.8 2561.92,-279.8 2475,-297.8"/>
<text xml:space="preserve" text-anchor="middle" x="2475" y="-275.6" font-family="Times,serif" font-size="14.00">ORGANIZA</text>
</g>
<!-- Categoria_Personalizada&#45;&#45;ORGANIZA -->
<g id="edge80" class="edge">
<title>Categoria_Personalizada--ORGANIZA</title>
<path fill="none" stroke="black" d="M2778.57,-400.14C2706.19,-371.68 2564.81,-316.1 2503.97,-292.19"/>
<text xml:space="preserve" text-anchor="middle" x="2683.25" y="-345" font-family="Times,serif" font-size="14.00">(0,1)</text>
</g>
<!-- cp_id -->
<g id="node32" class="node">
<title>cp_id</title>
<ellipse fill="black" stroke="black" cx="2647" cy="-279.8" rx="27" ry="18"/>
<text xml:space="preserve" text-anchor="middle" x="2647" y="-275.6" font-family="Times,serif" font-size="14.00" fill="white">id</text>
</g>
<!-- Categoria_Personalizada&#45;&#45;cp_id -->
<g id="edge33" class="edge">
<title>Categoria_Personalizada--cp_id</title>
<path fill="none" stroke="black" d="M2800.71,-400.27C2765.01,-372.52 2695.77,-318.71 2663.86,-293.9"/>
</g>
<!-- cp_nome -->
<g id="node62" class="node">
<title>cp_nome</title>
<ellipse fill="white" stroke="black" cx="2764" cy="-279.8" rx="32.49" ry="18"/>
<text xml:space="preserve" text-anchor="middle" x="2764" y="-275.6" font-family="Times,serif" font-size="14.00">nome</text>
</g>
<!-- Categoria_Personalizada&#45;&#45;cp_nome -->
<g id="edge34" class="edge">
<title>Categoria_Personalizada--cp_nome</title>
<path fill="none" stroke="black" d="M2815.53,-400.27C2804.12,-373.82 2782.49,-323.67 2771.23,-297.56"/>
</g>
<!-- cp_tipo -->
<g id="node63" class="node">
<title>cp_tipo</title>
<ellipse fill="white" stroke="black" cx="2881" cy="-279.8" rx="27" ry="18"/>
<text xml:space="preserve" text-anchor="middle" x="2881" y="-275.6" font-family="Times,serif" font-size="14.00">tipo</text>
</g>
<!-- Categoria_Personalizada&#45;&#45;cp_tipo -->
<g id="edge35" class="edge">
<title>Categoria_Personalizada--cp_tipo</title>
<path fill="none" stroke="black" d="M2830.35,-400.27C2841.56,-373.82 2862.82,-323.67 2873.9,-297.56"/>
</g>
<!-- cp_ativa -->
<g id="node64" class="node">
<title>cp_ativa</title>
<ellipse fill="white" stroke="black" cx="2996" cy="-279.8" rx="29.8" ry="18"/>
<text xml:space="preserve" text-anchor="middle" x="2996" y="-275.6" font-family="Times,serif" font-size="14.00">ativa</text>
</g>
<!-- Categoria_Personalizada&#45;&#45;cp_ativa -->
<g id="edge36" class="edge">
<title>Categoria_Personalizada--cp_ativa</title>
<path fill="none" stroke="black" d="M2844.91,-400.27C2879.64,-372.81 2946.65,-319.82 2978.44,-294.68"/>
</g>
<!-- Pontuacao_Usuario -->
<g id="node9" class="node">
<title>Pontuacao_Usuario</title>
<polygon fill="none" stroke="black" points="3502.82,-436.6 3377.18,-436.6 3377.18,-400.6 3502.82,-400.6 3502.82,-436.6"/>
<text xml:space="preserve" text-anchor="middle" x="3440" y="-414.4" font-family="Times,serif" font-size="14.00">Pontuacao_Usuario</text>
</g>
<!-- pu_id -->
<g id="node33" class="node">
<title>pu_id</title>
<ellipse fill="black" stroke="black" cx="3111" cy="-279.8" rx="27" ry="18"/>
<text xml:space="preserve" text-anchor="middle" x="3111" y="-275.6" font-family="Times,serif" font-size="14.00" fill="white">id</text>
</g>
<!-- Pontuacao_Usuario&#45;&#45;pu_id -->
<g id="edge37" class="edge">
<title>Pontuacao_Usuario--pu_id</title>
<path fill="none" stroke="black" d="M3398,-400.14C3327.49,-370.82 3187.73,-312.7 3133.36,-290.1"/>
</g>
<!-- pu_pontuacao -->
<g id="node65" class="node">
<title>pu_pontuacao</title>
<ellipse fill="white" stroke="black" cx="3269" cy="-279.8" rx="72.71" ry="18"/>
<text xml:space="preserve" text-anchor="middle" x="3269" y="-275.6" font-family="Times,serif" font-size="14.00">pontuacao_total</text>
</g>
<!-- Pontuacao_Usuario&#45;&#45;pu_pontuacao -->
<g id="edge38" class="edge">
<title>Pontuacao_Usuario--pu_pontuacao</title>
<path fill="none" stroke="black" d="M3418.34,-400.27C3385.18,-373.74 3322.25,-323.4 3289.68,-297.34"/>
</g>
<!-- pu_nivel -->
<g id="node66" class="node">
<title>pu_nivel</title>
<ellipse fill="white" stroke="black" cx="3430" cy="-279.8" rx="30.35" ry="18"/>
<text xml:space="preserve" text-anchor="middle" x="3430" y="-275.6" font-family="Times,serif" font-size="14.00">nivel</text>
</g>
<!-- Pontuacao_Usuario&#45;&#45;pu_nivel -->
<g id="edge39" class="edge">
<title>Pontuacao_Usuario--pu_nivel</title>
<path fill="none" stroke="black" d="M3438.73,-400.27C3436.81,-373.96 3433.17,-324.22 3431.26,-297.99"/>
</g>
<!-- pu_liga -->
<g id="node67" class="node">
<title>pu_liga</title>
<ellipse fill="white" stroke="black" cx="3545" cy="-279.8" rx="27" ry="18"/>
<text xml:space="preserve" text-anchor="middle" x="3545" y="-275.6" font-family="Times,serif" font-size="14.00">liga</text>
</g>
<!-- Pontuacao_Usuario&#45;&#45;pu_liga -->
<g id="edge40" class="edge">
<title>Pontuacao_Usuario--pu_liga</title>
<path fill="none" stroke="black" d="M3453.3,-400.27C3473.94,-373.38 3513.35,-322.03 3533.1,-296.3"/>
</g>
<!-- pu_ofensiva -->
<g id="node68" class="node">
<title>pu_ofensiva</title>
<ellipse fill="white" stroke="black" cx="3697" cy="-279.8" rx="67.35" ry="18"/>
<text xml:space="preserve" text-anchor="middle" x="3697" y="-275.6" font-family="Times,serif" font-size="14.00">ofensiva_atual</text>
</g>
<!-- Pontuacao_Usuario&#45;&#45;pu_ofensiva -->
<g id="edge41" class="edge">
<title>Pontuacao_Usuario--pu_ofensiva</title>
<path fill="none" stroke="black" d="M3472.81,-400.14C3523.42,-373.2 3619.72,-321.94 3667.95,-296.26"/>
</g>
<!-- Sessao_Whatsapp -->
<g id="node10" class="node">
<title>Sessao_Whatsapp</title>
<polygon fill="none" stroke="black" points="4034.54,-436.6 3917.46,-436.6 3917.46,-400.6 4034.54,-400.6 4034.54,-436.6"/>
<text xml:space="preserve" text-anchor="middle" x="3976" y="-414.4" font-family="Times,serif" font-size="14.00">Sessao_Whatsapp</text>
</g>
<!-- sw_id -->
<g id="node34" class="node">
<title>sw_id</title>
<ellipse fill="black" stroke="black" cx="3849" cy="-279.8" rx="27" ry="18"/>
<text xml:space="preserve" text-anchor="middle" x="3849" y="-275.6" font-family="Times,serif" font-size="14.00" fill="white">id</text>
</g>
<!-- Sessao_Whatsapp&#45;&#45;sw_id -->
<g id="edge42" class="edge">
<title>Sessao_Whatsapp--sw_id</title>
<path fill="none" stroke="black" d="M3959.92,-400.27C3934.69,-373.1 3886.25,-320.93 3862.63,-295.48"/>
</g>
<!-- sw_telefone -->
<g id="node69" class="node">
<title>sw_telefone</title>
<ellipse fill="white" stroke="black" cx="3976" cy="-279.8" rx="42.13" ry="18"/>
<text xml:space="preserve" text-anchor="middle" x="3976" y="-275.6" font-family="Times,serif" font-size="14.00">telefone</text>
</g>
<!-- Sessao_Whatsapp&#45;&#45;sw_telefone -->
<g id="edge43" class="edge">
<title>Sessao_Whatsapp--sw_telefone</title>
<path fill="none" stroke="black" d="M3976,-400.27C3976,-373.96 3976,-324.22 3976,-297.99"/>
</g>
<!-- sw_historico -->
<g id="node70" class="node">
<title>sw_historico</title>
<ellipse fill="white" stroke="black" cx="4160" cy="-279.8" rx="83.98" ry="18"/>
<text xml:space="preserve" text-anchor="middle" x="4160" y="-275.6" font-family="Times,serif" font-size="14.00">historico_conversa</text>
</g>
<!-- Sessao_Whatsapp&#45;&#45;sw_historico -->
<g id="edge44" class="edge">
<title>Sessao_Whatsapp--sw_historico</title>
<path fill="none" stroke="black" d="M3999.3,-400.27C4034.89,-373.82 4102.34,-323.67 4137.46,-297.56"/>
</g>
<!-- sw_expira -->
<g id="node71" class="node">
<title>sw_expira</title>
<ellipse fill="white" stroke="black" cx="4354" cy="-279.8" rx="51.79" ry="18"/>
<text xml:space="preserve" text-anchor="middle" x="4354" y="-275.6" font-family="Times,serif" font-size="14.00">expira_em</text>
</g>
<!-- Sessao_Whatsapp&#45;&#45;sw_expira -->
<g id="edge45" class="edge">
<title>Sessao_Whatsapp--sw_expira</title>
<path fill="none" stroke="black" d="M4024.26,-400.14C4101.48,-372.19 4251.03,-318.07 4318.93,-293.49"/>
</g>
<!-- Log_Notificacao -->
<g id="node11" class="node">
<title>Log_Notificacao</title>
<polygon fill="none" stroke="black" points="4763.42,-436.6 4652.58,-436.6 4652.58,-400.6 4763.42,-400.6 4763.42,-436.6"/>
<text xml:space="preserve" text-anchor="middle" x="4708" y="-414.4" font-family="Times,serif" font-size="14.00">Log_Notificacao</text>
</g>
<!-- ln_id -->
<g id="node35" class="node">
<title>ln_id</title>
<ellipse fill="black" stroke="black" cx="4491" cy="-279.8" rx="27" ry="18"/>
<text xml:space="preserve" text-anchor="middle" x="4491" y="-275.6" font-family="Times,serif" font-size="14.00" fill="white">id</text>
</g>
<!-- Log_Notificacao&#45;&#45;ln_id -->
<g id="edge46" class="edge">
<title>Log_Notificacao--ln_id</title>
<path fill="none" stroke="black" d="M4680.52,-400.27C4635.92,-372.16 4548.91,-317.31 4510.28,-292.95"/>
</g>
<!-- ln_tipo -->
<g id="node72" class="node">
<title>ln_tipo</title>
<ellipse fill="white" stroke="black" cx="4627" cy="-279.8" rx="51.27" ry="18"/>
<text xml:space="preserve" text-anchor="middle" x="4627" y="-275.6" font-family="Times,serif" font-size="14.00">tipo_aviso</text>
</g>
<!-- Log_Notificacao&#45;&#45;ln_tipo -->
<g id="edge47" class="edge">
<title>Log_Notificacao--ln_tipo</title>
<path fill="none" stroke="black" d="M4697.74,-400.27C4682.08,-373.82 4652.38,-323.67 4636.92,-297.56"/>
</g>
<!-- ln_mensagem -->
<g id="node73" class="node">
<title>ln_mensagem</title>
<ellipse fill="white" stroke="black" cx="4789" cy="-279.8" rx="52.33" ry="18"/>
<text xml:space="preserve" text-anchor="middle" x="4789" y="-275.6" font-family="Times,serif" font-size="14.00">mensagem</text>
</g>
<!-- Log_Notificacao&#45;&#45;ln_mensagem -->
<g id="edge48" class="edge">
<title>Log_Notificacao--ln_mensagem</title>
<path fill="none" stroke="black" d="M4718.26,-400.27C4733.92,-373.82 4763.62,-323.67 4779.08,-297.56"/>
</g>
<!-- ln_status -->
<g id="node74" class="node">
<title>ln_status</title>
<ellipse fill="white" stroke="black" cx="4932" cy="-279.8" rx="33.03" ry="18"/>
<text xml:space="preserve" text-anchor="middle" x="4932" y="-275.6" font-family="Times,serif" font-size="14.00">status</text>
</g>
<!-- Log_Notificacao&#45;&#45;ln_status -->
<g id="edge49" class="edge">
<title>Log_Notificacao--ln_status</title>
<path fill="none" stroke="black" d="M4736.37,-400.27C4781.81,-372.52 4869.93,-318.71 4910.54,-293.9"/>
</g>
<!-- ln_enviada -->
<g id="node75" class="node">
<title>ln_enviada</title>
<ellipse fill="white" stroke="black" cx="5081" cy="-279.8" rx="57.69" ry="18"/>
<text xml:space="preserve" text-anchor="middle" x="5081" y="-275.6" font-family="Times,serif" font-size="14.00">enviada_em</text>
</g>
<!-- Log_Notificacao&#45;&#45;ln_enviada -->
<g id="edge50" class="edge">
<title>Log_Notificacao--ln_enviada</title>
<path fill="none" stroke="black" d="M4755.62,-400.14C4831.13,-372.44 4976.73,-319.04 5044.57,-294.16"/>
</g>
<!-- Transacao -->
<g id="node12" class="node">
<title>Transacao</title>
<polygon fill="none" stroke="black" points="315.76,-159 242.24,-159 242.24,-123 315.76,-123 315.76,-159"/>
<text xml:space="preserve" text-anchor="middle" x="279" y="-136.8" font-family="Times,serif" font-size="14.00">Transacao</text>
</g>
<!-- t_id -->
<g id="node36" class="node">
<title>t_id</title>
<ellipse fill="black" stroke="black" cx="27" cy="-18" rx="27" ry="18"/>
<text xml:space="preserve" text-anchor="middle" x="27" y="-13.8" font-family="Times,serif" font-size="14.00" fill="white">id</text>
</g>
<!-- Transacao&#45;&#45;t_id -->
<g id="edge51" class="edge">
<title>Transacao--t_id</title>
<path fill="none" stroke="black" d="M242.63,-122.53C189.33,-96.95 91.68,-50.06 48.51,-29.33"/>
</g>
<!-- t_valor -->
<g id="node76" class="node">
<title>t_valor</title>
<ellipse fill="white" stroke="black" cx="143" cy="-18" rx="30.88" ry="18"/>
<text xml:space="preserve" text-anchor="middle" x="143" y="-13.8" font-family="Times,serif" font-size="14.00">valor</text>
</g>
<!-- Transacao&#45;&#45;t_valor -->
<g id="edge52" class="edge">
<title>Transacao--t_valor</title>
<path fill="none" stroke="black" d="M259.51,-122.66C232.63,-98.75 184.64,-56.05 159.46,-33.65"/>
</g>
<!-- t_descricao -->
<g id="node77" class="node">
<title>t_descricao</title>
<ellipse fill="white" stroke="black" cx="279" cy="-18" rx="47.5" ry="18"/>
<text xml:space="preserve" text-anchor="middle" x="279" y="-13.8" font-family="Times,serif" font-size="14.00">descricao</text>
</g>
<!-- Transacao&#45;&#45;t_descricao -->
<g id="edge53" class="edge">
<title>Transacao--t_descricao</title>
<path fill="none" stroke="black" d="M279,-122.66C279,-99.66 279,-59.29 279,-36.3"/>
</g>
<!-- t_tipo -->
<g id="node78" class="node">
<title>t_tipo</title>
<ellipse fill="white" stroke="black" cx="411" cy="-18" rx="27" ry="18"/>
<text xml:space="preserve" text-anchor="middle" x="411" y="-13.8" font-family="Times,serif" font-size="14.00">tipo</text>
</g>
<!-- Transacao&#45;&#45;t_tipo -->
<g id="edge54" class="edge">
<title>Transacao--t_tipo</title>
<path fill="none" stroke="black" d="M297.91,-122.66C324.29,-98.49 371.6,-55.12 395.82,-32.92"/>
</g>
<!-- t_data -->
<g id="node79" class="node">
<title>t_data</title>
<ellipse fill="white" stroke="black" cx="523" cy="-18" rx="27.12" ry="18"/>
<text xml:space="preserve" text-anchor="middle" x="523" y="-13.8" font-family="Times,serif" font-size="14.00">data</text>
</g>
<!-- Transacao&#45;&#45;t_data -->
<g id="edge55" class="edge">
<title>Transacao--t_data</title>
<path fill="none" stroke="black" d="M314.22,-122.53C365.69,-97.01 459.89,-50.3 501.85,-29.49"/>
</g>
<!-- REALIZA&#45;&#45;Transacao -->
<g id="edge59" class="edge">
<title>REALIZA--Transacao</title>
<path fill="none" stroke="black" d="M206.8,-481.25C187.51,-442.99 143.07,-340.8 173,-261.8 189.53,-218.17 230.02,-180.21 255.9,-159.27"/>
<text xml:space="preserve" text-anchor="middle" x="178.92" y="-345" font-family="Times,serif" font-size="14.00">(0,n)</text>
</g>
<!-- DEFINE_META&#45;&#45;Meta_Gastos -->
<g id="edge61" class="edge">
<title>DEFINE_META--Meta_Gastos</title>
<path fill="none" stroke="black" d="M1962.31,-568.34C1734.33,-541.5 942.37,-448.25 744.22,-424.92"/>
<text xml:space="preserve" text-anchor="middle" x="1493.59" y="-493.4" font-family="Times,serif" font-size="14.00">(0,n)</text>
</g>
<!-- DEFINE_LIMITE&#45;&#45;Limite_Gastos -->
<g id="edge63" class="edge">
<title>DEFINE_LIMITE--Limite_Gastos</title>
<path fill="none" stroke="black" d="M2517.23,-567.38C2317.61,-539.92 1676.18,-451.68 1492.55,-426.42"/>
<text xml:space="preserve" text-anchor="middle" x="2124.98" y="-493.4" font-family="Times,serif" font-size="14.00">(0,n)</text>
</g>
<!-- CRIA_ORC&#45;&#45;Orcamento -->
<g id="edge65" class="edge">
<title>CRIA_ORC--Orcamento</title>
<path fill="none" stroke="black" d="M2923.79,-567.92C2765.72,-541.06 2239.37,-451.61 2090.52,-426.32"/>
<text xml:space="preserve" text-anchor="middle" x="2605.64" y="-493.4" font-family="Times,serif" font-size="14.00">(0,n)</text>
</g>
<!-- CRIA_CAT&#45;&#45;Categoria_Personalizada -->
<g id="edge67" class="edge">
<title>CRIA_CAT--Categoria_Personalizada</title>
<path fill="none" stroke="black" d="M3229.62,-564.75C3155.1,-538.15 2962.73,-469.48 2871.89,-437.05"/>
<text xml:space="preserve" text-anchor="middle" x="3094.05" y="-493.4" font-family="Times,serif" font-size="14.00">(0,n)</text>
</g>
<!-- POSSUI&#45;&#45;Pontuacao_Usuario -->
<g id="edge69" class="edge">
<title>POSSUI--Pontuacao_Usuario</title>
<path fill="none" stroke="black" d="M3491.22,-559.78C3480.47,-530.35 3457.46,-467.39 3446.31,-436.88"/>
<text xml:space="preserve" text-anchor="middle" x="3487.02" y="-493.4" font-family="Times,serif" font-size="14.00">(1,1)</text>
</g>
<!-- CONVERSA_VIA&#45;&#45;Sessao_Whatsapp -->
<g id="edge71" class="edge">
<title>CONVERSA_VIA--Sessao_Whatsapp</title>
<path fill="none" stroke="black" d="M3768.64,-561.48C3810.4,-532.91 3904.83,-468.29 3950.42,-437.1"/>
<text xml:space="preserve" text-anchor="middle" x="3895.83" y="-493.4" font-family="Times,serif" font-size="14.00">(0,n)</text>
</g>
<!-- RECEBE_AVISO&#45;&#45;Log_Notificacao -->
<g id="edge73" class="edge">
<title>RECEBE_AVISO--Log_Notificacao</title>
<path fill="none" stroke="black" d="M4087.92,-565.06C4205.66,-537.44 4522.94,-463.01 4652.12,-432.71"/>
<text xml:space="preserve" text-anchor="middle" x="4448.47" y="-493.4" font-family="Times,serif" font-size="14.00">(0,n)</text>
</g>
<!-- DESBLOQUEIA&#45;&#45;Conquista -->
<g id="edge75" class="edge">
<title>DESBLOQUEIA--Conquista</title>
<path fill="none" stroke="black" d="M4382.68,-566.82C4556.31,-538.43 5099.95,-449.53 5246.37,-425.59"/>
<text xml:space="preserve" text-anchor="middle" x="4904.86" y="-493.4" font-family="Times,serif" font-size="14.00">(0,n)</text>
</g>
<!-- rel_obtida_em -->
<g id="node80" class="node">
<title>rel_obtida_em</title>
<ellipse fill="white" stroke="black" cx="5429" cy="-418.6" rx="51.8" ry="18"/>
<text xml:space="preserve" text-anchor="middle" x="5429" y="-414.4" font-family="Times,serif" font-size="14.00">obtida_em</text>
</g>
<!-- DESBLOQUEIA&#45;&#45;rel_obtida_em -->
<g id="edge56" class="edge">
<title>DESBLOQUEIA--rel_obtida_em</title>
<path fill="none" stroke="black" d="M4389.25,-567.91C4413.95,-564.85 4442.83,-561.4 4469,-558.6 4674.49,-536.59 4727.36,-544.47 4932,-515.6 5118.35,-489.31 5163.46,-473.48 5348,-436.6 5360.26,-434.15 5373.54,-431.4 5385.73,-428.84"/>
</g>
<!-- GANHA&#45;&#45;Emblema -->
<g id="edge77" class="edge">
<title>GANHA--Emblema</title>
<path fill="none" stroke="black" d="M4599.5,-568.32C4616.86,-565.03 4637.95,-561.29 4657,-558.6 4844.12,-532.21 4892.32,-537.63 5080,-515.6 5344,-484.61 5661.33,-439.68 5765.79,-424.68"/>
<text xml:space="preserve" text-anchor="middle" x="5371.15" y="-493.4" font-family="Times,serif" font-size="14.00">(0,n)</text>
</g>
<!-- rel_ganho_em -->
<g id="node81" class="node">
<title>rel_ganho_em</title>
<ellipse fill="white" stroke="black" cx="5945" cy="-418.6" rx="50.72" ry="18"/>
<text xml:space="preserve" text-anchor="middle" x="5945" y="-414.4" font-family="Times,serif" font-size="14.00">ganha_em</text>
</g>
<!-- GANHA&#45;&#45;rel_ganho_em -->
<g id="edge57" class="edge">
<title>GANHA--rel_ganho_em</title>
<path fill="none" stroke="black" d="M4598.56,-568.12C4616.08,-564.7 4637.57,-560.91 4657,-558.6 4985.02,-519.58 5070.77,-552.82 5399,-515.6 5588.35,-494.13 5811.42,-448.44 5902.78,-428.84"/>
</g>
<!-- IMPACTA&#45;&#45;Transacao -->
<g id="edge79" class="edge">
<title>IMPACTA--Transacao</title>
<path fill="none" stroke="black" d="M279,-261.47C279,-235.16 279,-185.42 279,-159.19"/>
<text xml:space="preserve" text-anchor="middle" x="292.41" y="-206.2" font-family="Times,serif" font-size="14.00">(0,n)</text>
</g>
<!-- ORGANIZA&#45;&#45;Transacao -->
<g id="edge81" class="edge">
<title>ORGANIZA--Transacao</title>
<path fill="none" stroke="black" d="M2428.4,-270.95C2407.53,-267.68 2382.59,-264.11 2360,-261.8 1535.61,-177.31 520.92,-148.12 316.05,-142.9"/>
<text xml:space="preserve" text-anchor="middle" x="1860.79" y="-206.2" font-family="Times,serif" font-size="14.00">(0,n)</text>
</g>
</g>
</svg>